<svg width="560" height="318" viewBox="0 0 560 318" fill="none" xmlns="http://www.w3.org/2000/svg">
<rect x="0.5" y="0.5" width="559" height="317" rx="7.5" fill="white"/>
<path d="M240 44H320C325.5 44 330 48.5 330 54V114C330 119.5 325.5 124 320 124H240C234.5 124 230 119.5 230 114V54C230 48.5 234.5 44 240 44Z" stroke="black" stroke-width="8" stroke-linecap="round" stroke-linejoin="round"/>
<path d="M330 54L280 89L230 54" stroke="black" stroke-width="8" stroke-linecap="round" stroke-linejoin="round"/>
<path d="M29.36 271H85.76V253.72H69.68V181.6H53.96C47.72 185.56 41.48 187.96 31.88 189.76V202.96H48.32V253.72H29.36V271Z" fill="#FFCB66"/>
<path d="M141.392 177.688V181.56H148.688C148.784 182.648 148.912 183.8 149.136 185.016L147.184 184.664C145.424 193.08 141.616 199.256 134.96 202.616C135.952 203.352 137.744 204.92 138.448 205.72C144.016 202.392 147.856 197.08 150.256 189.912C152.016 195.64 155.408 201.688 162.032 205.688C162.704 204.696 164.272 203.032 165.104 202.36C153.328 195.416 152.464 183.736 152.464 177.688H141.392ZM174.064 176.024C172.464 180.568 169.68 185.112 166.768 187.992C167.44 188.952 168.528 191.128 168.88 192.056C169.52 191.352 170.192 190.552 170.864 189.752V205.752H174.704V183.832C175.888 181.688 176.944 179.416 177.776 177.176L174.064 176.024ZM188.784 201.176V194.744H195.696V191.16H188.784V185.528H196.592V181.912H186.192L189.488 180.728C189.04 179.352 187.92 177.272 186.96 175.768L183.44 176.952C184.368 178.52 185.328 180.568 185.712 181.912H177.104V185.528H184.912V191.16H178.16V194.744H184.912V201.176H176.4V204.792H197.04V201.176H188.784ZM206.544 181.24V186.872H203.6V181.24H206.544ZM203.6 196.216V190.2H206.544V196.216H203.6ZM210.096 177.848H200.08V202.424H203.6V199.608H210.096V177.848ZM211.952 196.92C213.264 198.584 214.896 200.92 215.632 202.296L218.96 200.344C218.16 198.936 216.432 196.76 215.12 195.224L211.952 196.92ZM228.816 182.648V179.32H221.616V175.896H217.872V179.32H210.672V182.648H217.872V185.688H211.696V188.984H221.904V191.48H210.704V194.776H221.904V201.656C221.904 202.104 221.744 202.232 221.232 202.232C220.752 202.232 218.992 202.232 217.456 202.168C217.936 203.192 218.512 204.696 218.64 205.752C221.008 205.752 222.768 205.656 223.984 205.112C225.264 204.536 225.616 203.576 225.616 201.752V194.776H228.688V191.48H225.616V188.984H227.952V185.688H221.616V182.648H228.816ZM243.312 197.848C247.28 196.696 249.616 193.72 249.616 190.104C249.616 187.416 248.432 185.72 246.16 185.72C244.464 185.72 243.024 186.808 243.024 188.6C243.024 190.424 244.464 191.448 246.064 191.448C246.192 191.448 246.32 191.448 246.416 191.416C246.224 193.112 244.784 194.488 242.288 195.288L243.312 197.848ZM286.768 191.864V200.248H280.016V190.2H289.744V178.584H285.52V186.52H280.016V175.896H275.792V186.52H270.512V178.584H266.48V190.2H275.792V200.248H269.072V191.896H264.784V204.024H286.768V205.752H291.056V191.864H286.768ZM321.392 177.912H298.832V181.688H321.392V177.912ZM300.4 191.96C299.248 195.288 297.072 198.68 294.768 200.76C295.76 201.304 297.488 202.424 298.32 203.128C300.592 200.696 303.056 196.856 304.496 193.048L300.4 191.96ZM324.336 189.56V185.752H295.888V189.56H307.856V205.752H311.888V189.56H324.336ZM315.888 193.272C317.968 196.312 320.176 200.408 320.912 203.032L324.912 201.24C324.016 198.52 321.648 194.616 319.536 191.704L315.888 193.272ZM352.016 187.288H344.88V185.272H352.016V187.288ZM352.016 191.928H344.88V189.88H352.016V191.928ZM352.016 196.6H344.88V194.552H352.016V196.6ZM338.992 195.448C339.696 193.56 340.56 190.552 341.232 187.896L338.928 187.384L338.416 187.48H336.88L337.712 186.296C337.2 185.816 336.56 185.304 335.792 184.792C337.456 183.096 339.12 180.888 340.336 178.936V180.344H346.416C346.32 181.048 346.224 181.752 346.096 182.456H341.424V199.384H355.664V182.456H349.904C350.128 181.784 350.352 181.08 350.576 180.344H356.592V177.144H340.336V178.616L338.16 177.016L337.488 177.24H327.696V180.536H335.12C334.512 181.464 333.776 182.36 333.072 183.128C332.08 182.584 331.056 182.072 330.128 181.656L328.24 184.12C330.032 185.016 332.144 186.264 333.776 187.48H326.928V190.84H331.664V201.624C331.664 201.976 331.536 202.072 331.088 202.104C330.672 202.104 329.168 202.104 327.792 202.072C328.304 203.096 328.816 204.632 328.944 205.72C331.088 205.72 332.688 205.624 333.872 205.048C335.056 204.472 335.344 203.48 335.344 201.688V190.84H337.264C336.912 192.344 336.528 193.816 336.176 194.872L338.992 195.448ZM344.528 199.416C343.152 200.824 340.336 202.52 337.84 203.384C338.672 204.056 339.792 205.144 340.4 205.88C342.864 204.92 345.872 203.128 347.632 201.432L344.528 199.416ZM349.168 201.528C350.96 202.808 353.328 204.664 354.416 205.88L357.424 203.736C356.176 202.52 353.744 200.792 351.984 199.64L349.168 201.528ZM373.264 194.712C372.912 192.952 371.984 190.072 371.12 187.896L368.176 188.664C368.432 189.4 368.72 190.2 368.944 191.032L365.36 191.544C367.888 188.888 370.416 185.784 372.368 182.648L369.232 180.536C368.464 181.912 367.6 183.32 366.736 184.568L364.08 184.76C365.84 182.552 367.568 179.864 368.944 177.24L365.488 175.768C364.144 179.16 361.84 182.616 361.104 183.512C360.368 184.44 359.76 185.048 359.12 185.208C359.536 186.136 360.112 187.832 360.272 188.536C360.784 188.312 361.52 188.12 364.336 187.768C363.312 189.048 362.448 189.976 361.968 190.424C360.848 191.608 360.08 192.248 359.216 192.44C359.632 193.432 360.208 195.192 360.4 195.896C361.2 195.512 362.448 195.16 369.744 194.04C369.904 194.648 370 195.16 370.064 195.64L373.264 194.712ZM361.104 196.92C360.72 199.448 359.984 202.328 359.088 204.152C359.984 204.376 361.552 204.856 362.32 205.272C363.088 203.352 363.952 200.312 364.368 197.592L361.104 196.92ZM365.04 197.4C365.488 199.672 365.904 202.648 365.968 204.6L369.136 203.768C368.976 201.784 368.528 198.904 368.016 196.632L365.04 197.4ZM368.912 196.792C369.648 198.68 370.48 201.208 370.8 202.84L373.68 201.72C373.328 200.12 372.464 197.72 371.664 195.832L368.912 196.792ZM382.576 195.352C381.52 193.4 378.992 190.616 376.848 188.664L374.288 190.616C376.432 192.664 378.8 195.576 379.76 197.56L382.576 195.352ZM378.032 181.592C378.608 179.992 379.088 178.328 379.472 176.664L375.728 175.928C374.832 180.216 373.136 184.632 370.928 187.32C371.856 187.8 373.52 188.888 374.192 189.464C375.056 188.28 375.856 186.808 376.624 185.208H384.176C383.888 195.928 383.536 200.472 382.64 201.432C382.288 201.848 381.904 201.976 381.296 201.944C380.464 201.944 378.704 201.944 376.752 201.784C377.424 202.872 377.936 204.536 378 205.592C379.856 205.688 381.84 205.72 382.992 205.496C384.336 205.304 385.232 204.92 386.128 203.736C387.344 202.072 387.728 197.176 388.08 183.384C388.08 182.936 388.112 181.592 388.112 181.592H378.032ZM415.12 186.104C414.352 188.696 413.296 191.064 412.048 193.208C411.504 190.648 411.056 187.64 410.768 184.44H420.656V180.664H417.328L418.864 179.032C417.744 177.976 415.408 176.504 413.648 175.608L411.344 177.88C412.656 178.68 414.256 179.704 415.44 180.664H410.544C410.48 179.096 410.448 177.528 410.48 175.928H406.48C406.48 177.528 406.544 179.096 406.608 180.664H393.552V190.008C393.552 194.168 393.328 199.736 390.896 203.576C391.76 204.024 393.456 205.432 394.128 206.168C396.752 202.264 397.424 196.024 397.552 191.352H401.712C401.616 195.384 401.488 196.92 401.168 197.368C400.912 197.688 400.656 197.752 400.208 197.752C399.696 197.752 398.608 197.72 397.456 197.624C398.032 198.584 398.448 200.056 398.512 201.176C399.984 201.208 401.36 201.208 402.192 201.08C403.152 200.92 403.792 200.632 404.4 199.8C405.136 198.872 405.328 196.024 405.424 189.304C405.424 188.856 405.456 187.864 405.456 187.864H397.552V184.44H406.832C407.248 189.24 407.952 193.72 409.04 197.336C407.184 199.416 404.976 201.176 402.512 202.52C403.312 203.256 404.688 204.824 405.264 205.656C407.248 204.44 409.04 203 410.672 201.304C412.08 203.928 413.84 205.528 416.08 205.528C419.056 205.528 420.336 204.12 420.944 198.2C419.92 197.784 418.576 196.952 417.712 196.056C417.552 200.056 417.168 201.656 416.4 201.656C415.376 201.656 414.352 200.312 413.424 198.008C415.728 194.904 417.616 191.192 418.928 187.032L415.12 186.104ZM435.696 193.272C434.224 193.656 432.752 194.04 431.28 194.424V182.936H435.376V179.352H423.344V182.936H427.504V195.352C425.808 195.8 424.208 196.152 422.896 196.44L423.824 200.376C427.344 199.416 431.952 198.136 436.176 196.888L435.696 193.272ZM444.144 182.68C444.176 180.696 444.208 178.584 444.208 176.44H440.336C440.336 178.616 440.336 180.728 440.304 182.68H435.824V186.328H440.144C439.728 193.656 438.096 199.224 431.888 202.744C432.816 203.448 434 204.824 434.576 205.816C441.584 201.624 443.44 194.872 443.984 186.328H448.272C447.984 196.312 447.632 200.344 446.832 201.208C446.48 201.656 446.16 201.752 445.584 201.752C444.848 201.752 443.28 201.752 441.616 201.624C442.256 202.68 442.704 204.28 442.768 205.368C444.56 205.432 446.288 205.432 447.376 205.272C448.592 205.08 449.392 204.728 450.192 203.576C451.344 202.04 451.696 197.368 452.08 184.44C452.112 183.96 452.112 182.68 452.112 182.68H444.144ZM467.024 181.176H461.392L463.344 180.024C462.896 178.84 461.968 177.08 461.2 175.768L458.48 177.144C459.152 178.36 459.952 179.96 460.368 181.176H455.28V184.184H467.024V181.176ZM465.872 188.504V185.624H456.592V188.504H465.872ZM462.928 197.368V200.952H459.536V197.368H462.928ZM465.936 194.328H456.624V205.368H459.536V204.024H465.936V194.328ZM456.592 192.792H465.936V189.912H456.592V192.792ZM467.44 177.528V181.144H470.576V189.592H466.992V193.144H470.576V205.752H474.128V193.144H477.2V189.592H474.128V181.144H478C477.968 193.048 478 204.12 481.04 205.4C483.024 206.232 484.656 205.24 485.136 200.568C484.592 199.992 483.664 198.488 483.152 197.496C483.056 199.544 482.896 201.624 482.736 201.56C481.552 201.176 481.52 188.056 481.808 177.528H467.44ZM495.536 190.008H508.176V191.512H495.536V190.008ZM495.536 185.816H508.176V187.288H495.536V185.816ZM495.536 181.624H508.176V183.096H495.536V181.624ZM499.248 195.384C500.72 196.888 502.416 199.032 503.056 200.44L506.192 198.616C505.52 197.368 504.176 195.704 502.832 194.392H512.048V178.712H503.28C503.696 177.944 504.208 177.112 504.656 176.152L500.048 175.576C499.888 176.504 499.536 177.656 499.216 178.712H491.856V194.392H501.04L499.248 195.384ZM490.576 204.248C491.6 202.36 492.688 199.448 493.488 197.24L490.096 195.832C489.392 198.04 488.176 200.728 487.056 202.552L490.576 204.248ZM500.112 201.784C498.288 201.784 497.968 201.688 497.968 200.728V196.344H494.096V200.76C494.096 204.184 495.28 205.24 499.76 205.24H505.84C509.424 205.24 510.544 204.152 510.992 199.672C509.968 199.48 508.336 198.936 507.536 198.328C507.344 201.368 507.088 201.784 505.552 201.784H500.112ZM509.712 196.632C511.12 198.84 512.528 201.752 512.976 203.608L516.624 202.072C516.08 200.12 514.544 197.336 513.072 195.224L509.712 196.632Z" fill="#332200"/>
<path d="M137.68 230.584V231.768H141.616C141.648 232.376 141.712 233.08 141.824 233.816L141.12 233.704C140.144 238.184 138.176 241.4 134.64 243.24C134.96 243.448 135.488 243.944 135.712 244.184C138.896 242.312 140.912 239.4 142.096 235.256C142.816 238.28 144.512 241.784 148.448 244.168C148.656 243.88 149.136 243.368 149.408 243.176C143.136 239.448 142.768 233.416 142.768 230.584H137.68ZM161.232 232.136C160.992 231.448 160.384 230.36 159.84 229.544L158.768 229.944C159.296 230.76 159.872 231.896 160.08 232.584L161.232 232.136ZM154.592 229.672C153.696 232.104 152.224 234.488 150.64 236.024C150.864 236.296 151.216 236.936 151.328 237.192C151.872 236.648 152.416 236.008 152.912 235.304V244.2H154.096V233.448C154.72 232.344 155.296 231.192 155.728 230.024L154.592 229.672ZM160.848 242.552V238.504H164.624V237.368H160.848V233.864H165.104V232.728H155.456V233.864H159.664V237.368H155.984V238.504H159.664V242.552H155.04V243.688H165.328V242.552H160.848ZM173.456 239.416V240.696H169.616V239.416H173.456ZM178.624 240.696H174.592V239.416H178.624V240.696ZM174.592 242.872V241.56H178.624V242.872H174.592ZM169.616 242.872V241.56H173.456V242.872H169.616ZM168.464 244.248H169.616V243.8H178.624V244.216H179.792V238.504H168.464V244.248ZM177.056 236.664H171.04V235.144H177.056V236.664ZM169.936 234.248V237.576H178.224V234.248H169.936ZM177.968 232.056C178.432 231.528 178.976 230.824 179.424 230.168L178.224 229.752C177.888 230.392 177.28 231.304 176.8 231.88L177.248 232.056H174.56V229.608H173.376V232.056H170.544L171.136 231.784C170.848 231.24 170.272 230.424 169.728 229.816L168.704 230.248C169.136 230.776 169.616 231.512 169.92 232.056H167.376V235.336H168.512V233.08H179.616V235.336H180.768V232.056H177.968ZM186.08 241.832V237.368H194.016V241.832H186.08ZM194.016 231.88V236.2H186.08V231.88H194.016ZM184.88 230.712V244.04H186.08V243H194.016V243.976H195.264V230.712H184.88ZM202.496 231.752C202.336 231.192 201.984 230.312 201.648 229.656L200.656 229.96C200.96 230.632 201.312 231.544 201.456 232.12L202.496 231.752ZM202.704 239.64V242.312H200.256V239.64H202.704ZM203.76 238.664H199.216V244.024H200.256V243.288H203.76V238.664ZM199.152 237.416H203.808V236.472H199.152V237.416ZM203.792 234.312H199.136V235.256H203.792V234.312ZM198.768 233.272H204.256V232.296H198.768V233.272ZM206.416 240.776C206.448 240.36 206.464 239.96 206.464 239.592H211.264V240.776H206.416ZM211.264 237.56V238.744H206.464V237.56H211.264ZM212.384 236.616H205.376V239.56C205.376 240.824 205.264 242.44 204.32 243.64C204.56 243.768 204.976 244.2 205.152 244.424C205.808 243.64 206.128 242.632 206.304 241.624H211.264V242.984C211.264 243.16 211.216 243.224 211.008 243.224C210.816 243.24 210.16 243.24 209.44 243.208C209.6 243.496 209.728 243.896 209.776 244.2C210.784 244.2 211.44 244.2 211.84 244.024C212.272 243.848 212.384 243.56 212.384 242.984V236.616ZM209.376 234.76V233.672H212.848V232.808H209.376V231.832H213.152V230.92H209.376V229.624H208.208V230.92H204.608V231.832H208.208V232.808H205.008V233.672H208.208V234.76H204.432V235.672H213.312V234.76H209.376ZM227.52 232.152C227.264 232.728 226.976 233.304 226.752 233.72L227.76 233.928C228.16 233.288 228.64 232.2 229.056 231.288L228.24 231.064L228.048 231.112H222.064C222.256 230.712 222.432 230.312 222.592 229.912L221.488 229.64C220.96 231.144 220.032 232.6 218.944 233.544C219.2 233.72 219.648 234.088 219.84 234.296C220.432 233.72 221.008 232.984 221.504 232.152H227.52ZM225.872 234.424C226.656 235.416 227.472 236.776 227.824 237.672L228.848 237.128C228.48 236.264 227.648 234.936 226.832 233.976L225.872 234.424ZM223.872 241.048C223.424 240.264 222.416 239.128 221.536 238.312L220.624 238.824C221.488 239.672 222.48 240.872 222.88 241.64L223.872 241.048ZM221.472 234.008C221.04 235.112 220.304 236.232 219.472 236.984C219.728 237.128 220.16 237.464 220.368 237.656C221.2 236.84 222.032 235.576 222.56 234.312L221.472 234.008ZM224.976 232.744H223.84V238.632H224.976V232.744ZM215.936 243.576C216.528 242.6 217.088 241.096 217.504 240.056L216.432 239.608C216.08 240.664 215.456 242.12 214.816 243.064L215.936 243.576ZM218.432 229.576C217.52 231.352 216.08 233.112 214.608 234.216C214.848 234.44 215.232 234.92 215.392 235.144C215.904 234.712 216.432 234.2 216.928 233.64V238.696H218.08V232.216C218.608 231.48 219.104 230.712 219.488 229.928L218.432 229.576ZM220.656 242.824C219.6 242.824 219.408 242.744 219.408 242.28V239.528H218.224V242.296C218.224 243.592 218.72 243.928 220.608 243.928H224.416C226 243.928 226.384 243.432 226.544 241.416C226.208 241.352 225.712 241.176 225.44 240.968C225.36 242.584 225.216 242.824 224.336 242.824H220.656ZM226.256 239.736C226.976 240.872 227.712 242.408 227.936 243.384L229.072 242.92C228.8 241.944 228.048 240.472 227.296 239.336L226.256 239.736ZM235.36 236.888L233.824 237.368V233.928H235.376V232.824H233.824V229.624H232.72V232.824H230.736V233.928H232.72V237.72C231.92 237.96 231.184 238.184 230.592 238.344L230.752 239.512C231.36 239.336 232.016 239.128 232.72 238.888V242.696C232.72 242.92 232.64 242.984 232.432 242.984C232.24 243 231.584 243 230.864 242.984C231.008 243.304 231.168 243.768 231.216 244.088C232.256 244.088 232.88 244.056 233.264 243.864C233.664 243.672 233.824 243.352 233.824 242.696V238.536C234.384 238.344 234.96 238.152 235.52 237.96L235.36 236.888ZM238.368 241.208C238.928 240.84 239.36 240.392 239.568 239.768H240.72V240.072C240.72 240.888 240.88 241.192 241.664 241.192L238.368 241.208ZM241.36 242.696H239.168V241.848H241.36V242.696ZM236.88 239.768H238.672C238.384 240.408 237.744 240.792 236.88 241.048V239.768ZM244.832 238.968H235.84V244.168H236.88V241.192C237.056 241.352 237.248 241.56 237.328 241.688C237.664 241.576 237.968 241.448 238.256 241.272V243.832H239.168V243.336H242.288V241.192H242.768C243.024 241.192 243.328 241.192 243.472 241.128C243.472 240.936 243.44 240.648 243.424 240.424C243.216 240.488 242.928 240.488 242.752 240.488H241.744C241.552 240.488 241.52 240.408 241.52 240.088V239.768H243.776V243.144C243.776 243.304 243.744 243.352 243.568 243.352C243.408 243.368 242.944 243.368 242.352 243.336C242.464 243.608 242.592 243.928 242.64 244.2C243.472 244.2 244.032 244.184 244.368 244.04C244.736 243.88 244.832 243.656 244.832 243.16V238.968ZM237.424 236.872H240.08V237.624H237.424V236.872ZM240.08 234.904H237.424V234.232H240.08V234.904ZM240.08 236.232H237.424V235.544H240.08V236.232ZM241.168 237.624V236.872H244.256V236.232H241.168V235.544H244.256V234.904H241.168V234.232H244.64V233.496H241.248C241.104 233.192 240.912 232.776 240.736 232.472L239.792 232.728C239.92 232.968 240.032 233.24 240.144 233.496H237.76C237.936 233.176 238.112 232.84 238.272 232.52L238.048 232.456H243.488V233.016H244.576V230.072H243.488V231.608H240.88V229.624H239.744V231.608H237.072V230.072H236.048V232.456H237.248C236.704 233.56 235.808 234.616 234.864 235.32C235.072 235.512 235.392 235.912 235.52 236.104C235.808 235.88 236.08 235.624 236.352 235.336V238.632H237.424V238.312H245.136V237.624H241.168ZM255.008 232.52V234.152H253.024V232.52H255.008ZM251.968 232.52V235.08H256.096V232.52H257.504V233.72C257.504 234.808 257.744 235.224 258.816 235.224H260.208C260.544 235.224 260.88 235.208 261.088 235.16C261.04 234.904 261.008 234.504 260.992 234.232C260.784 234.28 260.416 234.296 260.176 234.296H258.912C258.64 234.296 258.592 234.168 258.592 233.736V232.52H261.04V231.544H258.592V229.816H257.504V231.544H256.096V229.864H255.008V231.544H253.024V229.864H251.968V231.544H250.624V229.848H249.52V231.544H246.992V232.52H249.472C249.344 233.352 248.848 234.312 247.104 234.872C247.328 235.08 247.632 235.432 247.776 235.672C249.824 234.872 250.448 233.656 250.592 232.52H251.968ZM259.28 238.488H254.544V237.16H253.376V238.488H248.864V243.288H250.032V239.464H253.376V244.2H254.544V239.464H258.112V242.024C258.112 242.2 258.048 242.264 257.808 242.28C257.584 242.28 256.752 242.28 255.856 242.264C256.016 242.568 256.176 242.968 256.24 243.288C257.44 243.288 258.192 243.288 258.688 243.112C259.152 242.936 259.28 242.632 259.28 242.024V238.488ZM247.296 238.92H248.416V236.856H259.664V238.92H260.816V235.864H247.296V238.92ZM264.288 231.72H275.696V233.08H276.832V230.728H270.944C270.768 230.344 270.512 229.864 270.224 229.512L269.024 229.72C269.216 230.024 269.44 230.392 269.6 230.728H263.2V233.08H264.288V231.72ZM269.472 237.496H263.872V240.104C263.872 241.224 263.792 242.68 263.072 243.768C263.312 243.896 263.696 244.2 263.872 244.392C264.688 243.16 264.848 241.416 264.848 240.12V238.28H268.384V240.776C267.04 241.192 265.728 241.592 264.768 241.816L265.152 242.664C266.096 242.328 267.232 241.928 268.384 241.496V243.112C268.384 243.272 268.336 243.32 268.144 243.336C267.984 243.352 267.424 243.352 266.8 243.32C266.928 243.576 267.072 243.928 267.12 244.2C268 244.216 268.608 244.2 268.976 244.056C269.36 243.896 269.472 243.656 269.472 243.112V237.496ZM265.136 239.544C265.968 239.768 267.072 240.152 267.664 240.392L268.016 239.704C267.408 239.464 266.32 239.128 265.472 238.904L265.136 239.544ZM267.968 234.312C267.84 234.744 267.6 235.352 267.408 235.8H265.776C265.696 235.4 265.488 234.792 265.264 234.312H267.968ZM268.416 234.312H270.112V233.432H267.472C267.312 233.064 267.056 232.616 266.816 232.28L265.84 232.472C266.032 232.76 266.208 233.096 266.368 233.432H263.248V234.312H264.784L264.272 234.408C264.448 234.84 264.64 235.384 264.72 235.8H262.912V236.712H270.384V235.8H268.432C268.624 235.4 268.832 234.92 269.024 234.472L268.416 234.312ZM272.976 243.224C272.224 243.224 272.096 243.112 272.096 242.648V242.184H276.336C276.272 243.064 276.16 243.224 275.648 243.224H272.976ZM276.576 242.184L276.592 241.48H272.096V240.712H276.08V240.008H272.096V239.24H276.16V238.536H272.096V237.768H276.496V235.176H272.096V234.312H276.672V233.496H272.096V232.472H271.008V235.96H275.392V236.984H271.008V242.664C271.008 243.864 271.44 244.152 272.88 244.152H275.744C276.88 244.152 277.2 243.768 277.328 242.456C277.088 242.392 276.8 242.296 276.576 242.184ZM284.704 237.768L284.544 236.712L282.688 237.288V234.024H284.32V232.872H282.688V229.624H281.584V232.872H280.352C280.464 232.168 280.576 231.432 280.656 230.712L279.616 230.536C279.424 232.488 279.12 234.504 278.512 235.864C278.768 235.96 279.216 236.248 279.424 236.392C279.712 235.736 279.936 234.92 280.128 234.024H281.584V237.592C280.464 237.944 279.44 238.216 278.624 238.44L278.944 239.576C279.728 239.336 280.64 239.048 281.584 238.76V244.232H282.688V238.408L284.704 237.768ZM286.928 232.28C287.2 231.496 287.44 230.68 287.632 229.832L286.544 229.608C286.016 232.024 285.056 234.328 283.744 235.752C283.984 235.912 284.464 236.248 284.656 236.44C285.344 235.624 285.952 234.568 286.48 233.4H287.856C287.12 235.96 285.696 238.632 284 239.96C284.336 240.136 284.72 240.408 284.944 240.648C286.688 239.128 288.16 236.136 288.88 233.4H290.192C289.36 237.416 287.632 241.352 285.008 243.24C285.36 243.416 285.776 243.704 286 243.96C288.656 241.848 290.416 237.592 291.216 233.4H291.984C291.664 239.736 291.312 242.104 290.8 242.664C290.624 242.872 290.464 242.936 290.208 242.936C289.888 242.936 289.248 242.92 288.528 242.856C288.736 243.176 288.848 243.672 288.864 244.024C289.568 244.072 290.256 244.088 290.688 244.024C291.168 243.976 291.488 243.832 291.792 243.416C292.432 242.616 292.784 240.136 293.136 232.888C293.152 232.744 293.152 232.28 293.152 232.28H286.928ZM308.496 236.024C307.648 234.952 305.872 233.4 304.432 232.328L303.488 232.936C304.128 233.432 304.816 234.024 305.472 234.616L298.08 234.92C299.088 234.008 300.112 232.856 301.056 231.624H308.608V230.504H295.28V231.624H299.504C298.592 232.888 297.504 233.992 297.104 234.312C296.672 234.744 296.304 235.016 296 235.064C296.144 235.384 296.32 235.976 296.384 236.248C296.976 236.04 297.84 236.008 306.464 235.592C306.88 236.008 307.232 236.408 307.488 236.744L308.496 236.024ZM302.576 242.488V239.544H307.776V238.44H302.576V236.36H301.376V238.44H296.32V239.544H301.376V242.488H294.928V243.608H309.12V242.488H302.576ZM323.536 235.384H318.864V233.832H323.536V235.384ZM323.536 237.8H318.864V236.232H323.536V237.8ZM323.536 240.264H318.864V238.696H323.536V240.264ZM317.76 232.904V241.192H324.656V232.904H321.344C321.488 232.44 321.648 231.912 321.792 231.384H325.216V230.36H317.152V231.384H320.48C320.4 231.88 320.288 232.424 320.176 232.904H317.76ZM316.128 239.064C316.576 238.2 317.056 236.808 317.488 235.576L316.752 235.384L316.576 235.432H315.408L315.792 234.936C315.488 234.616 315.04 234.248 314.544 233.896C315.44 233.048 316.368 231.896 317.024 230.824L316.288 230.312L316.048 230.392H311.008V231.448H315.296C314.832 232.104 314.256 232.792 313.712 233.32C313.168 232.984 312.608 232.648 312.096 232.376L311.456 233.144C312.592 233.752 313.904 234.664 314.736 235.432H310.656V236.488H313.28V242.808C313.28 243 313.216 243.064 312.976 243.064C312.768 243.08 312.032 243.08 311.216 243.064C311.376 243.368 311.536 243.864 311.584 244.184C312.688 244.184 313.392 244.168 313.84 243.976C314.304 243.8 314.432 243.448 314.432 242.824V236.488H316.112C315.84 237.352 315.52 238.232 315.248 238.824L316.128 239.064ZM319.344 241.496C318.656 242.2 317.216 243.016 315.968 243.464C316.192 243.672 316.576 244.04 316.752 244.264C318.032 243.8 319.504 242.936 320.384 242.104L319.344 241.496ZM321.808 242.168C322.784 242.776 324 243.672 324.608 244.264L325.536 243.576C324.896 242.984 323.664 242.12 322.704 241.56L321.808 242.168ZM333.408 238.76C333.248 237.944 332.768 236.552 332.304 235.512L331.36 235.752C331.536 236.216 331.728 236.744 331.888 237.24L328.864 237.688C330.24 236.296 331.632 234.552 332.816 232.776L331.792 232.136C331.424 232.792 330.96 233.448 330.528 234.072L328.448 234.264C329.472 233.08 330.48 231.56 331.312 230.056L330.208 229.576C329.408 231.336 328.112 233.128 327.712 233.592C327.344 234.072 327.024 234.392 326.72 234.472C326.864 234.776 327.04 235.32 327.104 235.56C327.344 235.448 327.728 235.368 329.728 235.128C329.008 236.024 328.4 236.728 328.112 237.016C327.552 237.576 327.152 237.96 326.8 238.008C326.928 238.328 327.12 238.904 327.184 239.144C327.504 238.952 328.064 238.824 332.192 238.2C332.272 238.52 332.336 238.808 332.384 239.064L333.408 238.76ZM327.744 239.832C327.504 241.096 327.152 242.536 326.704 243.512C326.992 243.592 327.488 243.752 327.728 243.88C328.128 242.904 328.544 241.4 328.816 240.056L327.744 239.832ZM329.664 239.96C329.872 241.064 330.08 242.536 330.144 243.48L331.152 243.224C331.088 242.264 330.848 240.856 330.624 239.72L329.664 239.96ZM331.6 239.672C332 240.648 332.416 241.928 332.592 242.76L333.552 242.424C333.36 241.608 332.912 240.344 332.496 239.384L331.6 239.672ZM338.112 239.256C337.6 238.28 336.368 236.84 335.296 235.816L334.464 236.424C335.536 237.48 336.736 238.952 337.232 239.944L338.112 239.256ZM340.768 232.568H335.44C335.792 231.704 336.096 230.776 336.32 229.848L335.168 229.624C334.64 231.784 333.776 233.944 332.656 235.336C332.96 235.496 333.456 235.816 333.68 236.008C334.144 235.352 334.592 234.568 334.992 233.688H339.568C339.392 239.864 339.168 242.248 338.688 242.76C338.528 242.968 338.352 243 338.048 243C337.664 243 336.768 243 335.76 242.92C335.984 243.256 336.128 243.752 336.144 244.104C337.024 244.152 337.968 244.168 338.496 244.12C339.072 244.056 339.424 243.912 339.776 243.464C340.368 242.696 340.544 240.296 340.768 233.192V232.568ZM351.424 232.136C351.104 231.48 350.336 230.36 349.696 229.544L348.672 230.072C349.28 230.904 350.016 232.072 350.336 232.76L351.424 232.136ZM354.96 232.696L354.704 232.776H343.664V233.928H353.824C352.048 236.344 348.88 239.208 345.968 240.888C345.904 240.872 345.84 240.856 345.76 240.856C344.944 240.856 343.904 241.72 342.848 242.872L343.728 243.96C344.48 242.904 345.232 241.976 345.744 241.976C346.096 241.976 346.592 242.488 347.248 242.904C348.304 243.576 349.616 243.768 351.536 243.768C353.072 243.768 355.808 243.672 356.992 243.592C357.008 243.24 357.2 242.616 357.344 242.312C355.808 242.472 353.44 242.6 351.584 242.6C349.792 242.6 348.496 242.488 347.488 241.848C347.328 241.752 347.2 241.656 347.072 241.56C350.336 239.544 353.888 236.232 355.856 233.304L354.96 232.696ZM360.288 231.72H371.696V233.08H372.832V230.728H366.944C366.768 230.344 366.512 229.864 366.224 229.512L365.024 229.72C365.216 230.024 365.44 230.392 365.6 230.728H359.2V233.08H360.288V231.72ZM365.472 237.496H359.872V240.104C359.872 241.224 359.792 242.68 359.072 243.768C359.312 243.896 359.696 244.2 359.872 244.392C360.688 243.16 360.848 241.416 360.848 240.12V238.28H364.384V240.776C363.04 241.192 361.728 241.592 360.768 241.816L361.152 242.664C362.096 242.328 363.232 241.928 364.384 241.496V243.112C364.384 243.272 364.336 243.32 364.144 243.336C363.984 243.352 363.424 243.352 362.8 243.32C362.928 243.576 363.072 243.928 363.12 244.2C364 244.216 364.608 244.2 364.976 244.056C365.36 243.896 365.472 243.656 365.472 243.112V237.496ZM361.136 239.544C361.968 239.768 363.072 240.152 363.664 240.392L364.016 239.704C363.408 239.464 362.32 239.128 361.472 238.904L361.136 239.544ZM363.968 234.312C363.84 234.744 363.6 235.352 363.408 235.8H361.776C361.696 235.4 361.488 234.792 361.264 234.312H363.968ZM364.416 234.312H366.112V233.432H363.472C363.312 233.064 363.056 232.616 362.816 232.28L361.84 232.472C362.032 232.76 362.208 233.096 362.368 233.432H359.248V234.312H360.784L360.272 234.408C360.448 234.84 360.64 235.384 360.72 235.8H358.912V236.712H366.384V235.8H364.432C364.624 235.4 364.832 234.92 365.024 234.472L364.416 234.312ZM368.976 243.224C368.224 243.224 368.096 243.112 368.096 242.648V242.184H372.336C372.272 243.064 372.16 243.224 371.648 243.224H368.976ZM372.576 242.184L372.592 241.48H368.096V240.712H372.08V240.008H368.096V239.24H372.16V238.536H368.096V237.768H372.496V235.176H368.096V234.312H372.672V233.496H368.096V232.472H367.008V235.96H371.392V236.984H367.008V242.664C367.008 243.864 367.44 244.152 368.88 244.152H371.744C372.88 244.152 373.2 243.768 373.328 242.456C373.088 242.392 372.8 242.296 372.576 242.184ZM380.704 237.768L380.544 236.712L378.688 237.288V234.024H380.32V232.872H378.688V229.624H377.584V232.872H376.352C376.464 232.168 376.576 231.432 376.656 230.712L375.616 230.536C375.424 232.488 375.12 234.504 374.512 235.864C374.768 235.96 375.216 236.248 375.424 236.392C375.712 235.736 375.936 234.92 376.128 234.024H377.584V237.592C376.464 237.944 375.44 238.216 374.624 238.44L374.944 239.576C375.728 239.336 376.64 239.048 377.584 238.76V244.232H378.688V238.408L380.704 237.768ZM382.928 232.28C383.2 231.496 383.44 230.68 383.632 229.832L382.544 229.608C382.016 232.024 381.056 234.328 379.744 235.752C379.984 235.912 380.464 236.248 380.656 236.44C381.344 235.624 381.952 234.568 382.48 233.4H383.856C383.12 235.96 381.696 238.632 380 239.96C380.336 240.136 380.72 240.408 380.944 240.648C382.688 239.128 384.16 236.136 384.88 233.4H386.192C385.36 237.416 383.632 241.352 381.008 243.24C381.36 243.416 381.776 243.704 382 243.96C384.656 241.848 386.416 237.592 387.216 233.4H387.984C387.664 239.736 387.312 242.104 386.8 242.664C386.624 242.872 386.464 242.936 386.208 242.936C385.888 242.936 385.248 242.92 384.528 242.856C384.736 243.176 384.848 243.672 384.864 244.024C385.568 244.072 386.256 244.088 386.688 244.024C387.168 243.976 387.488 243.832 387.792 243.416C388.432 242.616 388.784 240.136 389.136 232.888C389.152 232.744 389.152 232.28 389.152 232.28H382.928ZM394.992 231.768C394.832 231.176 394.448 230.296 394.08 229.608L393.072 229.96C393.392 230.648 393.776 231.56 393.936 232.152L394.992 231.768ZM393.68 235.448V233.384H397.056V232.264H390.88V233.384H392.592V235.816C392.592 238.136 392.384 241.048 390.56 243.512C390.832 243.672 391.232 243.96 391.408 244.184C393.216 241.784 393.616 239.016 393.68 236.536H395.488C395.376 240.904 395.232 242.456 394.992 242.808C394.864 243 394.752 243.032 394.544 243.032C394.32 243.032 393.824 243.016 393.232 242.968C393.408 243.256 393.52 243.704 393.536 244.024C394.112 244.056 394.672 244.056 395.024 244.008C395.408 243.976 395.696 243.848 395.936 243.512C396.32 242.968 396.448 241.224 396.576 235.992C396.592 235.816 396.592 235.448 396.592 235.448H393.68ZM405.088 232.824V231.736H399.568C399.808 231.128 400.032 230.488 400.208 229.816L399.056 229.608C398.592 231.496 397.728 233.304 396.592 234.472C396.864 234.648 397.328 235.016 397.536 235.192C398.096 234.552 398.64 233.736 399.088 232.824H405.088ZM404.24 236.056C403.744 236.616 402.992 237.288 402.304 237.848C402.064 236.984 401.904 236.072 401.76 235.144C402.864 234.84 403.92 234.488 404.784 234.12L403.824 233.288C402.528 233.928 400.208 234.584 398.16 235.016V241.912C398.16 242.648 397.84 243.032 397.616 243.224C397.792 243.416 398.112 243.864 398.224 244.12C398.496 243.848 398.944 243.64 401.872 242.28C401.792 242.024 401.712 241.544 401.696 241.224L399.296 242.28V235.752C399.776 235.64 400.272 235.528 400.752 235.4C401.296 239.192 402.368 242.376 404.496 243.976C404.672 243.656 405.04 243.224 405.312 243.016C404.096 242.168 403.216 240.68 402.608 238.856C403.408 238.296 404.368 237.512 405.104 236.792L404.24 236.056ZM411.136 235.336V236.6H408.672V235.336H411.136ZM408.672 238.872V237.496H411.136V238.872H408.672ZM410.272 240.44C410.48 240.824 410.704 241.224 410.896 241.656L408.672 242.52V239.784H412.192V234.424H407.616V242.296C407.616 242.872 407.28 243.096 407.04 243.192C407.216 243.432 407.392 243.944 407.456 244.2C407.744 243.992 408.176 243.752 411.312 242.472C411.552 242.952 411.744 243.384 411.872 243.736L412.752 243.288C412.432 242.504 411.68 241.112 411.104 240.104L410.272 240.44ZM408.736 232.6V233.464H411.44V232.6H408.736ZM409.872 229.496C409.152 230.856 407.824 232.104 406.576 232.904C406.752 233.128 407.024 233.704 407.104 233.928C408.128 233.24 409.152 232.248 409.968 231.176C410.8 231.704 411.76 232.36 412.256 232.792L412.8 231.88C412.288 231.496 411.328 230.872 410.528 230.376C410.64 230.2 410.752 230.024 410.848 229.832L409.872 229.496ZM419.376 240.232V242.472H414.96V240.232H419.376ZM418.704 234.856V236.888H414.96V234.856H418.704ZM414.96 237.88H419.728V233.88H413.904V244.2H414.96V243.496H419.376V244.12H420.432V239.208H414.96V237.88ZM417.344 231.464L417.808 231.224C417.648 230.776 417.296 230.072 416.992 229.528L415.984 229.96C416.208 230.408 416.496 231 416.688 231.464H412.88V234.056H413.856V232.44H420.032V234.056H421.056V231.464H417.344ZM426.688 231.752V235.288H424.368V231.752H426.688ZM424.368 240.024V236.344H426.688V240.024H424.368ZM427.808 230.664H423.264V242.392H424.368V241.112H427.808V230.664ZM429.12 239.64C429.888 240.504 430.768 241.672 431.136 242.44L432.176 241.8C431.76 241.064 430.864 239.896 430.112 239.08L429.12 239.64ZM437.248 232.6V231.528H433.248V229.624H432.08V231.528H428.096V232.6H432.08V234.664H428.8V235.72H434.176V237.464H428.16V238.52H434.176V242.792C434.176 243.032 434.096 243.096 433.84 243.112C433.584 243.128 432.688 243.128 431.712 243.096C431.872 243.416 432.048 243.88 432.096 244.216C433.392 244.216 434.176 244.2 434.688 244.008C435.168 243.832 435.344 243.496 435.344 242.808V238.52H437.2V237.464H435.344V235.72H436.736V234.664H433.248V232.6H437.248ZM444.688 239.992C446.368 239.4 447.456 238.088 447.456 236.36C447.456 235.24 446.976 234.52 446.096 234.52C445.44 234.52 444.88 234.92 444.88 235.672C444.88 236.424 445.424 236.808 446.08 236.808C446.176 236.808 446.256 236.808 446.352 236.792C446.272 237.88 445.568 238.632 444.336 239.144L444.688 239.992ZM466.992 237.56V242.12H462.608V236.552H467.648V231.064H466.368V235.384H462.608V229.624H461.328V235.384H457.664V231.08H456.432V236.552H461.328V242.12H457.008V237.56H455.728V243.288H466.992V244.2H468.272V237.56H466.992ZM483.616 230.76H472.448V231.928H483.616V230.76ZM473.696 237.448C473.024 239.24 471.904 241 470.64 242.12C470.944 242.296 471.472 242.648 471.728 242.856C472.96 241.624 474.176 239.736 474.928 237.768L473.696 237.448ZM485.008 235.72V234.552H471.024V235.72H477.312V244.136H478.544V235.72H485.008ZM481.216 237.864C482.368 239.384 483.584 241.464 484.016 242.776L485.2 242.248C484.72 240.888 483.488 238.888 482.288 237.4L481.216 237.864ZM499.536 235.384H494.864V233.832H499.536V235.384ZM499.536 237.8H494.864V236.232H499.536V237.8ZM499.536 240.264H494.864V238.696H499.536V240.264ZM493.76 232.904V241.192H500.656V232.904H497.344C497.488 232.44 497.648 231.912 497.792 231.384H501.216V230.36H493.152V231.384H496.48C496.4 231.88 496.288 232.424 496.176 232.904H493.76ZM492.128 239.064C492.576 238.2 493.056 236.808 493.488 235.576L492.752 235.384L492.576 235.432H491.408L491.792 234.936C491.488 234.616 491.04 234.248 490.544 233.896C491.44 233.048 492.368 231.896 493.024 230.824L492.288 230.312L492.048 230.392H487.008V231.448H491.296C490.832 232.104 490.256 232.792 489.712 233.32C489.168 232.984 488.608 232.648 488.096 232.376L487.456 233.144C488.592 233.752 489.904 234.664 490.736 235.432H486.656V236.488H489.28V242.808C489.28 243 489.216 243.064 488.976 243.064C488.768 243.08 488.032 243.08 487.216 243.064C487.376 243.368 487.536 243.864 487.584 244.184C488.688 244.184 489.392 244.168 489.84 243.976C490.304 243.8 490.432 243.448 490.432 242.824V236.488H492.112C491.84 237.352 491.52 238.232 491.248 238.824L492.128 239.064ZM495.344 241.496C494.656 242.2 493.216 243.016 491.968 243.464C492.192 243.672 492.576 244.04 492.752 244.264C494.032 243.8 495.504 242.936 496.384 242.104L495.344 241.496ZM497.808 242.168C498.784 242.776 500 243.672 500.608 244.264L501.536 243.576C500.896 242.984 499.664 242.12 498.704 241.56L497.808 242.168ZM509.408 238.76C509.248 237.944 508.768 236.552 508.304 235.512L507.36 235.752C507.536 236.216 507.728 236.744 507.888 237.24L504.864 237.688C506.24 236.296 507.632 234.552 508.816 232.776L507.792 232.136C507.424 232.792 506.96 233.448 506.528 234.072L504.448 234.264C505.472 233.08 506.48 231.56 507.312 230.056L506.208 229.576C505.408 231.336 504.112 233.128 503.712 233.592C503.344 234.072 503.024 234.392 502.72 234.472C502.864 234.776 503.04 235.32 503.104 235.56C503.344 235.448 503.728 235.368 505.728 235.128C505.008 236.024 504.4 236.728 504.112 237.016C503.552 237.576 503.152 237.96 502.8 238.008C502.928 238.328 503.12 238.904 503.184 239.144C503.504 238.952 504.064 238.824 508.192 238.2C508.272 238.52 508.336 238.808 508.384 239.064L509.408 238.76ZM503.744 239.832C503.504 241.096 503.152 242.536 502.704 243.512C502.992 243.592 503.488 243.752 503.728 243.88C504.128 242.904 504.544 241.4 504.816 240.056L503.744 239.832ZM505.664 239.96C505.872 241.064 506.08 242.536 506.144 243.48L507.152 243.224C507.088 242.264 506.848 240.856 506.624 239.72L505.664 239.96ZM507.6 239.672C508 240.648 508.416 241.928 508.592 242.76L509.552 242.424C509.36 241.608 508.912 240.344 508.496 239.384L507.6 239.672ZM514.112 239.256C513.6 238.28 512.368 236.84 511.296 235.816L510.464 236.424C511.536 237.48 512.736 238.952 513.232 239.944L514.112 239.256ZM516.768 232.568H511.44C511.792 231.704 512.096 230.776 512.32 229.848L511.168 229.624C510.64 231.784 509.776 233.944 508.656 235.336C508.96 235.496 509.456 235.816 509.68 236.008C510.144 235.352 510.592 234.568 510.992 233.688H515.568C515.392 239.864 515.168 242.248 514.688 242.76C514.528 242.968 514.352 243 514.048 243C513.664 243 512.768 243 511.76 242.92C511.984 243.256 512.128 243.752 512.144 244.104C513.024 244.152 513.968 244.168 514.496 244.12C515.072 244.056 515.424 243.912 515.776 243.464C516.368 242.696 516.544 240.296 516.768 233.192V232.568ZM528.72 230.408C529.728 230.952 530.944 231.768 531.552 232.328L532.288 231.512C531.664 230.952 530.416 230.184 529.424 229.688L528.72 230.408ZM530.992 234.728C530.496 236.344 529.808 237.784 528.944 239.048C528.512 237.528 528.224 235.624 528.064 233.496H533.152V232.328H527.984C527.936 231.464 527.92 230.568 527.92 229.64H526.688C526.704 230.552 526.72 231.448 526.784 232.328H520.112V236.792C520.112 238.856 519.968 241.592 518.656 243.544C518.928 243.688 519.44 244.104 519.648 244.344C521.088 242.264 521.328 239.048 521.328 236.808V236.68H524.24C524.176 239.432 524.096 240.44 523.872 240.68C523.776 240.824 523.616 240.856 523.392 240.856C523.12 240.856 522.432 240.84 521.696 240.776C521.888 241.08 522.016 241.528 522.032 241.896C522.816 241.928 523.536 241.928 523.936 241.896C524.384 241.848 524.656 241.736 524.896 241.432C525.232 241.016 525.328 239.672 525.408 236.088V235.576H521.328V233.496H526.848C527.056 236.072 527.44 238.424 528.016 240.232C526.992 241.432 525.76 242.424 524.336 243.192C524.608 243.416 525.024 243.896 525.2 244.136C526.432 243.416 527.536 242.52 528.496 241.48C529.232 243.128 530.192 244.104 531.424 244.104C532.64 244.104 533.072 243.32 533.296 240.6C532.976 240.504 532.544 240.232 532.272 239.96C532.16 242.088 531.968 242.92 531.52 242.92C530.704 242.92 529.968 242.008 529.376 240.44C530.56 238.92 531.504 237.096 532.192 235.032L530.992 234.728ZM140.944 260.44C140.096 260.664 139.216 260.904 138.384 261.128V254.632H140.704V253.496H134.88V254.632H137.216V261.448C136.24 261.688 135.36 261.912 134.656 262.072L134.96 263.288C136.64 262.824 138.928 262.184 141.088 261.544L140.944 260.44ZM144.672 255.24C144.704 254.152 144.72 253.032 144.72 251.88H143.536C143.536 253.048 143.52 254.168 143.488 255.24H140.816V256.392H143.44C143.2 260.264 142.32 263.496 138.928 265.304C139.216 265.512 139.616 265.944 139.776 266.248C143.424 264.2 144.352 260.632 144.608 256.392H147.808C147.568 262.056 147.312 264.2 146.864 264.712C146.688 264.904 146.496 264.952 146.192 264.952C145.84 264.952 144.928 264.952 143.952 264.856C144.16 265.192 144.304 265.688 144.32 266.024C145.216 266.088 146.16 266.104 146.672 266.056C147.232 265.992 147.552 265.864 147.904 265.432C148.512 264.696 148.72 262.408 148.976 255.848C148.992 255.688 148.992 255.24 148.992 255.24H144.672ZM154.528 253.608C154.272 253.048 153.792 252.2 153.36 251.544L152.512 252.024C152.912 252.68 153.408 253.576 153.632 254.152L154.528 253.608ZM156.56 254.328H150.816V255.304H156.56V254.328ZM155.952 257.368V256.424H151.456V257.368H155.952ZM154.992 261.624V264.264H152.384V261.624H154.992ZM155.968 260.632H151.44V266.008H152.384V265.256H155.968V260.632ZM151.456 259.448H155.984V258.504H151.456V259.448ZM156.72 252.52V253.656H158.704V258.376H156.544V259.48H158.704V266.2H159.824V259.48H161.936V258.376H159.824V253.656H162.48C162.464 260.216 162.416 265.448 163.984 265.928C164.72 266.232 165.232 265.72 165.408 263.48C165.232 263.32 164.912 262.92 164.72 262.616C164.656 263.768 164.544 264.792 164.448 264.76C163.552 264.536 163.584 258.984 163.68 252.52H156.72ZM170.288 258.424H177.664V259.704H170.288V258.424ZM170.288 256.232H177.664V257.512H170.288V256.232ZM170.288 254.04H177.664V255.32H170.288V254.04ZM172.72 261.144C173.536 261.896 174.448 262.952 174.848 263.656L175.808 263.064C175.392 262.392 174.48 261.368 173.664 260.664H178.848V253.096H174.08C174.336 252.696 174.608 252.184 174.832 251.688L173.456 251.448C173.328 251.912 173.088 252.584 172.848 253.096H169.136V260.664H173.568L172.72 261.144ZM167.872 265.464C168.448 264.552 169.008 263.144 169.44 262.168L168.416 261.72C168.032 262.712 167.408 264.072 166.784 264.952L167.872 265.464ZM172.624 264.84C171.584 264.84 171.408 264.76 171.408 264.328V261.736H170.224V264.344C170.224 265.608 170.704 265.944 172.56 265.944H176.208C177.76 265.944 178.144 265.464 178.304 263.432C177.968 263.368 177.472 263.192 177.2 262.984C177.12 264.6 176.976 264.84 176.128 264.84H172.624ZM178.176 261.912C178.912 262.904 179.68 264.264 179.952 265.144L181.056 264.632C180.768 263.752 179.984 262.424 179.232 261.464L178.176 261.912ZM183.408 261.848C183.248 263.16 183.008 264.6 182.624 265.592C182.88 265.688 183.392 265.832 183.616 265.96C183.952 264.952 184.272 263.416 184.432 262.008L183.408 261.848ZM185.168 261.96C185.344 263.064 185.536 264.536 185.568 265.48L186.544 265.288C186.496 264.328 186.304 262.904 186.08 261.8L185.168 261.96ZM186.832 261.672C187.168 262.6 187.536 263.864 187.68 264.664L188.592 264.344C188.432 263.544 188.048 262.328 187.696 261.384L186.832 261.672ZM186.656 257.896C186.832 258.36 187.024 258.888 187.2 259.416L184.56 259.768C185.856 258.328 187.136 256.472 188.16 254.664L187.136 254.056C186.8 254.76 186.368 255.48 185.952 256.136L184.272 256.296C185.168 255.064 186.064 253.528 186.8 252.024L185.696 251.56C185.024 253.288 183.872 255.128 183.536 255.608C183.184 256.088 182.896 256.408 182.64 256.472C182.768 256.776 182.944 257.336 183.008 257.56C183.232 257.448 183.6 257.384 185.248 257.192C184.672 258.04 184.16 258.712 183.92 258.968C183.44 259.544 183.056 259.96 182.736 260.024C182.864 260.328 183.04 260.904 183.104 261.144C183.424 260.984 183.92 260.872 187.456 260.344C187.536 260.68 187.616 261 187.664 261.256L188.64 260.936C188.48 260.088 188 258.696 187.568 257.624L186.656 257.896ZM195.104 260.792V264.344H190.624V260.792H195.104ZM189.472 266.28H190.624V265.416H195.104V266.232H196.304V259.72H189.472V266.28ZM190.448 256.808C191.408 255.832 192.208 254.728 192.848 253.544C193.552 254.728 194.448 255.88 195.36 256.808H190.448ZM192.464 251.656C191.648 253.832 190 255.992 187.936 257.416C188.208 257.592 188.608 257.992 188.784 258.232C189.28 257.88 189.76 257.48 190.192 257.064V257.912H195.44V256.888C195.888 257.352 196.336 257.736 196.784 258.056C196.992 257.752 197.392 257.32 197.68 257.08C196.128 256.136 194.384 254.248 193.392 252.44C193.456 252.28 193.52 252.136 193.584 251.976L192.464 251.656ZM202.992 253.768C202.832 253.176 202.448 252.296 202.08 251.608L201.072 251.96C201.392 252.648 201.776 253.56 201.936 254.152L202.992 253.768ZM201.68 257.448V255.384H205.056V254.264H198.88V255.384H200.592V257.816C200.592 260.136 200.384 263.048 198.56 265.512C198.832 265.672 199.232 265.96 199.408 266.184C201.216 263.784 201.616 261.016 201.68 258.536H203.488C203.376 262.904 203.232 264.456 202.992 264.808C202.864 265 202.752 265.032 202.544 265.032C202.32 265.032 201.824 265.016 201.232 264.968C201.408 265.256 201.52 265.704 201.536 266.024C202.112 266.056 202.672 266.056 203.024 266.008C203.408 265.976 203.696 265.848 203.936 265.512C204.32 264.968 204.448 263.224 204.576 257.992C204.592 257.816 204.592 257.448 204.592 257.448H201.68ZM213.088 254.824V253.736H207.568C207.808 253.128 208.032 252.488 208.208 251.816L207.056 251.608C206.592 253.496 205.728 255.304 204.592 256.472C204.864 256.648 205.328 257.016 205.536 257.192C206.096 256.552 206.64 255.736 207.088 254.824H213.088ZM212.24 258.056C211.744 258.616 210.992 259.288 210.304 259.848C210.064 258.984 209.904 258.072 209.76 257.144C210.864 256.84 211.92 256.488 212.784 256.12L211.824 255.288C210.528 255.928 208.208 256.584 206.16 257.016V263.912C206.16 264.648 205.84 265.032 205.616 265.224C205.792 265.416 206.112 265.864 206.224 266.12C206.496 265.848 206.944 265.64 209.872 264.28C209.792 264.024 209.712 263.544 209.696 263.224L207.296 264.28V257.752C207.776 257.64 208.272 257.528 208.752 257.4C209.296 261.192 210.368 264.376 212.496 265.976C212.672 265.656 213.04 265.224 213.312 265.016C212.096 264.168 211.216 262.68 210.608 260.856C211.408 260.296 212.368 259.512 213.104 258.792L212.24 258.056ZM219.136 257.336V258.6H216.672V257.336H219.136ZM216.672 260.872V259.496H219.136V260.872H216.672ZM218.272 262.44C218.48 262.824 218.704 263.224 218.896 263.656L216.672 264.52V261.784H220.192V256.424H215.616V264.296C215.616 264.872 215.28 265.096 215.04 265.192C215.216 265.432 215.392 265.944 215.456 266.2C215.744 265.992 216.176 265.752 219.312 264.472C219.552 264.952 219.744 265.384 219.872 265.736L220.752 265.288C220.432 264.504 219.68 263.112 219.104 262.104L218.272 262.44ZM216.736 254.6V255.464H219.44V254.6H216.736ZM217.872 251.496C217.152 252.856 215.824 254.104 214.576 254.904C214.752 255.128 215.024 255.704 215.104 255.928C216.128 255.24 217.152 254.248 217.968 253.176C218.8 253.704 219.76 254.36 220.256 254.792L220.8 253.88C220.288 253.496 219.328 252.872 218.528 252.376C218.64 252.2 218.752 252.024 218.848 251.832L217.872 251.496ZM227.376 262.232V264.472H222.96V262.232H227.376ZM226.704 256.856V258.888H222.96V256.856H226.704ZM222.96 259.88H227.728V255.88H221.904V266.2H222.96V265.496H227.376V266.12H228.432V261.208H222.96V259.88ZM225.344 253.464L225.808 253.224C225.648 252.776 225.296 252.072 224.992 251.528L223.984 251.96C224.208 252.408 224.496 253 224.688 253.464H220.88V256.056H221.856V254.44H228.032V256.056H229.056V253.464H225.344ZM235.728 263.24C234.672 263.928 232.64 264.552 230.992 264.824C231.232 265.048 231.552 265.432 231.712 265.72C233.376 265.336 235.472 264.52 236.624 263.656L235.728 263.24ZM239.6 263.8C241.12 264.36 243.152 265.176 244.208 265.688L244.944 264.936C243.84 264.424 241.808 263.656 240.304 263.16L239.6 263.8ZM240.544 255.448C240.32 255.912 239.92 256.584 239.6 257.032L240.16 257.208H235.744L236.4 257.032C236.256 256.6 235.92 255.944 235.552 255.448H240.544ZM238.56 261.432V260.232H243.568V259.32H238.56V258.168H244.352V257.208H240.688C241.04 256.808 241.424 256.264 241.792 255.736L240.752 255.448H244.912V254.456H242.448C242.864 253.848 243.392 252.968 243.84 252.152L242.624 251.816C242.352 252.536 241.84 253.592 241.392 254.248L242.032 254.456H240.096V251.624H238.96V254.456H237.056V251.624H235.936V254.456H233.984L234.784 254.136C234.56 253.496 233.984 252.504 233.424 251.784L232.416 252.136C232.912 252.856 233.456 253.816 233.696 254.456H231.12V255.448H235.248L234.4 255.672C234.736 256.136 235.056 256.76 235.216 257.208H231.76V258.168H237.392V259.32H232.576V260.232H237.392V261.432H231.072V262.44H237.392V266.232H238.56V262.44H244.976V261.432H238.56ZM253.568 256.728V254.68H257.12C256.368 255.4 255.552 256.088 254.688 256.728H253.568ZM257.904 262.056H251.424V260.472H257.904V262.056ZM251.424 264.664V263H257.904V264.664H251.424ZM261.072 257.8V256.728H256.464C257.92 255.528 259.232 254.184 260.352 252.712L259.344 252.168C258.8 252.904 258.192 253.608 257.52 254.28V253.624H253.568V251.624H252.4V253.624H248.32V254.68H252.4V256.728H246.928V257.8H253.152C251.136 259.096 248.896 260.152 246.576 260.968C246.8 261.208 247.184 261.688 247.328 261.944C248.304 261.576 249.296 261.144 250.256 260.68V266.216H251.424V265.704H257.904V266.152H259.12V259.464H252.512C253.392 258.952 254.256 258.392 255.088 257.8H261.072ZM270.752 262.84H273.136V264.52H270.752V262.84ZM273.136 259.288H270.752V257.672H273.136V259.288ZM273.136 261.912H270.752V260.216H273.136V261.912ZM266.816 263.096H265.04V258.424H266.816V263.096ZM277.2 264.52H274.24V262.84H276.528V261.912H274.24V260.216H276.528V259.288H274.24V257.672H276.736V256.664H274.544C274.352 256.12 273.968 255.384 273.648 254.792L272.656 255.192C272.88 255.64 273.136 256.184 273.344 256.664H271.264C271.776 255.928 272.224 255.128 272.624 254.264H275.792V255.944H276.864V253.24H273.04C273.232 252.792 273.392 252.296 273.536 251.816L272.416 251.592C272.256 252.152 272.064 252.712 271.856 253.24H268.464V255.976H269.504V254.264H271.376C270.512 256.008 269.328 257.48 267.856 258.504V257.384H265.12C265.456 256.28 265.712 255.064 265.92 253.832H268.128V252.744H262.88V253.832H264.768C264.352 256.472 263.648 258.92 262.496 260.552C262.72 260.792 263.056 261.336 263.184 261.576C263.488 261.176 263.76 260.696 264.016 260.216V265.448H265.04V264.152H267.856V258.568C268.096 258.824 268.416 259.272 268.544 259.512C268.912 259.224 269.296 258.92 269.632 258.584V266.232H270.752V265.544H277.216L277.2 264.52ZM291.536 253.272C291.408 256.504 291.248 257.752 290.992 258.04C290.848 258.2 290.72 258.232 290.464 258.232C290.208 258.232 289.536 258.216 288.8 258.152C288.992 258.456 289.104 258.888 289.136 259.208C289.84 259.24 290.544 259.24 290.944 259.208C291.376 259.176 291.68 259.064 291.952 258.744C292.336 258.248 292.512 256.808 292.688 252.76C292.688 252.6 292.704 252.248 292.704 252.248H284.912V253.272H288.208C288.128 254.056 288.016 254.792 287.808 255.48C287.2 254.952 286.368 254.264 285.696 253.736L285.072 254.408C285.824 255.032 286.8 255.88 287.392 256.488C286.864 257.56 286 258.424 284.576 259.016C284.816 259.208 285.136 259.592 285.264 259.864C288.208 258.552 289.008 256.152 289.296 253.272H291.536ZM287.568 259.88C288.224 260.616 288.944 261.64 289.28 262.264L290.064 261.72C289.712 261.096 288.976 260.136 288.304 259.416L287.568 259.88ZM282.384 253.752C282.16 253.176 281.744 252.296 281.328 251.64L280.32 251.992C280.704 252.68 281.136 253.592 281.312 254.168L282.384 253.752ZM284.32 254.264H278.688V255.256H284.32V254.264ZM283.936 256.424H279.104V257.368H283.936V256.424ZM279.104 259.512H283.936V258.552H279.104V259.512ZM282.832 261.672V264.344H280.112V261.672H282.832ZM283.856 260.696H279.104V266.056H280.112V265.32H283.856V260.696ZM284.752 264.68C285.296 263.8 285.648 262.344 285.856 261.192L285.008 260.936C284.816 262.024 284.432 263.432 283.888 264.296L284.752 264.68ZM287.968 264.92C287.424 264.92 287.312 264.84 287.312 264.456V260.568H286.272V264.456C286.272 265.56 286.592 265.88 287.856 265.88H289.936C291.04 265.88 291.328 265.368 291.44 263.192C291.152 263.128 290.72 262.968 290.496 262.792C290.448 264.648 290.352 264.92 289.824 264.92H287.968ZM291.168 260.584C291.728 261.656 292.288 263.08 292.512 263.944L293.424 263.592C293.2 262.744 292.592 261.352 292.016 260.296L291.168 260.584ZM302.048 256.504C300.72 256.504 299.616 257.592 299.616 258.936C299.616 260.28 300.72 261.368 302.048 261.368C303.392 261.368 304.48 260.28 304.48 258.936C304.48 257.592 303.392 256.504 302.048 256.504ZM302.048 260.552C301.168 260.552 300.432 259.832 300.432 258.936C300.432 258.04 301.168 257.32 302.048 257.32C302.944 257.32 303.664 258.04 303.664 258.936C303.664 259.832 302.944 260.552 302.048 260.552Z" fill="#4B4B4B"/>
<rect x="0.5" y="0.5" width="559" height="317" rx="7.5" stroke="#CCCCCC"/>
</svg>
