<svg width="560" height="318" viewBox="0 0 560 318" fill="none" xmlns="http://www.w3.org/2000/svg">
<rect x="0.5" y="0.5" width="559" height="317" rx="7.5" fill="white"/>
<path d="M329.999 108.6V123.6C330.005 124.992 329.72 126.371 329.162 127.647C328.604 128.923 327.786 130.068 326.76 131.009C325.733 131.951 324.522 132.667 323.203 133.114C321.884 133.56 320.486 133.725 319.099 133.6C303.713 131.928 288.934 126.671 275.949 118.25C263.868 110.573 253.626 100.331 245.949 88.25C237.499 75.206 232.24 60.355 230.599 44.9C230.474 43.5173 230.639 42.1238 231.082 40.8081C231.525 39.4924 232.237 38.2834 233.173 37.2581C234.109 36.2328 235.248 35.4135 236.518 34.8526C237.788 34.2917 239.161 34.0013 240.549 34H255.549C257.976 33.9761 260.328 34.8354 262.168 36.4177C264.008 37.9999 265.21 40.1972 265.549 42.6C266.182 47.4003 267.356 52.1136 269.049 56.65C269.722 58.4396 269.867 60.3846 269.469 62.2544C269.07 64.1242 268.143 65.8405 266.799 67.2L260.449 73.55C267.567 86.0677 277.931 96.4322 290.449 103.55L296.799 97.2C298.159 95.8557 299.875 94.9292 301.745 94.5305C303.615 94.1317 305.56 94.2773 307.349 94.95C311.886 96.6427 316.599 97.8169 321.399 98.45C323.828 98.7926 326.046 100.016 327.632 101.887C329.218 103.759 330.06 106.148 329.999 108.6Z" stroke="black" stroke-width="8" stroke-linecap="round" stroke-linejoin="round"/>
<path d="M43.04 232.48L53.24 214.84C55.76 209.8 58.16 204.64 60.44 199.48H60.92C60.68 205.24 60.2 213.76 60.2 219.4V232.48H43.04ZM60.2 271H80.12V248.68H89.96V232.48H80.12V181.6H53.72L22.64 233.92V248.68H60.2V271Z" fill="#FFCB66"/>
<path d="M149.936 188.024C149.232 186.36 147.632 183.704 146.448 181.752L143.568 183.064C143.984 183.736 144.4 184.504 144.848 185.304L140.208 185.592C141.168 184.216 142.096 182.648 142.832 181.08H149.872V177.624H135.312V181.08H138.768C138 182.808 137.104 184.28 136.752 184.792C136.24 185.528 135.76 186.008 135.248 186.168C135.664 187.128 136.24 188.856 136.432 189.592C137.328 189.24 138.672 189.048 146.416 188.376C146.608 188.824 146.768 189.208 146.896 189.56L149.936 188.024ZM160.08 185.24C159.376 188.76 158.224 191.864 156.656 194.52C155.76 193.048 154.96 191.448 154.32 189.752C154.832 188.344 155.344 186.808 155.792 185.24H160.08ZM161.808 181.592L161.168 181.72H156.656C157.008 180.056 157.328 178.36 157.584 176.664L154.064 176.12C153.68 178.936 153.168 181.72 152.464 184.248C152.24 183.416 152.048 182.552 151.856 181.688L149.008 182.296C149.52 184.664 150.128 186.904 150.832 189.08C150.352 190.136 149.808 191.096 149.232 191.928C149.904 192.824 150.928 194.712 151.28 195.64C151.696 195 152.112 194.328 152.496 193.656C153.136 195 153.808 196.344 154.544 197.56C153.168 199.192 151.6 200.568 149.872 201.592L149.744 198.488C148.016 198.744 146.288 198.968 144.592 199.224V195.928H149.296V192.504H144.592V189.56H140.784V192.504H135.952V195.928H140.784V199.736C138.608 200.024 136.56 200.248 134.96 200.44L135.504 204.28C139.12 203.8 143.952 203.032 148.624 202.296L148.112 202.52C148.976 203.288 150.128 204.92 150.672 205.976C153.008 204.664 155.088 203.032 156.88 200.984C158.416 202.936 160.24 204.536 162.288 205.848C162.896 204.856 164.08 203.512 164.88 202.84C162.672 201.624 160.784 200.024 159.12 198.008C161.712 193.976 163.472 188.792 164.24 182.328L161.808 181.592ZM172.304 190.392C174.32 189.944 176.688 189.4 179.088 188.856L178.96 186.68C176.208 187.096 173.52 187.48 171.568 187.704V183.32H173.296L172.4 185.112C174.224 185.496 176.624 186.168 177.904 186.68L178.928 184.632C177.712 184.184 175.664 183.64 173.936 183.32H180.048V189.976H183.76V183.32H189.232C187.888 183.832 186.096 184.408 184.848 184.696L186.032 186.488C187.696 186.168 190.032 185.656 191.728 184.952L190.576 183.32H192.304V187.896C190.544 187.32 187.376 186.648 185.104 186.392L184.368 188.536C186.768 188.92 190.064 189.688 191.76 190.296L192.432 188.024H196.112V180.824H183.76V179.544H194.48V177.048H169.392V179.544H180.048V180.824H167.952V188.024H171.44L172.304 190.392ZM174.544 198.456V197.016H179.856V198.456H174.544ZM179.856 193.336V194.776H174.544V193.336H179.856ZM189.296 194.776H183.504V193.336H189.296V194.776ZM183.504 198.456V197.016H189.296V198.456H183.504ZM185.808 202.456C183.888 202.456 183.504 202.264 183.504 201.112V201.016H193.072V190.776H170.896V202.392H174.544V201.016H179.856V201.112C179.856 204.44 181.104 205.336 185.456 205.336H192.176C195.664 205.336 196.72 204.312 197.168 200.472C196.176 200.28 194.736 199.8 194 199.288C193.776 201.976 193.488 202.456 191.856 202.456H185.808ZM225.936 189.176C225.328 189.976 224.432 190.936 223.504 191.832C223.248 190.616 223.024 189.336 222.864 188.056C224.688 187.512 226.448 186.936 227.984 186.264L225.072 183.608C222.512 184.888 218.416 186.104 214.544 186.936C215.408 185.848 216.144 184.6 216.848 183.192H228.4V179.736H218.32C218.704 178.712 219.024 177.656 219.248 176.568L215.6 175.864C214.896 178.968 213.68 181.912 211.984 184.152V180.856H206.288L208.432 180.088C208.144 178.936 207.472 177.144 206.8 175.832L203.504 176.856C204.08 178.072 204.624 179.672 204.912 180.856H199.44V184.376H202.448V188.728C202.448 193.08 202 198.68 198.64 203.672C199.536 204.184 200.752 205.08 201.392 205.784C204.72 201.112 205.616 195.672 205.808 190.936H208.112C207.92 198.424 207.664 201.144 207.216 201.816C206.96 202.2 206.768 202.296 206.32 202.296C205.872 202.296 205.008 202.296 204.048 202.2C204.528 203.096 204.88 204.472 204.944 205.464C206.192 205.496 207.344 205.496 208.112 205.336C208.976 205.208 209.616 204.888 210.192 203.992C211.056 202.872 211.312 199.128 211.568 188.984C211.568 188.536 211.6 187.48 211.6 187.48H205.84V184.376H211.792C211.44 184.824 211.056 185.208 210.672 185.592C211.536 186.072 213.04 187.256 213.712 187.896L213.84 187.768V199.544C213.84 201.176 213.04 202.296 212.4 202.872C212.976 203.416 213.968 204.76 214.288 205.528C214.96 204.984 216.016 204.472 221.84 202.008C221.648 201.208 221.456 199.64 221.424 198.584L217.488 200.152V189.368C218.192 189.208 218.928 189.08 219.6 188.92C220.56 196.056 222.288 201.944 226.288 205.144C226.832 204.152 228.016 202.712 228.848 202.008C226.832 200.568 225.424 198.136 224.432 195.224C225.776 194.168 227.344 192.824 228.624 191.544L225.936 189.176ZM239.312 188.312V189.944H236.016V188.312H239.312ZM236.016 194.296V192.568H239.312V194.296H236.016ZM238.064 198.392C238.32 198.872 238.576 199.416 238.864 199.992L236.016 200.952V197.016H242.64V185.56H232.784V200.664C232.784 201.816 232.112 202.328 231.504 202.584C232.016 203.32 232.56 204.856 232.72 205.72C233.392 205.176 234.384 204.728 240.08 202.616C240.432 203.48 240.752 204.248 240.976 204.888L243.696 203.512C243.088 201.912 241.712 199.256 240.656 197.272L238.064 198.392ZM255.952 198.36V201.464H248.56V198.36H255.952ZM257.2 182.52V184.536H246.704V182.52H257.2ZM254.64 190.296H248.56V187.544H254.64V190.296ZM257.872 193.304V185.304H260.496V179.512H253.488L254.576 179C254.128 178.04 253.328 176.632 252.688 175.576L249.328 176.92C249.744 177.72 250.256 178.648 250.672 179.512H243.728C242.736 178.936 241.072 178.136 239.632 177.496C239.792 177.176 239.984 176.888 240.144 176.568L237.168 175.48C235.792 177.976 233.264 180.312 230.8 181.752C231.248 182.584 232.048 184.44 232.272 185.176C233.392 184.44 234.448 183.576 235.504 182.552V184.408H241.136V181.912H236.144C236.752 181.304 237.264 180.696 237.808 180.056C239.44 180.888 241.328 181.88 242.352 182.552L243.568 180.28V185.304H245.2V205.752H248.56V204.664H255.952V205.656H259.28V195.224H248.56V193.304H257.872ZM275.312 197.848C279.28 196.696 281.616 193.72 281.616 190.104C281.616 187.416 280.432 185.72 278.16 185.72C276.464 185.72 275.024 186.808 275.024 188.6C275.024 190.424 276.464 191.448 278.064 191.448C278.192 191.448 278.32 191.448 278.416 191.416C278.224 193.112 276.784 194.488 274.288 195.288L275.312 197.848ZM309.488 181.208H310.608V183.704H320.048C319.504 187.288 318.544 190.488 317.296 193.24C315.952 190.424 314.992 187.192 314.352 183.768L310.704 184.504C311.696 189.336 313.072 193.624 315.024 197.176C313.456 199.352 311.6 201.08 309.488 202.264V181.208ZM301.264 194.264H305.808V197.144C304.272 197.336 302.736 197.56 301.264 197.752V194.264ZM301.264 187.672H305.808V190.872H301.264V187.672ZM305.808 181.208V184.248H301.264V181.208H305.808ZM321.744 179.864L321.104 179.96H311.536V177.688H295.472V181.208H297.648V198.2C296.56 198.328 295.568 198.424 294.704 198.52L295.44 202.328C298.384 201.88 302.128 201.304 305.808 200.664V205.784H309.488V202.776C310.256 203.544 311.12 204.728 311.6 205.56C313.776 204.248 315.664 202.648 317.296 200.664C318.832 202.616 320.624 204.248 322.8 205.56C323.376 204.568 324.56 203.128 325.424 202.424C323.12 201.176 321.2 199.384 319.632 197.24C322.032 192.952 323.568 187.448 324.24 180.472L321.744 179.864ZM352.848 176.632C352.208 178.552 350.992 181.112 350.064 182.744L353.36 183.96C354.32 182.456 355.536 180.184 356.56 177.944L352.848 176.632ZM343.344 182.616C342.864 180.952 341.488 178.616 340.208 176.856L337.008 178.264C338.256 180.12 339.504 182.616 339.888 184.184L343.344 182.616ZM336.752 179.768C335.408 178.84 332.72 177.336 330.96 176.376L328.72 179.064C330.544 180.152 333.2 181.784 334.448 182.808L336.752 179.768ZM334.928 188.152C333.52 187.288 330.672 185.912 328.912 185.048L326.832 187.864C328.752 188.888 331.504 190.392 332.816 191.32L334.928 188.152ZM334 192.76C332.112 196.472 329.68 200.44 327.952 202.84L331.184 205.4C333.104 202.296 335.12 198.648 336.816 195.32L334 192.76ZM355.376 184.824H348.624V175.896H344.784V184.824H337.872V194.68C337.872 197.688 337.776 201.336 336.304 203.928C337.136 204.312 338.704 205.4 339.344 206.008C341.104 203.064 341.36 198.264 341.36 194.68V188.28H351.664V194.2C347.888 195.096 344.016 195.96 341.36 196.472L342.48 199.608C345.136 198.936 348.464 198.104 351.664 197.24V201.624C351.664 202.04 351.504 202.168 351.024 202.2C350.512 202.232 348.848 202.232 347.376 202.136C347.888 203.128 348.4 204.696 348.528 205.72C350.928 205.72 352.656 205.656 353.84 205.08C355.056 204.472 355.376 203.512 355.376 201.656V184.824ZM341.808 191.704C344.208 192.344 347.312 193.592 348.88 194.552L350.512 191.96C348.88 191.032 345.744 189.944 343.344 189.4L341.808 191.704ZM384.016 187.288H376.88V185.272H384.016V187.288ZM384.016 191.928H376.88V189.88H384.016V191.928ZM384.016 196.6H376.88V194.552H384.016V196.6ZM370.992 195.448C371.696 193.56 372.56 190.552 373.232 187.896L370.928 187.384L370.416 187.48H368.88L369.712 186.296C369.2 185.816 368.56 185.304 367.792 184.792C369.456 183.096 371.12 180.888 372.336 178.936V180.344H378.416C378.32 181.048 378.224 181.752 378.096 182.456H373.424V199.384H387.664V182.456H381.904C382.128 181.784 382.352 181.08 382.576 180.344H388.592V177.144H372.336V178.616L370.16 177.016L369.488 177.24H359.696V180.536H367.12C366.512 181.464 365.776 182.36 365.072 183.128C364.08 182.584 363.056 182.072 362.128 181.656L360.24 184.12C362.032 185.016 364.144 186.264 365.776 187.48H358.928V190.84H363.664V201.624C363.664 201.976 363.536 202.072 363.088 202.104C362.672 202.104 361.168 202.104 359.792 202.072C360.304 203.096 360.816 204.632 360.944 205.72C363.088 205.72 364.688 205.624 365.872 205.048C367.056 204.472 367.344 203.48 367.344 201.688V190.84H369.264C368.912 192.344 368.528 193.816 368.176 194.872L370.992 195.448ZM376.528 199.416C375.152 200.824 372.336 202.52 369.84 203.384C370.672 204.056 371.792 205.144 372.4 205.88C374.864 204.92 377.872 203.128 379.632 201.432L376.528 199.416ZM381.168 201.528C382.96 202.808 385.328 204.664 386.416 205.88L389.424 203.736C388.176 202.52 385.744 200.792 383.984 199.64L381.168 201.528ZM405.264 194.712C404.912 192.952 403.984 190.072 403.12 187.896L400.176 188.664C400.432 189.4 400.72 190.2 400.944 191.032L397.36 191.544C399.888 188.888 402.416 185.784 404.368 182.648L401.232 180.536C400.464 181.912 399.6 183.32 398.736 184.568L396.08 184.76C397.84 182.552 399.568 179.864 400.944 177.24L397.488 175.768C396.144 179.16 393.84 182.616 393.104 183.512C392.368 184.44 391.76 185.048 391.12 185.208C391.536 186.136 392.112 187.832 392.272 188.536C392.784 188.312 393.52 188.12 396.336 187.768C395.312 189.048 394.448 189.976 393.968 190.424C392.848 191.608 392.08 192.248 391.216 192.44C391.632 193.432 392.208 195.192 392.4 195.896C393.2 195.512 394.448 195.16 401.744 194.04C401.904 194.648 402 195.16 402.064 195.64L405.264 194.712ZM393.104 196.92C392.72 199.448 391.984 202.328 391.088 204.152C391.984 204.376 393.552 204.856 394.32 205.272C395.088 203.352 395.952 200.312 396.368 197.592L393.104 196.92ZM397.04 197.4C397.488 199.672 397.904 202.648 397.968 204.6L401.136 203.768C400.976 201.784 400.528 198.904 400.016 196.632L397.04 197.4ZM400.912 196.792C401.648 198.68 402.48 201.208 402.8 202.84L405.68 201.72C405.328 200.12 404.464 197.72 403.664 195.832L400.912 196.792ZM414.576 195.352C413.52 193.4 410.992 190.616 408.848 188.664L406.288 190.616C408.432 192.664 410.8 195.576 411.76 197.56L414.576 195.352ZM410.032 181.592C410.608 179.992 411.088 178.328 411.472 176.664L407.728 175.928C406.832 180.216 405.136 184.632 402.928 187.32C403.856 187.8 405.52 188.888 406.192 189.464C407.056 188.28 407.856 186.808 408.624 185.208H416.176C415.888 195.928 415.536 200.472 414.64 201.432C414.288 201.848 413.904 201.976 413.296 201.944C412.464 201.944 410.704 201.944 408.752 201.784C409.424 202.872 409.936 204.536 410 205.592C411.856 205.688 413.84 205.72 414.992 205.496C416.336 205.304 417.232 204.92 418.128 203.736C419.344 202.072 419.728 197.176 420.08 183.384C420.08 182.936 420.112 181.592 420.112 181.592H410.032Z" fill="#332200"/>
<path d="M140.192 233.64C140.192 235.384 140.048 237.56 138.752 239.624C138.048 239.048 137.328 238.472 136.64 237.96C136.96 236.76 137.296 235.304 137.584 233.816L140.192 233.64ZM141.36 231.736H140.192V232.52L137.808 232.648C137.968 231.656 138.128 230.664 138.24 229.752L137.008 229.672C136.928 230.6 136.768 231.656 136.608 232.712L134.592 232.808L134.736 233.992L136.384 233.88C136.048 235.56 135.68 237.16 135.312 238.312C136.192 238.968 137.184 239.768 138.08 240.568C137.28 241.56 136.16 242.504 134.624 243.336C134.912 243.544 135.28 243.944 135.456 244.232C137.008 243.384 138.144 242.408 138.992 241.384C139.712 242.072 140.352 242.728 140.8 243.256L141.68 242.328C141.184 241.784 140.48 241.112 139.696 240.408C141.184 238.088 141.36 235.608 141.36 233.656V233.576L142.032 233.528L142.048 232.424L141.36 232.456V231.736ZM143.776 241.496V232.472H147.232V241.496H143.776ZM142.64 231.336V243.816H143.776V242.632H147.232V243.592H148.4V231.336H142.64ZM152.4 233.32H157.376V236.824H158.528V233.32H163.584V235.816H164.752V232.392H158.528V231.208H164.016V230.296H151.952V231.208H157.376V232.392H151.264V235.816H152.4V233.32ZM163.184 236.2C162.32 235.912 160.704 235.56 159.472 235.432L159.2 236.152C160.432 236.328 162.064 236.696 162.928 237.016L163.184 236.2ZM162.416 233.528C161.632 233.8 160.304 234.296 159.392 234.504L159.824 235.112C160.736 234.92 162.032 234.584 162.944 234.216L162.416 233.528ZM153.088 234.248C154.128 234.456 155.456 234.856 156.176 235.176L156.512 234.456C155.792 234.136 154.448 233.768 153.44 233.608L153.088 234.248ZM153.024 236.968C154.08 236.76 155.264 236.536 156.512 236.264L156.48 235.512C155.04 235.736 153.68 235.944 152.688 236.056L153.024 236.968ZM164.96 238.264V237.288H151.072V238.264H157.264C157.168 238.648 157.04 239.048 156.928 239.416H152.32V244.2H153.456V240.392H155.824V244.104H156.912V240.392H159.328V244.104H160.416V240.392H162.912V243.032C162.912 243.176 162.864 243.224 162.688 243.24C162.512 243.256 161.968 243.256 161.328 243.24C161.472 243.528 161.648 243.928 161.712 244.232C162.56 244.232 163.168 244.232 163.552 244.04C163.968 243.864 164.064 243.592 164.064 243.048V239.416H158.048C158.192 239.064 158.336 238.664 158.48 238.264H164.96ZM172.304 233.848H169.184V231.72H172.304V233.848ZM169.184 238.216H172.304V240.184C171.232 240.344 170.16 240.504 169.184 240.632V238.216ZM172.304 237.128H169.184V234.904H172.304V237.128ZM174.576 231.72V230.616H166.816V231.72H168.064V240.792C167.488 240.872 166.96 240.936 166.512 240.984L166.72 242.184C168.24 241.928 170.288 241.624 172.304 241.288V244.184H173.456V231.72H174.576ZM180.112 231.752L179.888 231.8H174.176V232.968H179.568C179.2 235.32 178.512 237.32 177.584 238.952C176.672 237.256 176.032 235.24 175.616 233.032L174.48 233.24C175.008 235.864 175.76 238.184 176.864 240.072C175.904 241.384 174.768 242.376 173.504 243.032C173.76 243.256 174.112 243.688 174.288 243.992C175.504 243.288 176.608 242.344 177.552 241.144C178.416 242.344 179.472 243.32 180.736 244.04C180.928 243.736 181.312 243.288 181.584 243.064C180.256 242.392 179.168 241.368 178.288 240.088C179.568 238.056 180.464 235.4 180.88 231.976L180.112 231.752ZM195.76 230.056C195.376 230.984 194.64 232.264 194.064 233.08L195.088 233.512C195.664 232.728 196.352 231.56 196.896 230.52L195.76 230.056ZM190.304 233.064C190.048 232.248 189.328 231.032 188.624 230.136L187.632 230.6C188.304 231.512 188.992 232.776 189.232 233.592L190.304 233.064ZM186.224 235.784C185.552 235.336 184.224 234.632 183.28 234.168L182.64 235.032C183.6 235.544 184.928 236.312 185.568 236.76L186.224 235.784ZM184.16 244.008C185.104 242.536 186.208 240.552 187.056 238.872L186.192 238.088C185.28 239.896 184.016 241.992 183.168 243.208L184.16 244.008ZM183.504 230.648C184.464 231.224 185.744 232.04 186.384 232.52L187.104 231.576C186.432 231.112 185.136 230.36 184.192 229.832L183.504 230.648ZM196.336 234.152H192.816V229.608H191.648V234.152H188.048V238.552C188.048 240.136 187.968 242.136 187.152 243.592C187.408 243.72 187.872 244.088 188.064 244.296C189.008 242.68 189.168 240.312 189.168 238.552V235.24H195.168V238.728C193.04 239.24 190.848 239.72 189.376 240.024L189.776 241.048C191.28 240.696 193.264 240.216 195.168 239.72V242.712C195.168 242.952 195.088 243.016 194.832 243.032C194.592 243.048 193.76 243.048 192.848 243C193.008 243.336 193.184 243.816 193.216 244.136C194.432 244.136 195.232 244.136 195.712 243.944C196.192 243.752 196.336 243.4 196.336 242.728V234.152ZM189.648 237.064C191.088 237.368 192.864 237.976 193.792 238.488L194.256 237.624C193.312 237.144 191.536 236.568 190.112 236.296L189.648 237.064ZM212.768 230.584H204.96V231.704H212.768V230.584ZM202.288 229.608C201.488 230.744 199.952 232.184 198.624 233.08C198.832 233.304 199.152 233.768 199.328 234.024C200.752 233.016 202.384 231.464 203.424 230.056L202.288 229.608ZM202.944 233.016C201.84 234.824 200.112 236.664 198.464 237.832C198.704 238.072 199.12 238.584 199.296 238.824C199.888 238.36 200.496 237.784 201.104 237.16V244.264H202.288V235.848C202.944 235.064 203.552 234.248 204.048 233.432L202.944 233.016ZM213.232 234.952H204.272V236.088H209.616V242.68C209.616 242.952 209.52 243.016 209.216 243.032C208.912 243.048 207.856 243.048 206.72 243.016C206.896 243.352 207.056 243.848 207.104 244.168C208.672 244.168 209.568 244.168 210.112 243.992C210.64 243.8 210.816 243.432 210.816 242.696V236.088H213.232V234.952ZM227.232 234.44H222.352V231.448H227.232V234.44ZM228.384 230.424H221.232V235.464H228.384V230.424ZM220.768 238.376C220.448 238.008 219.088 236.6 218.592 236.184V235.208H220.592V234.088H218.592V231.4C219.36 231.208 220.08 231 220.672 230.744L219.856 229.848C218.656 230.376 216.544 230.84 214.736 231.128C214.88 231.4 215.04 231.784 215.104 232.056C215.84 231.944 216.656 231.816 217.44 231.656V234.088H214.832V235.208H217.28C216.64 237.032 215.536 239.096 214.528 240.216C214.72 240.504 215.008 240.968 215.12 241.304C215.936 240.328 216.784 238.728 217.44 237.112V244.184H218.592V237.336C219.136 237.992 219.792 238.872 220.048 239.32L220.768 238.376ZM225.344 242.76V240.616H228.576V239.576H225.344V237.56C226.592 237.4 227.744 237.208 228.656 236.952L227.872 236.072C226.256 236.536 223.216 236.856 220.736 237C220.848 237.256 220.992 237.656 221.024 237.912C222.016 237.864 223.088 237.784 224.16 237.688V239.576H221.072V240.616H224.16V242.76H220.176V243.816H229.232V242.76H225.344ZM236.688 239.992C238.368 239.4 239.456 238.088 239.456 236.36C239.456 235.24 238.976 234.52 238.096 234.52C237.44 234.52 236.88 234.92 236.88 235.672C236.88 236.424 237.424 236.808 238.08 236.808C238.176 236.808 238.256 236.808 238.352 236.792C238.272 237.88 237.568 238.632 236.336 239.144L236.688 239.992ZM250.496 231.752C250.336 231.192 249.984 230.312 249.648 229.656L248.656 229.96C248.96 230.632 249.312 231.544 249.456 232.12L250.496 231.752ZM250.704 239.64V242.312H248.256V239.64H250.704ZM251.76 238.664H247.216V244.024H248.256V243.288H251.76V238.664ZM247.152 237.416H251.808V236.472H247.152V237.416ZM251.792 234.312H247.136V235.256H251.792V234.312ZM246.768 233.272H252.256V232.296H246.768V233.272ZM254.416 240.776C254.448 240.36 254.464 239.96 254.464 239.592H259.264V240.776H254.416ZM259.264 237.56V238.744H254.464V237.56H259.264ZM260.384 236.616H253.376V239.56C253.376 240.824 253.264 242.44 252.32 243.64C252.56 243.768 252.976 244.2 253.152 244.424C253.808 243.64 254.128 242.632 254.304 241.624H259.264V242.984C259.264 243.16 259.216 243.224 259.008 243.224C258.816 243.24 258.16 243.24 257.44 243.208C257.6 243.496 257.728 243.896 257.776 244.2C258.784 244.2 259.44 244.2 259.84 244.024C260.272 243.848 260.384 243.56 260.384 242.984V236.616ZM257.376 234.76V233.672H260.848V232.808H257.376V231.832H261.152V230.92H257.376V229.624H256.208V230.92H252.608V231.832H256.208V232.808H253.008V233.672H256.208V234.76H252.432V235.672H261.312V234.76H257.376ZM269.808 235.544C269.44 234.76 268.624 233.432 267.92 232.472L267.024 232.92C267.328 233.352 267.648 233.88 267.952 234.376L264.576 234.648C265.184 233.8 265.792 232.776 266.304 231.736H269.968V230.648H262.88V231.736H265.008C264.512 232.84 263.872 233.848 263.632 234.152C263.376 234.536 263.136 234.792 262.912 234.84C263.04 235.144 263.216 235.704 263.28 235.944C263.632 235.784 264.192 235.704 268.48 235.32C268.624 235.592 268.752 235.848 268.848 236.072L269.808 235.544ZM269.968 240.968C268.992 241.128 268 241.304 267.04 241.464V239.064H269.68V237.976H267.04V236.168H265.856V237.976H263.104V239.064H265.856V241.656C264.656 241.848 263.552 242.024 262.688 242.152L262.88 243.368C264.768 243.032 267.472 242.552 270.032 242.072L269.968 240.968ZM275.552 233.688C275.136 235.96 274.368 237.88 273.36 239.448C272.72 238.376 272.176 237.176 271.744 235.896C272.016 235.192 272.24 234.456 272.448 233.688H275.552ZM276.112 232.52L275.92 232.568H272.736C272.928 231.688 273.104 230.776 273.264 229.864L272.144 229.672C271.936 231.208 271.616 232.728 271.216 234.088C271.072 233.544 270.944 233 270.832 232.424L269.904 232.6C270.128 233.672 270.368 234.696 270.656 235.656C270.4 236.28 270.112 236.872 269.776 237.368C270 237.624 270.368 238.184 270.496 238.456C270.736 238.072 270.96 237.64 271.184 237.208C271.6 238.36 272.096 239.432 272.672 240.376C271.632 241.672 270.416 242.616 269.04 243.224C269.296 243.448 269.664 243.976 269.824 244.28C271.168 243.624 272.368 242.68 273.408 241.448C274.272 242.584 275.28 243.528 276.496 244.216C276.688 243.912 277.056 243.496 277.312 243.304C276.048 242.648 274.992 241.72 274.096 240.52C275.44 238.552 276.416 236.008 276.848 232.76L276.112 232.52ZM285.376 236.6H286.528V232.968H291.584V235.544H292.752V232.12H286.528V231.096H292.016V230.248H279.952V231.096H285.376V232.12H279.264V235.544H280.4V232.968H285.376V236.6ZM291.2 235.88C290.336 235.576 288.704 235.24 287.488 235.096L287.2 235.816C288.464 236.008 290.064 236.392 290.928 236.696L291.2 235.88ZM290.432 233.208C289.664 233.48 288.32 233.976 287.408 234.168L287.824 234.792C288.736 234.6 290.048 234.264 290.944 233.88L290.432 233.208ZM281.088 233.928C282.144 234.136 283.472 234.52 284.176 234.856L284.528 234.12C283.808 233.816 282.48 233.448 281.456 233.288L281.088 233.928ZM281.04 236.648C282.08 236.456 283.296 236.2 284.528 235.944L284.48 235.192C283.072 235.416 281.696 235.624 280.688 235.72L281.04 236.648ZM281.792 241.048V239.944H285.328V241.048H281.792ZM285.328 238.056V239.144H281.792V238.056H285.328ZM290.256 239.144H286.48V238.056H290.256V239.144ZM286.48 241.048V239.944H290.256V241.048H286.48ZM287.664 243.048C286.672 243.048 286.48 242.952 286.48 242.408V241.912H291.424V237.192H280.64V242.744H281.792V241.912H285.328V242.408C285.328 243.688 285.84 244.008 287.616 244.008H291.296C292.816 244.008 293.168 243.512 293.344 241.576C293.008 241.512 292.576 241.368 292.304 241.192C292.224 242.776 292.064 243.048 291.216 243.048H287.664ZM307.536 235.384H302.864V233.832H307.536V235.384ZM307.536 237.8H302.864V236.232H307.536V237.8ZM307.536 240.264H302.864V238.696H307.536V240.264ZM301.76 232.904V241.192H308.656V232.904H305.344C305.488 232.44 305.648 231.912 305.792 231.384H309.216V230.36H301.152V231.384H304.48C304.4 231.88 304.288 232.424 304.176 232.904H301.76ZM300.128 239.064C300.576 238.2 301.056 236.808 301.488 235.576L300.752 235.384L300.576 235.432H299.408L299.792 234.936C299.488 234.616 299.04 234.248 298.544 233.896C299.44 233.048 300.368 231.896 301.024 230.824L300.288 230.312L300.048 230.392H295.008V231.448H299.296C298.832 232.104 298.256 232.792 297.712 233.32C297.168 232.984 296.608 232.648 296.096 232.376L295.456 233.144C296.592 233.752 297.904 234.664 298.736 235.432H294.656V236.488H297.28V242.808C297.28 243 297.216 243.064 296.976 243.064C296.768 243.08 296.032 243.08 295.216 243.064C295.376 243.368 295.536 243.864 295.584 244.184C296.688 244.184 297.392 244.168 297.84 243.976C298.304 243.8 298.432 243.448 298.432 242.824V236.488H300.112C299.84 237.352 299.52 238.232 299.248 238.824L300.128 239.064ZM303.344 241.496C302.656 242.2 301.216 243.016 299.968 243.464C300.192 243.672 300.576 244.04 300.752 244.264C302.032 243.8 303.504 242.936 304.384 242.104L303.344 241.496ZM305.808 242.168C306.784 242.776 308 243.672 308.608 244.264L309.536 243.576C308.896 242.984 307.664 242.12 306.704 241.56L305.808 242.168ZM317.408 238.76C317.248 237.944 316.768 236.552 316.304 235.512L315.36 235.752C315.536 236.216 315.728 236.744 315.888 237.24L312.864 237.688C314.24 236.296 315.632 234.552 316.816 232.776L315.792 232.136C315.424 232.792 314.96 233.448 314.528 234.072L312.448 234.264C313.472 233.08 314.48 231.56 315.312 230.056L314.208 229.576C313.408 231.336 312.112 233.128 311.712 233.592C311.344 234.072 311.024 234.392 310.72 234.472C310.864 234.776 311.04 235.32 311.104 235.56C311.344 235.448 311.728 235.368 313.728 235.128C313.008 236.024 312.4 236.728 312.112 237.016C311.552 237.576 311.152 237.96 310.8 238.008C310.928 238.328 311.12 238.904 311.184 239.144C311.504 238.952 312.064 238.824 316.192 238.2C316.272 238.52 316.336 238.808 316.384 239.064L317.408 238.76ZM311.744 239.832C311.504 241.096 311.152 242.536 310.704 243.512C310.992 243.592 311.488 243.752 311.728 243.88C312.128 242.904 312.544 241.4 312.816 240.056L311.744 239.832ZM313.664 239.96C313.872 241.064 314.08 242.536 314.144 243.48L315.152 243.224C315.088 242.264 314.848 240.856 314.624 239.72L313.664 239.96ZM315.6 239.672C316 240.648 316.416 241.928 316.592 242.76L317.552 242.424C317.36 241.608 316.912 240.344 316.496 239.384L315.6 239.672ZM322.112 239.256C321.6 238.28 320.368 236.84 319.296 235.816L318.464 236.424C319.536 237.48 320.736 238.952 321.232 239.944L322.112 239.256ZM324.768 232.568H319.44C319.792 231.704 320.096 230.776 320.32 229.848L319.168 229.624C318.64 231.784 317.776 233.944 316.656 235.336C316.96 235.496 317.456 235.816 317.68 236.008C318.144 235.352 318.592 234.568 318.992 233.688H323.568C323.392 239.864 323.168 242.248 322.688 242.76C322.528 242.968 322.352 243 322.048 243C321.664 243 320.768 243 319.76 242.92C319.984 243.256 320.128 243.752 320.144 244.104C321.024 244.152 321.968 244.168 322.496 244.12C323.072 244.056 323.424 243.912 323.776 243.464C324.368 242.696 324.544 240.296 324.768 233.192V232.568ZM335.424 232.136C335.104 231.48 334.336 230.36 333.696 229.544L332.672 230.072C333.28 230.904 334.016 232.072 334.336 232.76L335.424 232.136ZM338.96 232.696L338.704 232.776H327.664V233.928H337.824C336.048 236.344 332.88 239.208 329.968 240.888C329.904 240.872 329.84 240.856 329.76 240.856C328.944 240.856 327.904 241.72 326.848 242.872L327.728 243.96C328.48 242.904 329.232 241.976 329.744 241.976C330.096 241.976 330.592 242.488 331.248 242.904C332.304 243.576 333.616 243.768 335.536 243.768C337.072 243.768 339.808 243.672 340.992 243.592C341.008 243.24 341.2 242.616 341.344 242.312C339.808 242.472 337.44 242.6 335.584 242.6C333.792 242.6 332.496 242.488 331.488 241.848C331.328 241.752 331.2 241.656 331.072 241.56C334.336 239.544 337.888 236.232 339.856 233.304L338.96 232.696ZM344.288 231.72H355.696V233.08H356.832V230.728H350.944C350.768 230.344 350.512 229.864 350.224 229.512L349.024 229.72C349.216 230.024 349.44 230.392 349.6 230.728H343.2V233.08H344.288V231.72ZM349.472 237.496H343.872V240.104C343.872 241.224 343.792 242.68 343.072 243.768C343.312 243.896 343.696 244.2 343.872 244.392C344.688 243.16 344.848 241.416 344.848 240.12V238.28H348.384V240.776C347.04 241.192 345.728 241.592 344.768 241.816L345.152 242.664C346.096 242.328 347.232 241.928 348.384 241.496V243.112C348.384 243.272 348.336 243.32 348.144 243.336C347.984 243.352 347.424 243.352 346.8 243.32C346.928 243.576 347.072 243.928 347.12 244.2C348 244.216 348.608 244.2 348.976 244.056C349.36 243.896 349.472 243.656 349.472 243.112V237.496ZM345.136 239.544C345.968 239.768 347.072 240.152 347.664 240.392L348.016 239.704C347.408 239.464 346.32 239.128 345.472 238.904L345.136 239.544ZM347.968 234.312C347.84 234.744 347.6 235.352 347.408 235.8H345.776C345.696 235.4 345.488 234.792 345.264 234.312H347.968ZM348.416 234.312H350.112V233.432H347.472C347.312 233.064 347.056 232.616 346.816 232.28L345.84 232.472C346.032 232.76 346.208 233.096 346.368 233.432H343.248V234.312H344.784L344.272 234.408C344.448 234.84 344.64 235.384 344.72 235.8H342.912V236.712H350.384V235.8H348.432C348.624 235.4 348.832 234.92 349.024 234.472L348.416 234.312ZM352.976 243.224C352.224 243.224 352.096 243.112 352.096 242.648V242.184H356.336C356.272 243.064 356.16 243.224 355.648 243.224H352.976ZM356.576 242.184L356.592 241.48H352.096V240.712H356.08V240.008H352.096V239.24H356.16V238.536H352.096V237.768H356.496V235.176H352.096V234.312H356.672V233.496H352.096V232.472H351.008V235.96H355.392V236.984H351.008V242.664C351.008 243.864 351.44 244.152 352.88 244.152H355.744C356.88 244.152 357.2 243.768 357.328 242.456C357.088 242.392 356.8 242.296 356.576 242.184ZM364.704 237.768L364.544 236.712L362.688 237.288V234.024H364.32V232.872H362.688V229.624H361.584V232.872H360.352C360.464 232.168 360.576 231.432 360.656 230.712L359.616 230.536C359.424 232.488 359.12 234.504 358.512 235.864C358.768 235.96 359.216 236.248 359.424 236.392C359.712 235.736 359.936 234.92 360.128 234.024H361.584V237.592C360.464 237.944 359.44 238.216 358.624 238.44L358.944 239.576C359.728 239.336 360.64 239.048 361.584 238.76V244.232H362.688V238.408L364.704 237.768ZM366.928 232.28C367.2 231.496 367.44 230.68 367.632 229.832L366.544 229.608C366.016 232.024 365.056 234.328 363.744 235.752C363.984 235.912 364.464 236.248 364.656 236.44C365.344 235.624 365.952 234.568 366.48 233.4H367.856C367.12 235.96 365.696 238.632 364 239.96C364.336 240.136 364.72 240.408 364.944 240.648C366.688 239.128 368.16 236.136 368.88 233.4H370.192C369.36 237.416 367.632 241.352 365.008 243.24C365.36 243.416 365.776 243.704 366 243.96C368.656 241.848 370.416 237.592 371.216 233.4H371.984C371.664 239.736 371.312 242.104 370.8 242.664C370.624 242.872 370.464 242.936 370.208 242.936C369.888 242.936 369.248 242.92 368.528 242.856C368.736 243.176 368.848 243.672 368.864 244.024C369.568 244.072 370.256 244.088 370.688 244.024C371.168 243.976 371.488 243.832 371.792 243.416C372.432 242.616 372.784 240.136 373.136 232.888C373.152 232.744 373.152 232.28 373.152 232.28H366.928ZM378.992 231.768C378.832 231.176 378.448 230.296 378.08 229.608L377.072 229.96C377.392 230.648 377.776 231.56 377.936 232.152L378.992 231.768ZM377.68 235.448V233.384H381.056V232.264H374.88V233.384H376.592V235.816C376.592 238.136 376.384 241.048 374.56 243.512C374.832 243.672 375.232 243.96 375.408 244.184C377.216 241.784 377.616 239.016 377.68 236.536H379.488C379.376 240.904 379.232 242.456 378.992 242.808C378.864 243 378.752 243.032 378.544 243.032C378.32 243.032 377.824 243.016 377.232 242.968C377.408 243.256 377.52 243.704 377.536 244.024C378.112 244.056 378.672 244.056 379.024 244.008C379.408 243.976 379.696 243.848 379.936 243.512C380.32 242.968 380.448 241.224 380.576 235.992C380.592 235.816 380.592 235.448 380.592 235.448H377.68ZM389.088 232.824V231.736H383.568C383.808 231.128 384.032 230.488 384.208 229.816L383.056 229.608C382.592 231.496 381.728 233.304 380.592 234.472C380.864 234.648 381.328 235.016 381.536 235.192C382.096 234.552 382.64 233.736 383.088 232.824H389.088ZM388.24 236.056C387.744 236.616 386.992 237.288 386.304 237.848C386.064 236.984 385.904 236.072 385.76 235.144C386.864 234.84 387.92 234.488 388.784 234.12L387.824 233.288C386.528 233.928 384.208 234.584 382.16 235.016V241.912C382.16 242.648 381.84 243.032 381.616 243.224C381.792 243.416 382.112 243.864 382.224 244.12C382.496 243.848 382.944 243.64 385.872 242.28C385.792 242.024 385.712 241.544 385.696 241.224L383.296 242.28V235.752C383.776 235.64 384.272 235.528 384.752 235.4C385.296 239.192 386.368 242.376 388.496 243.976C388.672 243.656 389.04 243.224 389.312 243.016C388.096 242.168 387.216 240.68 386.608 238.856C387.408 238.296 388.368 237.512 389.104 236.792L388.24 236.056ZM395.136 235.336V236.6H392.672V235.336H395.136ZM392.672 238.872V237.496H395.136V238.872H392.672ZM394.272 240.44C394.48 240.824 394.704 241.224 394.896 241.656L392.672 242.52V239.784H396.192V234.424H391.616V242.296C391.616 242.872 391.28 243.096 391.04 243.192C391.216 243.432 391.392 243.944 391.456 244.2C391.744 243.992 392.176 243.752 395.312 242.472C395.552 242.952 395.744 243.384 395.872 243.736L396.752 243.288C396.432 242.504 395.68 241.112 395.104 240.104L394.272 240.44ZM392.736 232.6V233.464H395.44V232.6H392.736ZM393.872 229.496C393.152 230.856 391.824 232.104 390.576 232.904C390.752 233.128 391.024 233.704 391.104 233.928C392.128 233.24 393.152 232.248 393.968 231.176C394.8 231.704 395.76 232.36 396.256 232.792L396.8 231.88C396.288 231.496 395.328 230.872 394.528 230.376C394.64 230.2 394.752 230.024 394.848 229.832L393.872 229.496ZM403.376 240.232V242.472H398.96V240.232H403.376ZM402.704 234.856V236.888H398.96V234.856H402.704ZM398.96 237.88H403.728V233.88H397.904V244.2H398.96V243.496H403.376V244.12H404.432V239.208H398.96V237.88ZM401.344 231.464L401.808 231.224C401.648 230.776 401.296 230.072 400.992 229.528L399.984 229.96C400.208 230.408 400.496 231 400.688 231.464H396.88V234.056H397.856V232.44H404.032V234.056H405.056V231.464H401.344ZM412.688 239.992C414.368 239.4 415.456 238.088 415.456 236.36C415.456 235.24 414.976 234.52 414.096 234.52C413.44 234.52 412.88 234.92 412.88 235.672C412.88 236.424 413.424 236.808 414.08 236.808C414.176 236.808 414.256 236.808 414.352 236.792C414.272 237.88 413.568 238.632 412.336 239.144L412.688 239.992ZM426.368 234.2H424.432V230.248H423.376V235.24H426.368V237.592H422.704V238.648H423.568V239C423.568 240.232 423.44 242.216 422.56 243.688C422.848 243.784 423.264 244.056 423.472 244.264C424.448 242.664 424.624 240.408 424.624 239.032V238.648H426.368V244.232H427.472V229.64H426.368V234.2ZM435.28 231.848C434.864 232.632 434.288 233.32 433.616 233.928C433.136 233.272 432.336 232.488 431.584 231.864L431.6 231.848H435.28ZM436.016 230.92L435.808 230.968H432.576C432.928 230.632 433.232 230.296 433.488 229.944L432.336 229.608C431.424 230.904 429.648 232.232 427.76 233C427.968 233.192 428.32 233.544 428.496 233.736C429.312 233.368 430.112 232.92 430.848 232.408C431.616 233.048 432.416 233.88 432.864 234.552C431.456 235.624 429.728 236.376 428.048 236.76C428.256 237 428.528 237.384 428.64 237.656C432 236.728 435.344 234.744 436.736 231.288L436.016 230.92ZM431.456 233.96C430.16 234.12 428.976 234.28 428.064 234.36L428.272 235.256C429.248 235.112 430.352 234.968 431.52 234.792L431.456 233.96ZM429.168 239.768C429.968 240.568 430.848 241.656 431.216 242.392L432.192 241.784C431.792 241.064 430.896 239.976 430.08 239.224L429.168 239.768ZM437.264 237.784H435.2V235.528H434.064V237.784H428.016V238.84H434.064V242.648C434.064 242.872 433.984 242.936 433.728 242.936C433.488 242.952 432.624 242.968 431.664 242.936C431.84 243.272 432 243.736 432.048 244.072C433.312 244.072 434.096 244.056 434.576 243.864C435.056 243.672 435.2 243.336 435.2 242.664V238.84H437.264V237.784ZM446.544 242.072V238.52H450.944V242.072H446.544ZM441.056 238.52H445.36V242.072H441.056V238.52ZM445.36 233.896V237.352H441.056V233.896H445.36ZM450.944 233.896V237.352H446.544V233.896H450.944ZM446.544 232.712V229.64H445.36V232.712H439.872V244.232H441.056V243.24H450.944V244.152H452.144V232.712H446.544ZM458.992 231.768C458.832 231.176 458.448 230.296 458.08 229.608L457.072 229.96C457.392 230.648 457.776 231.56 457.936 232.152L458.992 231.768ZM457.68 235.448V233.384H461.056V232.264H454.88V233.384H456.592V235.816C456.592 238.136 456.384 241.048 454.56 243.512C454.832 243.672 455.232 243.96 455.408 244.184C457.216 241.784 457.616 239.016 457.68 236.536H459.488C459.376 240.904 459.232 242.456 458.992 242.808C458.864 243 458.752 243.032 458.544 243.032C458.32 243.032 457.824 243.016 457.232 242.968C457.408 243.256 457.52 243.704 457.536 244.024C458.112 244.056 458.672 244.056 459.024 244.008C459.408 243.976 459.696 243.848 459.936 243.512C460.32 242.968 460.448 241.224 460.576 235.992C460.592 235.816 460.592 235.448 460.592 235.448H457.68ZM469.088 232.824V231.736H463.568C463.808 231.128 464.032 230.488 464.208 229.816L463.056 229.608C462.592 231.496 461.728 233.304 460.592 234.472C460.864 234.648 461.328 235.016 461.536 235.192C462.096 234.552 462.64 233.736 463.088 232.824H469.088ZM468.24 236.056C467.744 236.616 466.992 237.288 466.304 237.848C466.064 236.984 465.904 236.072 465.76 235.144C466.864 234.84 467.92 234.488 468.784 234.12L467.824 233.288C466.528 233.928 464.208 234.584 462.16 235.016V241.912C462.16 242.648 461.84 243.032 461.616 243.224C461.792 243.416 462.112 243.864 462.224 244.12C462.496 243.848 462.944 243.64 465.872 242.28C465.792 242.024 465.712 241.544 465.696 241.224L463.296 242.28V235.752C463.776 235.64 464.272 235.528 464.752 235.4C465.296 239.192 466.368 242.376 468.496 243.976C468.672 243.656 469.04 243.224 469.312 243.016C468.096 242.168 467.216 240.68 466.608 238.856C467.408 238.296 468.368 237.512 469.104 236.792L468.24 236.056ZM475.136 235.336V236.6H472.672V235.336H475.136ZM472.672 238.872V237.496H475.136V238.872H472.672ZM474.272 240.44C474.48 240.824 474.704 241.224 474.896 241.656L472.672 242.52V239.784H476.192V234.424H471.616V242.296C471.616 242.872 471.28 243.096 471.04 243.192C471.216 243.432 471.392 243.944 471.456 244.2C471.744 243.992 472.176 243.752 475.312 242.472C475.552 242.952 475.744 243.384 475.872 243.736L476.752 243.288C476.432 242.504 475.68 241.112 475.104 240.104L474.272 240.44ZM472.736 232.6V233.464H475.44V232.6H472.736ZM473.872 229.496C473.152 230.856 471.824 232.104 470.576 232.904C470.752 233.128 471.024 233.704 471.104 233.928C472.128 233.24 473.152 232.248 473.968 231.176C474.8 231.704 475.76 232.36 476.256 232.792L476.8 231.88C476.288 231.496 475.328 230.872 474.528 230.376C474.64 230.2 474.752 230.024 474.848 229.832L473.872 229.496ZM483.376 240.232V242.472H478.96V240.232H483.376ZM482.704 234.856V236.888H478.96V234.856H482.704ZM478.96 237.88H483.728V233.88H477.904V244.2H478.96V243.496H483.376V244.12H484.432V239.208H478.96V237.88ZM481.344 231.464L481.808 231.224C481.648 230.776 481.296 230.072 480.992 229.528L479.984 229.96C480.208 230.408 480.496 231 480.688 231.464H476.88V234.056H477.856V232.44H484.032V234.056H485.056V231.464H481.344ZM491.728 241.24C490.672 241.928 488.64 242.552 486.992 242.824C487.232 243.048 487.552 243.432 487.712 243.72C489.376 243.336 491.472 242.52 492.624 241.656L491.728 241.24ZM495.6 241.8C497.12 242.36 499.152 243.176 500.208 243.688L500.944 242.936C499.84 242.424 497.808 241.656 496.304 241.16L495.6 241.8ZM496.544 233.448C496.32 233.912 495.92 234.584 495.6 235.032L496.16 235.208H491.744L492.4 235.032C492.256 234.6 491.92 233.944 491.552 233.448H496.544ZM494.56 239.432V238.232H499.568V237.32H494.56V236.168H500.352V235.208H496.688C497.04 234.808 497.424 234.264 497.792 233.736L496.752 233.448H500.912V232.456H498.448C498.864 231.848 499.392 230.968 499.84 230.152L498.624 229.816C498.352 230.536 497.84 231.592 497.392 232.248L498.032 232.456H496.096V229.624H494.96V232.456H493.056V229.624H491.936V232.456H489.984L490.784 232.136C490.56 231.496 489.984 230.504 489.424 229.784L488.416 230.136C488.912 230.856 489.456 231.816 489.696 232.456H487.12V233.448H491.248L490.4 233.672C490.736 234.136 491.056 234.76 491.216 235.208H487.76V236.168H493.392V237.32H488.576V238.232H493.392V239.432H487.072V240.44H493.392V244.232H494.56V240.44H500.976V239.432H494.56ZM509.568 234.728V232.68H513.12C512.368 233.4 511.552 234.088 510.688 234.728H509.568ZM513.904 240.056H507.424V238.472H513.904V240.056ZM507.424 242.664V241H513.904V242.664H507.424ZM517.072 235.8V234.728H512.464C513.92 233.528 515.232 232.184 516.352 230.712L515.344 230.168C514.8 230.904 514.192 231.608 513.52 232.28V231.624H509.568V229.624H508.4V231.624H504.32V232.68H508.4V234.728H502.928V235.8H509.152C507.136 237.096 504.896 238.152 502.576 238.968C502.8 239.208 503.184 239.688 503.328 239.944C504.304 239.576 505.296 239.144 506.256 238.68V244.216H507.424V243.704H513.904V244.152H515.12V237.464H508.512C509.392 236.952 510.256 236.392 511.088 235.8H517.072ZM523.984 231.784C523.664 231.192 522.976 230.28 522.352 229.656L521.328 230.088C521.936 230.744 522.608 231.688 522.896 232.296L523.984 231.784ZM520.576 244.12C521.536 243.176 522.08 241.656 522.448 240.328L521.456 240.008C521.136 241.24 520.544 242.648 519.648 243.48L520.576 244.12ZM523.472 240.36C523.776 241.4 523.936 242.696 523.904 243.56L524.944 243.416C524.944 242.552 524.768 241.256 524.464 240.232L523.472 240.36ZM525.824 240.216C526.224 241.096 526.592 242.264 526.704 243.016L527.696 242.744C527.568 242.008 527.168 240.872 526.752 240.008L525.824 240.216ZM529.28 233.416C529.152 234.056 529.008 234.696 528.864 235.208H524.944C525.296 234.632 525.632 234.024 525.92 233.416H529.28ZM522.816 238.072C523.344 237.496 523.824 236.888 524.272 236.248H530.48C530.352 236.888 530.208 237.544 530.08 238.072H522.816ZM531.184 238.072C531.376 237.24 531.6 236.136 531.792 235.208H529.968C530.176 234.376 530.4 233.272 530.576 232.328H526.416C526.768 231.544 527.056 230.728 527.328 229.912L526.144 229.608C525.872 230.52 525.536 231.432 525.152 232.328H519.36V233.416H524.624C523.248 236.088 521.248 238.488 518.544 240.04C518.752 240.28 519.056 240.76 519.2 241.032C520.144 240.472 521.008 239.832 521.776 239.112H531.648C531.392 241.656 531.12 242.712 530.8 243.048C530.64 243.176 530.48 243.208 530.192 243.208C529.888 243.208 529.12 243.208 528.32 243.112C528.512 243.416 528.64 243.88 528.672 244.2C529.488 244.248 530.272 244.248 530.672 244.216C531.152 244.184 531.456 244.088 531.76 243.784C532.256 243.256 532.56 241.928 532.848 238.584C532.88 238.424 532.896 238.072 532.896 238.072H531.184ZM530.24 241.768C530.032 241.192 529.52 240.296 529.024 239.656L528.192 239.976C528.672 240.632 529.168 241.56 529.36 242.136L530.24 241.768ZM147.52 254.152C147.264 254.728 146.976 255.304 146.752 255.72L147.76 255.928C148.16 255.288 148.64 254.2 149.056 253.288L148.24 253.064L148.048 253.112H142.064C142.256 252.712 142.432 252.312 142.592 251.912L141.488 251.64C140.96 253.144 140.032 254.6 138.944 255.544C139.2 255.72 139.648 256.088 139.84 256.296C140.432 255.72 141.008 254.984 141.504 254.152H147.52ZM145.872 256.424C146.656 257.416 147.472 258.776 147.824 259.672L148.848 259.128C148.48 258.264 147.648 256.936 146.832 255.976L145.872 256.424ZM143.872 263.048C143.424 262.264 142.416 261.128 141.536 260.312L140.624 260.824C141.488 261.672 142.48 262.872 142.88 263.64L143.872 263.048ZM141.472 256.008C141.04 257.112 140.304 258.232 139.472 258.984C139.728 259.128 140.16 259.464 140.368 259.656C141.2 258.84 142.032 257.576 142.56 256.312L141.472 256.008ZM144.976 254.744H143.84V260.632H144.976V254.744ZM135.936 265.576C136.528 264.6 137.088 263.096 137.504 262.056L136.432 261.608C136.08 262.664 135.456 264.12 134.816 265.064L135.936 265.576ZM138.432 251.576C137.52 253.352 136.08 255.112 134.608 256.216C134.848 256.44 135.232 256.92 135.392 257.144C135.904 256.712 136.432 256.2 136.928 255.64V260.696H138.08V254.216C138.608 253.48 139.104 252.712 139.488 251.928L138.432 251.576ZM140.656 264.824C139.6 264.824 139.408 264.744 139.408 264.28V261.528H138.224V264.296C138.224 265.592 138.72 265.928 140.608 265.928H144.416C146 265.928 146.384 265.432 146.544 263.416C146.208 263.352 145.712 263.176 145.44 262.968C145.36 264.584 145.216 264.824 144.336 264.824H140.656ZM146.256 261.736C146.976 262.872 147.712 264.408 147.936 265.384L149.072 264.92C148.8 263.944 148.048 262.472 147.296 261.336L146.256 261.736ZM152.832 259.72C152.848 259.08 152.864 258.456 152.864 257.912V257.032H155.28V259.72H152.832ZM155.28 253.304V255.928H152.864V253.304H155.28ZM156.384 252.2H151.776V257.912C151.776 260.264 151.696 263.432 150.592 265.672C150.88 265.784 151.36 266.056 151.568 266.248C152.288 264.744 152.624 262.744 152.768 260.856H155.28V264.792C155.28 265.016 155.2 265.08 154.976 265.096C154.784 265.112 154.112 265.112 153.376 265.096C153.536 265.4 153.696 265.928 153.712 266.232C154.8 266.232 155.44 266.216 155.84 266.008C156.256 265.8 156.384 265.448 156.384 264.808V252.2ZM163.696 258.744C163.328 260.104 162.784 261.304 162.096 262.328C161.36 261.272 160.784 260.056 160.352 258.744H163.696ZM164.304 257.608L164.096 257.64H158.912V253.352H163.392V255.304C163.392 255.496 163.328 255.56 163.072 255.56C162.832 255.576 162 255.576 161.024 255.56C161.184 255.848 161.36 256.248 161.408 256.568C162.608 256.568 163.408 256.568 163.92 256.408C164.4 256.232 164.544 255.928 164.544 255.32V252.248H157.792V266.232H158.912V258.744H159.312C159.84 260.392 160.544 261.928 161.44 263.224C160.704 264.088 159.872 264.776 158.992 265.256C159.232 265.464 159.536 265.864 159.696 266.136C160.576 265.624 161.392 264.936 162.112 264.088C162.88 264.984 163.744 265.704 164.704 266.248C164.88 265.96 165.2 265.56 165.472 265.336C164.464 264.84 163.568 264.12 162.8 263.24C163.808 261.816 164.576 260.024 164.992 257.848L164.304 257.608ZM178.608 254.296C178.24 255.112 177.712 255.784 177.056 256.36C176.304 255.768 175.68 255.064 175.248 254.296H178.608ZM172.208 261.24C172.56 260.584 172.88 259.672 173.152 258.744C173.328 258.968 173.504 259.208 173.584 259.368C174.88 258.968 176.064 258.44 177.072 257.736C178.128 258.488 179.36 259.064 180.704 259.432C180.864 259.112 181.216 258.664 181.456 258.408C180.176 258.136 178.992 257.656 177.984 257.016C178.8 256.28 179.456 255.384 179.904 254.296H181.136V253.288H175.824C176.096 252.84 176.352 252.376 176.56 251.912L175.424 251.608C174.784 253.128 173.632 254.584 172.384 255.512C172.672 255.672 173.136 256.008 173.36 256.2C173.744 255.88 174.128 255.48 174.512 255.064C174.96 255.784 175.52 256.44 176.16 257.016C175.344 257.544 174.368 257.944 173.296 258.248C173.376 257.96 173.456 257.672 173.536 257.4L172.816 257.144L172.64 257.208H171.456L172.064 256.52C171.728 256.216 171.248 255.88 170.72 255.56C171.68 254.824 172.704 253.8 173.328 252.84L172.56 252.36L172.352 252.408H166.976V253.448H171.504C171.024 254.008 170.416 254.584 169.824 255.032C169.312 254.76 168.768 254.504 168.272 254.296L167.536 255.064C168.784 255.608 170.256 256.504 171.088 257.208H166.8V258.248H169.216C168.624 259.88 167.632 261.592 166.64 262.536C166.848 262.84 167.136 263.304 167.264 263.64C168.144 262.744 168.976 261.24 169.6 259.704V264.84C169.6 265.016 169.536 265.064 169.344 265.08C169.136 265.08 168.512 265.08 167.824 265.064C167.984 265.368 168.144 265.864 168.192 266.152C169.152 266.152 169.776 266.136 170.192 265.976C170.592 265.768 170.72 265.448 170.72 264.84V258.248H172.256C172.016 259.176 171.696 260.168 171.392 260.824L172.208 261.24ZM177.04 260.536C177.136 260.024 177.216 259.496 177.264 258.952H176.064C176.016 259.496 175.952 260.024 175.856 260.536H173.104V261.528H175.6C175.104 263.16 174.096 264.504 171.888 265.304C172.128 265.512 172.448 265.944 172.592 266.216C175.152 265.224 176.272 263.56 176.832 261.528H179.52C179.28 263.72 179.04 264.616 178.736 264.92C178.576 265.064 178.448 265.08 178.192 265.08C177.936 265.08 177.296 265.064 176.608 265C176.784 265.304 176.896 265.784 176.928 266.104C177.648 266.152 178.32 266.136 178.704 266.12C179.12 266.072 179.424 265.992 179.696 265.704C180.16 265.24 180.464 264.024 180.752 261.048C180.768 260.856 180.784 260.536 180.784 260.536H177.04ZM190.048 256.504C188.72 256.504 187.616 257.592 187.616 258.936C187.616 260.28 188.72 261.368 190.048 261.368C191.392 261.368 192.48 260.28 192.48 258.936C192.48 257.592 191.392 256.504 190.048 256.504ZM190.048 260.552C189.168 260.552 188.432 259.832 188.432 258.936C188.432 258.04 189.168 257.32 190.048 257.32C190.944 257.32 191.664 258.04 191.664 258.936C191.664 259.832 190.944 260.552 190.048 260.552Z" fill="#4B4B4B"/>
<rect x="0.5" y="0.5" width="559" height="317" rx="7.5" stroke="#CCCCCC"/>
</svg>
