<svg width="560" height="318" viewBox="0 0 560 318" fill="none" xmlns="http://www.w3.org/2000/svg">
<rect x="0.5" y="0.5" width="559" height="317" rx="7.5" fill="white"/>
<path d="M290 34H250C247.348 34 244.804 35.0536 242.929 36.9289C241.054 38.8043 240 41.3478 240 44V124C240 126.652 241.054 129.196 242.929 131.071C244.804 132.946 247.348 134 250 134H310C312.652 134 315.196 132.946 317.071 131.071C318.946 129.196 320 126.652 320 124V64L290 34Z" stroke="black" stroke-width="8" stroke-linecap="round" stroke-linejoin="round"/>
<path d="M290 34V63C290 63.5523 290.448 64 291 64H320" stroke="black" stroke-width="8" stroke-linecap="round" stroke-linejoin="round"/>
<path d="M300 89H260" stroke="black" stroke-width="8" stroke-linecap="round" stroke-linejoin="round"/>
<path d="M300 109H260" stroke="black" stroke-width="8" stroke-linecap="round" stroke-linejoin="round"/>
<path d="M270 69H265H260" stroke="black" stroke-width="8" stroke-linecap="round" stroke-linejoin="round"/>
<path d="M25.04 271H86.96V253H70.64C66.56 253 60.44 253.6 56 254.2C69.68 240.4 82.88 223.48 82.88 208.12C82.88 191.08 70.88 180.04 53.6 180.04C40.88 180.04 32.72 184.48 23.96 193.84L35.6 205.36C39.92 200.8 44.6 196.72 50.72 196.72C57.92 196.72 62.36 201.16 62.36 209.32C62.36 222.28 47.36 238.48 25.04 258.76V271Z" fill="#FFCB66"/>
<path d="M143.504 180.6L141.776 181.496C142.384 182.456 143.056 183.832 143.28 184.696L146.352 183.032C146.128 182.36 145.584 181.432 145.04 180.6H149.744L149.552 180.76C150.352 181.24 151.92 182.2 152.624 182.808C153.232 182.2 153.904 181.464 154.512 180.632H157.904L156.048 181.592C156.944 182.68 158.032 184.248 158.448 185.272L161.584 183.608C161.168 182.744 160.272 181.624 159.472 180.632H164.656V177.816H156.24C156.464 177.4 156.656 176.952 156.816 176.536L153.232 175.672C152.528 177.4 151.312 179.224 149.904 180.472V177.784H142.704C142.896 177.368 143.056 176.984 143.216 176.568L139.696 175.64C138.672 178.36 136.88 181.112 134.896 182.808C135.76 183.288 137.296 184.28 137.968 184.888C139.056 183.736 140.208 182.264 141.2 180.6H143.504ZM142 193.752H146.064V195.8H142V193.752ZM154.672 198.328C153.776 200.728 151.504 202.392 148.464 203.352L149.136 202.616C148.08 201.944 146.416 200.952 144.912 200.152C145.136 199.8 145.392 199.384 145.616 198.968L142.544 198.232H149.328V191.32H138.896V198.232H142.256C140.944 200.472 138.096 202.136 134.928 203.096C135.6 203.704 136.752 205.08 137.168 205.784C139.216 204.984 141.168 203.864 142.8 202.488C144.272 203.32 145.904 204.376 146.928 205.112L148.432 203.352C149.136 203.96 150.288 205.208 150.736 205.848C152.496 205.112 154.128 204.12 155.408 202.872C157.84 203.672 160.496 204.76 162.128 205.592L164.368 202.936C162.608 202.168 159.824 201.08 157.328 200.312C157.584 199.832 157.808 199.384 158 198.872L154.672 198.328ZM157.968 195.8H153.808V193.752H157.968V195.8ZM161.264 191.32H150.704V198.232H161.264V191.32ZM145.84 187.768C147.216 187.096 148.496 186.36 149.68 185.56C150.768 186.328 152.08 187.096 153.424 187.768H145.84ZM149.552 181.656C146.448 184.6 140.528 186.808 135.312 187.928C136.112 188.792 137.04 190.008 137.424 190.936C139.728 190.296 142.096 189.464 144.304 188.504V190.296H154.896V188.44C157.36 189.464 160.048 190.264 162.64 190.744C163.088 189.816 164.112 188.408 164.88 187.704C160.08 187.096 154.736 185.656 151.92 183.864C152.144 183.64 152.368 183.448 152.592 183.224L149.552 181.656ZM175.6 197.368V200.952H171.952V197.368H175.6ZM178.864 194.328H168.72V205.368H171.952V204.024H178.864V194.328ZM168.688 192.792H178.96V189.912H168.688V192.792ZM168.688 188.504H179.024V185.624H168.688V188.504ZM176.048 180.024C175.536 178.84 174.576 177.08 173.712 175.768L170.736 177.144C171.44 178.36 172.304 179.96 172.816 181.176H167.28V184.184H179.856L179.888 181.176H173.968L176.048 180.024ZM196.912 178.328H180.496L180.528 182.04H188.912V200.76C188.912 201.368 188.656 201.56 187.984 201.592C187.312 201.592 184.784 201.624 182.64 201.496C183.248 202.488 183.952 204.312 184.144 205.432C187.248 205.432 189.424 205.368 190.864 204.728C192.304 204.088 192.816 203 192.816 200.824V182.04H196.944L196.912 178.328ZM205.136 175.928C203.888 178.008 201.36 180.664 199.184 182.296C199.792 182.968 200.72 184.28 201.2 185.048C203.76 183.096 206.64 180.024 208.496 177.208L205.136 175.928ZM205.712 182.776C204.144 185.88 201.456 188.952 198.928 190.968C199.568 191.8 200.592 193.72 200.944 194.52C201.584 193.944 202.288 193.304 202.96 192.6V205.88H206.544V188.184C207.504 186.776 208.368 185.368 209.072 183.96L205.712 182.776ZM221.2 195.448C220.272 196.76 219.024 197.88 217.584 198.84C216.4 198.104 215.312 197.272 214.384 196.376C214.64 196.088 214.896 195.768 215.152 195.448H221.2ZM223.952 192.28L223.344 192.44H217.264C217.648 191.736 218.032 191.032 218.384 190.296L224.272 189.912C224.88 190.872 225.392 191.768 225.744 192.504L228.88 190.712C227.856 188.856 225.68 185.912 224.048 183.768L221.136 185.272C221.552 185.848 222 186.456 222.448 187.096L215.76 187.448C219.216 185.592 222.704 183.224 225.84 180.6L222.288 178.68C221.232 179.704 220.048 180.696 218.832 181.656L214.704 181.72C216.496 180.504 218.288 179.096 219.824 177.624L216.016 175.96C214.288 178.04 211.696 179.928 210.864 180.44C210.064 181.016 209.392 181.4 208.72 181.56C209.136 182.552 209.712 184.344 209.936 185.144C210.512 184.92 211.312 184.76 214.64 184.6C213.392 185.432 212.304 186.008 211.728 186.296C210.224 187.192 209.2 187.704 208.112 187.864C208.528 188.792 209.072 190.616 209.232 191.32C209.936 191.064 210.832 190.904 214.288 190.616C213.648 191.704 212.912 192.728 212.08 193.688C211.76 193.208 211.472 192.696 211.216 192.152L208.112 193.176C208.592 194.168 209.168 195.096 209.808 195.992C209.04 196.632 208.272 197.176 207.504 197.688C208.208 198.328 209.488 199.768 210 200.44C210.704 199.96 211.376 199.384 212.08 198.776C212.72 199.448 213.456 200.088 214.192 200.664C211.952 201.624 209.488 202.328 206.896 202.744C207.568 203.512 208.336 205.016 208.688 205.976C211.856 205.304 214.864 204.28 217.52 202.872C220.016 204.248 222.928 205.272 226.224 205.912C226.704 204.92 227.696 203.384 228.496 202.616C225.744 202.168 223.216 201.496 220.976 200.568C223.28 198.68 225.104 196.344 226.32 193.368L223.952 192.28ZM243.312 197.848C247.28 196.696 249.616 193.72 249.616 190.104C249.616 187.416 248.432 185.72 246.16 185.72C244.464 185.72 243.024 186.808 243.024 188.6C243.024 190.424 244.464 191.448 246.064 191.448C246.192 191.448 246.32 191.448 246.416 191.416C246.224 193.112 244.784 194.488 242.288 195.288L243.312 197.848ZM271.76 196.792C270.064 198.936 266.672 201.56 263.664 203.16C264.56 203.768 265.968 204.984 266.8 205.816C269.872 203.992 273.392 201.112 275.792 198.36L271.76 196.792ZM280.208 198.584C283.056 200.76 286.864 203.864 288.624 205.816L292.4 203.576C290.384 201.624 286.416 198.648 283.696 196.696L280.208 198.584ZM274.32 185.72H281.68V191.864H274.32V185.72ZM285.648 191.864V185.72H291.632V182.04H285.648V176.12H281.68V182.04H274.32V176.12H270.352V182.04H264.592V185.72H270.352V191.864H263.472V195.576H292.624V191.864H285.648ZM313.008 192.056V196.472H307.024V192.056H313.008ZM316.528 199.608V188.92H303.504V201.72H307.024V199.608H316.528ZM317.968 183.256H302V186.456H317.968V183.256ZM323.6 177.4H296.464V205.784H300.176V181.016H319.856V201.368C319.856 201.88 319.632 202.072 319.088 202.104C318.544 202.136 316.688 202.136 314.992 202.04C315.568 203.032 316.144 204.76 316.304 205.816C318.96 205.816 320.752 205.72 321.968 205.08C323.184 204.44 323.6 203.384 323.6 201.4V177.4ZM341.424 190.264H350.608V188.408H341.424V190.264ZM346.672 182.264H345.136V180.92H346.672V182.264ZM351.984 184.28V185.336C351.92 185.432 351.76 185.464 351.44 185.464H350C349.52 185.464 349.424 185.4 349.424 184.76V184.28H351.984ZM340.176 191.256V187.032C340.72 187.416 341.328 187.928 341.68 188.28C343.984 187.416 344.816 185.816 345.04 184.28H346.672V184.76C346.672 186.872 347.184 187.48 349.52 187.48H351.824H351.984V191.256H340.176ZM342.192 184.28C341.968 185.112 341.392 185.976 340.176 186.52V184.28H342.192ZM342.384 182.264H337.008V193.272H348.016V194.424H335.952V196.984H339.6L338.416 197.976C339.76 198.776 341.328 200.024 342.064 200.856L344.336 198.872C343.824 198.296 342.96 197.592 342.032 196.984H348.016V198.424C348.016 198.744 347.888 198.84 347.504 198.872C347.184 198.872 345.968 198.872 344.88 198.808C345.264 199.544 345.68 200.504 345.84 201.336C347.76 201.336 349.168 201.336 350.16 200.984C351.216 200.6 351.504 199.992 351.504 198.552V196.984H356.4V194.424H351.504V193.272H355.376V182.264H349.424V180.92H356.08V178.36H351.856C352.272 177.816 352.72 177.208 353.2 176.504L349.584 175.896C349.264 176.6 348.688 177.592 348.208 178.36H343.984C343.696 177.592 343.024 176.568 342.416 175.8L339.344 176.664C339.728 177.144 340.08 177.784 340.4 178.36H335.856V180.92H342.384V182.264ZM334.896 180.728C333.968 179.48 332.176 177.464 330.672 175.96L327.856 177.688C329.296 179.288 331.152 181.496 332.016 182.872L334.896 180.728ZM334.064 190.968L333.456 191.064H331.6C333.104 188.856 334.96 185.848 336.016 184.088L333.712 183.192L333.392 183.32H327.504V186.36H331.152C330.128 188.056 328.976 189.848 328.464 190.424C327.888 191.064 327.376 191.32 326.864 191.448C327.248 192.12 327.888 193.72 328.08 194.488C328.368 194.232 329.264 194.008 329.968 194.008H332.144C331.216 198.264 329.328 201.432 326.64 203.256C327.376 203.736 328.624 205.048 329.104 205.816C330.608 204.696 331.888 203.192 332.944 201.24C335.408 204.632 339.12 205.24 345.072 205.24C348.784 205.24 352.88 205.176 356.208 204.952C356.4 203.928 356.88 202.2 357.424 201.432C353.808 201.784 348.528 201.976 345.136 201.976C339.824 201.944 336.208 201.528 334.352 198.136C335.024 196.248 335.504 194.104 335.856 191.64L334.064 190.968ZM364.176 183.128H383.408V186.328H387.504V179.544H376.688C376.336 178.36 375.6 176.856 374.928 175.64L371.152 176.536C371.632 177.464 372.08 178.552 372.4 179.544H360.304V186.328H364.176V183.128ZM363.248 194.712C365.168 196.728 367.248 199.48 368.08 201.304L371.344 199.16C370.416 197.272 368.208 194.648 366.288 192.792L363.248 194.712ZM388.24 188.28H380.432V184.44H376.496V188.28H359.728V192.024H376.496V201.048C376.496 201.624 376.272 201.784 375.6 201.784C374.96 201.784 372.56 201.784 370.512 201.688C371.056 202.776 371.696 204.44 371.856 205.56C374.864 205.56 377.008 205.496 378.48 204.92C379.952 204.312 380.432 203.32 380.432 201.144V192.024H388.24V188.28ZM412.56 195.768V200.824H399.888V195.768H412.56ZM395.984 205.752H399.888V204.344H412.56V205.624H416.624V192.408H395.984V205.752ZM401.008 186.168C402.896 184.792 404.656 183.288 406.288 181.592C408.176 183.448 410.032 184.92 411.856 186.168H401.008ZM406.288 175.736C402.928 180.728 396.88 184.6 390.992 186.936C392.048 187.896 393.168 189.336 393.776 190.424C395.216 189.752 396.656 188.952 398.064 188.088V189.656H414.064V187.576C415.568 188.44 417.136 189.208 418.672 189.944C419.184 188.76 420.304 187.352 421.296 186.456C416.976 184.888 412.72 182.712 408.624 178.904C408.976 178.456 409.328 177.976 409.68 177.496L406.288 175.736ZM437.264 194.712C436.912 192.952 435.984 190.072 435.12 187.896L432.176 188.664C432.432 189.4 432.72 190.2 432.944 191.032L429.36 191.544C431.888 188.888 434.416 185.784 436.368 182.648L433.232 180.536C432.464 181.912 431.6 183.32 430.736 184.568L428.08 184.76C429.84 182.552 431.568 179.864 432.944 177.24L429.488 175.768C428.144 179.16 425.84 182.616 425.104 183.512C424.368 184.44 423.76 185.048 423.12 185.208C423.536 186.136 424.112 187.832 424.272 188.536C424.784 188.312 425.52 188.12 428.336 187.768C427.312 189.048 426.448 189.976 425.968 190.424C424.848 191.608 424.08 192.248 423.216 192.44C423.632 193.432 424.208 195.192 424.4 195.896C425.2 195.512 426.448 195.16 433.744 194.04C433.904 194.648 434 195.16 434.064 195.64L437.264 194.712ZM425.104 196.92C424.72 199.448 423.984 202.328 423.088 204.152C423.984 204.376 425.552 204.856 426.32 205.272C427.088 203.352 427.952 200.312 428.368 197.592L425.104 196.92ZM429.04 197.4C429.488 199.672 429.904 202.648 429.968 204.6L433.136 203.768C432.976 201.784 432.528 198.904 432.016 196.632L429.04 197.4ZM432.912 196.792C433.648 198.68 434.48 201.208 434.8 202.84L437.68 201.72C437.328 200.12 436.464 197.72 435.664 195.832L432.912 196.792ZM446.576 195.352C445.52 193.4 442.992 190.616 440.848 188.664L438.288 190.616C440.432 192.664 442.8 195.576 443.76 197.56L446.576 195.352ZM442.032 181.592C442.608 179.992 443.088 178.328 443.472 176.664L439.728 175.928C438.832 180.216 437.136 184.632 434.928 187.32C435.856 187.8 437.52 188.888 438.192 189.464C439.056 188.28 439.856 186.808 440.624 185.208H448.176C447.888 195.928 447.536 200.472 446.64 201.432C446.288 201.848 445.904 201.976 445.296 201.944C444.464 201.944 442.704 201.944 440.752 201.784C441.424 202.872 441.936 204.536 442 205.592C443.856 205.688 445.84 205.72 446.992 205.496C448.336 205.304 449.232 204.92 450.128 203.736C451.344 202.072 451.728 197.176 452.08 183.384C452.08 182.936 452.112 181.592 452.112 181.592H442.032ZM460.368 191.64C460.4 190.584 460.4 189.592 460.4 188.632V187.768H463.536V191.64H460.368ZM463.536 180.536V184.248H460.4V180.536H463.536ZM467.056 177.016H456.976V188.632C456.976 193.304 456.848 199.736 454.864 204.088C455.696 204.376 457.264 205.272 457.936 205.816C459.248 202.904 459.888 198.968 460.176 195.224H463.536V201.56C463.536 202.008 463.376 202.136 462.992 202.136C462.608 202.136 461.424 202.168 460.272 202.104C460.752 203.064 461.2 204.792 461.296 205.784C463.376 205.784 464.752 205.688 465.744 205.08C466.8 204.408 467.056 203.384 467.056 201.624V177.016ZM472.432 191.576H472.624C473.584 194.488 474.768 197.176 476.336 199.512C475.152 200.856 473.872 201.976 472.432 202.776V191.576ZM480.4 191.576C479.888 193.368 479.184 195.064 478.32 196.568C477.328 195.032 476.496 193.336 475.856 191.576H480.4ZM482.256 188.024L481.68 188.152H472.432V180.568H479.888V183.128C479.888 183.512 479.728 183.608 479.216 183.64C478.704 183.672 476.816 183.672 475.216 183.576C475.664 184.504 476.176 185.784 476.336 186.776C478.768 186.776 480.592 186.776 481.84 186.296C483.184 185.784 483.536 184.888 483.536 183.224V177.048H468.816V205.816H472.432V203.192C473.136 203.896 473.936 205.016 474.32 205.752C475.888 204.824 477.296 203.672 478.512 202.328C479.856 203.704 481.392 204.888 483.056 205.816C483.6 204.888 484.656 203.544 485.424 202.84C483.664 202.072 482.064 200.888 480.688 199.48C482.48 196.6 483.792 193.08 484.528 188.76L482.256 188.024ZM508.976 193.72C509.104 192.792 509.2 191.832 509.296 190.872H505.488C505.424 191.864 505.328 192.792 505.168 193.72H500.496V196.888H504.368C503.376 199.384 501.52 201.432 497.68 202.84C498.48 203.544 499.472 204.888 499.888 205.784C504.944 203.8 507.216 200.696 508.304 196.888H512.016C511.664 199.864 511.248 201.24 510.8 201.656C510.48 201.944 510.224 202.008 509.776 202.008C509.264 202.008 508.176 201.976 507.024 201.848C507.6 202.84 508.016 204.312 508.048 205.368C509.52 205.432 510.832 205.4 511.632 205.304C512.592 205.176 513.264 204.92 513.968 204.184C514.896 203.16 515.472 200.696 515.984 195.16C516.048 194.712 516.112 193.72 516.112 193.72H508.976ZM510.384 182.264C509.84 183.288 509.136 184.216 508.272 184.984C507.216 184.184 506.32 183.256 505.616 182.264H510.384ZM516.464 182.264V179.096H507.024C507.472 178.36 507.856 177.624 508.208 176.856L504.656 175.896C503.408 178.84 501.04 181.72 498.544 183.512C499.44 184.024 500.912 185.048 501.648 185.656C502.128 185.24 502.608 184.792 503.088 184.28C503.76 185.24 504.528 186.136 505.36 186.936C504.208 187.544 502.864 188.024 501.456 188.408L501.584 187.672L499.28 186.904L498.768 187.064H497.232L498.8 185.432C498.192 184.984 497.392 184.504 496.464 184.024C498.256 182.488 500.048 180.536 501.136 178.744L498.704 177.208L498.128 177.336H487.792V180.536H495.472C494.864 181.24 494.16 181.944 493.456 182.552C492.592 182.168 491.696 181.816 490.928 181.528L488.528 183.96C490.512 184.76 492.912 185.976 494.704 187.064H487.376V190.392H491.376C490.256 192.92 488.592 195.416 486.832 196.984C487.408 198.008 488.24 199.576 488.56 200.664C490.096 199.256 491.44 197.112 492.56 194.744V201.592C492.56 201.976 492.432 202.04 492.048 202.072C491.632 202.072 490.352 202.072 489.168 202.04C489.648 203.064 490.16 204.6 490.256 205.656C492.24 205.656 493.68 205.592 494.768 204.984C495.888 204.408 496.144 203.384 496.144 201.656V190.392H497.84C497.552 192.024 497.168 193.624 496.816 194.808L499.376 195.992C499.952 194.552 500.496 192.632 500.944 190.648C501.328 191.16 501.648 191.64 501.84 191.992C504.272 191.32 506.48 190.456 508.368 189.304C510.288 190.488 512.464 191.448 514.896 192.056C515.408 191.096 516.464 189.592 517.296 188.824C515.152 188.408 513.168 187.768 511.408 186.936C512.72 185.624 513.776 184.088 514.608 182.264H516.464Z" fill="#332200"/>
<path d="M140.192 233.64C140.192 235.384 140.048 237.56 138.752 239.624C138.048 239.048 137.328 238.472 136.64 237.96C136.96 236.76 137.296 235.304 137.584 233.816L140.192 233.64ZM141.36 231.736H140.192V232.52L137.808 232.648C137.968 231.656 138.128 230.664 138.24 229.752L137.008 229.672C136.928 230.6 136.768 231.656 136.608 232.712L134.592 232.808L134.736 233.992L136.384 233.88C136.048 235.56 135.68 237.16 135.312 238.312C136.192 238.968 137.184 239.768 138.08 240.568C137.28 241.56 136.16 242.504 134.624 243.336C134.912 243.544 135.28 243.944 135.456 244.232C137.008 243.384 138.144 242.408 138.992 241.384C139.712 242.072 140.352 242.728 140.8 243.256L141.68 242.328C141.184 241.784 140.48 241.112 139.696 240.408C141.184 238.088 141.36 235.608 141.36 233.656V233.576L142.032 233.528L142.048 232.424L141.36 232.456V231.736ZM143.776 241.496V232.472H147.232V241.496H143.776ZM142.64 231.336V243.816H143.776V242.632H147.232V243.592H148.4V231.336H142.64ZM161.952 237.336H155.28V235.72H161.952V237.336ZM155.232 240.04C155.264 239.624 155.28 239.24 155.28 238.856V238.36H161.952V240.04H155.232ZM164.992 232.792V231.672H156.832C157.072 231.096 157.28 230.488 157.456 229.896L156.272 229.608C156.08 230.296 155.84 230.984 155.568 231.672H151.072V232.792H155.056C154.064 234.856 152.624 236.744 150.752 238.008C150.976 238.248 151.344 238.68 151.504 238.936C152.48 238.248 153.344 237.4 154.096 236.488V238.824C154.096 240.344 153.952 242.104 152.624 243.384C152.88 243.56 153.312 244.056 153.456 244.312C154.4 243.432 154.88 242.232 155.088 241.064H161.952V242.728C161.952 242.968 161.856 243.048 161.584 243.064C161.296 243.064 160.336 243.08 159.264 243.032C159.44 243.368 159.616 243.848 159.664 244.2C161.024 244.2 161.92 244.184 162.448 243.992C162.96 243.8 163.12 243.448 163.12 242.728V234.648H155.376C155.728 234.056 156.048 233.416 156.352 232.792H164.992ZM179.632 231.064V232.136H177.328V231.064H179.632ZM179.952 234.968C180.368 234.968 180.816 234.952 181.056 234.888C181.008 234.664 180.976 234.296 180.96 234.04C180.688 234.088 180.192 234.104 179.92 234.104H177.744C177.392 234.104 177.328 233.96 177.328 233.512V232.952H180.672V230.264H176.336V233.496C176.336 234.568 176.608 234.968 177.712 234.968H179.952ZM174.496 231.048V232.12H172.24V231.048H174.496ZM172.24 234.152V232.936H175.52V230.248H171.28V233.512C171.28 234.12 171.04 234.312 170.864 234.408C170.992 234.648 171.216 235.096 171.28 235.368C171.552 235.208 172.016 235.112 175.568 234.472C175.568 234.264 175.616 233.896 175.664 233.624L172.24 234.152ZM174.688 237.32H177.184V238.792H174.688V237.32ZM181.12 238.792H178.288V237.32H180.608V236.392H178.288V235.24H177.184V236.392H174.688V235.24H173.584V236.392H171.376V237.32H173.584V238.792H170.72V239.72H181.12V238.792ZM180.864 241.736C180.096 241.144 178.752 240.408 177.568 239.848L176.768 240.392C177.936 240.952 179.136 241.688 179.808 242.28L180.864 241.736ZM174.112 239.864C173.36 240.52 172.16 241.16 171.024 241.608C171.296 241.752 171.728 242.12 171.936 242.344C173.024 241.832 174.32 241.016 175.168 240.232L174.112 239.864ZM170.048 232.152C169.6 231.512 168.736 230.504 168 229.72L167.12 230.264C167.824 231.048 168.704 232.136 169.136 232.808L170.048 232.152ZM170.032 237.208L169.824 237.24H168.272C169.008 236.152 170 234.44 170.544 233.528L169.76 233.208L169.568 233.288H166.816V234.28H168.944C168.4 235.272 167.632 236.568 167.344 236.904C167.088 237.208 166.864 237.304 166.64 237.368C166.768 237.608 166.992 238.152 167.056 238.44C167.184 238.328 167.616 238.216 167.968 238.216H169.408C168.928 240.68 167.92 242.456 166.528 243.448C166.768 243.608 167.152 244.008 167.312 244.264C168.064 243.688 168.72 242.888 169.28 241.864C170.528 243.672 172.56 243.992 175.808 243.992C177.568 243.992 179.584 243.944 181.088 243.864C181.152 243.528 181.28 242.984 181.472 242.712C179.824 242.856 177.504 242.936 175.808 242.936C172.784 242.936 170.768 242.68 169.712 240.904C170.096 239.912 170.416 238.744 170.608 237.432L170.032 237.208ZM187.28 236.36L185.84 236.84V233.928H187.456V232.824H185.84V229.64H184.72V232.824H182.8V233.928H184.72V237.192C183.936 237.448 183.216 237.672 182.64 237.832L182.928 238.968C183.488 238.792 184.096 238.6 184.72 238.376V242.776C184.72 242.984 184.64 243.048 184.448 243.048C184.272 243.064 183.632 243.064 182.944 243.032C183.104 243.368 183.248 243.848 183.296 244.152C184.304 244.152 184.912 244.12 185.28 243.928C185.68 243.736 185.84 243.416 185.84 242.76V237.992C186.368 237.832 186.896 237.64 187.44 237.448L187.28 236.36ZM194.256 237.512C194.096 237.96 193.808 238.568 193.584 239.032H191.008L191.168 238.984C191.088 238.584 190.784 237.976 190.544 237.512H194.256ZM191.616 231.08H193.216V232.744H191.616V231.08ZM190.672 232.744H189.152V231.08H190.672V232.744ZM194.16 231.08H195.776V232.744H194.16V231.08ZM197.184 241.112H192.912V239.96H196.624V239.032H194.656C194.88 238.648 195.136 238.2 195.376 237.768L194.432 237.512H196.96V236.568H192.912V235.448H196.448V234.536H192.912V233.592H196.784V230.216H188.176V233.592H191.776V234.536H188.352V235.448H191.776V236.568H187.664V237.512H190.464L189.552 237.736C189.76 238.136 189.968 238.648 190.096 239.032H187.984V239.96H191.776V241.112H187.44V242.04H191.776V244.232H192.912V242.04H197.2L197.184 241.112ZM209.792 238.888V242.2H202.368V238.888H209.792ZM201.168 244.2H202.368V243.304H209.792V244.136H211.024V237.832H201.168V244.2ZM202.432 234.808C203.792 233.912 205.056 232.856 206.096 231.656C207.296 232.936 208.576 233.944 209.984 234.808H202.432ZM206.256 229.576C204.64 232.04 201.712 234.152 198.688 235.352C199.024 235.624 199.344 236.072 199.552 236.392C200.384 236.024 201.2 235.576 202 235.096V235.912H210.016V234.824C210.832 235.352 211.696 235.8 212.608 236.248C212.784 235.88 213.12 235.432 213.424 235.176C210.88 234.104 208.656 232.792 206.784 230.808C206.96 230.568 207.136 230.344 207.296 230.088L206.256 229.576ZM221.408 238.76C221.248 237.944 220.768 236.552 220.304 235.512L219.36 235.752C219.536 236.216 219.728 236.744 219.888 237.24L216.864 237.688C218.24 236.296 219.632 234.552 220.816 232.776L219.792 232.136C219.424 232.792 218.96 233.448 218.528 234.072L216.448 234.264C217.472 233.08 218.48 231.56 219.312 230.056L218.208 229.576C217.408 231.336 216.112 233.128 215.712 233.592C215.344 234.072 215.024 234.392 214.72 234.472C214.864 234.776 215.04 235.32 215.104 235.56C215.344 235.448 215.728 235.368 217.728 235.128C217.008 236.024 216.4 236.728 216.112 237.016C215.552 237.576 215.152 237.96 214.8 238.008C214.928 238.328 215.12 238.904 215.184 239.144C215.504 238.952 216.064 238.824 220.192 238.2C220.272 238.52 220.336 238.808 220.384 239.064L221.408 238.76ZM215.744 239.832C215.504 241.096 215.152 242.536 214.704 243.512C214.992 243.592 215.488 243.752 215.728 243.88C216.128 242.904 216.544 241.4 216.816 240.056L215.744 239.832ZM217.664 239.96C217.872 241.064 218.08 242.536 218.144 243.48L219.152 243.224C219.088 242.264 218.848 240.856 218.624 239.72L217.664 239.96ZM219.6 239.672C220 240.648 220.416 241.928 220.592 242.76L221.552 242.424C221.36 241.608 220.912 240.344 220.496 239.384L219.6 239.672ZM226.112 239.256C225.6 238.28 224.368 236.84 223.296 235.816L222.464 236.424C223.536 237.48 224.736 238.952 225.232 239.944L226.112 239.256ZM228.768 232.568H223.44C223.792 231.704 224.096 230.776 224.32 229.848L223.168 229.624C222.64 231.784 221.776 233.944 220.656 235.336C220.96 235.496 221.456 235.816 221.68 236.008C222.144 235.352 222.592 234.568 222.992 233.688H227.568C227.392 239.864 227.168 242.248 226.688 242.76C226.528 242.968 226.352 243 226.048 243C225.664 243 224.768 243 223.76 242.92C223.984 243.256 224.128 243.752 224.144 244.104C225.024 244.152 225.968 244.168 226.496 244.12C227.072 244.056 227.424 243.912 227.776 243.464C228.368 242.696 228.544 240.296 228.768 233.192V232.568ZM232.832 237.72C232.848 237.08 232.864 236.456 232.864 235.912V235.032H235.28V237.72H232.832ZM235.28 231.304V233.928H232.864V231.304H235.28ZM236.384 230.2H231.776V235.912C231.776 238.264 231.696 241.432 230.592 243.672C230.88 243.784 231.36 244.056 231.568 244.248C232.288 242.744 232.624 240.744 232.768 238.856H235.28V242.792C235.28 243.016 235.2 243.08 234.976 243.096C234.784 243.112 234.112 243.112 233.376 243.096C233.536 243.4 233.696 243.928 233.712 244.232C234.8 244.232 235.44 244.216 235.84 244.008C236.256 243.8 236.384 243.448 236.384 242.808V230.2ZM243.696 236.744C243.328 238.104 242.784 239.304 242.096 240.328C241.36 239.272 240.784 238.056 240.352 236.744H243.696ZM244.304 235.608L244.096 235.64H238.912V231.352H243.392V233.304C243.392 233.496 243.328 233.56 243.072 233.56C242.832 233.576 242 233.576 241.024 233.56C241.184 233.848 241.36 234.248 241.408 234.568C242.608 234.568 243.408 234.568 243.92 234.408C244.4 234.232 244.544 233.928 244.544 233.32V230.248H237.792V244.232H238.912V236.744H239.312C239.84 238.392 240.544 239.928 241.44 241.224C240.704 242.088 239.872 242.776 238.992 243.256C239.232 243.464 239.536 243.864 239.696 244.136C240.576 243.624 241.392 242.936 242.112 242.088C242.88 242.984 243.744 243.704 244.704 244.248C244.88 243.96 245.2 243.56 245.472 243.336C244.464 242.84 243.568 242.12 242.8 241.24C243.808 239.816 244.576 238.024 244.992 235.848L244.304 235.608ZM258.608 232.296C258.24 233.112 257.712 233.784 257.056 234.36C256.304 233.768 255.68 233.064 255.248 232.296H258.608ZM252.208 239.24C252.56 238.584 252.88 237.672 253.152 236.744C253.328 236.968 253.504 237.208 253.584 237.368C254.88 236.968 256.064 236.44 257.072 235.736C258.128 236.488 259.36 237.064 260.704 237.432C260.864 237.112 261.216 236.664 261.456 236.408C260.176 236.136 258.992 235.656 257.984 235.016C258.8 234.28 259.456 233.384 259.904 232.296H261.136V231.288H255.824C256.096 230.84 256.352 230.376 256.56 229.912L255.424 229.608C254.784 231.128 253.632 232.584 252.384 233.512C252.672 233.672 253.136 234.008 253.36 234.2C253.744 233.88 254.128 233.48 254.512 233.064C254.96 233.784 255.52 234.44 256.16 235.016C255.344 235.544 254.368 235.944 253.296 236.248C253.376 235.96 253.456 235.672 253.536 235.4L252.816 235.144L252.64 235.208H251.456L252.064 234.52C251.728 234.216 251.248 233.88 250.72 233.56C251.68 232.824 252.704 231.8 253.328 230.84L252.56 230.36L252.352 230.408H246.976V231.448H251.504C251.024 232.008 250.416 232.584 249.824 233.032C249.312 232.76 248.768 232.504 248.272 232.296L247.536 233.064C248.784 233.608 250.256 234.504 251.088 235.208H246.8V236.248H249.216C248.624 237.88 247.632 239.592 246.64 240.536C246.848 240.84 247.136 241.304 247.264 241.64C248.144 240.744 248.976 239.24 249.6 237.704V242.84C249.6 243.016 249.536 243.064 249.344 243.08C249.136 243.08 248.512 243.08 247.824 243.064C247.984 243.368 248.144 243.864 248.192 244.152C249.152 244.152 249.776 244.136 250.192 243.976C250.592 243.768 250.72 243.448 250.72 242.84V236.248H252.256C252.016 237.176 251.696 238.168 251.392 238.824L252.208 239.24ZM257.04 238.536C257.136 238.024 257.216 237.496 257.264 236.952H256.064C256.016 237.496 255.952 238.024 255.856 238.536H253.104V239.528H255.6C255.104 241.16 254.096 242.504 251.888 243.304C252.128 243.512 252.448 243.944 252.592 244.216C255.152 243.224 256.272 241.56 256.832 239.528H259.52C259.28 241.72 259.04 242.616 258.736 242.92C258.576 243.064 258.448 243.08 258.192 243.08C257.936 243.08 257.296 243.064 256.608 243C256.784 243.304 256.896 243.784 256.928 244.104C257.648 244.152 258.32 244.136 258.704 244.12C259.12 244.072 259.424 243.992 259.696 243.704C260.16 243.24 260.464 242.024 260.752 239.048C260.768 238.856 260.784 238.536 260.784 238.536H257.04ZM268.688 239.992C270.368 239.4 271.456 238.088 271.456 236.36C271.456 235.24 270.976 234.52 270.096 234.52C269.44 234.52 268.88 234.92 268.88 235.672C268.88 236.424 269.424 236.808 270.08 236.808C270.176 236.808 270.256 236.808 270.352 236.792C270.272 237.88 269.568 238.632 268.336 239.144L268.688 239.992ZM282.496 231.752C282.336 231.192 281.984 230.312 281.648 229.656L280.656 229.96C280.96 230.632 281.312 231.544 281.456 232.12L282.496 231.752ZM282.704 239.64V242.312H280.256V239.64H282.704ZM283.76 238.664H279.216V244.024H280.256V243.288H283.76V238.664ZM279.152 237.416H283.808V236.472H279.152V237.416ZM283.792 234.312H279.136V235.256H283.792V234.312ZM278.768 233.272H284.256V232.296H278.768V233.272ZM286.416 240.776C286.448 240.36 286.464 239.96 286.464 239.592H291.264V240.776H286.416ZM291.264 237.56V238.744H286.464V237.56H291.264ZM292.384 236.616H285.376V239.56C285.376 240.824 285.264 242.44 284.32 243.64C284.56 243.768 284.976 244.2 285.152 244.424C285.808 243.64 286.128 242.632 286.304 241.624H291.264V242.984C291.264 243.16 291.216 243.224 291.008 243.224C290.816 243.24 290.16 243.24 289.44 243.208C289.6 243.496 289.728 243.896 289.776 244.2C290.784 244.2 291.44 244.2 291.84 244.024C292.272 243.848 292.384 243.56 292.384 242.984V236.616ZM289.376 234.76V233.672H292.848V232.808H289.376V231.832H293.152V230.92H289.376V229.624H288.208V230.92H284.608V231.832H288.208V232.808H285.008V233.672H288.208V234.76H284.432V235.672H293.312V234.76H289.376ZM299.168 231.784C298.928 231.16 298.336 230.248 297.792 229.56L296.752 229.96C297.28 230.664 297.856 231.624 298.048 232.232L299.168 231.784ZM297.552 235.56C297.584 234.856 297.6 234.104 297.616 233.352H301.296V232.248H294.864V233.352H296.448C296.4 237.688 296.256 241.24 294.544 243.304C294.848 243.48 295.264 243.88 295.44 244.168C296.88 242.44 297.344 239.816 297.52 236.648H299.568C299.408 240.792 299.232 242.312 298.928 242.664C298.8 242.84 298.672 242.888 298.464 242.872C298.24 242.872 297.792 242.872 297.232 242.824C297.408 243.128 297.52 243.592 297.536 243.912C298.112 243.944 298.656 243.944 298.992 243.896C299.392 243.864 299.648 243.752 299.904 243.4C300.352 242.824 300.528 241.112 300.72 236.104C300.736 235.944 300.736 235.56 300.736 235.56H297.552ZM302.416 241.048C303.92 241.816 305.824 243.016 306.736 243.864L307.536 242.824C306.592 242.008 304.64 240.872 303.168 240.152L302.416 241.048ZM306.96 237.864C306.352 237.256 305.104 236.376 304.16 235.768L303.392 236.536C304.336 237.192 305.552 238.136 306.144 238.744L306.96 237.864ZM304.784 229.528C304.08 231.976 302.656 234.072 300.784 235.224C301.104 235.48 301.424 235.88 301.616 236.168C303.072 235.16 304.256 233.688 305.072 231.912C305.984 233.608 307.328 235.192 308.624 236.072C308.832 235.752 309.216 235.32 309.504 235.096C308.016 234.264 306.432 232.44 305.584 230.744C305.696 230.456 305.792 230.168 305.872 229.864L304.784 229.528ZM318.752 240.84H321.136V242.52H318.752V240.84ZM321.136 237.288H318.752V235.672H321.136V237.288ZM321.136 239.912H318.752V238.216H321.136V239.912ZM314.816 241.096H313.04V236.424H314.816V241.096ZM325.2 242.52H322.24V240.84H324.528V239.912H322.24V238.216H324.528V237.288H322.24V235.672H324.736V234.664H322.544C322.352 234.12 321.968 233.384 321.648 232.792L320.656 233.192C320.88 233.64 321.136 234.184 321.344 234.664H319.264C319.776 233.928 320.224 233.128 320.624 232.264H323.792V233.944H324.864V231.24H321.04C321.232 230.792 321.392 230.296 321.536 229.816L320.416 229.592C320.256 230.152 320.064 230.712 319.856 231.24H316.464V233.976H317.504V232.264H319.376C318.512 234.008 317.328 235.48 315.856 236.504V235.384H313.12C313.456 234.28 313.712 233.064 313.92 231.832H316.128V230.744H310.88V231.832H312.768C312.352 234.472 311.648 236.92 310.496 238.552C310.72 238.792 311.056 239.336 311.184 239.576C311.488 239.176 311.76 238.696 312.016 238.216V243.448H313.04V242.152H315.856V236.568C316.096 236.824 316.416 237.272 316.544 237.512C316.912 237.224 317.296 236.92 317.632 236.584V244.232H318.752V243.544H325.216L325.2 242.52ZM339.536 231.272C339.408 234.504 339.248 235.752 338.992 236.04C338.848 236.2 338.72 236.232 338.464 236.232C338.208 236.232 337.536 236.216 336.8 236.152C336.992 236.456 337.104 236.888 337.136 237.208C337.84 237.24 338.544 237.24 338.944 237.208C339.376 237.176 339.68 237.064 339.952 236.744C340.336 236.248 340.512 234.808 340.688 230.76C340.688 230.6 340.704 230.248 340.704 230.248H332.912V231.272H336.208C336.128 232.056 336.016 232.792 335.808 233.48C335.2 232.952 334.368 232.264 333.696 231.736L333.072 232.408C333.824 233.032 334.8 233.88 335.392 234.488C334.864 235.56 334 236.424 332.576 237.016C332.816 237.208 333.136 237.592 333.264 237.864C336.208 236.552 337.008 234.152 337.296 231.272H339.536ZM335.568 237.88C336.224 238.616 336.944 239.64 337.28 240.264L338.064 239.72C337.712 239.096 336.976 238.136 336.304 237.416L335.568 237.88ZM330.384 231.752C330.16 231.176 329.744 230.296 329.328 229.64L328.32 229.992C328.704 230.68 329.136 231.592 329.312 232.168L330.384 231.752ZM332.32 232.264H326.688V233.256H332.32V232.264ZM331.936 234.424H327.104V235.368H331.936V234.424ZM327.104 237.512H331.936V236.552H327.104V237.512ZM330.832 239.672V242.344H328.112V239.672H330.832ZM331.856 238.696H327.104V244.056H328.112V243.32H331.856V238.696ZM332.752 242.68C333.296 241.8 333.648 240.344 333.856 239.192L333.008 238.936C332.816 240.024 332.432 241.432 331.888 242.296L332.752 242.68ZM335.968 242.92C335.424 242.92 335.312 242.84 335.312 242.456V238.568H334.272V242.456C334.272 243.56 334.592 243.88 335.856 243.88H337.936C339.04 243.88 339.328 243.368 339.44 241.192C339.152 241.128 338.72 240.968 338.496 240.792C338.448 242.648 338.352 242.92 337.824 242.92H335.968ZM339.168 238.584C339.728 239.656 340.288 241.08 340.512 241.944L341.424 241.592C341.2 240.744 340.592 239.352 340.016 238.296L339.168 238.584ZM353.792 238.888V242.2H346.368V238.888H353.792ZM345.168 244.2H346.368V243.304H353.792V244.136H355.024V237.832H345.168V244.2ZM346.432 234.808C347.792 233.912 349.056 232.856 350.096 231.656C351.296 232.936 352.576 233.944 353.984 234.808H346.432ZM350.256 229.576C348.64 232.04 345.712 234.152 342.688 235.352C343.024 235.624 343.344 236.072 343.552 236.392C344.384 236.024 345.2 235.576 346 235.096V235.912H354.016V234.824C354.832 235.352 355.696 235.8 356.608 236.248C356.784 235.88 357.12 235.432 357.424 235.176C354.88 234.104 352.656 232.792 350.784 230.808C350.96 230.568 351.136 230.344 351.296 230.088L350.256 229.576ZM365.408 238.76C365.248 237.944 364.768 236.552 364.304 235.512L363.36 235.752C363.536 236.216 363.728 236.744 363.888 237.24L360.864 237.688C362.24 236.296 363.632 234.552 364.816 232.776L363.792 232.136C363.424 232.792 362.96 233.448 362.528 234.072L360.448 234.264C361.472 233.08 362.48 231.56 363.312 230.056L362.208 229.576C361.408 231.336 360.112 233.128 359.712 233.592C359.344 234.072 359.024 234.392 358.72 234.472C358.864 234.776 359.04 235.32 359.104 235.56C359.344 235.448 359.728 235.368 361.728 235.128C361.008 236.024 360.4 236.728 360.112 237.016C359.552 237.576 359.152 237.96 358.8 238.008C358.928 238.328 359.12 238.904 359.184 239.144C359.504 238.952 360.064 238.824 364.192 238.2C364.272 238.52 364.336 238.808 364.384 239.064L365.408 238.76ZM359.744 239.832C359.504 241.096 359.152 242.536 358.704 243.512C358.992 243.592 359.488 243.752 359.728 243.88C360.128 242.904 360.544 241.4 360.816 240.056L359.744 239.832ZM361.664 239.96C361.872 241.064 362.08 242.536 362.144 243.48L363.152 243.224C363.088 242.264 362.848 240.856 362.624 239.72L361.664 239.96ZM363.6 239.672C364 240.648 364.416 241.928 364.592 242.76L365.552 242.424C365.36 241.608 364.912 240.344 364.496 239.384L363.6 239.672ZM370.112 239.256C369.6 238.28 368.368 236.84 367.296 235.816L366.464 236.424C367.536 237.48 368.736 238.952 369.232 239.944L370.112 239.256ZM372.768 232.568H367.44C367.792 231.704 368.096 230.776 368.32 229.848L367.168 229.624C366.64 231.784 365.776 233.944 364.656 235.336C364.96 235.496 365.456 235.816 365.68 236.008C366.144 235.352 366.592 234.568 366.992 233.688H371.568C371.392 239.864 371.168 242.248 370.688 242.76C370.528 242.968 370.352 243 370.048 243C369.664 243 368.768 243 367.76 242.92C367.984 243.256 368.128 243.752 368.144 244.104C369.024 244.152 369.968 244.168 370.496 244.12C371.072 244.056 371.424 243.912 371.776 243.464C372.368 242.696 372.544 240.296 372.768 233.192V232.568ZM377.936 229.624C377.28 230.744 375.968 232.104 374.8 232.952C374.976 233.176 375.296 233.576 375.44 233.816C376.72 232.84 378.144 231.368 379.024 230.024L377.936 229.624ZM378.32 232.856C377.44 234.536 376.016 236.2 374.64 237.288C374.864 237.528 375.2 238.104 375.328 238.328C375.824 237.912 376.352 237.4 376.848 236.824V244.28H377.968V235.448C378.496 234.728 378.976 233.976 379.376 233.224L378.32 232.856ZM386.288 238.792C385.696 239.752 384.832 240.568 383.84 241.224C383.04 240.728 382.336 240.136 381.744 239.48C381.952 239.256 382.144 239.032 382.336 238.792H386.288ZM387.168 237.752L386.976 237.8H383.056C383.344 237.4 383.6 236.952 383.824 236.52L387.376 236.296C387.728 236.776 388 237.24 388.208 237.608L389.184 237.048C388.64 236.12 387.504 234.648 386.56 233.592L385.632 234.072C385.984 234.472 386.352 234.936 386.72 235.4L381.712 235.672C383.664 234.632 385.632 233.304 387.52 231.752L386.432 231.144C385.776 231.736 385.04 232.328 384.32 232.856L381.472 232.952C382.496 232.232 383.552 231.288 384.512 230.296L383.344 229.784C382.368 230.952 380.96 232.104 380.544 232.408C380.128 232.696 379.792 232.92 379.488 232.968C379.632 233.288 379.824 233.864 379.872 234.12C380.112 234.024 380.544 233.944 382.928 233.832C382.032 234.408 381.296 234.872 380.928 235.064C380.176 235.496 379.616 235.768 379.152 235.832C379.28 236.136 379.472 236.712 379.52 236.936C379.824 236.824 380.24 236.76 382.528 236.616C382.128 237.32 381.6 238.008 381.04 238.616C380.848 238.344 380.688 238.072 380.528 237.784L379.552 238.12C379.792 238.536 380.032 238.952 380.32 239.32C379.888 239.72 379.408 240.072 378.944 240.376C379.184 240.584 379.6 241.016 379.76 241.256C380.176 240.936 380.608 240.6 381.024 240.2C381.536 240.792 382.16 241.352 382.8 241.832C381.504 242.504 380.032 242.984 378.576 243.256C378.8 243.496 379.056 243.976 379.152 244.28C380.784 243.896 382.4 243.336 383.84 242.504C385.168 243.288 386.688 243.88 388.368 244.248C388.528 243.928 388.832 243.48 389.088 243.224C387.552 242.952 386.128 242.456 384.864 241.832C386.192 240.872 387.248 239.656 387.904 238.12L387.168 237.752ZM405.216 231.672V230.744H400.4C400.592 230.424 400.752 230.12 400.896 229.8L399.776 229.544C399.344 230.504 398.576 231.448 397.744 232.088C398.016 232.232 398.48 232.568 398.704 232.76C399.04 232.456 399.408 232.072 399.744 231.672H405.216ZM403.536 233.56C403.312 233.016 402.752 232.248 402.24 231.688L401.344 232.12C401.824 232.712 402.352 233.512 402.56 234.04L403.536 233.56ZM397.856 231.624V230.696H393.744C393.872 230.408 394 230.12 394.112 229.832L392.992 229.544C392.48 230.952 391.616 232.344 390.656 233.272C390.928 233.432 391.408 233.736 391.616 233.928C392.192 233.32 392.768 232.52 393.264 231.624H397.856ZM395.728 233.368C395.616 232.92 395.312 232.2 395.008 231.688L394.08 232.088C394.368 232.632 394.672 233.368 394.768 233.832L395.728 233.368ZM397.232 242.984C396.72 242.6 395.824 242.056 395.008 241.656C395.216 241.4 395.408 241.112 395.552 240.808L394.496 240.568C393.808 241.896 392.304 242.872 390.672 243.464C390.88 243.656 391.264 244.072 391.408 244.296C392.464 243.848 393.52 243.208 394.352 242.392C395.136 242.824 396.016 243.384 396.512 243.784L397.232 242.984ZM395.2 236.312H400.656V235.448H395.2V236.312ZM399.536 237.912H402.512V239.576H399.536V237.912ZM398.544 240.408H403.568V237.064H398.544V240.408ZM393.744 237.912H396.64V239.576H393.744V237.912ZM392.736 240.408H397.696V237.064H392.736V240.408ZM400.56 240.584C400.048 241.976 398.736 242.936 397.152 243.512C397.376 243.704 397.776 244.088 397.904 244.296C398.928 243.864 399.872 243.256 400.592 242.456C401.92 242.952 403.44 243.656 404.288 244.152L405.04 243.304C404.112 242.808 402.544 242.12 401.2 241.656C401.36 241.384 401.504 241.08 401.616 240.776L400.56 240.584ZM398.016 232.52C396.432 234.024 393.424 235.192 390.768 235.8C391.024 236.056 391.312 236.472 391.456 236.744C393.712 236.152 396.112 235.16 397.888 233.896C399.552 235.064 402.32 236.12 404.576 236.616C404.752 236.328 405.056 235.88 405.312 235.64C403.008 235.24 400.08 234.328 398.576 233.368C398.72 233.256 398.848 233.144 398.976 233.016L398.016 232.52ZM410.752 231.592C410.496 231.032 409.984 230.2 409.52 229.544L408.592 230.008C409.024 230.664 409.552 231.56 409.776 232.152L410.752 231.592ZM411.264 239.624V242.264H408.544V239.624H411.264ZM412.32 238.632H407.52V244.008H408.544V243.256H412.32V238.632ZM407.504 237.448H412.368V236.504H407.504V237.448ZM407.504 235.368H412.384V234.424H407.504V235.368ZM406.832 233.304H412.88V232.328H406.832V233.304ZM421.328 230.952H413.216V232.104H417.696V242.44C417.696 242.744 417.568 242.84 417.248 242.856C416.896 242.888 415.728 242.888 414.496 242.84C414.704 243.16 414.928 243.736 414.976 244.056C416.528 244.056 417.52 244.04 418.096 243.832C418.672 243.656 418.864 243.24 418.864 242.44V232.104H421.328V230.952ZM433.792 238.888V242.2H426.368V238.888H433.792ZM425.168 244.2H426.368V243.304H433.792V244.136H435.024V237.832H425.168V244.2ZM426.432 234.808C427.792 233.912 429.056 232.856 430.096 231.656C431.296 232.936 432.576 233.944 433.984 234.808H426.432ZM430.256 229.576C428.64 232.04 425.712 234.152 422.688 235.352C423.024 235.624 423.344 236.072 423.552 236.392C424.384 236.024 425.2 235.576 426 235.096V235.912H434.016V234.824C434.832 235.352 435.696 235.8 436.608 236.248C436.784 235.88 437.12 235.432 437.424 235.176C434.88 234.104 432.656 232.792 430.784 230.808C430.96 230.568 431.136 230.344 431.296 230.088L430.256 229.576ZM445.408 238.76C445.248 237.944 444.768 236.552 444.304 235.512L443.36 235.752C443.536 236.216 443.728 236.744 443.888 237.24L440.864 237.688C442.24 236.296 443.632 234.552 444.816 232.776L443.792 232.136C443.424 232.792 442.96 233.448 442.528 234.072L440.448 234.264C441.472 233.08 442.48 231.56 443.312 230.056L442.208 229.576C441.408 231.336 440.112 233.128 439.712 233.592C439.344 234.072 439.024 234.392 438.72 234.472C438.864 234.776 439.04 235.32 439.104 235.56C439.344 235.448 439.728 235.368 441.728 235.128C441.008 236.024 440.4 236.728 440.112 237.016C439.552 237.576 439.152 237.96 438.8 238.008C438.928 238.328 439.12 238.904 439.184 239.144C439.504 238.952 440.064 238.824 444.192 238.2C444.272 238.52 444.336 238.808 444.384 239.064L445.408 238.76ZM439.744 239.832C439.504 241.096 439.152 242.536 438.704 243.512C438.992 243.592 439.488 243.752 439.728 243.88C440.128 242.904 440.544 241.4 440.816 240.056L439.744 239.832ZM441.664 239.96C441.872 241.064 442.08 242.536 442.144 243.48L443.152 243.224C443.088 242.264 442.848 240.856 442.624 239.72L441.664 239.96ZM443.6 239.672C444 240.648 444.416 241.928 444.592 242.76L445.552 242.424C445.36 241.608 444.912 240.344 444.496 239.384L443.6 239.672ZM450.112 239.256C449.6 238.28 448.368 236.84 447.296 235.816L446.464 236.424C447.536 237.48 448.736 238.952 449.232 239.944L450.112 239.256ZM452.768 232.568H447.44C447.792 231.704 448.096 230.776 448.32 229.848L447.168 229.624C446.64 231.784 445.776 233.944 444.656 235.336C444.96 235.496 445.456 235.816 445.68 236.008C446.144 235.352 446.592 234.568 446.992 233.688H451.568C451.392 239.864 451.168 242.248 450.688 242.76C450.528 242.968 450.352 243 450.048 243C449.664 243 448.768 243 447.76 242.92C447.984 243.256 448.128 243.752 448.144 244.104C449.024 244.152 449.968 244.168 450.496 244.12C451.072 244.056 451.424 243.912 451.776 243.464C452.368 242.696 452.544 240.296 452.768 233.192V232.568ZM460.688 239.992C462.368 239.4 463.456 238.088 463.456 236.36C463.456 235.24 462.976 234.52 462.096 234.52C461.44 234.52 460.88 234.92 460.88 235.672C460.88 236.424 461.424 236.808 462.08 236.808C462.176 236.808 462.256 236.808 462.352 236.792C462.272 237.88 461.568 238.632 460.336 239.144L460.688 239.992ZM476.848 233.96H479.072V242.328H476.848V233.96ZM480.24 242.328V233.96H484.688V232.808H481.008C481.568 232.04 482.224 230.968 482.752 230.008L481.488 229.624C481.104 230.52 480.416 231.768 479.856 232.568L480.512 232.808H475.088L476.096 232.36C475.84 231.592 475.168 230.488 474.496 229.64L473.456 230.056C474.08 230.872 474.736 232.04 474.992 232.808H471.328V233.96H475.68V242.328H470.912V243.528H485.104V242.328H480.24ZM472.096 235.784C472.848 237.368 473.472 239.448 473.616 240.824L474.752 240.536C474.56 239.16 473.936 237.08 473.152 235.496L472.096 235.784ZM482.08 240.856C482.704 239.496 483.472 237.4 484.016 235.656L482.768 235.352C482.384 236.936 481.632 239.176 481.008 240.536L482.08 240.856ZM491.296 239.992C490.4 241.192 488.608 242.584 487.04 243.4C487.328 243.624 487.76 244.008 487.984 244.248C489.584 243.32 491.392 241.848 492.528 240.472L491.296 239.992ZM495.392 240.584C496.896 241.704 498.816 243.288 499.76 244.232L500.88 243.496C499.872 242.552 497.888 241.016 496.416 239.976L495.392 240.584ZM491.728 234.136H496.272V237.912H491.728V234.136ZM497.488 237.912V234.136H500.656V232.984H497.488V229.752H496.272V232.984H491.728V229.752H490.528V232.984H487.488V234.136H490.528V237.912H486.848V239.064H501.232V237.912H497.488ZM512.096 236.952V239.976H507.904V236.952H512.096ZM513.216 241V235.944H506.8V242.152H507.904V241H513.216ZM514.064 233.24H506V234.28H514.064V233.24ZM516.576 230.44H503.456V244.264H504.608V231.576H515.408V242.728C515.408 242.984 515.312 243.08 515.024 243.096C514.752 243.112 513.824 243.112 512.816 243.08C513.008 243.4 513.2 243.912 513.248 244.248C514.624 244.248 515.424 244.216 515.92 244.024C516.4 243.816 516.576 243.464 516.576 242.728V230.44ZM525.264 236.584H530.48V235.896H525.264V236.584ZM528.464 232.888H527.248V231.96H528.464V232.888ZM531.376 233.624V234.44C531.328 234.472 531.264 234.488 531.056 234.488H529.792C529.44 234.488 529.392 234.456 529.392 234.168V233.624H531.376ZM524.512 237.32V233.624H526.272C526.128 234.184 525.712 234.76 524.592 235.144C524.8 235.272 525.104 235.528 525.264 235.704C526.64 235.192 527.088 234.424 527.2 233.624H528.464V234.168C528.464 235.016 528.704 235.208 529.696 235.208H531.2H531.376V237.32H524.512ZM526.336 232.888H523.488V238.056H529.36V238.968H522.832V239.832H524.976L524.464 240.232C525.152 240.696 525.952 241.352 526.336 241.848L527.072 241.176C526.72 240.776 526.08 240.232 525.472 239.832H529.36V241.224C529.36 241.384 529.312 241.448 529.104 241.448C528.928 241.464 528.272 241.464 527.552 241.432C527.68 241.688 527.84 242.008 527.888 242.28C528.912 242.28 529.536 242.28 529.952 242.136C530.368 242.008 530.48 241.784 530.48 241.24V239.832H533.12V238.968H530.48V238.056H532.448V232.888H529.392V231.96H532.976V231.096H530.256C530.528 230.728 530.816 230.312 531.088 229.896L529.968 229.608C529.76 230.024 529.376 230.648 529.056 231.096H526.816C526.592 230.68 526.144 230.04 525.76 229.592L524.8 229.896C525.104 230.248 525.408 230.696 525.648 231.096H522.864V231.96H526.336V232.888ZM522.16 232.152C521.728 231.512 520.848 230.488 520.112 229.704L519.232 230.248C519.936 231.032 520.816 232.136 521.248 232.792L522.16 232.152ZM522.112 237.208L521.92 237.24H520.32C521.136 236.168 522.24 234.488 522.832 233.56L522.048 233.224L521.856 233.304H518.864V234.28H521.184C520.56 235.256 519.728 236.536 519.376 236.904C519.136 237.192 518.88 237.304 518.656 237.368C518.784 237.608 519.024 238.152 519.088 238.44C519.2 238.312 519.632 238.216 519.984 238.216H521.52C521.024 240.68 519.968 242.456 518.512 243.448C518.752 243.608 519.136 244.008 519.296 244.264C520.08 243.688 520.768 242.888 521.344 241.864C522.592 243.672 524.608 243.992 527.872 243.992C529.616 243.992 531.632 243.944 533.136 243.864C533.2 243.528 533.344 242.984 533.52 242.712C531.888 242.856 529.568 242.936 527.872 242.936C524.864 242.936 522.832 242.68 521.776 240.936C522.208 239.944 522.512 238.776 522.72 237.432L522.112 237.208ZM136.56 254.68H147.344V256.712H148.576V253.544H143.04C142.848 252.968 142.448 252.168 142.048 251.56L140.912 251.848C141.216 252.36 141.52 253 141.728 253.544H135.376V256.712H136.56V254.68ZM136.944 260.376C137.952 261.4 139.056 262.824 139.52 263.768L140.512 263.096C140.032 262.152 138.896 260.776 137.856 259.784L136.944 260.376ZM149.008 257.8H144.944V255.544H143.728V257.8H134.992V258.968H143.728V264.584C143.728 264.872 143.616 264.952 143.328 264.952C142.992 264.968 141.872 264.984 140.72 264.936C140.896 265.256 141.088 265.784 141.136 266.12C142.656 266.12 143.616 266.104 144.176 265.912C144.736 265.736 144.944 265.368 144.944 264.6V258.968H149.008V257.8ZM158.048 256.504C156.72 256.504 155.616 257.592 155.616 258.936C155.616 260.28 156.72 261.368 158.048 261.368C159.392 261.368 160.48 260.28 160.48 258.936C160.48 257.592 159.392 256.504 158.048 256.504ZM158.048 260.552C157.168 260.552 156.432 259.832 156.432 258.936C156.432 258.04 157.168 257.32 158.048 257.32C158.944 257.32 159.664 258.04 159.664 258.936C159.664 259.832 158.944 260.552 158.048 260.552ZM177.792 260.888V264.2H170.368V260.888H177.792ZM169.168 266.2H170.368V265.304H177.792V266.136H179.024V259.832H169.168V266.2ZM170.432 256.808C171.792 255.912 173.056 254.856 174.096 253.656C175.296 254.936 176.576 255.944 177.984 256.808H170.432ZM174.256 251.576C172.64 254.04 169.712 256.152 166.688 257.352C167.024 257.624 167.344 258.072 167.552 258.392C168.384 258.024 169.2 257.576 170 257.096V257.912H178.016V256.824C178.832 257.352 179.696 257.8 180.608 258.248C180.784 257.88 181.12 257.432 181.424 257.176C178.88 256.104 176.656 254.792 174.784 252.808C174.96 252.568 175.136 252.344 175.296 252.088L174.256 251.576ZM189.408 260.76C189.248 259.944 188.768 258.552 188.304 257.512L187.36 257.752C187.536 258.216 187.728 258.744 187.888 259.24L184.864 259.688C186.24 258.296 187.632 256.552 188.816 254.776L187.792 254.136C187.424 254.792 186.96 255.448 186.528 256.072L184.448 256.264C185.472 255.08 186.48 253.56 187.312 252.056L186.208 251.576C185.408 253.336 184.112 255.128 183.712 255.592C183.344 256.072 183.024 256.392 182.72 256.472C182.864 256.776 183.04 257.32 183.104 257.56C183.344 257.448 183.728 257.368 185.728 257.128C185.008 258.024 184.4 258.728 184.112 259.016C183.552 259.576 183.152 259.96 182.8 260.008C182.928 260.328 183.12 260.904 183.184 261.144C183.504 260.952 184.064 260.824 188.192 260.2C188.272 260.52 188.336 260.808 188.384 261.064L189.408 260.76ZM183.744 261.832C183.504 263.096 183.152 264.536 182.704 265.512C182.992 265.592 183.488 265.752 183.728 265.88C184.128 264.904 184.544 263.4 184.816 262.056L183.744 261.832ZM185.664 261.96C185.872 263.064 186.08 264.536 186.144 265.48L187.152 265.224C187.088 264.264 186.848 262.856 186.624 261.72L185.664 261.96ZM187.6 261.672C188 262.648 188.416 263.928 188.592 264.76L189.552 264.424C189.36 263.608 188.912 262.344 188.496 261.384L187.6 261.672ZM194.112 261.256C193.6 260.28 192.368 258.84 191.296 257.816L190.464 258.424C191.536 259.48 192.736 260.952 193.232 261.944L194.112 261.256ZM196.768 254.568H191.44C191.792 253.704 192.096 252.776 192.32 251.848L191.168 251.624C190.64 253.784 189.776 255.944 188.656 257.336C188.96 257.496 189.456 257.816 189.68 258.008C190.144 257.352 190.592 256.568 190.992 255.688H195.568C195.392 261.864 195.168 264.248 194.688 264.76C194.528 264.968 194.352 265 194.048 265C193.664 265 192.768 265 191.76 264.92C191.984 265.256 192.128 265.752 192.144 266.104C193.024 266.152 193.968 266.168 194.496 266.12C195.072 266.056 195.424 265.912 195.776 265.464C196.368 264.696 196.544 262.296 196.768 255.192V254.568ZM207.008 264.36V259.368H212V258.2H207.008V253.944H212.608V252.792H199.504V253.944H205.792V264.36H202.272V256.872H201.072V264.36H198.896V265.528H213.136V264.36H207.008ZM228.944 256.152V254.968H222.608V251.624H221.376V254.968H215.088V256.152H219.92C218.752 258.856 216.784 261.448 214.672 262.744C214.944 262.968 215.328 263.4 215.52 263.688C217.824 262.12 219.888 259.272 221.12 256.152H221.376V262.056H217.664V263.24H221.376V266.216H222.608V263.24H226.32V262.056H222.608V256.152H222.832C224.032 259.272 226.096 262.152 228.464 263.64C228.656 263.32 229.072 262.888 229.376 262.632C227.168 261.384 225.152 258.856 224 256.152H228.944ZM237.392 254.76H232.272V255.64H243.76V254.76H238.576V253.672H244.992V252.728H238.576V251.608H237.392V252.728H231.04V253.672H237.392V254.76ZM244.656 259.176V256.536H231.344V259.176H232.448V257.448H243.504V259.176H244.656ZM242.592 259.16V258.344H233.36V259.16H242.592ZM234.256 260.92H241.648V262.344H234.256V260.92ZM240.832 264.792C241.056 264.376 241.28 263.896 241.52 263.432L240.4 263.176H242.816V260.072H233.12V263.176H240.336C240.16 263.624 239.888 264.296 239.632 264.792H236.448C236.304 264.344 235.968 263.672 235.6 263.192L234.544 263.416C234.8 263.832 235.088 264.36 235.248 264.792H230.896V265.784H245.136V264.792H240.832ZM260.432 253.64C259.952 253.096 258.944 252.28 258.128 251.736L257.328 252.392C258.144 252.968 259.136 253.832 259.6 254.392L260.432 253.64ZM251.52 259.272H254.512V258.12H247.504V259.272H250.352V263.912C249.072 264.168 247.904 264.408 247.008 264.584L247.376 265.752C249.408 265.304 252.336 264.632 255.04 263.976L254.944 262.936C253.792 263.192 252.64 263.416 251.52 263.656V259.272ZM261.088 255.736V254.584H256.352C256.304 253.64 256.288 252.68 256.288 251.688H255.04C255.056 252.664 255.072 253.64 255.12 254.584H246.944V255.736H255.2C255.616 261.656 256.944 266.248 259.552 266.248C260.768 266.248 261.216 265.432 261.424 262.664C261.088 262.536 260.64 262.28 260.368 262.008C260.272 264.136 260.08 265.016 259.648 265.016C258.064 265.016 256.8 261.128 256.416 255.736H261.088ZM265.952 258.04V258.888H266.96C266.704 260.776 266.16 262.36 265.088 263.384C265.296 263.496 265.632 263.752 265.76 263.896C266.48 263.144 266.992 262.168 267.36 261C267.568 262.008 267.968 263.016 268.672 263.864C268.816 263.704 269.136 263.432 269.328 263.336C267.952 261.736 267.84 259.704 267.84 258.04H265.952ZM271.488 258.04V258.888H272.528C272.272 260.696 271.728 262.248 270.704 263.256C270.912 263.384 271.232 263.64 271.376 263.784C272.064 263.032 272.576 262.056 272.944 260.904C273.152 261.944 273.568 262.968 274.336 263.816C274.48 263.672 274.848 263.416 275.056 263.32C273.552 261.752 273.44 259.72 273.44 258.04H271.488ZM276.912 253.736V252.568H263.168V253.736H269.36V255.736H263.728V266.184H264.864V256.84H269.36V266.136H270.48V256.84H275.2V264.824C275.2 265.064 275.136 265.128 274.896 265.144C274.64 265.16 273.808 265.16 272.944 265.128C273.104 265.416 273.28 265.88 273.344 266.184C274.48 266.184 275.264 266.168 275.76 265.992C276.224 265.8 276.368 265.48 276.368 264.824V255.736H270.48V253.736H276.912ZM285.92 252.392C285.36 254.472 284.32 256.328 282.928 257.528C283.168 257.752 283.584 258.296 283.712 258.536C285.232 257.176 286.416 255.032 287.072 252.664L285.92 252.392ZM282.272 251.672C281.376 254.088 279.904 256.488 278.336 258.024C278.544 258.296 278.88 258.904 279.008 259.176C279.552 258.616 280.096 257.96 280.592 257.24V266.2H281.76V255.432C282.384 254.328 282.944 253.16 283.408 252.008L282.272 251.672ZM284.512 258.136V259.24H286.352C286.048 262.184 285.088 264.136 282.896 265.288C283.136 265.496 283.552 265.944 283.712 266.184C286.048 264.776 287.152 262.616 287.552 259.24H290.32C290.128 263.032 289.92 264.456 289.6 264.824C289.456 265 289.312 265.016 289.072 265.016C288.8 265.016 288.192 265.016 287.504 264.952C287.664 265.256 287.776 265.704 287.808 266.04C288.512 266.088 289.2 266.088 289.6 266.04C290.032 266.008 290.336 265.88 290.608 265.544C291.072 264.984 291.28 263.32 291.504 258.68C291.504 258.504 291.52 258.136 291.52 258.136H284.512ZM287.616 252.168V253.304H289.472C290.064 255.384 291.152 257.384 292.496 258.584C292.672 258.2 293.024 257.672 293.264 257.384C291.904 256.36 290.832 254.36 290.368 252.168H287.616ZM300.688 261.992C302.368 261.4 303.456 260.088 303.456 258.36C303.456 257.24 302.976 256.52 302.096 256.52C301.44 256.52 300.88 256.92 300.88 257.672C300.88 258.424 301.424 258.808 302.08 258.808C302.176 258.808 302.256 258.808 302.352 258.792C302.272 259.88 301.568 260.632 300.336 261.144L300.688 261.992ZM317.248 253.864C316.72 253.464 315.744 252.872 314.912 252.392C315.04 252.216 315.152 252.056 315.248 251.896L314.24 251.528C313.408 252.904 311.92 254.152 310.496 254.936C310.672 255.192 310.96 255.784 311.04 256.024C312.192 255.32 313.376 254.312 314.304 253.192C315.168 253.72 316.16 254.392 316.704 254.808L317.248 253.864ZM313.088 255.48H315.792V254.664H313.088V255.48ZM315.632 257.336V258.552H312.896V257.336H315.632ZM312.896 260.872V259.432H315.632V260.872H312.896ZM315.008 262.552C315.168 262.856 315.344 263.176 315.52 263.512L312.896 264.504V261.784H316.736V256.424H311.776V264.184C311.776 264.776 311.424 265.016 311.168 265.128C311.36 265.4 311.552 265.912 311.616 266.2C311.92 265.96 312.4 265.736 315.936 264.328C316.192 264.856 316.432 265.368 316.576 265.752L317.52 265.288C317.184 264.52 316.48 263.176 315.888 262.184L315.008 262.552ZM321.136 258.264V261.304H318.896V258.264H321.136ZM322.112 262.312V257.256H317.904V263.592H318.896V262.312H322.112ZM322.528 254.888H317.536V255.88H322.528V254.888ZM324.816 252.376H317.44V253.48H323.68V264.68C323.68 264.968 323.552 265.064 323.28 265.08C322.976 265.08 322.048 265.096 320.912 265.064C321.104 265.384 321.312 265.912 321.376 266.232C322.816 266.248 323.584 266.216 324.096 266.008C324.608 265.8 324.816 265.416 324.816 264.696V252.376ZM334.624 264.536V260.6H339.648V259.464H334.624V255.96H340.304V254.792H335.136L335.888 254.248C335.264 253.496 333.984 252.408 332.96 251.672L332 252.344C332.96 253.048 334.096 254.056 334.72 254.792H327.696V255.96H333.36V259.464H328.432V260.6H333.36V264.536H326.96V265.704H341.104V264.536H334.624ZM350.816 260.152C350.816 260.296 350.784 260.36 350.608 260.36C350.448 260.376 349.968 260.376 349.408 260.344C349.536 260.584 349.664 260.904 349.712 261.16C350.48 261.16 351.04 261.16 351.392 261.016C351.744 260.856 351.84 260.648 351.84 260.152V255.944H351.408V255.928H349.312V254.216H351.952V253.208H349.312V251.72H348.272V256.888H350.816V260.152ZM348.784 257.576C348.64 258.552 348.4 259.512 347.904 260.216C348.144 260.328 348.56 260.584 348.736 260.728C349.216 259.96 349.552 258.856 349.712 257.736L348.784 257.576ZM347.456 262.728C346.448 263.608 344.528 264.664 343.008 265.288C343.232 265.544 343.552 265.944 343.712 266.184C345.264 265.512 347.168 264.44 348.48 263.448L347.456 262.728ZM351.536 263.496C353.2 264.312 354.976 265.368 356.064 266.136L356.848 265.24C355.712 264.472 353.888 263.48 352.192 262.68L351.536 263.496ZM355.68 261.368C355.824 259.016 355.904 255.24 355.92 252.424H352.528V253.464H354.832C354.832 254.104 354.816 254.776 354.8 255.464H352.672V256.488H354.784C354.752 257.16 354.736 257.816 354.704 258.456H352.592V259.464H354.672C354.64 260.152 354.592 260.808 354.56 261.368H345.488L345.424 259.416H347.488V258.392H345.376L345.312 256.44H347.424V255.416H345.28L345.216 253.544C346.032 253.288 346.912 252.984 347.648 252.68L347.072 251.704C346.304 252.104 345.104 252.584 344.112 252.936L344.416 261.368H342.8V262.472H357.216V261.368H355.68ZM362.992 253.768C362.832 253.176 362.448 252.296 362.08 251.608L361.072 251.96C361.392 252.648 361.776 253.56 361.936 254.152L362.992 253.768ZM361.68 257.448V255.384H365.056V254.264H358.88V255.384H360.592V257.816C360.592 260.136 360.384 263.048 358.56 265.512C358.832 265.672 359.232 265.96 359.408 266.184C361.216 263.784 361.616 261.016 361.68 258.536H363.488C363.376 262.904 363.232 264.456 362.992 264.808C362.864 265 362.752 265.032 362.544 265.032C362.32 265.032 361.824 265.016 361.232 264.968C361.408 265.256 361.52 265.704 361.536 266.024C362.112 266.056 362.672 266.056 363.024 266.008C363.408 265.976 363.696 265.848 363.936 265.512C364.32 264.968 364.448 263.224 364.576 257.992C364.592 257.816 364.592 257.448 364.592 257.448H361.68ZM373.088 254.824V253.736H367.568C367.808 253.128 368.032 252.488 368.208 251.816L367.056 251.608C366.592 253.496 365.728 255.304 364.592 256.472C364.864 256.648 365.328 257.016 365.536 257.192C366.096 256.552 366.64 255.736 367.088 254.824H373.088ZM372.24 258.056C371.744 258.616 370.992 259.288 370.304 259.848C370.064 258.984 369.904 258.072 369.76 257.144C370.864 256.84 371.92 256.488 372.784 256.12L371.824 255.288C370.528 255.928 368.208 256.584 366.16 257.016V263.912C366.16 264.648 365.84 265.032 365.616 265.224C365.792 265.416 366.112 265.864 366.224 266.12C366.496 265.848 366.944 265.64 369.872 264.28C369.792 264.024 369.712 263.544 369.696 263.224L367.296 264.28V257.752C367.776 257.64 368.272 257.528 368.752 257.4C369.296 261.192 370.368 264.376 372.496 265.976C372.672 265.656 373.04 265.224 373.312 265.016C372.096 264.168 371.216 262.68 370.608 260.856C371.408 260.296 372.368 259.512 373.104 258.792L372.24 258.056ZM379.136 257.336V258.6H376.672V257.336H379.136ZM376.672 260.872V259.496H379.136V260.872H376.672ZM378.272 262.44C378.48 262.824 378.704 263.224 378.896 263.656L376.672 264.52V261.784H380.192V256.424H375.616V264.296C375.616 264.872 375.28 265.096 375.04 265.192C375.216 265.432 375.392 265.944 375.456 266.2C375.744 265.992 376.176 265.752 379.312 264.472C379.552 264.952 379.744 265.384 379.872 265.736L380.752 265.288C380.432 264.504 379.68 263.112 379.104 262.104L378.272 262.44ZM376.736 254.6V255.464H379.44V254.6H376.736ZM377.872 251.496C377.152 252.856 375.824 254.104 374.576 254.904C374.752 255.128 375.024 255.704 375.104 255.928C376.128 255.24 377.152 254.248 377.968 253.176C378.8 253.704 379.76 254.36 380.256 254.792L380.8 253.88C380.288 253.496 379.328 252.872 378.528 252.376C378.64 252.2 378.752 252.024 378.848 251.832L377.872 251.496ZM387.376 262.232V264.472H382.96V262.232H387.376ZM386.704 256.856V258.888H382.96V256.856H386.704ZM382.96 259.88H387.728V255.88H381.904V266.2H382.96V265.496H387.376V266.12H388.432V261.208H382.96V259.88ZM385.344 253.464L385.808 253.224C385.648 252.776 385.296 252.072 384.992 251.528L383.984 251.96C384.208 252.408 384.496 253 384.688 253.464H380.88V256.056H381.856V254.44H388.032V256.056H389.056V253.464H385.344ZM394.912 255.192H393.104V254.264H394.912V255.192ZM394.912 256.92H393.104V255.976H394.912V256.92ZM394.912 258.632H393.104V257.704H394.912V258.632ZM401.648 255.192H399.936V254.264H401.648V255.192ZM401.648 256.92H399.936V255.992H401.648V256.92ZM401.648 258.648H399.936V257.72H401.648V258.648ZM392.08 259.464H398V258.632H395.904V257.704H397.472V256.92H395.904V255.976H397.472V255.8C397.68 256.024 397.92 256.328 398.032 256.472C398.336 256.168 398.624 255.8 398.912 255.4V259.48H405.072V258.648H402.64V257.72H404.496V256.92H402.64V255.992H404.496V255.192H402.64V254.264H404.832V253.448H403.04C402.864 252.952 402.512 252.28 402.208 251.752L401.248 252.04C401.488 252.456 401.744 253 401.92 253.448H400.08C400.32 252.952 400.56 252.408 400.752 251.896L399.776 251.624C399.28 253.064 398.432 254.536 397.472 255.544V255.192H395.904V254.264H397.808V253.432H396.272C396.096 252.936 395.744 252.248 395.424 251.704L394.448 251.976C394.704 252.408 394.976 252.968 395.136 253.432H393.28C393.52 252.936 393.744 252.392 393.936 251.88L392.976 251.624C392.464 253.112 391.6 254.584 390.608 255.544C390.816 255.736 391.136 256.168 391.264 256.36C391.552 256.088 391.808 255.752 392.08 255.4V259.464ZM401.472 261.4C400.672 262.232 399.6 262.904 398.32 263.448C396.976 262.904 395.84 262.232 394.992 261.4H401.472ZM402.624 260.344L402.4 260.408H391.68V261.4H393.792L393.552 261.512C394.4 262.52 395.52 263.352 396.816 264.024C394.96 264.632 392.832 264.984 390.8 265.16C390.992 265.448 391.2 265.928 391.296 266.248C393.664 265.976 396.096 265.496 398.224 264.664C400.048 265.384 402.144 265.848 404.368 266.104C404.512 265.752 404.832 265.24 405.104 264.952C403.2 264.792 401.376 264.456 399.76 263.976C401.296 263.176 402.576 262.152 403.424 260.856L402.624 260.344ZM420.912 255.528V254.376H414.224L415.344 253.896C415.104 253.24 414.624 252.28 414.176 251.528L413.056 251.976C413.456 252.712 413.936 253.736 414.128 254.376H407.152V255.528H411.472C411.296 259.176 410.896 263.288 406.8 265.32C407.104 265.544 407.472 265.96 407.664 266.264C410.672 264.664 411.856 262.04 412.368 259.224H418.08C417.808 262.824 417.504 264.36 417.024 264.776C416.832 264.92 416.64 264.952 416.272 264.952C415.84 264.952 414.736 264.936 413.584 264.84C413.824 265.16 413.984 265.64 414.016 266.008C415.072 266.072 416.128 266.088 416.688 266.056C417.312 266.008 417.68 265.896 418.064 265.496C418.688 264.872 419.008 263.144 419.312 258.648C419.344 258.472 419.36 258.072 419.36 258.072H412.544C412.656 257.224 412.72 256.376 412.768 255.528H420.912ZM433.456 261.64V264.488H426.464V261.64H433.456ZM425.28 266.296H426.464V265.56H433.456V266.248H434.688V260.536H425.28V266.296ZM427.28 254.344H433.184C432.384 255.304 431.296 256.184 430.08 256.936C428.928 256.216 427.92 255.384 427.152 254.488L427.28 254.344ZM434.272 253.224L434.064 253.288H428.176C428.528 252.84 428.848 252.36 429.136 251.88L428 251.48C426.88 253.448 424.944 255.24 422.944 256.328C423.216 256.536 423.664 256.984 423.856 257.208C424.72 256.68 425.584 256.008 426.4 255.24C427.136 256.088 428.032 256.856 429.024 257.56C426.96 258.648 424.64 259.448 422.528 259.896C422.736 260.152 423.008 260.648 423.104 260.968C425.408 260.424 427.888 259.512 430.096 258.264C432.08 259.464 434.352 260.376 436.672 260.904C436.848 260.584 437.168 260.088 437.44 259.816C435.232 259.384 433.056 258.6 431.2 257.592C432.784 256.52 434.16 255.256 435.088 253.784L434.272 253.224ZM445.76 255.8H442.96V254.28H445.28V253.256H442.96V251.608H441.84V253.256H439.408V254.28H441.84V255.8H438.816V256.824H445.76V255.8ZM441.568 258.904C441.456 258.36 441.104 257.512 440.72 256.888L439.872 257.176C440.224 257.816 440.56 258.696 440.672 259.24L441.568 258.904ZM445.824 263V261.976H442.976V260.312H445.424V259.288H444.048C444.304 258.68 444.576 257.912 444.848 257.208L443.824 256.936C443.664 257.624 443.328 258.632 443.056 259.288H439.312V260.312H441.856V261.976H438.816V263H441.856V266.2H442.976V263H445.824ZM448.864 254.728V251.624H447.744V254.728H445.936V255.848H447.744V256.472C447.744 257.336 447.728 258.248 447.616 259.176C447.168 258.808 446.688 258.44 446.24 258.136L445.568 258.92C446.176 259.352 446.816 259.88 447.408 260.456C447.056 262.28 446.304 264.088 444.736 265.56C444.992 265.72 445.44 266.056 445.648 266.28C447.136 264.872 447.936 263.144 448.368 261.368C448.912 261.912 449.36 262.456 449.664 262.904L450.384 261.992C450 261.416 449.36 260.728 448.624 260.056C448.816 258.84 448.864 257.608 448.864 256.472V255.848H450.56C450.528 261.224 450.512 265.56 452.112 266.04C452.88 266.312 453.376 265.768 453.488 263.384C453.296 263.256 452.976 262.888 452.768 262.616C452.72 263.88 452.624 264.92 452.496 264.904C451.584 264.68 451.632 260.04 451.696 254.728H448.864ZM454.768 258.12V259.416H469.296V258.12H454.768ZM477.92 252.392C477.36 254.472 476.32 256.328 474.928 257.528C475.168 257.752 475.584 258.296 475.712 258.536C477.232 257.176 478.416 255.032 479.072 252.664L477.92 252.392ZM474.272 251.672C473.376 254.088 471.904 256.488 470.336 258.024C470.544 258.296 470.88 258.904 471.008 259.176C471.552 258.616 472.096 257.96 472.592 257.24V266.2H473.76V255.432C474.384 254.328 474.944 253.16 475.408 252.008L474.272 251.672ZM476.512 258.136V259.24H478.352C478.048 262.184 477.088 264.136 474.896 265.288C475.136 265.496 475.552 265.944 475.712 266.184C478.048 264.776 479.152 262.616 479.552 259.24H482.32C482.128 263.032 481.92 264.456 481.6 264.824C481.456 265 481.312 265.016 481.072 265.016C480.8 265.016 480.192 265.016 479.504 264.952C479.664 265.256 479.776 265.704 479.808 266.04C480.512 266.088 481.2 266.088 481.6 266.04C482.032 266.008 482.336 265.88 482.608 265.544C483.072 264.984 483.28 263.32 483.504 258.68C483.504 258.504 483.52 258.136 483.52 258.136H476.512ZM479.616 252.168V253.304H481.472C482.064 255.384 483.152 257.384 484.496 258.584C484.672 258.2 485.024 257.672 485.264 257.384C483.904 256.36 482.832 254.36 482.368 252.168H479.616ZM491.984 253.784C491.664 253.192 490.976 252.28 490.352 251.656L489.328 252.088C489.936 252.744 490.608 253.688 490.896 254.296L491.984 253.784ZM488.576 266.12C489.536 265.176 490.08 263.656 490.448 262.328L489.456 262.008C489.136 263.24 488.544 264.648 487.648 265.48L488.576 266.12ZM491.472 262.36C491.776 263.4 491.936 264.696 491.904 265.56L492.944 265.416C492.944 264.552 492.768 263.256 492.464 262.232L491.472 262.36ZM493.824 262.216C494.224 263.096 494.592 264.264 494.704 265.016L495.696 264.744C495.568 264.008 495.168 262.872 494.752 262.008L493.824 262.216ZM497.28 255.416C497.152 256.056 497.008 256.696 496.864 257.208H492.944C493.296 256.632 493.632 256.024 493.92 255.416H497.28ZM490.816 260.072C491.344 259.496 491.824 258.888 492.272 258.248H498.48C498.352 258.888 498.208 259.544 498.08 260.072H490.816ZM499.184 260.072C499.376 259.24 499.6 258.136 499.792 257.208H497.968C498.176 256.376 498.4 255.272 498.576 254.328H494.416C494.768 253.544 495.056 252.728 495.328 251.912L494.144 251.608C493.872 252.52 493.536 253.432 493.152 254.328H487.36V255.416H492.624C491.248 258.088 489.248 260.488 486.544 262.04C486.752 262.28 487.056 262.76 487.2 263.032C488.144 262.472 489.008 261.832 489.776 261.112H499.648C499.392 263.656 499.12 264.712 498.8 265.048C498.64 265.176 498.48 265.208 498.192 265.208C497.888 265.208 497.12 265.208 496.32 265.112C496.512 265.416 496.64 265.88 496.672 266.2C497.488 266.248 498.272 266.248 498.672 266.216C499.152 266.184 499.456 266.088 499.76 265.784C500.256 265.256 500.56 263.928 500.848 260.584C500.88 260.424 500.896 260.072 500.896 260.072H499.184ZM498.24 263.768C498.032 263.192 497.52 262.296 497.024 261.656L496.192 261.976C496.672 262.632 497.168 263.56 497.36 264.136L498.24 263.768ZM509.152 256.6H511.648V257.512H509.152V256.6ZM511.648 253.208V254.104H509.152V253.208H511.648ZM511.648 255.8H509.152V254.888H511.648V255.8ZM512.736 257.512V256.6H515.808V255.8H512.736V254.888H515.808V254.104H512.736V253.208H516.4V252.296H508.032V258.408H515.648C515.504 260.008 515.344 260.664 515.136 260.872C515.056 261 514.928 261.016 514.72 261.016C514.528 261.016 514.048 261.016 513.488 260.952C513.616 261.208 513.712 261.576 513.744 261.864C514.32 261.896 514.912 261.896 515.2 261.88C515.568 261.848 515.808 261.752 516.032 261.512C516.368 261.16 516.56 260.248 516.736 257.96C516.752 257.816 516.768 257.512 516.768 257.512H512.736ZM512.96 259C513.376 259.4 513.792 259.992 513.968 260.408L514.688 260.056C514.48 259.672 514.048 259.08 513.632 258.696L512.96 259ZM511.808 263.24C511.28 262.632 510.208 261.864 509.264 261.368L508.48 262.008C509.44 262.504 510.48 263.304 510.976 263.912L511.808 263.24ZM510.448 261.08C510.384 260.552 510.192 259.704 509.92 259.048L509.072 259.224C509.312 259.88 509.52 260.728 509.552 261.288L510.448 261.08ZM512.704 260.712C512.592 260.232 512.224 259.496 511.888 258.968L511.088 259.192C511.408 259.752 511.744 260.504 511.872 260.984L512.704 260.712ZM506.656 253.704C506.048 253.176 504.816 252.472 503.84 252.056L503.12 252.888C504.112 253.352 505.328 254.088 505.904 254.632L506.656 253.704ZM506.112 256.36C505.104 257.768 503.856 259.336 502.976 260.264L503.888 261.112C504.848 259.928 505.952 258.424 506.832 257.112L506.112 256.36ZM503.712 265.912C504.8 265.096 505.456 263.784 505.888 262.584L504.896 262.184C504.512 263.336 503.792 264.52 502.768 265.256L503.712 265.912ZM507.536 258.696C507.296 259.592 506.864 260.568 506.224 261.144L507.056 261.672C507.744 261.032 508.144 259.976 508.416 259.016L507.536 258.696ZM509.056 265C508.176 265 508.032 264.936 508.032 264.536V262.392H506.864V264.536C506.864 265.72 507.28 266.04 508.976 266.04H512.208C513.52 266.04 513.888 265.624 514.048 263.832C513.712 263.768 513.248 263.624 512.976 263.432C512.912 264.808 512.784 265 512.08 265H509.056ZM513.76 262.792C514.8 263.688 515.888 264.968 516.352 265.832L517.376 265.24C516.88 264.344 515.728 263.096 514.688 262.248L513.76 262.792ZM526.048 256.504C524.72 256.504 523.616 257.592 523.616 258.936C523.616 260.28 524.72 261.368 526.048 261.368C527.392 261.368 528.48 260.28 528.48 258.936C528.48 257.592 527.392 256.504 526.048 256.504ZM526.048 260.552C525.168 260.552 524.432 259.832 524.432 258.936C524.432 258.04 525.168 257.32 526.048 257.32C526.944 257.32 527.664 258.04 527.664 258.936C527.664 259.832 526.944 260.552 526.048 260.552Z" fill="#4B4B4B"/>
<rect x="0.5" y="0.5" width="559" height="317" rx="7.5" stroke="#CCCCCC"/>
</svg>
