<svg width="560" height="318" viewBox="0 0 560 318" fill="none" xmlns="http://www.w3.org/2000/svg">
<rect x="0.5" y="0.5" width="559" height="317" rx="7.5" fill="white"/>
<path d="M280 29V139" stroke="black" stroke-width="8" stroke-linecap="round" stroke-linejoin="round"/>
<path d="M305 49H267.5C262.859 49 258.408 50.8437 255.126 54.1256C251.844 57.4075 250 61.8587 250 66.5C250 71.1413 251.844 75.5925 255.126 78.8744C258.408 82.1563 262.859 84 267.5 84H292.5C297.141 84 301.592 85.8437 304.874 89.1256C308.156 92.4075 310 96.8587 310 101.5C310 106.141 308.156 110.592 304.874 113.874C301.592 117.156 297.141 119 292.5 119H250" stroke="black" stroke-width="8" stroke-linecap="round" stroke-linejoin="round"/>
<path d="M53.48 272.68C71.24 272.68 86.48 263.32 86.48 246.64C86.48 235.12 79.16 227.92 69.32 224.92V224.32C78.8 220.48 83.6 213.52 83.6 204.64C83.6 188.68 71.48 180.04 53 180.04C42.44 180.04 33.56 184.12 25.28 191.08L36.08 204.16C41.48 199.36 46.04 196.72 52.04 196.72C58.64 196.72 62.24 200.08 62.24 206.2C62.24 213.28 57.44 217.84 42.2 217.84V232.96C60.92 232.96 65 237.52 65 245.2C65 251.92 59.6 255.4 51.32 255.4C44.36 255.4 38.12 251.8 32.72 246.76L22.88 260.2C29.36 267.76 39.32 272.68 53.48 272.68Z" fill="#FFCB66"/>
<path d="M141.392 177.688V181.56H148.688C148.784 182.648 148.912 183.8 149.136 185.016L147.184 184.664C145.424 193.08 141.616 199.256 134.96 202.616C135.952 203.352 137.744 204.92 138.448 205.72C144.016 202.392 147.856 197.08 150.256 189.912C152.016 195.64 155.408 201.688 162.032 205.688C162.704 204.696 164.272 203.032 165.104 202.36C153.328 195.416 152.464 183.736 152.464 177.688H141.392ZM174.064 176.024C172.464 180.568 169.68 185.112 166.768 187.992C167.44 188.952 168.528 191.128 168.88 192.056C169.52 191.352 170.192 190.552 170.864 189.752V205.752H174.704V183.832C175.888 181.688 176.944 179.416 177.776 177.176L174.064 176.024ZM188.784 201.176V194.744H195.696V191.16H188.784V185.528H196.592V181.912H186.192L189.488 180.728C189.04 179.352 187.92 177.272 186.96 175.768L183.44 176.952C184.368 178.52 185.328 180.568 185.712 181.912H177.104V185.528H184.912V191.16H178.16V194.744H184.912V201.176H176.4V204.792H197.04V201.176H188.784ZM212.144 196.44V198.104H206.192V196.44H212.144ZM222.064 198.104H215.824V196.44H222.064V198.104ZM215.824 202.328V200.664H222.064V202.328H215.824ZM206.192 202.328V200.664H212.144V202.328H206.192ZM202.576 205.848H206.192V205.08H222.064V205.816H225.872V193.688H202.576V205.848ZM218.768 189.624H209.168V187.736H218.768V189.624ZM205.616 185.016V192.344H222.544V185.016H205.616ZM223.472 180.248C224.176 179.384 224.944 178.36 225.712 177.272L221.68 176.088C221.168 177.336 220.208 179.064 219.408 180.184L219.6 180.248H215.824V175.896H212.016V180.248H208.048L208.624 179.992C208.112 178.904 207.088 177.336 206.096 176.184L202.704 177.496C203.312 178.328 203.952 179.32 204.464 180.248H200.24V187.512H203.824V183.48H224.304V187.512H228.08V180.248H223.472ZM238.896 199.48V192.312H253.104V199.48H238.896ZM253.104 181.656V188.536H238.896V181.656H253.104ZM234.96 177.816V205.4H238.896V203.32H253.104V205.336H257.2V177.816H234.96ZM275.312 197.848C279.28 196.696 281.616 193.72 281.616 190.104C281.616 187.416 280.432 185.72 278.16 185.72C276.464 185.72 275.024 186.808 275.024 188.6C275.024 190.424 276.464 191.448 278.064 191.448C278.192 191.448 278.32 191.448 278.416 191.416C278.224 193.112 276.784 194.488 274.288 195.288L275.312 197.848ZM300.112 182.84H319.6V187.128H323.6V179.192H312.56C312.144 178.008 311.472 176.664 310.832 175.544L306.928 176.696C307.312 177.464 307.696 178.328 308.016 179.192H296.336V187.128H300.112V182.84ZM318.128 188.664V185.144H301.616V188.664H318.128ZM317.008 201.848C315.888 201.848 315.696 201.72 315.696 200.696V194.584H324.24V191H295.728V194.584H303.632C303.344 199.192 302.384 201.368 295.152 202.552C295.888 203.32 296.88 204.824 297.168 205.784C305.616 204.12 307.12 200.696 307.536 194.584H311.824V200.728C311.824 204.184 312.72 205.336 316.432 205.336H320.432C323.44 205.336 324.432 204.088 324.848 199.448C323.792 199.192 322.192 198.584 321.424 198.008C321.264 201.304 321.104 201.848 320.08 201.848H317.008ZM351.12 186.104C350.352 188.696 349.296 191.064 348.048 193.208C347.504 190.648 347.056 187.64 346.768 184.44H356.656V180.664H353.328L354.864 179.032C353.744 177.976 351.408 176.504 349.648 175.608L347.344 177.88C348.656 178.68 350.256 179.704 351.44 180.664H346.544C346.48 179.096 346.448 177.528 346.48 175.928H342.48C342.48 177.528 342.544 179.096 342.608 180.664H329.552V190.008C329.552 194.168 329.328 199.736 326.896 203.576C327.76 204.024 329.456 205.432 330.128 206.168C332.752 202.264 333.424 196.024 333.552 191.352H337.712C337.616 195.384 337.488 196.92 337.168 197.368C336.912 197.688 336.656 197.752 336.208 197.752C335.696 197.752 334.608 197.72 333.456 197.624C334.032 198.584 334.448 200.056 334.512 201.176C335.984 201.208 337.36 201.208 338.192 201.08C339.152 200.92 339.792 200.632 340.4 199.8C341.136 198.872 341.328 196.024 341.424 189.304C341.424 188.856 341.456 187.864 341.456 187.864H333.552V184.44H342.832C343.248 189.24 343.952 193.72 345.04 197.336C343.184 199.416 340.976 201.176 338.512 202.52C339.312 203.256 340.688 204.824 341.264 205.656C343.248 204.44 345.04 203 346.672 201.304C348.08 203.928 349.84 205.528 352.08 205.528C355.056 205.528 356.336 204.12 356.944 198.2C355.92 197.784 354.576 196.952 353.712 196.056C353.552 200.056 353.168 201.656 352.4 201.656C351.376 201.656 350.352 200.312 349.424 198.008C351.728 194.904 353.616 191.192 354.928 187.032L351.12 186.104ZM370.736 194.552C369.488 194.904 368.176 195.256 366.928 195.608V190.136H370.256V186.648H366.928V181.08H370.608V177.56H359.408V181.08H363.248V186.648H359.696V190.136H363.248V196.568C361.52 197.016 359.952 197.432 358.64 197.72L359.632 201.304C362.928 200.344 367.216 199.096 371.248 197.912L370.736 194.552ZM375.408 189.944H383.76V191.928H375.408V189.944ZM375.408 185.08H383.76V187.064H375.408V185.08ZM375.408 180.216H383.76V182.2H375.408V180.216ZM384.144 202.36C383.6 202.36 383.536 202.232 383.536 201.304V195.032H387.472V177.112H371.856V195.032H374.192C373.776 198.776 372.752 201.4 366.96 202.84C367.728 203.576 368.688 205.048 369.072 205.976C375.888 203.96 377.36 200.248 377.936 195.032H379.888V201.304C379.888 204.536 380.528 205.624 383.472 205.624H385.872C388.24 205.624 389.072 204.44 389.392 200.056C388.432 199.832 386.96 199.224 386.224 198.648C386.16 201.848 386 202.36 385.456 202.36H384.144ZM400.912 185.144C402.8 183.928 404.56 182.584 406.096 180.984C407.728 182.488 409.616 183.896 411.632 185.144H400.912ZM412.688 195.384C412.048 197.048 410.864 199.288 409.872 200.728L412.016 201.624H408.016V195.384H412.688ZM403.92 195.384V201.624H399.248L401.872 200.472C401.424 199.064 400.208 196.952 399.088 195.384H403.92ZM414.448 188.632V186.744C415.888 187.448 417.36 188.088 418.8 188.6C419.376 187.608 420.56 186.104 421.424 185.272C416.624 183.928 411.44 181.272 408.304 178.456C408.624 178.008 408.912 177.592 409.2 177.176L405.584 175.544C402.544 180.312 396.784 183.544 390.768 185.272C391.728 186.232 392.784 187.672 393.296 188.792C394.704 188.28 396.08 187.704 397.424 187.064V188.632H403.92V191.96H393.744V195.384H398.384L395.856 196.44C396.912 198.04 398 200.152 398.512 201.624H392.208V205.112H419.888V201.624H413.008C414 200.248 415.248 198.328 416.368 196.536L413.168 195.384H418.224V191.96H408.016V188.632H414.448ZM443.984 191.32C442.576 193.752 440.592 195.736 438.16 197.272C435.664 195.704 433.712 193.688 432.304 191.32H443.984ZM446.864 187.448L446.192 187.576H439.888V183.864H451.568V180.088H439.888V175.896H435.92V180.088H424.304V183.864H435.92V187.576H425.872V191.32H430.064L428.336 191.928C429.968 194.872 431.92 197.304 434.32 199.256C430.96 200.664 427.056 201.592 422.8 202.136C423.536 202.968 424.528 204.792 424.848 205.784C429.648 205.016 434.128 203.736 437.968 201.72C441.424 203.608 445.552 204.856 450.544 205.56C451.024 204.44 452.112 202.712 452.944 201.816C448.72 201.368 445.04 200.472 441.936 199.224C445.264 196.664 447.856 193.336 449.52 189.016L446.864 187.448ZM462.544 176.056C460.848 180.76 457.936 185.368 454.896 188.28C455.568 189.208 456.72 191.32 457.136 192.248C457.872 191.48 458.64 190.616 459.376 189.688V205.72H463.28V183.736C464.464 181.592 465.456 179.416 466.32 177.272L462.544 176.056ZM484.912 182.776H481.392V176.248H477.424V182.776H465.232V186.616H477.424V201.144C477.424 201.848 477.136 202.104 476.336 202.104C475.6 202.136 472.784 202.136 470.32 202.04C470.896 203.032 471.568 204.728 471.792 205.816C475.312 205.848 477.712 205.784 479.28 205.176C480.816 204.6 481.392 203.608 481.392 201.144V186.616H484.912V182.776ZM474.448 196.312C473.488 194.392 471.504 191.256 470.064 188.92L466.672 190.488C468.112 192.92 470 196.216 470.832 198.168L474.448 196.312Z" fill="#332200"/>
<path d="M137.68 230.584V231.768H141.616C141.648 232.376 141.712 233.08 141.824 233.816L141.12 233.704C140.144 238.184 138.176 241.4 134.64 243.24C134.96 243.448 135.488 243.944 135.712 244.184C138.896 242.312 140.912 239.4 142.096 235.256C142.816 238.28 144.512 241.784 148.448 244.168C148.656 243.88 149.136 243.368 149.408 243.176C143.136 239.448 142.768 233.416 142.768 230.584H137.68ZM161.232 232.136C160.992 231.448 160.384 230.36 159.84 229.544L158.768 229.944C159.296 230.76 159.872 231.896 160.08 232.584L161.232 232.136ZM154.592 229.672C153.696 232.104 152.224 234.488 150.64 236.024C150.864 236.296 151.216 236.936 151.328 237.192C151.872 236.648 152.416 236.008 152.912 235.304V244.2H154.096V233.448C154.72 232.344 155.296 231.192 155.728 230.024L154.592 229.672ZM160.848 242.552V238.504H164.624V237.368H160.848V233.864H165.104V232.728H155.456V233.864H159.664V237.368H155.984V238.504H159.664V242.552H155.04V243.688H165.328V242.552H160.848ZM173.456 239.416V240.696H169.616V239.416H173.456ZM178.624 240.696H174.592V239.416H178.624V240.696ZM174.592 242.872V241.56H178.624V242.872H174.592ZM169.616 242.872V241.56H173.456V242.872H169.616ZM168.464 244.248H169.616V243.8H178.624V244.216H179.792V238.504H168.464V244.248ZM177.056 236.664H171.04V235.144H177.056V236.664ZM169.936 234.248V237.576H178.224V234.248H169.936ZM177.968 232.056C178.432 231.528 178.976 230.824 179.424 230.168L178.224 229.752C177.888 230.392 177.28 231.304 176.8 231.88L177.248 232.056H174.56V229.608H173.376V232.056H170.544L171.136 231.784C170.848 231.24 170.272 230.424 169.728 229.816L168.704 230.248C169.136 230.776 169.616 231.512 169.92 232.056H167.376V235.336H168.512V233.08H179.616V235.336H180.768V232.056H177.968ZM186.08 241.832V237.368H194.016V241.832H186.08ZM194.016 231.88V236.2H186.08V231.88H194.016ZM184.88 230.712V244.04H186.08V243H194.016V243.976H195.264V230.712H184.88ZM207.44 235.416C206.992 234.328 205.968 232.76 204.912 231.592L203.856 232.12C204.864 233.288 205.888 234.92 206.32 236.024L207.44 235.416ZM205.168 238.52C204.112 238.968 203.04 239.432 202.016 239.864L201.776 230.424L200.56 230.472L200.832 240.36C200 240.712 199.248 241.016 198.624 241.256L199.056 242.488C200.816 241.72 203.232 240.664 205.44 239.656L205.168 238.52ZM213.472 243.256C212.656 242.072 210.96 240.296 209.536 238.856C210.656 236.712 211.264 233.992 211.648 230.568L210.352 230.44C209.648 237.352 207.952 241.224 202.464 243.24C202.752 243.48 203.248 244.024 203.408 244.264C205.904 243.224 207.648 241.832 208.896 239.944C210.256 241.384 211.744 243.064 212.48 244.168L213.472 243.256ZM220.4 238.984L218.192 239.608V236.04H220.16V234.936H218.192V231.528H220.304V230.44H214.848V231.528H217.056V234.936H215.04V236.04H217.056V239.912C216.112 240.184 215.248 240.408 214.544 240.584L214.864 241.72C216.416 241.256 218.544 240.632 220.544 240.04L220.4 238.984ZM222.16 236.424H227.344V238.056H222.16V236.424ZM222.16 233.864H227.344V235.464H222.16V233.864ZM222.16 231.32H227.344V232.92H222.16V231.32ZM226.8 243.08C226.4 243.08 226.336 243.016 226.336 242.616V239.064H228.512V230.312H221.04V239.064H222.464C222.208 241.128 221.488 242.568 218.672 243.336C218.912 243.56 219.232 244.04 219.344 244.312C222.448 243.352 223.312 241.608 223.632 239.064H225.2V242.616C225.2 243.768 225.488 244.104 226.624 244.104H228.176C229.136 244.104 229.44 243.608 229.52 241.656C229.232 241.576 228.752 241.4 228.528 241.192C228.48 242.84 228.416 243.08 228.048 243.08H226.8ZM234.272 234.376C235.68 233.544 236.96 232.52 238.016 231.368C239.056 232.456 240.464 233.528 241.904 234.376H234.272ZM242.096 235.48V234.488C242.96 234.984 243.84 235.4 244.672 235.704C244.848 235.4 245.216 234.92 245.504 234.68C243.072 233.912 240.256 232.248 238.672 230.552C238.816 230.36 238.96 230.152 239.072 229.976L237.984 229.464C236.464 231.832 233.52 233.704 230.544 234.68C230.848 234.968 231.168 235.432 231.344 235.752C232.208 235.448 233.072 235.048 233.888 234.6V235.48H237.344V237.656H231.856V238.744H237.344V242.648H231.136V243.752H244.88V242.648H238.576V238.744H244.16V237.656H238.576V235.48H242.096ZM240.928 242.424C241.504 241.672 242.24 240.536 242.832 239.528L241.696 239.096C241.312 239.992 240.592 241.256 240.032 242.04L240.928 242.424ZM233.2 239.496C233.808 240.392 234.448 241.656 234.672 242.392L235.712 241.96C235.456 241.192 234.8 239.992 234.192 239.096L233.2 239.496ZM248.544 232.584H259.376V234.952H260.592V231.448H254.96C254.736 230.872 254.32 230.088 253.952 229.48L252.752 229.816C253.04 230.296 253.328 230.92 253.552 231.448H247.376V234.952H248.544V232.584ZM258.304 235.384V234.28H249.664V235.384H258.304ZM257.2 242.872C256.544 242.872 256.432 242.792 256.432 242.328V238.36H261.04V237.224H246.976V238.36H251.232C251.04 241.192 250.368 242.552 246.768 243.256C246.992 243.48 247.296 243.944 247.392 244.248C251.36 243.4 252.192 241.672 252.432 238.36H255.248V242.344C255.248 243.608 255.616 243.976 257.072 243.976H259.52C260.784 243.976 261.12 243.432 261.264 241.224C260.928 241.144 260.448 240.968 260.176 240.76C260.112 242.584 260.016 242.872 259.408 242.872H257.2ZM272.72 230.408C273.728 230.952 274.944 231.768 275.552 232.328L276.288 231.512C275.664 230.952 274.416 230.184 273.424 229.688L272.72 230.408ZM274.992 234.728C274.496 236.344 273.808 237.784 272.944 239.048C272.512 237.528 272.224 235.624 272.064 233.496H277.152V232.328H271.984C271.936 231.464 271.92 230.568 271.92 229.64H270.688C270.704 230.552 270.72 231.448 270.784 232.328H264.112V236.792C264.112 238.856 263.968 241.592 262.656 243.544C262.928 243.688 263.44 244.104 263.648 244.344C265.088 242.264 265.328 239.048 265.328 236.808V236.68H268.24C268.176 239.432 268.096 240.44 267.872 240.68C267.776 240.824 267.616 240.856 267.392 240.856C267.12 240.856 266.432 240.84 265.696 240.776C265.888 241.08 266.016 241.528 266.032 241.896C266.816 241.928 267.536 241.928 267.936 241.896C268.384 241.848 268.656 241.736 268.896 241.432C269.232 241.016 269.328 239.672 269.408 236.088V235.576H265.328V233.496H270.848C271.056 236.072 271.44 238.424 272.016 240.232C270.992 241.432 269.76 242.424 268.336 243.192C268.608 243.416 269.024 243.896 269.2 244.136C270.432 243.416 271.536 242.52 272.496 241.48C273.232 243.128 274.192 244.104 275.424 244.104C276.64 244.104 277.072 243.32 277.296 240.6C276.976 240.504 276.544 240.232 276.272 239.96C276.16 242.088 275.968 242.92 275.52 242.92C274.704 242.92 273.968 242.008 273.376 240.44C274.56 238.92 275.504 237.096 276.192 235.032L274.992 234.728ZM289.232 232.136C288.992 231.448 288.384 230.36 287.84 229.544L286.768 229.944C287.296 230.76 287.872 231.896 288.08 232.584L289.232 232.136ZM282.592 229.672C281.696 232.104 280.224 234.488 278.64 236.024C278.864 236.296 279.216 236.936 279.328 237.192C279.872 236.648 280.416 236.008 280.912 235.304V244.2H282.096V233.448C282.72 232.344 283.296 231.192 283.728 230.024L282.592 229.672ZM288.848 242.552V238.504H292.624V237.368H288.848V233.864H293.104V232.728H283.456V233.864H287.664V237.368H283.984V238.504H287.664V242.552H283.04V243.688H293.328V242.552H288.848ZM296.56 232.072H307.472V233.432H308.672V231.048H302.864C302.656 230.584 302.352 229.976 302.08 229.512L300.864 229.864C301.056 230.216 301.264 230.648 301.44 231.048H295.392V233.688H296.56V232.072ZM298.32 232.904C297.472 234.888 296.064 236.792 294.592 238.008C294.816 238.264 295.2 238.808 295.328 239.032C295.872 238.552 296.416 237.976 296.928 237.352V244.232H298.064V235.768C298.576 234.968 299.04 234.12 299.408 233.272L298.32 232.904ZM306.896 239.288H301.344V237.432H306.896V239.288ZM301.344 242.296V240.28H306.896V242.296H301.344ZM308.88 234.808V233.736H299.552V234.808H303.392C303.28 235.32 303.152 235.912 303.008 236.408H300.192V244.248H301.344V243.336H306.896V244.168H308.064V236.408H304.176C304.352 235.912 304.528 235.336 304.688 234.808H308.88ZM321.648 236.84C320.816 238.392 319.584 239.608 318.064 240.568C316.56 239.592 315.408 238.344 314.608 236.84H321.648ZM322.56 235.624L322.32 235.672H318.576V233.224H324.672V232.056H318.576V229.624H317.36V232.056H311.296V233.224H317.36V235.672H312.016V236.84H313.712L313.36 236.968C314.224 238.696 315.408 240.104 316.928 241.208C315.072 242.136 312.912 242.728 310.64 243.096C310.864 243.368 311.184 243.912 311.296 244.232C313.712 243.768 316.032 243.048 318.016 241.944C319.824 243.032 322.048 243.752 324.624 244.152C324.784 243.8 325.104 243.288 325.36 243C322.976 242.712 320.912 242.104 319.168 241.208C321.008 239.96 322.464 238.312 323.376 236.136L322.56 235.624ZM330.736 229.72C329.824 232.2 328.304 234.632 326.672 236.184C326.896 236.456 327.264 237.08 327.408 237.352C327.952 236.792 328.512 236.136 329.024 235.416V244.184H330.208V233.576C330.864 232.472 331.424 231.288 331.904 230.088L330.736 229.72ZM341.216 233.16H339.184V229.8H337.984V233.16H331.536V234.344H337.984V242.6C337.984 242.968 337.84 243.064 337.488 243.096C337.104 243.112 335.792 243.112 334.448 243.064C334.624 243.384 334.848 243.928 334.912 244.232C336.64 244.248 337.712 244.232 338.336 244.04C338.928 243.864 339.184 243.496 339.184 242.6V234.344H341.216V233.16ZM335.968 239.896C335.456 238.92 334.4 237.256 333.568 236.024L332.544 236.504C333.36 237.784 334.384 239.496 334.864 240.488L335.968 239.896ZM357.136 236.456C356.512 235.576 355.264 234.088 354.32 233.032L353.424 233.544C353.792 233.96 354.192 234.456 354.576 234.952L349.104 235.272C349.792 234.536 350.464 233.672 351.12 232.76H357.024V231.688H351.856C352.208 231.176 352.544 230.648 352.848 230.12L351.68 229.656C351.312 230.344 350.912 231.048 350.48 231.688H347.056V232.76H349.776C349.2 233.56 348.72 234.184 348.464 234.456C348 235 347.616 235.4 347.296 235.464C347.408 235.768 347.6 236.344 347.664 236.584C348.128 236.392 348.88 236.344 355.328 235.912C355.648 236.344 355.952 236.76 356.16 237.08L357.136 236.456ZM346.816 231.768C346.256 231.16 345.072 230.328 344.112 229.816L343.408 230.648C344.384 231.208 345.568 232.088 346.096 232.696L346.816 231.768ZM346.256 235.8C345.632 235.272 344.336 234.568 343.344 234.136L342.704 235.032C343.728 235.496 344.976 236.248 345.6 236.792L346.256 235.8ZM346.128 238.088C345.2 239.896 343.952 241.992 343.104 243.208L344.096 244.008C345.024 242.536 346.144 240.552 346.992 238.872L346.128 238.088ZM348.496 238.776C348.496 240.232 348.288 242.008 346.448 243.384C346.72 243.544 347.12 243.912 347.296 244.168C349.328 242.616 349.584 240.552 349.584 238.808V237.128H348.496V238.776ZM351.296 243.528H352.368V237.224H351.296V243.528ZM355.52 242.952C355.296 242.952 355.248 242.824 355.248 242.36V237.128H354.144V242.344C354.144 243.448 354.352 243.864 355.408 243.864H356.448C356.752 243.864 357.056 243.864 357.216 243.8C357.2 243.544 357.168 243.16 357.152 242.872C356.96 242.936 356.64 242.952 356.432 242.952H355.52ZM371.232 234.44H366.352V231.448H371.232V234.44ZM372.384 230.424H365.232V235.464H372.384V230.424ZM364.768 238.376C364.448 238.008 363.088 236.6 362.592 236.184V235.208H364.592V234.088H362.592V231.4C363.36 231.208 364.08 231 364.672 230.744L363.856 229.848C362.656 230.376 360.544 230.84 358.736 231.128C358.88 231.4 359.04 231.784 359.104 232.056C359.84 231.944 360.656 231.816 361.44 231.656V234.088H358.832V235.208H361.28C360.64 237.032 359.536 239.096 358.528 240.216C358.72 240.504 359.008 240.968 359.12 241.304C359.936 240.328 360.784 238.728 361.44 237.112V244.184H362.592V237.336C363.136 237.992 363.792 238.872 364.048 239.32L364.768 238.376ZM369.344 242.76V240.616H372.576V239.576H369.344V237.56C370.592 237.4 371.744 237.208 372.656 236.952L371.872 236.072C370.256 236.536 367.216 236.856 364.736 237C364.848 237.256 364.992 237.656 365.024 237.912C366.016 237.864 367.088 237.784 368.16 237.688V239.576H365.072V240.616H368.16V242.76H364.176V243.816H373.232V242.76H369.344ZM380.688 239.992C382.368 239.4 383.456 238.088 383.456 236.36C383.456 235.24 382.976 234.52 382.096 234.52C381.44 234.52 380.88 234.92 380.88 235.672C380.88 236.424 381.424 236.808 382.08 236.808C382.176 236.808 382.256 236.808 382.352 236.792C382.272 237.88 381.568 238.632 380.336 239.144L380.688 239.992ZM404.688 232.696C404.176 231.944 403.056 230.824 402.144 230.04L401.232 230.664C402.16 231.48 403.248 232.632 403.728 233.384L404.688 232.696ZM403.264 236.184C402.72 237.208 402.016 238.184 401.168 239.096C400.896 238.04 400.672 236.808 400.512 235.448H405.088V234.312H400.384C400.256 232.888 400.192 231.352 400.192 229.752H398.976C398.992 231.32 399.056 232.856 399.2 234.312H395.536V231.528C396.512 231.32 397.44 231.064 398.208 230.792L397.36 229.816C395.856 230.376 393.28 230.92 391.04 231.256C391.2 231.544 391.36 231.96 391.424 232.248C392.368 232.12 393.376 231.96 394.368 231.768V234.312H390.944V235.448H394.368V238.248C392.976 238.536 391.68 238.808 390.72 238.968L391.056 240.168C392.016 239.96 393.168 239.688 394.368 239.432V242.68C394.368 242.968 394.272 243.048 393.984 243.048C393.712 243.064 392.768 243.08 391.744 243.032C391.92 243.368 392.128 243.912 392.192 244.232C393.488 244.232 394.352 244.2 394.848 244.008C395.344 243.816 395.536 243.464 395.536 242.696V239.144C396.512 238.92 397.504 238.696 398.48 238.456L398.4 237.384C397.456 237.592 396.48 237.8 395.536 238.008V235.448H399.296C399.504 237.176 399.808 238.76 400.192 240.088C399.056 241.144 397.744 242.024 396.4 242.68C396.704 242.936 397.04 243.336 397.216 243.624C398.416 243 399.552 242.2 400.592 241.272C401.328 243.144 402.288 244.264 403.552 244.264C404.752 244.264 405.168 243.496 405.392 240.856C405.056 240.744 404.64 240.472 404.384 240.216C404.288 242.264 404.096 243.08 403.664 243.08C402.864 243.08 402.144 242.056 401.536 240.376C402.656 239.24 403.6 237.976 404.32 236.616L403.264 236.184ZM409.76 229.704C408.992 232.168 407.728 234.6 406.352 236.2C406.544 236.488 406.864 237.112 406.976 237.4C407.504 236.776 408 236.056 408.48 235.256V244.216H409.616V233.128C410.096 232.12 410.512 231.064 410.864 230.008L409.76 229.704ZM414.432 231.48V232.936H412.208V231.48H414.432ZM412.208 235.384V233.832H414.432V235.384H412.208ZM415.376 230.536H411.104V244.184H412.208V236.312H415.376V230.536ZM417.312 235.384V233.832H419.664V235.384H417.312ZM419.664 231.48V232.936H417.312V231.48H419.664ZM420.784 230.536H416.336V236.312H419.664V242.648C419.664 242.968 419.552 243.064 419.248 243.08C418.944 243.096 417.84 243.096 416.704 243.064C416.848 243.368 417.04 243.896 417.104 244.2C418.608 244.2 419.536 244.184 420.08 243.992C420.608 243.8 420.784 243.432 420.784 242.664V230.536ZM437.12 231.544C436.8 231.032 436.08 230.264 435.456 229.736L434.656 230.184C435.28 230.744 435.984 231.544 436.288 232.072L437.12 231.544ZM426.288 231.672C426.032 231.112 425.488 230.28 424.96 229.672L424 230.12C424.528 230.744 425.056 231.624 425.264 232.2L426.288 231.672ZM427.712 232.264H422.592V233.256H427.712V232.264ZM427.312 234.424H423.232V235.368H427.312V234.424ZM423.232 237.496H427.312V236.536H423.232V237.496ZM426.304 239.672V242.328H424.192V239.672H426.304ZM427.296 243.304V238.696H423.216V244.056H424.192V243.304H427.296ZM435.824 234.92C435.52 236.376 435.088 237.704 434.544 238.936C434.352 237.448 434.224 235.656 434.16 233.624H437.088V232.536H434.112C434.096 231.608 434.08 230.632 434.08 229.656H433.024C433.04 230.632 433.056 231.608 433.088 232.536H428.416V236.744C428.416 238.76 428.304 241.544 427.232 243.528C427.472 243.656 427.936 244.056 428.096 244.264C429.296 242.136 429.504 238.984 429.504 236.792H431.328C431.248 239.784 431.184 240.84 431.024 241.096C430.912 241.256 430.8 241.272 430.592 241.272C430.416 241.272 429.952 241.272 429.44 241.224C429.6 241.528 429.696 241.96 429.712 242.312C430.256 242.344 430.784 242.328 431.072 242.296C431.456 242.248 431.68 242.136 431.872 241.848C432.208 241.432 432.272 240.072 432.352 236.28V235.784H429.504V233.624H433.12C433.232 236.344 433.408 238.696 433.728 240.488C433.008 241.72 432.16 242.76 431.216 243.544C431.488 243.704 431.824 243.976 431.984 244.168C432.736 243.528 433.424 242.744 434.048 241.832C434.48 243.336 435.088 244.2 435.968 244.232C436.544 244.248 437.12 243.576 437.424 240.984C437.232 240.888 436.784 240.632 436.592 240.408C436.48 241.976 436.272 242.904 435.984 242.904C435.488 242.872 435.104 242.024 434.8 240.6C435.664 239.08 436.352 237.288 436.832 235.32L435.824 234.92ZM441.872 233.992C441.744 233.624 441.504 233.176 441.248 232.84L440.4 233.096C440.576 233.368 440.752 233.688 440.88 233.992H439.536V234.776H442.08V235.576H439.04V236.36H442.08V237.4H443.168V236.36H445.792L445.632 236.44C445.856 236.616 446.144 236.984 446.272 237.208C447.36 236.68 448.064 235.976 448.528 235.08C448.96 235.384 449.36 235.704 449.632 235.96L450.224 235.176C449.904 234.872 449.424 234.504 448.88 234.168C449.072 233.56 449.2 232.872 449.28 232.12H450.72C450.752 235.816 450.88 237.352 452.368 237.352C453.12 237.352 453.36 236.872 453.472 235.368C453.248 235.256 452.976 235.016 452.768 234.792C452.736 235.784 452.672 236.408 452.448 236.408C451.728 236.392 451.76 234.824 451.776 231.16H449.36C449.392 230.68 449.408 230.168 449.424 229.624H448.416C448.4 230.168 448.384 230.696 448.352 231.16H446.448V232.12H448.272C448.208 232.664 448.128 233.176 447.984 233.624C447.632 233.432 447.248 233.224 446.896 233.064L446.336 233.752C446.768 233.96 447.216 234.232 447.68 234.504C447.328 235.224 446.816 235.8 446.032 236.232V235.576H443.168V234.776H445.76V233.992H444.496C444.656 233.688 444.864 233.368 445.056 233.016L444.368 232.824H446.304V232.04H443.168V231.304H445.664V230.52H443.168V229.64H442.08V230.52H439.584V231.304H442.08V232.04H438.896V232.824H444.048C443.936 233.176 443.696 233.624 443.504 233.992H441.872ZM446.576 240.152H452.144V239.304H446.576V238.264C448.352 238.152 450 238.008 451.296 237.816L450.624 237.08C448.192 237.432 443.76 237.656 440.112 237.704C440.192 237.912 440.304 238.248 440.32 238.472C441.936 238.472 443.712 238.424 445.408 238.328V239.304H440V240.152H445.408V241.032H438.864V241.912H445.408V243.016C445.408 243.24 445.312 243.304 445.072 243.32C444.816 243.336 443.92 243.352 442.96 243.32C443.104 243.576 443.28 243.944 443.36 244.232C444.624 244.232 445.424 244.232 445.936 244.088C446.416 243.928 446.576 243.672 446.576 243.048V241.912H453.136V241.032H446.576V240.152ZM458.896 231.688C458.624 231.112 457.984 230.28 457.392 229.672L456.512 230.248C457.072 230.872 457.696 231.736 457.968 232.312L458.896 231.688ZM460.72 238.408C460.4 238.056 459.104 236.68 458.496 236.12C459.232 235.064 459.872 233.928 460.304 232.76L459.664 232.312L459.44 232.36H454.912V233.448H458.848C457.904 235.432 456.224 237.352 454.608 238.44C454.784 238.664 455.072 239.272 455.168 239.608C455.856 239.096 456.544 238.456 457.216 237.72V244.216H458.368V237.368C458.96 238.072 459.664 238.904 459.984 239.368L460.72 238.408ZM461.952 231.768H467.28V235.832H461.952V231.768ZM466.8 243.144C466.448 243.144 466.368 243.048 466.368 242.584V236.904H468.448V230.68H460.832V236.904H462.496C462.336 240.088 461.872 242.168 459.136 243.336C459.376 243.56 459.728 243.976 459.872 244.28C462.88 242.904 463.456 240.488 463.664 236.904H465.216V242.584C465.216 243.784 465.488 244.136 466.608 244.136H468.048C469.04 244.136 469.312 243.544 469.408 241.304C469.104 241.208 468.656 241.048 468.4 240.84C468.368 242.776 468.304 243.144 467.936 243.144H466.8ZM483.52 232.152C483.264 232.728 482.976 233.304 482.752 233.72L483.76 233.928C484.16 233.288 484.64 232.2 485.056 231.288L484.24 231.064L484.048 231.112H478.064C478.256 230.712 478.432 230.312 478.592 229.912L477.488 229.64C476.96 231.144 476.032 232.6 474.944 233.544C475.2 233.72 475.648 234.088 475.84 234.296C476.432 233.72 477.008 232.984 477.504 232.152H483.52ZM481.872 234.424C482.656 235.416 483.472 236.776 483.824 237.672L484.848 237.128C484.48 236.264 483.648 234.936 482.832 233.976L481.872 234.424ZM479.872 241.048C479.424 240.264 478.416 239.128 477.536 238.312L476.624 238.824C477.488 239.672 478.48 240.872 478.88 241.64L479.872 241.048ZM477.472 234.008C477.04 235.112 476.304 236.232 475.472 236.984C475.728 237.128 476.16 237.464 476.368 237.656C477.2 236.84 478.032 235.576 478.56 234.312L477.472 234.008ZM480.976 232.744H479.84V238.632H480.976V232.744ZM471.936 243.576C472.528 242.6 473.088 241.096 473.504 240.056L472.432 239.608C472.08 240.664 471.456 242.12 470.816 243.064L471.936 243.576ZM474.432 229.576C473.52 231.352 472.08 233.112 470.608 234.216C470.848 234.44 471.232 234.92 471.392 235.144C471.904 234.712 472.432 234.2 472.928 233.64V238.696H474.08V232.216C474.608 231.48 475.104 230.712 475.488 229.928L474.432 229.576ZM476.656 242.824C475.6 242.824 475.408 242.744 475.408 242.28V239.528H474.224V242.296C474.224 243.592 474.72 243.928 476.608 243.928H480.416C482 243.928 482.384 243.432 482.544 241.416C482.208 241.352 481.712 241.176 481.44 240.968C481.36 242.584 481.216 242.824 480.336 242.824H476.656ZM482.256 239.736C482.976 240.872 483.712 242.408 483.936 243.384L485.072 242.92C484.8 241.944 484.048 240.472 483.296 239.336L482.256 239.736ZM488.464 231.336H491.536V234.12H488.464V231.336ZM492.768 240.84C492.08 241.016 491.408 241.192 490.752 241.352V238.424H492.688V237.368H490.752V235.16H492.624V230.296H487.424V235.16H489.68V241.64L488.432 241.96V236.68H487.44V242.2L486.608 242.392L486.896 243.496C488.544 243.064 490.768 242.44 492.896 241.88L492.768 240.84ZM494.528 234.28H499.216V236.264H494.528V234.28ZM499.216 231.384V233.288H494.528V231.384H499.216ZM500.448 237.816C499.808 238.408 498.816 239.144 497.968 239.688C497.584 238.968 497.28 238.168 497.056 237.32H500.304V230.328H493.392V242.136C493.392 242.792 493.056 243.128 492.8 243.256C492.992 243.496 493.248 243.976 493.344 244.232C493.648 244.024 494.144 243.864 497.424 242.968C497.376 242.712 497.36 242.232 497.36 241.88L494.528 242.568V237.32H496.064C496.832 240.472 498.256 242.92 500.656 244.104C500.816 243.784 501.168 243.32 501.44 243.096C500.208 242.568 499.216 241.672 498.448 240.536C499.328 240.024 500.4 239.304 501.2 238.648L500.448 237.816ZM504.288 231.72H515.696V233.08H516.832V230.728H510.944C510.768 230.344 510.512 229.864 510.224 229.512L509.024 229.72C509.216 230.024 509.44 230.392 509.6 230.728H503.2V233.08H504.288V231.72ZM509.472 237.496H503.872V240.104C503.872 241.224 503.792 242.68 503.072 243.768C503.312 243.896 503.696 244.2 503.872 244.392C504.688 243.16 504.848 241.416 504.848 240.12V238.28H508.384V240.776C507.04 241.192 505.728 241.592 504.768 241.816L505.152 242.664C506.096 242.328 507.232 241.928 508.384 241.496V243.112C508.384 243.272 508.336 243.32 508.144 243.336C507.984 243.352 507.424 243.352 506.8 243.32C506.928 243.576 507.072 243.928 507.12 244.2C508 244.216 508.608 244.2 508.976 244.056C509.36 243.896 509.472 243.656 509.472 243.112V237.496ZM505.136 239.544C505.968 239.768 507.072 240.152 507.664 240.392L508.016 239.704C507.408 239.464 506.32 239.128 505.472 238.904L505.136 239.544ZM507.968 234.312C507.84 234.744 507.6 235.352 507.408 235.8H505.776C505.696 235.4 505.488 234.792 505.264 234.312H507.968ZM508.416 234.312H510.112V233.432H507.472C507.312 233.064 507.056 232.616 506.816 232.28L505.84 232.472C506.032 232.76 506.208 233.096 506.368 233.432H503.248V234.312H504.784L504.272 234.408C504.448 234.84 504.64 235.384 504.72 235.8H502.912V236.712H510.384V235.8H508.432C508.624 235.4 508.832 234.92 509.024 234.472L508.416 234.312ZM512.976 243.224C512.224 243.224 512.096 243.112 512.096 242.648V242.184H516.336C516.272 243.064 516.16 243.224 515.648 243.224H512.976ZM516.576 242.184L516.592 241.48H512.096V240.712H516.08V240.008H512.096V239.24H516.16V238.536H512.096V237.768H516.496V235.176H512.096V234.312H516.672V233.496H512.096V232.472H511.008V235.96H515.392V236.984H511.008V242.664C511.008 243.864 511.44 244.152 512.88 244.152H515.744C516.88 244.152 517.2 243.768 517.328 242.456C517.088 242.392 516.8 242.296 516.576 242.184ZM524.704 237.768L524.544 236.712L522.688 237.288V234.024H524.32V232.872H522.688V229.624H521.584V232.872H520.352C520.464 232.168 520.576 231.432 520.656 230.712L519.616 230.536C519.424 232.488 519.12 234.504 518.512 235.864C518.768 235.96 519.216 236.248 519.424 236.392C519.712 235.736 519.936 234.92 520.128 234.024H521.584V237.592C520.464 237.944 519.44 238.216 518.624 238.44L518.944 239.576C519.728 239.336 520.64 239.048 521.584 238.76V244.232H522.688V238.408L524.704 237.768ZM526.928 232.28C527.2 231.496 527.44 230.68 527.632 229.832L526.544 229.608C526.016 232.024 525.056 234.328 523.744 235.752C523.984 235.912 524.464 236.248 524.656 236.44C525.344 235.624 525.952 234.568 526.48 233.4H527.856C527.12 235.96 525.696 238.632 524 239.96C524.336 240.136 524.72 240.408 524.944 240.648C526.688 239.128 528.16 236.136 528.88 233.4H530.192C529.36 237.416 527.632 241.352 525.008 243.24C525.36 243.416 525.776 243.704 526 243.96C528.656 241.848 530.416 237.592 531.216 233.4H531.984C531.664 239.736 531.312 242.104 530.8 242.664C530.624 242.872 530.464 242.936 530.208 242.936C529.888 242.936 529.248 242.92 528.528 242.856C528.736 243.176 528.848 243.672 528.864 244.024C529.568 244.072 530.256 244.088 530.688 244.024C531.168 243.976 531.488 243.832 531.792 243.416C532.432 242.616 532.784 240.136 533.136 232.888C533.152 232.744 533.152 232.28 533.152 232.28H526.928ZM145.952 259.336H139.28V257.72H145.952V259.336ZM139.232 262.04C139.264 261.624 139.28 261.24 139.28 260.856V260.36H145.952V262.04H139.232ZM148.992 254.792V253.672H140.832C141.072 253.096 141.28 252.488 141.456 251.896L140.272 251.608C140.08 252.296 139.84 252.984 139.568 253.672H135.072V254.792H139.056C138.064 256.856 136.624 258.744 134.752 260.008C134.976 260.248 135.344 260.68 135.504 260.936C136.48 260.248 137.344 259.4 138.096 258.488V260.824C138.096 262.344 137.952 264.104 136.624 265.384C136.88 265.56 137.312 266.056 137.456 266.312C138.4 265.432 138.88 264.232 139.088 263.064H145.952V264.728C145.952 264.968 145.856 265.048 145.584 265.064C145.296 265.064 144.336 265.08 143.264 265.032C143.44 265.368 143.616 265.848 143.664 266.2C145.024 266.2 145.92 266.184 146.448 265.992C146.96 265.8 147.12 265.448 147.12 264.728V256.648H139.376C139.728 256.056 140.048 255.416 140.352 254.792H148.992ZM153.84 251.688C153.04 254.104 151.76 256.504 150.336 258.056C150.544 258.344 150.864 259 150.96 259.256C151.504 258.648 152.016 257.928 152.512 257.144V266.232H153.648V255.096C154.144 254.104 154.576 253.048 154.928 251.992L153.84 251.688ZM161.52 261.992H158.816V259.512H161.52V261.992ZM163.088 256.856V255.944H160.624V254.136H159.648V255.944H157.248V256.856H159.648V258.616H157.904V262.872H162.464V258.616H160.624V256.856H163.088ZM156.592 264.2V253.624H163.632V264.2H156.592ZM155.488 252.584V266.2H156.592V265.256H163.632V266.072H164.768V252.584H155.488ZM174.08 262.968C176.288 263.848 179.152 265.288 180.56 266.28L181.12 265.256C179.664 264.296 176.784 262.92 174.592 262.088L174.08 262.968ZM174.56 258.584V257.24H179.68V256.2H174.56V254.904H180.448V253.832H177.04C177.456 253.272 177.936 252.584 178.32 251.928L177.104 251.56C176.768 252.232 176.208 253.176 175.728 253.832H171.52L172.096 253.576C171.84 253 171.28 252.168 170.688 251.56L169.664 251.976C170.144 252.536 170.64 253.272 170.896 253.832H167.52V254.904H173.376V256.2H168.4V257.24H173.376V258.584H166.96V259.64H173.232C173.184 260.072 173.12 260.488 173.024 260.872H167.312V261.912H172.688C171.968 263.56 170.4 264.584 166.704 265.112C166.928 265.384 167.232 265.88 167.328 266.184C171.52 265.464 173.232 264.104 173.984 261.912H180.88V260.872H174.272C174.352 260.488 174.416 260.072 174.464 259.64H181.136V258.584H174.56ZM187.344 256.168C187.312 257.72 187.104 259.576 186.224 261.4C185.616 260.872 184.976 260.376 184.368 259.912C184.64 258.872 184.944 257.592 185.2 256.296L187.344 256.168ZM189.392 256.04L189.408 254.952L188.48 255V253.896H187.36V255.064L185.408 255.176C185.616 253.992 185.808 252.792 185.936 251.72L184.768 251.656C184.656 252.744 184.48 254.008 184.256 255.224C183.664 255.24 183.12 255.272 182.656 255.288L182.784 256.424L184.048 256.36C183.728 257.848 183.392 259.272 183.072 260.312C183.888 260.936 184.8 261.672 185.648 262.424C184.976 263.48 184.032 264.52 182.72 265.448C182.96 265.624 183.376 266.008 183.552 266.264C184.848 265.32 185.824 264.28 186.528 263.208C187.264 263.896 187.92 264.552 188.368 265.096L189.152 264.104C188.672 263.544 187.936 262.872 187.136 262.168C188.192 260.056 188.432 257.896 188.48 256.104L189.392 256.04ZM197.296 258.36H193.776V256.824C194.896 255.848 196.032 254.504 196.816 253.32L196 252.728L195.728 252.792H189.584V253.896H194.912C194.256 254.824 193.392 255.864 192.576 256.536V258.36H188.88V259.496H192.576V264.808C192.576 265.032 192.48 265.112 192.224 265.112C191.984 265.128 191.104 265.128 190.16 265.096C190.336 265.432 190.528 265.896 190.592 266.232C191.84 266.248 192.608 266.216 193.104 266.04C193.6 265.848 193.776 265.512 193.776 264.808V259.496H197.296V258.36ZM203.888 258.584H200.528V255.24H203.888V258.584ZM200.528 263.48V259.64H203.888V263.48H200.528ZM201.872 251.576C201.76 252.328 201.472 253.4 201.232 254.168H199.44V265.816H200.528V264.552H204.976V254.168H202.32C202.592 253.48 202.88 252.6 203.152 251.816L201.872 251.576ZM212.8 254.12H208.016C208.288 253.368 208.512 252.6 208.704 251.816L207.568 251.544C207.056 253.736 206.192 255.944 205.12 257.352C205.376 257.512 205.888 257.832 206.096 258.024C206.656 257.272 207.152 256.296 207.6 255.224H211.664C211.456 261.592 211.216 264.024 210.688 264.584C210.528 264.792 210.352 264.824 210.032 264.824C209.664 264.824 208.704 264.824 207.664 264.728C207.888 265.064 208.032 265.544 208.064 265.896C208.96 265.944 209.872 265.976 210.432 265.912C210.976 265.864 211.344 265.72 211.696 265.272C212.336 264.488 212.544 262.024 212.8 254.728V254.12ZM210.272 261.32C209.76 260.376 208.656 258.84 207.76 257.704L206.832 258.248C207.712 259.4 208.784 260.984 209.264 261.944L210.272 261.32ZM227.792 254.84H226.496V253.704H227.792V254.84ZM227.792 256.824H226.496V255.64H227.792V256.824ZM222.464 255.64H223.696V256.824H222.464V255.64ZM222.464 253.704H223.696V254.84H222.464V253.704ZM225.696 255.64V256.824H224.496V255.64H225.696ZM224.496 254.84V253.704H225.696V254.84H224.496ZM228.752 252.856H226.624V251.64H225.648V252.856H224.496V251.64H223.52V252.856H221.536V257.672H228.752V252.856ZM229.152 258.504H221.184V259.4H229.152V258.504ZM223.024 260.984H227.264V262.328H223.024V260.984ZM228.368 263.128V260.168H221.968V263.128H228.368ZM220 258.52H215.808V257.464H220V258.52ZM216.528 253.096H219.264V254.12H217.52V256.6H216.528V253.096ZM218.224 256.6V254.872H219.264V256.6H218.224ZM220.256 252.184H215.552V256.6H214.896V258.888H215.68V261.512C215.68 262.776 215.584 264.424 214.752 265.64C214.992 265.752 215.408 266.088 215.584 266.28C216.528 264.92 216.688 262.968 216.688 261.512V259.368H219.2V262.072C218.224 262.584 217.296 263.064 216.608 263.352L217.056 264.2C217.728 263.816 218.448 263.368 219.2 262.904V265C219.2 265.16 219.152 265.224 218.976 265.224C218.816 265.224 218.256 265.224 217.632 265.208C217.76 265.48 217.92 265.864 217.968 266.12C218.864 266.12 219.408 266.104 219.76 265.96C220.112 265.784 220.208 265.528 220.208 265.016V258.888H220.944V256.6H220.256V252.184ZM219.072 261.272C218.704 260.904 217.968 260.376 217.328 259.976L216.784 260.52C217.376 260.92 218.096 261.544 218.48 261.928L219.072 261.272ZM226.88 264.984C227.12 264.536 227.408 263.976 227.68 263.48L226.592 263.16C226.432 263.672 226.144 264.424 225.904 264.984H224.368C224.208 264.472 223.92 263.752 223.68 263.208L222.752 263.48C222.96 263.928 223.168 264.504 223.312 264.984H221.024V265.912H229.296V264.984H226.88ZM238.896 255.192C239.664 254.568 240.352 253.864 240.944 253.112C241.584 253.832 242.416 254.568 243.264 255.192H238.896ZM238.624 256.136H243.376V255.272C243.856 255.656 244.368 255.976 244.832 256.248C244.928 255.944 245.168 255.48 245.36 255.224C244.048 254.584 242.464 253.416 241.488 252.328C241.6 252.168 241.712 251.992 241.808 251.816L240.72 251.48C239.888 253 238.272 254.584 236.464 255.624C236.688 255.784 237.056 256.152 237.232 256.36C237.712 256.072 238.192 255.736 238.624 255.4V256.136ZM242.208 258.216H243.728V260.232H242.208V258.216ZM241.344 261.08H244.624V257.4H241.344V261.08ZM238.272 258.216H239.712V260.232H238.272V258.216ZM237.44 261.08H240.592V257.4H237.44V261.08ZM231.296 265.16C231.6 264.232 231.84 262.664 231.984 261.608L231.296 261.384C231.168 262.44 230.896 263.976 230.576 264.888L231.296 265.16ZM232.272 261.688C232.384 262.6 232.464 263.784 232.464 264.568L233.104 264.488C233.088 263.704 232.992 262.536 232.864 261.624L232.272 261.688ZM233.216 261.512C233.456 262.344 233.728 263.416 233.824 264.12L234.432 263.992C234.32 263.288 234.048 262.216 233.792 261.4L233.216 261.512ZM235.6 263.16C235.44 262.6 235.024 261.736 234.688 261.064L234.144 261.256C234.496 261.928 234.864 262.808 235.056 263.368L235.6 263.16ZM232.4 258.104H233.808V259.608H232.4V258.104ZM233.808 253.336V254.808H232.4V253.336H233.808ZM233.808 257.16H232.4V255.752H233.808V257.16ZM236.784 259.608H234.768V258.104H236.464V257.16H234.768V255.752H236.448V254.808H234.768V253.336H236.768V252.328H231.44V260.616H235.792C235.696 263.704 235.584 264.84 235.376 265.112C235.28 265.272 235.168 265.288 234.992 265.288C234.8 265.288 234.368 265.288 233.888 265.24C234.032 265.496 234.128 265.88 234.16 266.168C234.624 266.184 235.12 266.2 235.408 266.152C235.776 266.136 236 266.024 236.208 265.752C236.544 265.32 236.656 263.976 236.784 260.072V259.608ZM238.592 261.576C238.24 263.224 237.52 264.632 236.464 265.56C236.704 265.72 237.104 266.072 237.264 266.248C237.92 265.656 238.464 264.856 238.88 263.944C239.472 264.36 240.08 264.856 240.384 265.208L241.024 264.424C240.64 264.024 239.904 263.464 239.248 263.048C239.392 262.632 239.52 262.2 239.6 261.768L238.592 261.576ZM242.544 261.496C242.24 263.192 241.552 264.616 240.448 265.528C240.72 265.704 241.152 266.04 241.344 266.216C241.872 265.72 242.352 265.064 242.736 264.328C243.44 264.872 244.144 265.48 244.512 265.928L245.232 265.112C244.784 264.632 243.936 263.944 243.152 263.4C243.36 262.856 243.52 262.28 243.632 261.672L242.544 261.496ZM254.816 260.152C254.816 260.296 254.784 260.36 254.608 260.36C254.448 260.376 253.968 260.376 253.408 260.344C253.536 260.584 253.664 260.904 253.712 261.16C254.48 261.16 255.04 261.16 255.392 261.016C255.744 260.856 255.84 260.648 255.84 260.152V255.944H255.408V255.928H253.312V254.216H255.952V253.208H253.312V251.72H252.272V256.888H254.816V260.152ZM252.784 257.576C252.64 258.552 252.4 259.512 251.904 260.216C252.144 260.328 252.56 260.584 252.736 260.728C253.216 259.96 253.552 258.856 253.712 257.736L252.784 257.576ZM251.456 262.728C250.448 263.608 248.528 264.664 247.008 265.288C247.232 265.544 247.552 265.944 247.712 266.184C249.264 265.512 251.168 264.44 252.48 263.448L251.456 262.728ZM255.536 263.496C257.2 264.312 258.976 265.368 260.064 266.136L260.848 265.24C259.712 264.472 257.888 263.48 256.192 262.68L255.536 263.496ZM259.68 261.368C259.824 259.016 259.904 255.24 259.92 252.424H256.528V253.464H258.832C258.832 254.104 258.816 254.776 258.8 255.464H256.672V256.488H258.784C258.752 257.16 258.736 257.816 258.704 258.456H256.592V259.464H258.672C258.64 260.152 258.592 260.808 258.56 261.368H249.488L249.424 259.416H251.488V258.392H249.376L249.312 256.44H251.424V255.416H249.28L249.216 253.544C250.032 253.288 250.912 252.984 251.648 252.68L251.072 251.704C250.304 252.104 249.104 252.584 248.112 252.936L248.416 261.368H246.8V262.472H261.216V261.368H259.68ZM276.528 252.328H272.048V253.352H275.424V256.232H272.048V257.256H276.528V252.328ZM265.408 251.704C264.816 254.168 263.84 256.6 262.624 258.184C262.832 258.472 263.136 259.096 263.248 259.384C263.632 258.888 263.984 258.312 264.32 257.704V266.216H265.456V255.256C265.856 254.2 266.224 253.08 266.512 251.944L265.408 251.704ZM270.352 253.336V256.264H268.144V253.336H270.352ZM271.232 263V261.992H268.144V260.008H271.056V259H268.144V257.288H271.408V252.328H267.04V266.184H268.144V263H271.232ZM275.472 259.496C275.168 260.648 274.72 261.624 274.144 262.456C273.552 261.576 273.136 260.568 272.832 259.496H275.472ZM276.064 258.456L275.856 258.488H271.6V259.496H272.624L271.904 259.672C272.272 261 272.784 262.232 273.456 263.288C272.576 264.248 271.456 264.968 270.24 265.384C270.464 265.592 270.736 265.992 270.864 266.264C272.08 265.768 273.168 265.08 274.096 264.152C274.816 265.032 275.68 265.752 276.688 266.216C276.848 265.912 277.184 265.512 277.408 265.304C276.4 264.904 275.504 264.2 274.784 263.352C275.696 262.152 276.368 260.616 276.736 258.68L276.064 258.456ZM281.312 259.688H284.208V261.288H281.312V259.688ZM284.208 254.792V256.2H281.312V254.792H284.208ZM281.312 257.16H284.208V258.728H281.312V257.16ZM286.48 261.288H285.312V254.792H286.48V253.72H285.312V251.8H284.208V253.72H281.312V251.8H280.224V253.72H278.88V254.792H280.224V261.288H278.672V262.36H286.48V261.288ZM280.88 262.696C280.4 263.752 279.568 264.824 278.688 265.544C278.976 265.704 279.424 266.04 279.648 266.232C280.528 265.448 281.44 264.232 282.016 263L280.88 262.696ZM283.152 263.192C283.792 263.944 284.512 264.984 284.8 265.624L285.76 265.064C285.456 264.408 284.72 263.416 284.08 262.696L283.152 263.192ZM288.352 259.768C288.368 259.224 288.384 258.68 288.384 258.184V257.112H291.648V259.768H288.352ZM291.648 253.496V256.04H288.384V253.496H291.648ZM292.8 252.408H287.264V258.184C287.264 260.472 287.136 263.512 285.808 265.624C286.08 265.72 286.56 266.088 286.752 266.312C287.712 264.776 288.112 262.744 288.272 260.84H291.648V264.68C291.648 264.936 291.552 265.016 291.312 265.016C291.088 265.032 290.288 265.032 289.44 265.016C289.584 265.32 289.76 265.832 289.808 266.168C290.992 266.168 291.728 266.136 292.192 265.944C292.624 265.752 292.8 265.4 292.8 264.696V252.408ZM302.048 256.504C300.72 256.504 299.616 257.592 299.616 258.936C299.616 260.28 300.72 261.368 302.048 261.368C303.392 261.368 304.48 260.28 304.48 258.936C304.48 257.592 303.392 256.504 302.048 256.504ZM302.048 260.552C301.168 260.552 300.432 259.832 300.432 258.936C300.432 258.04 301.168 257.32 302.048 257.32C302.944 257.32 303.664 258.04 303.664 258.936C303.664 259.832 302.944 260.552 302.048 260.552Z" fill="#4B4B4B"/>
<rect x="0.5" y="0.5" width="559" height="317" rx="7.5" stroke="#CCCCCC"/>
</svg>
