<svg width="40" height="40" viewBox="0 0 40 40" fill="none" xmlns="http://www.w3.org/2000/svg">
<path fill-rule="evenodd" clip-rule="evenodd" d="M34.2451 34.0384C37.8038 30.4276 40 25.4703 40 20C40 8.95431 31.0457 0 20 0C8.95431 0 0 8.95431 0 20C0 25.4703 2.19617 30.4276 5.7549 34.0384C9.38202 37.7186 14.4246 40 20 40C25.5754 40 30.618 37.7186 34.2451 34.0384ZM6.84345 31.5396C9.3933 26.8969 14.3292 23.75 20 23.75C25.6708 23.75 30.6067 26.8969 33.1565 31.5396C29.9492 35.1935 25.2439 37.5 20 37.5C14.7561 37.5 10.0508 35.1935 6.84345 31.5396ZM27.5 13.75C27.5 17.8921 24.1421 21.25 20 21.25C15.8579 21.25 12.5 17.8921 12.5 13.75C12.5 9.60786 15.8579 6.25 20 6.25C24.1421 6.25 27.5 9.60786 27.5 13.75Z" fill="black"/>
</svg>
