<svg width="16" height="17" viewBox="0 0 16 17" fill="none" xmlns="http://www.w3.org/2000/svg">
<path d="M15.3337 13.1667C15.3337 13.5203 15.1932 13.8594 14.9431 14.1095C14.6931 14.3595 14.3539 14.5 14.0003 14.5H2.00033C1.6467 14.5 1.30756 14.3595 1.05752 14.1095C0.807468 13.8594 0.666992 13.5203 0.666992 13.1667V5.83333C0.666992 5.47971 0.807468 5.14057 1.05752 4.89052C1.30756 4.64048 1.6467 4.5 2.00033 4.5H4.66699L6.00033 2.5H10.0003L11.3337 4.5H14.0003C14.3539 4.5 14.6931 4.64048 14.9431 4.89052C15.1932 5.14057 15.3337 5.47971 15.3337 5.83333V13.1667Z" stroke="black" stroke-linecap="round" stroke-linejoin="round"/>
<path d="M7.99967 11.8333C9.47243 11.8333 10.6663 10.6394 10.6663 9.16667C10.6663 7.69391 9.47243 6.5 7.99967 6.5C6.52692 6.5 5.33301 7.69391 5.33301 9.16667C5.33301 10.6394 6.52692 11.8333 7.99967 11.8333Z" stroke="black" stroke-linecap="round" stroke-linejoin="round"/>
</svg>
