<svg width="60" height="60" viewBox="0 0 60 60" fill="none" xmlns="http://www.w3.org/2000/svg">
<path d="M60 30C60 46.569 46.569 60 30 60C13.4316 60 0 46.569 0 30C0 13.4316 13.4316 0 30 0C46.569 0 60 13.4316 60 30Z" fill="#FFB423"/>
<path d="M18.7079 20.6932C18.3165 21.0807 18.312 21.7117 18.698 22.1046L25.8737 29.4105C26.2596 29.8035 26.2551 30.4345 25.8637 30.8219L18.7179 37.8953C18.3226 38.2867 18.3226 38.9254 18.7179 39.3167L20.7249 41.3036C21.1146 41.6893 21.7423 41.6893 22.132 41.3036L29.2962 34.2116C29.6858 33.8258 30.3135 33.8258 30.7032 34.2115L37.8684 41.3036C38.2582 41.6894 38.8858 41.6893 39.2755 41.3035L41.2822 39.3167C41.6774 38.9254 41.6774 38.2867 41.282 37.8954L34.1356 30.822C33.7442 30.4345 33.7397 29.8034 34.1257 29.4105L41.302 22.1046C41.688 21.7117 41.6836 21.0807 41.2922 20.6932L39.2755 18.6965C38.8858 18.3107 38.2582 18.3106 37.8684 18.6964L30.7032 25.7885C30.3135 26.1742 29.6858 26.1742 29.2962 25.7884L22.132 18.6964C21.7423 18.3107 21.1146 18.3107 20.7249 18.6964L18.7079 20.6932Z" fill="#ECF0F1"/>
</svg>
