<svg width="24" height="21" viewBox="0 0 24 21" fill="none" xmlns="http://www.w3.org/2000/svg">
<path d="M20.84 3.11012C20.3292 2.59912 19.7228 2.19376 19.0554 1.9172C18.3879 1.64064 17.6725 1.49829 16.95 1.49829C16.2275 1.49829 15.5121 1.64064 14.8446 1.9172C14.1772 2.19376 13.5708 2.59912 13.06 3.11012L12 4.17012L10.94 3.11012C9.9083 2.07842 8.50903 1.49883 7.05 1.49883C5.59096 1.49883 4.19169 2.07842 3.16 3.11012C2.1283 4.14181 1.54871 5.54108 1.54871 7.00012C1.54871 8.45915 2.1283 9.85842 3.16 10.8901L4.22 11.9501L12 19.7301L19.78 11.9501L20.84 10.8901C21.351 10.3794 21.7563 9.77293 22.0329 9.10547C22.3095 8.43801 22.4518 7.7226 22.4518 7.00012C22.4518 6.27763 22.3095 5.56222 22.0329 4.89476C21.7563 4.2273 21.351 3.62087 20.84 3.11012Z" fill="#EE8C77" stroke="black" stroke-width="2" stroke-linecap="round" stroke-linejoin="round"/>
</svg>
