<svg width="16" height="17" viewBox="0 0 16 17" fill="none" xmlns="http://www.w3.org/2000/svg">
<g clip-path="url(#clip0_591_5555)">
<path d="M7.99967 13.8333H1.33301V12.5H5.16634C4.67967 10.6266 3.20634 9.15996 1.33301 8.67329C1.75967 8.56663 2.20634 8.49996 2.66634 8.49996C5.61301 8.49996 7.99967 10.8866 7.99967 13.8333ZM14.6663 8.67329C14.2397 8.56663 13.793 8.49996 13.333 8.49996C11.3797 8.49996 9.67968 9.55329 8.74634 11.12C8.93967 11.56 9.09967 12.02 9.19301 12.5C9.27967 12.9333 9.32634 13.38 9.32634 13.8333H10.6597H14.6597V12.5H10.8263C11.3197 10.6266 12.793 9.15996 14.6663 8.67329ZM10.4263 7.84663C10.9463 6.45329 11.913 5.28663 13.153 4.51329C10.293 4.60663 7.99967 6.94663 7.99967 9.83329C7.99967 9.83996 7.99967 9.84663 7.99967 9.84663C8.63301 8.99996 9.46634 8.31329 10.4263 7.84663ZM7.61301 6.39996C7.05301 4.93996 5.91967 3.75996 4.46634 3.16663C5.42634 4.40663 5.99967 5.95329 5.99967 7.63996C5.99967 7.77996 5.97967 7.91329 5.97301 8.04663C6.25967 8.20663 6.52634 8.39329 6.78634 8.59329C6.92634 7.80663 7.21967 7.06663 7.61301 6.39996Z" fill="black"/>
</g>
<defs>
<clipPath id="clip0_591_5555">
<rect width="16" height="16" fill="white" transform="translate(0 0.5)"/>
</clipPath>
</defs>
</svg>
