<svg width="24" height="22" viewBox="0 0 24 22" fill="none" xmlns="http://www.w3.org/2000/svg">
<path fill-rule="evenodd" clip-rule="evenodd" d="M10.5133 4.36249C8.69389 2.54307 5.74403 2.54307 3.92462 4.36249C2.1052 6.1819 2.10521 9.13176 3.92462 10.9512L4.70433 11.7309C4.71707 11.7436 4.72944 11.7567 4.74142 11.77L12.0001 19.0287L19.2585 11.7703C19.2706 11.7569 19.283 11.7438 19.2959 11.7309L20.0756 10.9512C21.895 9.13176 21.895 6.1819 20.0756 4.36249C18.2562 2.54307 15.3063 2.54307 13.4869 4.36249L12.7072 5.14219C12.3167 5.53272 11.6835 5.53272 11.293 5.14219L10.5133 4.36249ZM20.7486 13.1067C20.7365 13.1201 20.724 13.1332 20.7112 13.1461L12.7083 21.149C12.5207 21.3366 12.2662 21.442 12.0009 21.4419C12.0007 21.4419 12.0012 21.4419 12.0009 21.4419C12.0007 21.4419 11.9996 21.4419 11.9993 21.4419C11.734 21.442 11.4796 21.3366 11.292 21.149L3.28909 13.1461C3.27619 13.1332 3.26372 13.1201 3.25167 13.1067L2.51041 12.3654C-0.0900556 9.76493 -0.0900594 5.54874 2.51041 2.94827C5.11087 0.347809 9.32706 0.347809 11.9275 2.94827L12.0001 3.02087L12.0727 2.94827C14.6732 0.347809 18.8894 0.347809 21.4898 2.94827C24.0903 5.54874 24.0903 9.76493 21.4898 12.3654L20.7486 13.1067Z" fill="black"/>
</svg>
