<svg width="80" height="81" viewBox="0 0 80 81" fill="none" xmlns="http://www.w3.org/2000/svg">
<path fill-rule="evenodd" clip-rule="evenodd" d="M40.2514 0.0106812L79.8102 36.036H80L80 36.2088L80 80.0107H0V36.036H0.192181L40.2514 0.0106812ZM17.5415 46.2793L15.2193 42.2572L11.4725 48.7469C7.11743 51.662 4.25004 56.6264 4.25004 62.2606V80.0106H36.75V62.2606C36.75 56.6392 33.8956 51.6844 29.5571 48.7667L25.7988 42.2572L23.4749 46.2823C22.5105 46.1039 21.5161 46.0106 20.5 46.0106C19.4897 46.0106 18.5008 46.1028 17.5415 46.2793Z" fill="#FFB423"/>
<path fill-rule="evenodd" clip-rule="evenodd" d="M32.3133 59.9544C33.5368 60.8111 34.9554 61.181 36.3394 61.1048V80.0106H68.3987V61.2245C70.1382 61.6591 72.0495 61.3659 73.6335 60.2567C76.5342 58.2256 77.2392 54.2275 75.2081 51.3267L67.8527 40.8221C66.2143 38.4823 63.2962 37.5712 60.7066 38.3722C58.2774 36.89 55.423 36.036 52.3691 36.036C49.6217 36.036 47.0357 36.7272 44.7755 37.9452C42.3083 37.3822 39.6351 38.319 38.0941 40.5198L30.7387 51.0244C28.7076 53.9252 29.4126 57.9233 32.3133 59.9544Z" fill="#6E7D00"/>
</svg>
