<svg width="44" height="44" viewBox="0 0 44 44" fill="none" xmlns="http://www.w3.org/2000/svg">
<path d="M29.5805 0.000818833C25.6723 0.452596 23.4533 4.73839 23.1709 8.46096C22.7093 11.7703 24.1536 15.9932 27.6287 16.7542C30.6403 17.0228 33.0362 14.1929 34.0204 11.4933C35.1827 8.11438 35.2167 3.60206 32.3964 1.07065C31.613 0.391589 30.6072 -0.0209198 29.5805 0.000818833ZM13.6386 0.177996C10.3867 0.413296 8.71996 4.19336 8.94615 7.22763C8.9738 11.2847 11.2013 15.8478 15.2632 16.8109C18.2925 17.1386 20.3122 13.925 20.5004 11.1152C20.887 6.81499 18.9822 1.60579 14.6686 0.307471C14.3334 0.214854 13.9857 0.168887 13.6386 0.177996ZM39.7688 13.2072C35.4058 13.5271 32.6467 18.178 32.4571 22.3806C32.2275 25.1176 33.9953 28.5595 36.9719 28.3709C41.4235 27.8989 44.1073 22.9363 43.9967 18.6245C43.9681 16.1421 42.3954 13.3107 39.7688 13.2072ZM0.0338014 18.8805C-0.370173 23.5373 2.88768 28.8008 7.62029 29.094C10.4887 28.9024 11.8413 25.5701 11.5125 22.9337C11.2506 19.0437 8.65027 15.0603 5.2718 14.5399C1.89334 14.0195 -0.0197659 16.4069 0.0338014 18.8805ZM22.4985 22.8531C18.0616 22.8634 14.005 25.7652 11.8362 29.6914C10.0191 32.6254 8.53354 35.947 8.25101 39.4524C8.31283 42.1557 10.8916 44.4057 13.4774 43.8672C17.1657 43.3883 20.4616 40.8263 24.297 41.3064C27.4844 41.5609 30.1131 44.0331 33.3313 43.9972C36.4561 44.1146 38.2587 40.5329 37.067 37.7275C35.7847 33.7107 33.2985 30.2173 30.6301 27.0711C28.5015 24.7519 25.7136 22.7504 22.4985 22.8531Z" fill="black"/>
</svg>
