<svg width="63" height="81" viewBox="0 0 63 81" fill="none" xmlns="http://www.w3.org/2000/svg">
<g clip-path="url(#clip0_187_3858)">
<path d="M40.3445 17.946C41.6419 17.4737 42.3109 16.0391 41.8387 14.7417C41.3664 13.4442 39.9318 12.7753 38.6344 13.2475C37.3369 13.7197 36.668 15.1543 37.1402 16.4518C37.6124 17.7492 39.047 18.4182 40.3445 17.946Z" fill="white"/>
<path d="M43.2051 12.6476C44.5025 12.1754 45.1715 10.7408 44.6993 9.44333C44.227 8.14589 42.7924 7.47692 41.495 7.94915C40.1975 8.42138 39.5286 9.85599 40.0008 11.1534C40.473 12.4509 41.9076 13.1198 43.2051 12.6476Z" fill="white"/>
<path d="M48.8433 10.5959C50.1407 10.1236 50.8097 8.68902 50.3374 7.39157C49.8652 6.09413 48.4306 5.42516 47.1332 5.89739C45.8357 6.36962 45.1668 7.80423 45.639 9.10167C46.1112 10.3991 47.5458 11.0681 48.8433 10.5959Z" fill="white"/>
<path d="M54.4399 12.8156C55.7374 12.3433 56.4064 10.9087 55.9341 9.6113C55.4619 8.31385 54.0273 7.64489 52.7298 8.11712C51.4324 8.58935 50.7634 10.024 51.2357 11.3214C51.7079 12.6188 53.1425 13.2878 54.4399 12.8156Z" fill="white"/>
<path d="M53.3885 16.2418C52.2221 15.5808 51.2386 15.013 50.0628 14.3555C49.4459 14.0054 48.7067 13.6997 47.9669 13.7136C47.8498 13.7136 47.7362 13.7231 47.626 13.7419C47.3774 13.7898 47.1237 13.8822 46.8794 13.9711C46.635 14.06 46.3813 14.1524 46.1541 14.2883C46.0576 14.3447 45.9645 14.4105 45.8748 14.4857C45.2991 14.9507 44.9387 15.6565 44.6818 16.3246C44.2131 17.5807 43.8247 18.6479 43.3466 19.9074C42.5637 21.5864 41.5467 23.4996 42.5229 25.3046C43.1443 26.1639 44.1757 26.8633 45.5059 26.6878C46.2432 26.579 48.2308 25.2277 50.5613 24.3795L50.7304 24.3179C53.0609 23.4697 55.4487 23.2178 56.0868 22.8366C57.2186 22.1161 57.5557 20.9079 57.4828 19.8596C57.0764 17.8366 55.0676 17.0247 53.3885 16.2418Z" fill="white"/>
</g>
<g clip-path="url(#clip1_187_3858)">
<path d="M11.2488 67.694C12.3798 66.9021 12.6547 65.3432 11.8627 64.2122C11.0708 63.0812 9.5119 62.8063 8.38089 63.5983C7.24987 64.3902 6.97501 65.9491 7.76695 67.0801C8.55889 68.2111 10.1178 68.486 11.2488 67.694Z" fill="white"/>
<path d="M12.6406 61.8361C13.7716 61.0442 14.0465 59.4853 13.2546 58.3543C12.4626 57.2233 10.9037 56.9484 9.77273 57.7404C8.64172 58.5323 8.36685 60.0912 9.15879 61.2222C9.95074 62.3532 11.5096 62.6281 12.6406 61.8361Z" fill="white"/>
<path d="M17.5557 58.3947C18.6867 57.6028 18.9615 56.0439 18.1696 54.9129C17.3777 53.7819 15.8188 53.507 14.6878 54.299C13.5568 55.0909 13.2819 56.6498 14.0738 57.7808C14.8658 58.9118 16.4246 59.1867 17.5557 58.3947Z" fill="white"/>
<path d="M23.5361 59.0905C24.6671 58.2986 24.942 56.7397 24.1501 55.6087C23.3581 54.4777 21.7993 54.2028 20.6682 54.9948C19.5372 55.7867 19.2624 57.3456 20.0543 58.4766C20.8462 59.6076 22.4051 59.8825 23.5361 59.0905Z" fill="white"/>
<path d="M23.4072 62.6721C22.1095 62.3356 21.0125 62.0417 19.7066 61.7109C19.0201 61.5324 18.2271 61.4284 17.516 61.6333C17.4029 61.6637 17.2956 61.7022 17.194 61.7489C16.9663 61.8595 16.7451 62.0144 16.5322 62.1635C16.3192 62.3127 16.098 62.4675 15.9137 62.6576C15.8351 62.7371 15.7622 62.8248 15.695 62.9206C15.2593 63.5187 15.0939 64.2937 15.0186 65.0057C14.891 66.3402 14.792 67.4716 14.6562 68.8119C14.3345 70.6363 13.8474 72.7476 15.2575 74.2384C16.0801 74.9076 17.2574 75.3162 18.4968 74.8024C19.1808 74.5065 20.751 72.6868 22.7825 71.2643L22.93 71.1611C24.9615 69.7386 27.2028 68.8773 27.7205 68.3439C28.6272 67.355 28.6401 66.1007 28.2984 65.107C27.3822 63.2581 25.2317 62.9938 23.4072 62.6721Z" fill="white"/>
</g>
<defs>
<clipPath id="clip0_187_3858">
<rect width="24" height="24" fill="white" transform="translate(32.0117 8.2085) rotate(-20)"/>
</clipPath>
<clipPath id="clip1_187_3858">
<rect width="24" height="24" fill="white" transform="translate(0.679688 60.4453) rotate(-35)"/>
</clipPath>
</defs>
</svg>
