<svg width="60" height="60" viewBox="0 0 60 60" fill="none" xmlns="http://www.w3.org/2000/svg">
<path d="M60 30C60 46.569 46.569 60 30 60C13.4316 60 0 46.569 0 30C0 13.4316 13.4316 0 30 0C46.569 0 60 13.4316 60 30Z" fill="#FFB423"/>
<path d="M44.0396 19.9469C42.75 18.6844 40.6726 18.6844 39.3921 19.9469L25.0001 34.1527L19.6079 28.8406C18.3183 27.5781 16.2409 27.5781 14.9604 28.8406C13.6799 30.1121 13.6799 32.1604 14.9604 33.4229L22.3641 40.7161C22.4527 40.8303 22.5503 40.9422 22.657 41.0474C23.4426 41.822 24.5256 42.1242 25.5382 41.954C26.2011 41.8511 26.8391 41.5489 27.3477 41.0474C27.4544 40.9422 27.552 40.8303 27.6405 40.7139L44.0396 24.5292C45.3201 23.2577 45.3201 21.2094 44.0396 19.9469V19.9469Z" fill="white"/>
</svg>
