<svg width="688" height="124" viewBox="0 0 688 124" fill="none" xmlns="http://www.w3.org/2000/svg">
<rect width="688" height="104" rx="52" fill="#332200"/>
<path d="M75.712 52.816H81.6V54.736H75.712V52.816ZM75.712 48.176H81.6V50.032H75.712V48.176ZM75.712 43.504H81.6V45.36H75.712V43.504ZM68.992 58.96C70.432 60.304 72.32 62.256 73.216 63.408L75.968 61.104C75.2 60.208 73.824 58.864 72.576 57.712H85.248V40.496H72.256V57.424L71.616 56.848L68.992 58.96ZM62.88 58.096H66.496V51.408C67.648 52.464 68.832 53.616 69.568 54.416L71.552 51.376C70.816 50.768 67.776 48.592 66.496 47.856V46.672H71.008V43.44H66.496V38.928H62.88V43.44H57.632V46.672H62.272C61.024 49.456 58.944 52.24 56.832 53.808C57.6 54.416 58.72 55.6 59.264 56.432C60.576 55.28 61.792 53.68 62.88 51.792V58.096ZM60.544 67.024C61.664 65.168 62.592 62.32 63.232 60.048L59.84 58.704C59.296 60.976 58.208 63.6 57.056 65.296L60.544 67.024ZM70.208 64.784C68.48 64.784 68.16 64.656 68.16 63.696V59.376H64.384V63.76C64.384 67.088 65.504 68.144 69.856 68.144H75.616C79.136 68.144 80.192 67.024 80.672 62.448C79.616 62.256 78.016 61.712 77.248 61.104C77.056 64.336 76.832 64.784 75.328 64.784H70.208ZM79.776 59.824C81.024 61.968 82.784 64.784 83.552 66.48L87.104 64.656C86.24 62.992 84.384 60.272 83.104 58.288L79.776 59.824ZM112.768 54.864V63.248H106.016V53.2H115.744V41.584H111.52V49.52H106.016V38.896H101.792V49.52H96.512V41.584H92.48V53.2H101.792V63.248H95.072V54.896H90.784V67.024H112.768V68.752H117.056V54.864H112.768ZM129.024 43.728C128.16 42.416 126.496 40.432 125.056 38.928L122.208 40.592C123.552 42.16 125.248 44.4 126.048 45.776L129.024 43.728ZM150.176 47.504V44.816H141.568V43.408H148.352V40.72H141.568V38.928H137.888V40.72H131.392V43.408H137.888V44.816H129.728V47.504H150.176ZM146.24 55.824C145.568 56.432 144.704 57.072 143.936 57.584C143.104 57.168 142.336 56.784 141.568 56.432L139.36 58.544C140.128 58.928 140.992 59.376 141.856 59.888L137.664 60.88V58.384C138.848 57.584 139.872 56.752 140.736 55.824H146.24ZM135.488 51.28H144.064V53.264H135.488V51.28ZM150.112 61.552C149.216 60.752 147.904 59.856 146.432 58.992C147.584 58.352 148.864 57.584 150.048 56.752L147.744 55.28V48.752H132V55.824H136.256C134.272 57.168 131.52 58.224 128.832 58.896C129.472 59.536 130.464 60.944 130.848 61.648C132.128 61.2 133.408 60.72 134.656 60.112V60.656C134.656 61.84 134.08 62.192 133.568 62.384C133.92 62.928 134.368 64.016 134.528 64.752C131.552 64.368 129.44 63.44 128.16 61.008C128.768 59.12 129.216 57.008 129.536 54.64L127.936 53.968L127.328 54.064H125.504C126.944 51.888 128.704 48.88 129.728 47.088L127.392 46.192L127.072 46.32H121.408V49.36H124.96C123.968 51.088 122.848 52.88 122.336 53.424C121.824 54.064 121.312 54.32 120.832 54.448C121.152 55.12 121.824 56.72 122.016 57.488C122.304 57.232 123.232 57.008 123.904 57.008H125.824C124.992 61.264 123.296 64.464 120.832 66.352C121.536 66.832 122.784 68.112 123.296 68.848C124.672 67.728 125.888 66.192 126.88 64.24C129.312 67.6 133.056 68.24 138.976 68.24C142.72 68.24 146.784 68.144 150.112 67.952C150.304 66.896 150.816 65.2 151.36 64.432C147.712 64.784 142.464 64.976 139.072 64.976C137.44 64.976 136.032 64.912 134.72 64.784C135.36 64.4 136.704 63.92 142.048 62.416C141.952 61.84 141.888 60.72 141.952 59.92C144.224 61.2 146.464 62.736 147.744 63.888L150.112 61.552ZM163.264 43.248V44.912H158.4V43.248H163.264ZM158.4 49.456V47.632H163.264V49.456H158.4ZM166.816 40.176H154.624V68.784H158.4V52.496H166.816V40.176ZM172.672 49.52V47.632H177.728V49.52H172.672ZM177.728 43.248V44.912H172.672V43.248H177.728ZM181.568 40.176H169.056V52.592H177.728V64.112C177.728 64.72 177.504 64.944 176.832 64.944C176.16 64.944 173.792 64.976 171.776 64.848C172.352 65.872 172.96 67.664 173.12 68.752C176.224 68.752 178.336 68.688 179.712 68.048C181.12 67.472 181.568 66.352 181.568 64.176V40.176ZM198.176 52.752C197.888 51.28 196.96 49.072 195.968 47.376L193.44 48.24C193.728 48.784 194.016 49.392 194.272 50.032L190.72 50.352C192.736 48.4 194.816 46.064 196.544 43.632L193.824 42.416C193.184 43.504 192.416 44.592 191.68 45.584L189.44 45.712C190.784 44.048 192.096 42.032 193.12 40.048L190.4 39.024C189.44 41.52 187.744 44.08 187.2 44.752C186.688 45.424 186.208 45.904 185.728 46C186.048 46.768 186.464 48.08 186.624 48.656C186.976 48.464 187.584 48.304 189.504 48.112C188.96 48.72 188.512 49.168 188.256 49.424C187.424 50.256 186.784 50.768 186.112 50.896C186.464 51.664 186.88 53.104 187.008 53.648C187.712 53.36 188.704 53.168 195.168 52.464C195.296 52.912 195.392 53.36 195.456 53.712L198.176 52.752ZM207.808 57.936C207.2 58.992 206.4 59.92 205.44 60.816C204.992 59.952 204.544 58.992 204.128 57.904H214.528V54.768H209.472L210.656 53.648C210.112 53.136 209.184 52.496 208.224 51.952C209.056 51.856 210.08 51.728 211.264 51.6C211.488 52.176 211.68 52.752 211.808 53.2L214.56 52.016C214.144 50.512 212.96 48.24 211.776 46.576L209.184 47.664C209.504 48.144 209.824 48.688 210.112 49.232L207.136 49.488C209.152 47.536 211.168 45.2 212.928 42.8L210.208 41.584C209.568 42.704 208.768 43.792 208 44.784L205.792 44.912C206.944 43.44 208.096 41.648 208.992 39.888L206.272 38.864C205.44 41.136 203.936 43.44 203.488 44.08C203.008 44.688 202.592 45.104 202.144 45.232C202.496 45.968 202.848 47.28 203.008 47.856C203.392 47.664 204 47.536 205.888 47.312C205.344 47.888 204.96 48.336 204.704 48.592C203.84 49.424 203.232 49.936 202.592 50.064C202.88 50.8 203.328 52.24 203.456 52.816C203.872 52.624 204.384 52.496 206.048 52.24L205.088 53.168C205.888 53.584 206.848 54.192 207.616 54.768H203.104C201.888 50.288 201.152 44.656 201.216 38.928H197.504C197.568 44.464 198.144 50.032 199.36 54.768H185.536V57.904H190.176C189.856 61.424 188.64 64.944 185.152 66.544C185.856 67.056 187.168 68.336 187.68 69.008C190.304 67.632 191.936 65.232 192.864 62.512C194.112 63.344 195.264 64.208 195.904 64.944L198.4 62.512C197.376 61.488 195.424 60.24 193.696 59.312C193.76 58.864 193.856 58.384 193.888 57.904H200.224C200.864 59.792 201.632 61.52 202.528 62.992C200.416 64.24 198.016 65.2 195.456 65.904C196.16 66.576 197.44 67.984 197.92 68.72C200.192 67.92 202.432 66.896 204.448 65.648C206.08 67.408 208.032 68.432 210.304 68.432C213.216 68.432 214.336 67.472 215.072 63.12C214.144 62.8 212.96 62.064 212.16 61.296C211.904 64.176 211.52 64.88 210.496 64.88C209.408 64.88 208.384 64.368 207.456 63.472C208.96 62.16 210.272 60.688 211.264 59.024L207.808 57.936ZM245.888 54.544V50.64H233.696C233.728 49.808 233.76 49.008 233.76 48.24V44.944H244.64V41.04H219.296V44.944H229.76V48.176C229.76 48.976 229.728 49.776 229.664 50.64H218.144V54.544H228.864C227.552 58.608 224.416 62.736 217.024 65.36C217.856 66.096 219.008 67.696 219.52 68.656C226.72 65.968 230.336 61.936 232.096 57.68C234.784 62.928 238.656 66.64 244.672 68.56C245.216 67.472 246.368 65.808 247.296 65.008C241.056 63.376 236.96 59.632 234.72 54.544H245.888ZM261.312 60.848C265.28 59.696 267.616 56.72 267.616 53.104C267.616 50.416 266.432 48.72 264.16 48.72C262.464 48.72 261.024 49.808 261.024 51.6C261.024 53.424 262.464 54.448 264.064 54.448C264.192 54.448 264.32 54.448 264.416 54.416C264.224 56.112 262.784 57.488 260.288 58.288L261.312 60.848ZM294.368 52.08V57.2H288.288V52.08H294.368ZM298.144 60.848V48.464H284.576V63.28H288.288V60.848H298.144ZM310.464 41.04H281.632V44.88H302.784V63.888C302.784 64.56 302.496 64.784 301.76 64.784C300.992 64.784 298.208 64.816 295.936 64.688C296.512 65.712 297.28 67.6 297.504 68.72C300.768 68.72 303.136 68.656 304.736 68.016C306.24 67.376 306.784 66.256 306.784 63.952V44.88H310.464V41.04ZM335.232 44.272H320.576V42.672H335.232V44.272ZM335.232 48.4H320.576V46.768H335.232V48.4ZM339.104 39.984H316.896V51.088H339.104V39.984ZM330.272 61.552H340.128V58.256H330.272V55.856H342.144V52.496H313.92V55.856H326.4V63.984C324.352 63.344 322.784 62.16 321.792 59.984C322.048 59.056 322.304 58.096 322.528 57.072L318.72 56.496C317.984 60.784 316.032 64.176 312.768 66.192C313.632 66.736 315.104 68.144 315.648 68.848C317.504 67.568 318.976 65.872 320.128 63.76C322.816 67.472 326.784 68.272 332.64 68.272H341.76C341.952 67.184 342.528 65.52 343.04 64.656C340.768 64.752 334.624 64.752 332.832 64.752C331.968 64.752 331.104 64.72 330.272 64.656V61.552ZM369.216 45.104C369.024 47.536 368.736 48.688 368.352 49.072C368.032 49.328 367.744 49.392 367.232 49.392C366.592 49.392 365.152 49.36 363.712 49.2C364.352 50.192 364.768 51.632 364.832 52.72C366.528 52.752 368.064 52.752 368.992 52.656C370.08 52.528 370.88 52.272 371.552 51.504C372.416 50.544 372.832 48.24 373.152 43.088C373.216 42.576 373.248 41.68 373.248 41.68H362.816C362.976 40.912 363.104 40.144 363.232 39.344L359.296 38.896C358.656 44.176 356.992 48.592 353.728 51.152C354.656 51.664 356.352 52.912 357.024 53.552C359.232 51.504 360.864 48.592 361.952 45.104H369.216ZM354.976 42.32C353.664 41.2 351.008 39.792 348.96 39.024L346.88 41.84C348.928 42.736 351.552 44.272 352.736 45.424L354.976 42.32ZM353.056 50.8C351.744 49.712 349.024 48.368 347.008 47.6L345.024 50.448C347.072 51.344 349.696 52.816 350.944 53.936L353.056 50.8ZM351.872 55.824C350.016 59.504 347.712 63.472 346.08 65.872L349.344 68.368C351.2 65.296 353.12 61.648 354.72 58.288L351.872 55.824ZM368.096 57.104C367.232 58.544 366.144 59.792 364.8 60.848C363.424 59.728 362.24 58.48 361.376 57.104H368.096ZM370.816 53.584L370.144 53.712H355.936V57.104H360.256L357.792 57.936C358.848 59.792 360.128 61.424 361.632 62.864C359.296 64.048 356.544 64.848 353.568 65.328C354.272 66.16 355.104 67.728 355.456 68.752C358.944 68.016 362.08 66.96 364.8 65.36C367.104 66.864 369.76 67.984 372.8 68.72C373.344 67.664 374.432 66.096 375.296 65.296C372.64 64.784 370.24 63.984 368.128 62.928C370.432 60.816 372.224 58.096 373.344 54.608L370.816 53.584ZM389.504 38.928C389.376 44.336 389.984 58.672 376.992 65.616C378.272 66.48 379.488 67.696 380.16 68.72C386.816 64.816 390.176 59.024 391.936 53.392C393.792 58.896 397.344 65.136 404.448 68.528C404.96 67.44 406.048 66.16 407.232 65.232C396.064 60.304 394.112 48.24 393.664 43.92C393.792 42 393.856 40.272 393.888 38.928H389.504ZM416.864 57.232H431.424V58.192H416.864V57.232ZM416.864 54.352H431.424V55.312H416.864V54.352ZM436.736 61.2H425.792V60.176H434.944V52.368H425.696C425.984 51.92 426.272 51.408 426.624 50.864L424.288 50.416L424.32 48.72C422.464 48.848 420.608 48.944 418.784 49.072V48.112H423.392V46.192H418.784V45.264H424.032V43.376H418.784V42.384H423.104V40.56H418.784V38.928H415.264V40.56H411.136V42.384H415.264V43.376H409.92V45.264H415.264V46.192H410.656V48.112H415.264V49.264C413.184 49.36 411.296 49.456 409.76 49.52L409.952 51.792C413.408 51.6 418.144 51.248 422.816 50.896C422.688 51.376 422.496 51.888 422.304 52.368H413.472V60.176H422.048V61.2H411.776V68.24H415.456V63.824H422.048V68.784H425.792V63.824H432.992V65.104C432.992 65.488 432.864 65.584 432.416 65.616C432 65.616 430.464 65.616 429.088 65.552C429.536 66.32 430.08 67.408 430.304 68.272C432.416 68.272 434.048 68.272 435.2 67.856C436.384 67.44 436.736 66.704 436.736 65.136V61.2ZM435.456 41.456V38.928H431.968V41.456H424.256V44.208H427.552L425.248 45.392C426.208 46.544 427.296 48.112 427.744 49.136L430.368 47.728C429.856 46.736 428.768 45.296 427.744 44.208H431.968V48.624C431.968 48.976 431.872 49.104 431.456 49.104C431.104 49.104 429.792 49.104 428.672 49.072C429.056 49.776 429.632 50.928 429.856 51.728C431.776 51.728 433.088 51.696 434.144 51.28C435.168 50.832 435.456 50.192 435.456 48.72V44.208H438.464V41.456H435.456ZM443.456 54.576C444.288 52.176 444.768 48.368 444.832 45.584L442.112 45.2C441.952 47.888 441.472 51.44 440.672 53.552L443.456 54.576ZM470.944 48.72V45.072H461.728L464.864 43.824C464.32 42.416 463.232 40.112 462.368 38.384L458.592 39.728C459.328 41.392 460.256 43.568 460.736 45.072H452.384V47.76C451.904 46.608 451.36 45.36 450.88 44.304L449.056 45.072V38.896H445.344V68.784H449.056V46.48C449.792 48.24 450.528 50.256 450.848 51.568L453.376 50.352C453.216 49.904 453.024 49.328 452.768 48.72H454.912V61.68C454.912 66.128 456.288 67.664 460.64 67.664H466.592C468.064 67.664 469.664 67.6 470.4 67.344C470.208 66.416 470.08 64.72 469.984 63.728C469.184 63.92 467.776 64.016 466.688 64.016H460.48C459.104 64.016 458.752 63.472 458.752 61.84V48.72H470.944ZM481.248 43.44V47.6H478.144V43.44H481.248ZM478.144 55.568V50.928H481.248V55.568H478.144ZM490.208 53.584H497.376V57.008H490.208V53.584ZM478.144 58.96H484.736V48.176C485.472 48.88 486.24 50.032 486.56 50.832L486.624 50.8V60.08H501.152V50.544H487.456C491.744 49.04 493.28 46.672 493.952 43.344H498.368C498.208 45.168 498.016 46.032 497.728 46.32C497.472 46.576 497.216 46.64 496.768 46.64C496.256 46.64 495.2 46.608 493.984 46.512C494.496 47.344 494.848 48.592 494.912 49.552C496.352 49.616 497.792 49.584 498.592 49.488C499.456 49.392 500.192 49.136 500.8 48.464C501.536 47.664 501.824 45.648 502.08 41.296C502.112 40.848 502.144 40.016 502.144 40.016H485.664V43.344H490.208C489.632 45.488 488.352 47.024 484.736 48.016V40.112H474.56V60.464H478.144V58.96ZM476.8 68.944C478.144 67.056 479.68 64.208 480.736 61.776L477.056 60.752C476.064 63.12 474.432 65.776 473.12 67.344L476.8 68.944ZM482.368 61.968C482.72 64.144 482.976 66.992 482.976 68.656L486.72 68.08C486.688 66.384 486.304 63.664 485.888 61.552L482.368 61.968ZM489.12 61.904C489.856 64.048 490.592 66.864 490.784 68.528L494.592 67.76C494.304 66 493.504 63.312 492.704 61.264L489.12 61.904ZM495.712 61.872C497.024 64.048 498.56 66.992 499.2 68.784L502.88 67.216C502.144 65.392 500.48 62.576 499.168 60.528L495.712 61.872ZM530.56 50.192H525.056V48.272H530.56V50.192ZM530.56 54.8H525.056V52.816H530.56V54.8ZM530.56 59.344H525.056V57.456H530.56V59.344ZM521.952 45.424V62.192H533.76V45.424H529.216C529.408 44.784 529.6 44.08 529.792 43.376H534.56V40.176H521.28V43.376H526.016C525.952 44.048 525.888 44.752 525.792 45.424H521.952ZM513.216 63.408H515.296V64.56H513.216V63.408ZM511.552 52.08C511.104 53.648 510.432 55.216 509.568 56.528C509.664 54.96 509.696 53.456 509.728 52.08H511.552ZM517.088 47.504V49.264H509.728V47.504H517.088ZM515.296 58.032H513.216V56.912H515.296V58.032ZM515.296 61.264H513.216V60.112H515.296V61.264ZM520.992 64.56H517.76V63.408H520.448V61.264H517.76V60.112H520.416V58.032H517.76V56.912H520.736V54.544H518.08C517.824 53.776 517.408 52.848 516.992 52.112L514.496 52.752C514.752 53.296 515.008 53.936 515.232 54.544H513.568C513.792 53.904 514.016 53.296 514.208 52.656L512.096 52.08H520.48V44.688H509.728V43.728C513.472 43.376 517.568 42.768 520.64 41.872L517.888 39.344C515.2 40.176 510.656 40.88 506.624 41.2V50.896C506.624 55.568 506.496 62.288 504.704 66.928C505.504 67.216 506.912 67.984 507.52 68.464C508.48 66 509.024 62.96 509.312 59.824C509.568 60.208 509.76 60.56 509.888 60.784C510.08 60.56 510.272 60.336 510.464 60.112V68.496H513.216V67.024H520.384C521.056 67.6 521.824 68.336 522.272 68.816C524.128 67.856 526.304 66 527.616 64.4L524.64 62.608C523.872 63.632 522.432 65.008 520.992 65.936V64.56ZM528.48 64.336C529.824 65.616 531.456 67.408 532.192 68.592L535.072 66.672C534.24 65.52 532.544 63.824 531.2 62.672L528.48 64.336ZM554.464 64.56C552.352 64.56 552.032 64.304 552.032 62.512V59.728L566.048 57.904L565.536 54.32L552.032 56.048V52.464L564.064 50.8L563.52 47.248L552.032 48.784V45.008C555.968 44.176 559.744 43.216 562.912 42.032L559.744 38.928C554.528 41.008 545.856 42.768 537.92 43.792C538.368 44.592 538.944 46.16 539.072 47.12C541.984 46.768 545.056 46.32 548.064 45.776V49.328L538.72 50.544L539.264 54.192L548.064 53.008V56.56L537.664 57.84L538.176 61.52L548.064 60.24V62.512C548.064 67.024 549.376 68.304 554.112 68.304H561.152C565.28 68.304 566.432 66.704 567.008 61.936C565.888 61.68 564.256 61.008 563.296 60.368C563.072 63.856 562.72 64.56 560.832 64.56H554.464ZM582.048 39.344V64.016C582.048 64.624 581.792 64.848 581.088 64.848C580.384 64.88 578.016 64.88 575.936 64.784C576.512 65.84 577.216 67.632 577.44 68.752C580.544 68.752 582.72 68.624 584.224 68.016C585.632 67.408 586.176 66.352 586.176 64.016V39.344H582.048ZM589.664 47.696C592.192 52.368 594.624 58.384 595.264 62.256L599.424 60.624C598.624 56.624 596 50.832 593.408 46.288L589.664 47.696ZM573.664 46.64C572.992 50.8 571.392 56.4 568.832 59.632C569.824 60.08 571.584 60.976 572.544 61.616C575.2 58.096 576.928 52.144 578.016 47.376L573.664 46.64ZM626.4 54.064C623.904 59.088 618.144 63.568 610.912 65.712C611.584 66.48 612.64 67.952 613.12 68.848C616.8 67.6 620.096 65.872 622.88 63.696C624.736 65.392 626.784 67.408 627.808 68.752L630.752 66.416C629.6 65.008 627.392 63.088 625.504 61.456C627.392 59.632 628.992 57.584 630.272 55.376L626.4 54.064ZM624.416 42.672C624.16 41.456 623.456 39.824 622.752 38.544L619.104 39.664C619.552 40.592 619.968 41.68 620.256 42.672H613.312L613.472 42.32L611.104 40.592L610.304 40.816H601.728V44.304H608.32C607.488 46.064 606.496 47.984 605.568 49.296V54.384C603.84 54.8 602.208 55.216 600.896 55.504L601.6 59.376C602.816 59.024 604.16 58.608 605.568 58.192V64.72C605.568 65.104 605.408 65.264 604.96 65.264C604.512 65.296 603.008 65.296 601.6 65.232C602.112 66.16 602.72 67.6 602.912 68.592C605.088 68.592 606.656 68.528 607.808 67.952C608.96 67.408 609.312 66.512 609.312 64.752V57.072L613.28 55.856L612.8 52.464L609.312 53.392V49.392C610.624 47.568 611.904 45.328 612.96 43.344V46.128H618.112C617.28 47.728 616.16 49.68 615.68 50.224C615.136 50.864 614.048 51.152 613.28 51.28C613.568 52.144 614.048 53.84 614.176 54.736C614.848 54.448 615.808 54.256 620 53.936C617.728 56.016 614.944 57.808 611.936 59.024C612.576 59.728 613.6 61.104 614.048 61.904C620.256 59.184 625.344 54.352 628.352 48.976L624.768 47.792C624.32 48.752 623.712 49.744 622.976 50.704L619.36 50.896C620.224 49.392 621.184 47.632 621.984 46.128H630.944V42.672H624.416Z" fill="white"/>
<path d="M575.754 117.75C574.214 120.417 570.365 120.417 568.825 117.75L561.464 105C559.924 102.333 561.849 99 564.928 99H579.651C582.73 99 584.654 102.333 583.115 105L575.754 117.75Z" fill="#332200"/>
</svg>
