<svg width="560" height="124" viewBox="0 0 560 124" fill="none" xmlns="http://www.w3.org/2000/svg">
<rect width="560" height="104" rx="52" fill="#332200"/>
<path d="M74.08 51.216V47.888C74.752 46.928 75.392 45.936 75.936 44.944H85.888V41.04H58.144V44.944H70.912C67.936 49.84 62.944 54.8 57.12 57.52C57.952 58.384 59.136 59.952 59.744 60.976C63.584 58.992 67.008 56.208 69.92 53.104V68.72H74.08V52.144C77.536 54.8 81.888 58.448 83.872 60.816L87.104 57.904C84.8 55.376 79.872 51.696 76.448 49.232L74.08 51.216ZM97.664 48.912C97.568 51.408 97.184 54.32 96.064 57.2C95.264 56.496 94.432 55.792 93.632 55.12C94.048 53.296 94.432 51.216 94.816 49.104L97.664 48.912ZM102.912 48.56V45.136L101.248 45.232V43.408H97.696V45.424L95.392 45.552C95.744 43.344 96 41.168 96.192 39.12L92.416 38.96C92.288 41.104 92.032 43.408 91.712 45.712C90.752 45.744 89.824 45.776 88.992 45.808L89.344 49.424L91.136 49.296C90.688 51.92 90.144 54.352 89.632 56.272C91.072 57.552 92.768 59.088 94.4 60.592C93.152 62.608 91.392 64.496 88.992 66.192C89.856 66.8 91.104 68.048 91.68 68.848C94.048 67.12 95.776 65.232 97.12 63.216C98.432 64.528 99.584 65.776 100.384 66.8L102.88 63.632C101.952 62.512 100.544 61.2 99.008 59.76C100.672 55.952 101.12 51.984 101.216 48.688L102.912 48.56ZM118.944 52.048H112.544V49.648C114.816 47.536 116.928 44.848 118.432 42.512L115.872 40.656L114.976 40.848H103.104V44.304H112.48C111.36 45.968 109.952 47.76 108.576 48.976V52.048H101.856V55.664H108.576V64.592C108.576 65.072 108.416 65.2 107.872 65.2C107.36 65.2 105.504 65.2 103.904 65.168C104.448 66.16 104.992 67.728 105.184 68.784C107.68 68.816 109.504 68.72 110.784 68.176C112.128 67.568 112.544 66.608 112.544 64.656V55.664H118.944V52.048ZM140.16 43.632C139.936 44.304 139.584 45.136 139.264 45.872H132.736C132.544 45.2 132.192 44.336 131.84 43.632H140.16ZM149.888 45.872H143.168C143.488 45.328 143.808 44.72 144.192 44.08L141.632 43.632H148.192V40.688H138.24C137.984 39.952 137.664 39.152 137.312 38.512L133.6 39.184C133.792 39.632 133.984 40.176 134.144 40.688H123.776V43.632H130.656L128.256 44.112C128.48 44.624 128.736 45.264 128.896 45.872H122.208V48.816H149.888V45.872ZM142.656 53.712H129.408V52.336H142.656V53.712ZM142.656 57.328H129.408V55.952H142.656V57.328ZM146.432 49.968H125.824V59.728H133.952L132.64 61.008C134.432 61.84 136.608 63.184 137.664 64.176L140 61.84C139.2 61.2 137.888 60.4 136.64 59.728H146.432V49.968ZM124.48 67.984C126.144 66.448 127.488 64.112 128.448 62.096L125.28 60.688C124.416 62.608 122.976 64.752 121.312 66.128L124.48 67.984ZM134.592 65.392C133.152 65.392 132.896 65.296 132.896 64.464V61.136H129.184V64.496C129.184 67.504 130.176 68.432 134.208 68.432H139.36C142.336 68.432 143.36 67.536 143.776 63.984C142.784 63.792 141.28 63.28 140.544 62.8C140.384 65.04 140.192 65.392 139.008 65.392H134.592ZM143.264 61.744C144.768 63.536 146.368 65.968 146.944 67.536L150.24 66.064C149.536 64.432 147.84 62.096 146.336 60.4L143.264 61.744ZM160.032 49.296H166.048V52.112H160.032V49.296ZM160.032 43.536H166.048V46.224H160.032V43.536ZM175.584 46.224H169.728V43.536H175.584V46.224ZM175.584 52.112H169.728V49.296H175.584V52.112ZM164.224 57.488C166.528 58.704 169.216 60.688 170.464 62.064L173.184 59.472C171.872 58.128 169.408 56.496 167.264 55.408H179.36V40.24H156.448V55.408H166.464L164.224 57.488ZM156.672 66.96C158.208 64.848 159.296 61.616 160.064 58.896L156.608 57.648C155.936 60.272 154.72 63.152 153.248 65.072L156.672 66.96ZM166.784 64.752C165.184 64.752 164.896 64.624 164.896 63.664V58.448H161.056V63.696C161.056 67.088 162.112 68.208 166.336 68.208H171.648C174.976 68.208 176.096 67.056 176.512 62.512C175.488 62.288 173.856 61.68 173.088 61.104C172.896 64.272 172.64 64.752 171.328 64.752H166.784ZM175.264 58.864C176.992 61.36 178.624 64.624 179.168 66.768L182.88 65.2C182.24 62.96 180.448 59.856 178.656 57.456L175.264 58.864ZM214.496 40.944H207.136C206.848 40.112 206.368 39.184 205.888 38.384L202.72 39.344C202.976 39.792 203.2 40.368 203.424 40.944H195.872V43.664H214.496V40.944ZM195.552 44.24H190.24L192.512 43.312C192.192 42.192 191.392 40.368 190.624 39.056L187.936 40.016C188.64 41.328 189.312 43.056 189.6 44.24H185.056V47.216H195.552V44.24ZM194.528 48.656H186.368V51.536H194.528V48.656ZM186.368 55.856H194.528V53.008H186.368V55.856ZM192 60.336V64.112H188.736V60.336H192ZM194.72 57.424H186.048V68.368H188.736V67.024H194.72V57.424ZM203.424 57.136H206.816V58.16H203.424V57.136ZM203.424 53.808H206.816V54.864H203.424V53.808ZM199.712 46.512H201.76V48.176H199.712V46.512ZM208.544 46.512H210.688V48.176H208.544V46.512ZM212.64 60.816C211.872 61.36 210.656 62.096 209.536 62.672C209.024 62.096 208.576 61.456 208.192 60.752H214.88V58.16H210.24V57.136H213.792V54.864H210.24V53.808H214.176V51.536H210.24V50.128H213.568V44.528H205.824V50.128H206.816V51.536H203.424V50.128H204.608V44.528H196.992V50.128H200.064V51.536H196.544V53.808H200.064V54.864H196.96V57.136H200.064V58.16H195.52V60.752H200.32C198.688 61.616 196.768 62.288 194.88 62.736C195.392 63.248 196.256 64.496 196.608 65.104C197.632 64.784 198.624 64.368 199.616 63.92C199.488 65.296 198.656 66.16 198.112 66.608C198.624 67.056 199.392 68.176 199.68 68.752C200.256 68.4 201.248 68.08 206.368 67.088C206.272 66.352 206.208 65.136 206.24 64.272L202.528 64.88V62.352C203.296 61.872 204.032 61.328 204.64 60.752H205.056C206.592 64.656 209.248 67.408 213.504 68.688C213.888 67.888 214.752 66.672 215.456 66C213.92 65.648 212.608 65.104 211.456 64.368C212.512 63.888 213.632 63.312 214.56 62.64L212.64 60.816ZM237.056 54.576C237.12 53.328 237.152 52.144 237.152 51.056V50.8H241.792V54.576H237.056ZM241.792 43.76V47.44H237.152V43.76H241.792ZM223.008 54.576C223.072 53.584 223.072 52.688 223.072 51.792V50.8H227.104V54.576H223.008ZM227.104 43.76V47.44H223.072V43.76H227.104ZM245.472 40.304H233.536V51.056C233.536 55.728 233.28 61.936 230.4 66.384C230.592 65.84 230.656 65.168 230.656 64.304V40.304H219.552V51.824C219.552 56.496 219.36 62.736 216.64 66.928C217.536 67.312 219.04 68.272 219.712 68.848C221.568 65.904 222.432 61.84 222.816 57.968H227.104V64.304C227.104 64.688 226.976 64.848 226.592 64.848C226.176 64.88 224.96 64.88 223.84 64.816C224.288 65.712 224.768 67.248 224.864 68.208C226.912 68.208 228.352 68.112 229.344 67.536C229.632 67.376 229.856 67.184 230.048 66.96C230.944 67.344 232.48 68.304 233.152 68.912C235.296 65.936 236.288 61.872 236.768 57.968H241.792V64.208C241.792 64.656 241.632 64.816 241.152 64.816C240.672 64.848 239.168 64.88 237.792 64.784C238.272 65.776 238.784 67.472 238.912 68.528C241.28 68.528 242.912 68.432 244 67.792C245.152 67.152 245.472 66.128 245.472 64.272V40.304ZM270.112 54.32C269.216 56.368 267.936 58.192 266.432 59.696C264.672 58.192 263.296 56.368 262.208 54.32H270.112ZM272.608 50.48L271.904 50.64H260.704C260.96 49.488 261.152 48.4 261.312 47.344H277.888V43.632H261.728C261.92 41.68 261.984 40.016 262.048 38.864H258.08C258.016 39.856 257.984 41.552 257.824 43.632H250.08V47.344H257.376C256.512 53.168 254.4 60.4 248.864 64.944C250.112 65.648 251.328 66.64 252.128 67.632C255.584 64.496 257.792 60.304 259.264 56.08C260.416 58.416 261.856 60.4 263.52 62.128C261.312 63.664 258.72 64.816 255.904 65.52C256.64 66.288 257.568 67.792 258.048 68.752C261.184 67.792 264.064 66.416 266.528 64.624C269.248 66.48 272.448 67.824 276.288 68.656C276.8 67.632 277.92 66 278.752 65.2C275.168 64.56 272.128 63.472 269.568 62C272.096 59.312 274.016 55.92 275.2 51.6L272.608 50.48ZM288.864 57.232H303.424V58.192H288.864V57.232ZM288.864 54.352H303.424V55.312H288.864V54.352ZM308.736 61.2H297.792V60.176H306.944V52.368H297.696C297.984 51.92 298.272 51.408 298.624 50.864L296.288 50.416L296.32 48.72C294.464 48.848 292.608 48.944 290.784 49.072V48.112H295.392V46.192H290.784V45.264H296.032V43.376H290.784V42.384H295.104V40.56H290.784V38.928H287.264V40.56H283.136V42.384H287.264V43.376H281.92V45.264H287.264V46.192H282.656V48.112H287.264V49.264C285.184 49.36 283.296 49.456 281.76 49.52L281.952 51.792C285.408 51.6 290.144 51.248 294.816 50.896C294.688 51.376 294.496 51.888 294.304 52.368H285.472V60.176H294.048V61.2H283.776V68.24H287.456V63.824H294.048V68.784H297.792V63.824H304.992V65.104C304.992 65.488 304.864 65.584 304.416 65.616C304 65.616 302.464 65.616 301.088 65.552C301.536 66.32 302.08 67.408 302.304 68.272C304.416 68.272 306.048 68.272 307.2 67.856C308.384 67.44 308.736 66.704 308.736 65.136V61.2ZM307.456 41.456V38.928H303.968V41.456H296.256V44.208H299.552L297.248 45.392C298.208 46.544 299.296 48.112 299.744 49.136L302.368 47.728C301.856 46.736 300.768 45.296 299.744 44.208H303.968V48.624C303.968 48.976 303.872 49.104 303.456 49.104C303.104 49.104 301.792 49.104 300.672 49.072C301.056 49.776 301.632 50.928 301.856 51.728C303.776 51.728 305.088 51.696 306.144 51.28C307.168 50.832 307.456 50.192 307.456 48.72V44.208H310.464V41.456H307.456ZM315.456 54.576C316.288 52.176 316.768 48.368 316.832 45.584L314.112 45.2C313.952 47.888 313.472 51.44 312.672 53.552L315.456 54.576ZM342.944 48.72V45.072H333.728L336.864 43.824C336.32 42.416 335.232 40.112 334.368 38.384L330.592 39.728C331.328 41.392 332.256 43.568 332.736 45.072H324.384V47.76C323.904 46.608 323.36 45.36 322.88 44.304L321.056 45.072V38.896H317.344V68.784H321.056V46.48C321.792 48.24 322.528 50.256 322.848 51.568L325.376 50.352C325.216 49.904 325.024 49.328 324.768 48.72H326.912V61.68C326.912 66.128 328.288 67.664 332.64 67.664H338.592C340.064 67.664 341.664 67.6 342.4 67.344C342.208 66.416 342.08 64.72 341.984 63.728C341.184 63.92 339.776 64.016 338.688 64.016H332.48C331.104 64.016 330.752 63.472 330.752 61.84V48.72H342.944ZM353.248 43.44V47.6H350.144V43.44H353.248ZM350.144 55.568V50.928H353.248V55.568H350.144ZM362.208 53.584H369.376V57.008H362.208V53.584ZM350.144 58.96H356.736V48.176C357.472 48.88 358.24 50.032 358.56 50.832L358.624 50.8V60.08H373.152V50.544H359.456C363.744 49.04 365.28 46.672 365.952 43.344H370.368C370.208 45.168 370.016 46.032 369.728 46.32C369.472 46.576 369.216 46.64 368.768 46.64C368.256 46.64 367.2 46.608 365.984 46.512C366.496 47.344 366.848 48.592 366.912 49.552C368.352 49.616 369.792 49.584 370.592 49.488C371.456 49.392 372.192 49.136 372.8 48.464C373.536 47.664 373.824 45.648 374.08 41.296C374.112 40.848 374.144 40.016 374.144 40.016H357.664V43.344H362.208C361.632 45.488 360.352 47.024 356.736 48.016V40.112H346.56V60.464H350.144V58.96ZM348.8 68.944C350.144 67.056 351.68 64.208 352.736 61.776L349.056 60.752C348.064 63.12 346.432 65.776 345.12 67.344L348.8 68.944ZM354.368 61.968C354.72 64.144 354.976 66.992 354.976 68.656L358.72 68.08C358.688 66.384 358.304 63.664 357.888 61.552L354.368 61.968ZM361.12 61.904C361.856 64.048 362.592 66.864 362.784 68.528L366.592 67.76C366.304 66 365.504 63.312 364.704 61.264L361.12 61.904ZM367.712 61.872C369.024 64.048 370.56 66.992 371.2 68.784L374.88 67.216C374.144 65.392 372.48 62.576 371.168 60.528L367.712 61.872ZM402.56 50.192H397.056V48.272H402.56V50.192ZM402.56 54.8H397.056V52.816H402.56V54.8ZM402.56 59.344H397.056V57.456H402.56V59.344ZM393.952 45.424V62.192H405.76V45.424H401.216C401.408 44.784 401.6 44.08 401.792 43.376H406.56V40.176H393.28V43.376H398.016C397.952 44.048 397.888 44.752 397.792 45.424H393.952ZM385.216 63.408H387.296V64.56H385.216V63.408ZM383.552 52.08C383.104 53.648 382.432 55.216 381.568 56.528C381.664 54.96 381.696 53.456 381.728 52.08H383.552ZM389.088 47.504V49.264H381.728V47.504H389.088ZM387.296 58.032H385.216V56.912H387.296V58.032ZM387.296 61.264H385.216V60.112H387.296V61.264ZM392.992 64.56H389.76V63.408H392.448V61.264H389.76V60.112H392.416V58.032H389.76V56.912H392.736V54.544H390.08C389.824 53.776 389.408 52.848 388.992 52.112L386.496 52.752C386.752 53.296 387.008 53.936 387.232 54.544H385.568C385.792 53.904 386.016 53.296 386.208 52.656L384.096 52.08H392.48V44.688H381.728V43.728C385.472 43.376 389.568 42.768 392.64 41.872L389.888 39.344C387.2 40.176 382.656 40.88 378.624 41.2V50.896C378.624 55.568 378.496 62.288 376.704 66.928C377.504 67.216 378.912 67.984 379.52 68.464C380.48 66 381.024 62.96 381.312 59.824C381.568 60.208 381.76 60.56 381.888 60.784C382.08 60.56 382.272 60.336 382.464 60.112V68.496H385.216V67.024H392.384C393.056 67.6 393.824 68.336 394.272 68.816C396.128 67.856 398.304 66 399.616 64.4L396.64 62.608C395.872 63.632 394.432 65.008 392.992 65.936V64.56ZM400.48 64.336C401.824 65.616 403.456 67.408 404.192 68.592L407.072 66.672C406.24 65.52 404.544 63.824 403.2 62.672L400.48 64.336ZM438.464 42.448H428.896L430.624 41.712C430.176 40.848 429.216 39.44 428.48 38.416L424.992 39.76C425.472 40.592 426.112 41.584 426.56 42.448H418.112V45.264H438.464V42.448ZM420.416 53.424H435.776V50.768H420.416V53.424ZM435.776 46.64H420.416V49.296H435.776V46.64ZM423.616 57.616H432.32V60.304H423.616V57.616ZM420.064 63.024H436.064V54.928H420.064V63.024ZM417.312 43.696C416.352 42.416 414.592 40.432 413.056 38.896L410.24 40.656C411.712 42.224 413.536 44.432 414.432 45.776L417.312 43.696ZM416.64 53.968L416.032 54.064H413.696C415.392 51.888 417.44 48.976 418.624 47.216L416.32 46.16L415.936 46.32H409.44V49.36H413.568C412.352 51.056 411.072 52.816 410.464 53.392C409.856 54.032 409.312 54.288 408.832 54.416C409.12 55.088 409.824 56.72 410.016 57.488C410.304 57.232 411.232 57.008 412 57.008H414.688C413.632 61.36 411.584 64.496 408.64 66.256C409.344 66.736 410.592 68.08 411.072 68.816C412.608 67.76 414.016 66.352 415.168 64.496C417.6 67.632 421.28 68.24 427.04 68.24C430.784 68.24 434.816 68.176 438.112 67.952C438.304 66.928 438.816 65.2 439.36 64.432C435.744 64.784 430.528 64.976 427.104 64.976C422.048 64.944 418.56 64.56 416.608 61.584C417.44 59.6 418.08 57.296 418.464 54.64L416.64 53.968ZM469.024 54.448C468.64 54.448 468.608 54.256 468.608 53.744V50.512H466.464V53.712C466.464 55.312 466.752 56.048 468.416 56.048H469.536C470.016 56.048 470.56 56.016 470.848 55.92C470.784 55.408 470.752 54.8 470.72 54.32C470.4 54.416 469.792 54.448 469.472 54.448H469.024ZM465.632 56.304V49.552H470.176V46.704H465.632V45.232H462.784V46.704H458.944V49.552H462.784V56.304H465.632ZM470.4 44.56V41.264H459.488C459.264 40.432 458.944 39.44 458.624 38.64L454.784 39.344C454.944 39.888 455.136 40.592 455.296 41.264H443.296V50.064C443.296 54.832 443.136 61.68 441.056 66.448C441.824 66.8 443.456 68.016 444.096 68.688C446.464 63.504 446.912 55.28 446.912 50.064V44.56H470.4ZM454.24 56.24V49.552H458.112V46.704H454.24V45.232H451.392V46.704H447.904V49.552H451.392V56.24H454.24ZM450.528 50.544H448.448V51.792C448.448 52.88 448.256 54.48 447.04 55.376C447.584 55.664 448.48 56.4 448.864 56.848C450.304 55.472 450.528 53.52 450.528 51.888V50.544ZM462.4 61.968C462.944 62.64 463.584 63.376 464.192 64.112L455.264 64.752C458.688 63.088 462.24 61.04 465.536 58.64L462.72 56.752C461.408 57.84 459.936 58.832 458.464 59.76L453.696 59.984C455.424 59.088 457.216 57.968 458.752 56.816L456.8 55.568H456.832H457.408C457.824 55.568 458.272 55.536 458.528 55.44L458.496 55.12C459.04 55.44 459.808 56.048 460.16 56.496C461.632 55.184 461.856 53.328 461.856 51.792V50.48H459.776V51.696C459.776 52.688 459.584 54.032 458.496 54.928C458.464 54.576 458.464 54.256 458.432 53.936C458.144 54.032 457.664 54.032 457.408 54.032C457.088 54.032 457.056 53.872 457.056 53.392V50.672H455.04V53.36C455.04 54.48 455.2 55.12 455.904 55.408C453.952 57.136 451.36 58.608 450.528 58.992C449.76 59.44 449.088 59.728 448.448 59.792C448.768 60.592 449.184 62.032 449.312 62.608C449.824 62.416 450.592 62.256 454.72 62C453.152 62.896 451.808 63.536 451.104 63.824C449.472 64.624 448.384 65.072 447.296 65.232C447.616 66.096 448.064 67.664 448.192 68.272C449.344 67.888 451.136 67.856 466.176 66.768C466.656 67.376 467.072 67.984 467.392 68.464L470.304 66.896C469.12 65.264 466.784 62.544 465.12 60.688L462.4 61.968ZM492.096 43.536L491.36 43.728H484.832C485.376 42.448 485.856 41.2 486.272 39.856L482.08 38.928C480.32 44.976 477.088 50.48 472.8 53.712C473.792 54.384 475.52 55.824 476.224 56.56C478.784 54.288 481.12 51.184 483.04 47.568H489.76C486.848 56.336 480.768 62.352 473.152 65.392C474.112 66.096 475.52 67.856 476.128 68.816C481.28 66.512 485.952 62.704 489.472 57.392C492.032 62.384 495.584 66.352 500.416 68.688C501.024 67.664 502.272 66.064 503.2 65.264C497.952 63.088 493.952 58.576 491.808 53.328C493.056 50.768 494.112 47.92 494.88 44.816L492.096 43.536Z" fill="white"/>
<path d="M92.7535 117.75C91.2139 120.417 87.3649 120.417 85.8253 117.75L78.4641 105C76.9245 102.333 78.849 99 81.9282 99H96.6506C99.7298 99 101.654 102.333 100.115 105L92.7535 117.75Z" fill="#332200"/>
</svg>
