<svg width="432" height="124" viewBox="0 0 432 124" fill="none" xmlns="http://www.w3.org/2000/svg">
<rect width="432" height="104" rx="52" fill="#332200"/>
<path d="M74.08 51.216V47.888C74.752 46.928 75.392 45.936 75.936 44.944H85.888V41.04H58.144V44.944H70.912C67.936 49.84 62.944 54.8 57.12 57.52C57.952 58.384 59.136 59.952 59.744 60.976C63.584 58.992 67.008 56.208 69.92 53.104V68.72H74.08V52.144C77.536 54.8 81.888 58.448 83.872 60.816L87.104 57.904C84.8 55.376 79.872 51.696 76.448 49.232L74.08 51.216ZM102.432 52.912C103.328 53.584 104.736 54.832 105.28 55.504C105.696 54.96 106.08 54.384 106.432 53.776C107.072 56.176 107.872 58.384 108.864 60.368C107.264 62.48 105.184 64.176 102.432 65.456V52.912ZM94.528 61.264V58.928H98.88V60.72L94.528 61.264ZM98.88 48.848V50.8H94.528V48.848H98.88ZM94.528 53.872H98.88V55.824H94.528V53.872ZM113.024 48.272C112.608 51.312 112 53.968 111.072 56.272C110.08 53.968 109.344 51.344 108.832 48.56L108.928 48.272H113.024ZM118.944 48.272V44.72H109.984C110.432 43.024 110.816 41.264 111.104 39.472L107.168 38.896C106.432 44.208 104.96 49.296 102.432 52.464V48.848H104.352V45.552H98.496V43.216H103.584V39.92H90.08V43.216H94.944V45.552H89.056V48.848H91.04V61.712L88.864 61.968L89.408 65.616C92.128 65.232 95.52 64.72 98.88 64.208V68.784H102.432V65.488C103.104 66.32 104.224 68.016 104.576 68.912C107.2 67.568 109.312 65.904 111.008 63.888C112.512 65.904 114.368 67.568 116.64 68.816C117.248 67.76 118.4 66.224 119.264 65.456C116.832 64.304 114.912 62.576 113.376 60.432C115.136 57.104 116.256 53.104 116.928 48.272H118.944ZM132.576 44.112H127.008L129.536 43.248C129.184 42.128 128.448 40.336 127.808 38.992L124.608 39.92C125.152 41.232 125.824 42.896 126.112 44.112H121.248V47.12H132.576V44.112ZM131.68 52.848H122.08V55.728H131.68V52.848ZM128.416 60.368V64.048H125.312V60.368H128.416ZM131.712 57.36H122.08V68.304H125.312V67.024H131.712V57.36ZM122.112 51.376H131.712V48.496H122.112V51.376ZM137.568 61.488C137.6 60.976 137.632 60.464 137.664 59.952H145.856V61.488H137.568ZM145.856 55.984V57.488H137.664V55.984H145.856ZM149.376 53.2H134.24V58.896C134.24 61.392 134.048 64.4 132.16 66.64C132.896 67.056 134.304 68.368 134.848 69.04C136.064 67.632 136.8 65.808 137.184 63.952H145.856V65.296C145.856 65.648 145.728 65.776 145.312 65.776C144.928 65.776 143.584 65.776 142.4 65.744C142.816 66.576 143.264 67.856 143.392 68.752C145.408 68.784 146.912 68.72 147.968 68.24C149.088 67.76 149.376 66.928 149.376 65.328V53.2ZM143.52 49.168V47.76H149.856V45.232H143.52V43.952H150.496V41.232H143.52V38.896H139.84V41.232H133.216V43.952H139.84V45.232H134.016V47.76H139.84V49.168H132.736V51.888H150.912V49.168H143.52ZM162.208 40.144H154.144V68.752H157.696V43.792H160.768C160.096 45.904 159.264 48.56 158.464 50.512C160.768 52.848 161.344 54.96 161.376 56.56C161.376 57.488 161.152 58.192 160.672 58.48C160.352 58.672 159.968 58.736 159.552 58.736C159.072 58.768 158.464 58.768 157.696 58.704C158.272 59.696 158.624 61.168 158.656 62.16C159.52 62.192 160.48 62.192 161.184 62.128C161.984 62 162.72 61.744 163.232 61.36C164.416 60.56 164.896 59.088 164.896 56.976C164.896 55.024 164.416 52.72 162.048 50.064C163.136 47.6 164.416 44.368 165.44 41.584L162.784 39.984L162.208 40.144ZM177.824 55.376H169.792V51.024H177.824V55.376ZM169.792 63.12V58.768H177.824V63.12H169.792ZM182.496 43.664V40.112H165.408V43.664H171.648C171.52 45.008 171.36 46.416 171.136 47.696H166.24V68.72H169.792V66.576H177.824V68.592H181.6V47.696H174.688C175.04 46.48 175.392 45.104 175.712 43.664H182.496ZM202.048 64.144V57.712H211.616V54.032H202.048V48.4H212.832V44.688H202.048V38.928H198.048V44.688H193.12C193.664 43.216 194.176 41.712 194.624 40.176L190.688 39.312C189.6 43.664 187.52 48.08 185.024 50.768C185.984 51.28 187.68 52.432 188.448 53.04C189.504 51.792 190.496 50.16 191.424 48.4H198.048V54.032H189.376V57.712H198.048V64.144H185.696V67.888H214.464V64.144H202.048ZM229.504 38.928C229.376 44.336 229.984 58.672 216.992 65.616C218.272 66.48 219.488 67.696 220.16 68.72C226.816 64.816 230.176 59.024 231.936 53.392C233.792 58.896 237.344 65.136 244.448 68.528C244.96 67.44 246.048 66.16 247.232 65.232C236.064 60.304 234.112 48.24 233.664 43.92C233.792 42 233.856 40.272 233.888 38.928H229.504ZM260.224 58.672H265.984V55.376H260.224V52.528H256.608V55.376H250.784V58.672H256.608V63.024C254.016 63.44 251.616 63.824 249.696 64.08L250.528 67.6C254.88 66.832 260.928 65.744 266.528 64.656L266.336 61.392C264.32 61.712 262.24 62.064 260.224 62.416V58.672ZM255.424 48.56C256.416 47.184 257.408 45.584 258.208 44.048H262.048L259.36 45.616C259.968 46.416 260.608 47.312 261.216 48.24L255.424 48.56ZM250.016 44.048H254.08C253.312 45.712 252.448 47.152 252.096 47.632C251.616 48.336 251.104 48.848 250.624 48.976C251.008 49.968 251.616 51.664 251.84 52.432C252.768 52.048 254.144 51.888 262.976 51.152C263.264 51.728 263.52 52.272 263.712 52.752L266.592 50.864C265.792 48.976 263.808 46.128 262.144 44.048H266.656V40.784H250.016V44.048ZM271.424 41.872H267.904V61.2H271.424V41.872ZM274.016 39.28V63.984C274.016 64.528 273.824 64.72 273.28 64.72C272.736 64.72 271.008 64.72 269.312 64.656C269.824 65.68 270.432 67.312 270.592 68.304C273.088 68.304 274.912 68.176 276.128 67.6C277.344 66.992 277.728 66.032 277.728 64.016V39.28H274.016ZM287.296 45.52H310.592V42H299.808C299.392 40.88 298.816 39.6 298.24 38.512L294.4 39.504C294.72 40.272 295.104 41.136 295.392 42H283.424V51.792C283.424 56.24 283.232 62.544 280.896 66.832C281.824 67.152 283.552 68.304 284.256 69.008C286.88 64.272 287.296 56.752 287.296 51.76V45.52ZM292.64 45.808C291.776 49.04 289.76 52.976 287.296 55.312C287.808 56.208 288.576 57.968 288.864 58.896C289.408 58.384 289.984 57.84 290.528 57.2V68.72H294.112V51.984C295.008 50.288 295.776 48.56 296.384 46.832L292.64 45.808ZM295.872 56.688C296.992 58.608 298.304 61.168 298.912 62.832L302.112 61.328C301.44 59.728 300.128 57.328 298.944 55.44L295.872 56.688ZM310.624 50.544H307.616V46.32H303.808V50.544H295.456V54.032H303.808V64.496C303.808 64.944 303.616 65.072 303.104 65.104C302.592 65.104 300.8 65.104 299.2 65.04C299.712 66.096 300.224 67.696 300.384 68.784C302.88 68.784 304.704 68.72 305.952 68.112C307.232 67.504 307.616 66.512 307.616 64.528V54.032H310.624V50.544ZM321.248 43.44V47.6H318.144V43.44H321.248ZM318.144 55.568V50.928H321.248V55.568H318.144ZM330.208 53.584H337.376V57.008H330.208V53.584ZM318.144 58.96H324.736V48.176C325.472 48.88 326.24 50.032 326.56 50.832L326.624 50.8V60.08H341.152V50.544H327.456C331.744 49.04 333.28 46.672 333.952 43.344H338.368C338.208 45.168 338.016 46.032 337.728 46.32C337.472 46.576 337.216 46.64 336.768 46.64C336.256 46.64 335.2 46.608 333.984 46.512C334.496 47.344 334.848 48.592 334.912 49.552C336.352 49.616 337.792 49.584 338.592 49.488C339.456 49.392 340.192 49.136 340.8 48.464C341.536 47.664 341.824 45.648 342.08 41.296C342.112 40.848 342.144 40.016 342.144 40.016H325.664V43.344H330.208C329.632 45.488 328.352 47.024 324.736 48.016V40.112H314.56V60.464H318.144V58.96ZM316.8 68.944C318.144 67.056 319.68 64.208 320.736 61.776L317.056 60.752C316.064 63.12 314.432 65.776 313.12 67.344L316.8 68.944ZM322.368 61.968C322.72 64.144 322.976 66.992 322.976 68.656L326.72 68.08C326.688 66.384 326.304 63.664 325.888 61.552L322.368 61.968ZM329.12 61.904C329.856 64.048 330.592 66.864 330.784 68.528L334.592 67.76C334.304 66 333.504 63.312 332.704 61.264L329.12 61.904ZM335.712 61.872C337.024 64.048 338.56 66.992 339.2 68.784L342.88 67.216C342.144 65.392 340.48 62.576 339.168 60.528L335.712 61.872ZM370.56 50.192H365.056V48.272H370.56V50.192ZM370.56 54.8H365.056V52.816H370.56V54.8ZM370.56 59.344H365.056V57.456H370.56V59.344ZM361.952 45.424V62.192H373.76V45.424H369.216C369.408 44.784 369.6 44.08 369.792 43.376H374.56V40.176H361.28V43.376H366.016C365.952 44.048 365.888 44.752 365.792 45.424H361.952ZM353.216 63.408H355.296V64.56H353.216V63.408ZM351.552 52.08C351.104 53.648 350.432 55.216 349.568 56.528C349.664 54.96 349.696 53.456 349.728 52.08H351.552ZM357.088 47.504V49.264H349.728V47.504H357.088ZM355.296 58.032H353.216V56.912H355.296V58.032ZM355.296 61.264H353.216V60.112H355.296V61.264ZM360.992 64.56H357.76V63.408H360.448V61.264H357.76V60.112H360.416V58.032H357.76V56.912H360.736V54.544H358.08C357.824 53.776 357.408 52.848 356.992 52.112L354.496 52.752C354.752 53.296 355.008 53.936 355.232 54.544H353.568C353.792 53.904 354.016 53.296 354.208 52.656L352.096 52.08H360.48V44.688H349.728V43.728C353.472 43.376 357.568 42.768 360.64 41.872L357.888 39.344C355.2 40.176 350.656 40.88 346.624 41.2V50.896C346.624 55.568 346.496 62.288 344.704 66.928C345.504 67.216 346.912 67.984 347.52 68.464C348.48 66 349.024 62.96 349.312 59.824C349.568 60.208 349.76 60.56 349.888 60.784C350.08 60.56 350.272 60.336 350.464 60.112V68.496H353.216V67.024H360.384C361.056 67.6 361.824 68.336 362.272 68.816C364.128 67.856 366.304 66 367.616 64.4L364.64 62.608C363.872 63.632 362.432 65.008 360.992 65.936V64.56ZM368.48 64.336C369.824 65.616 371.456 67.408 372.192 68.592L375.072 66.672C374.24 65.52 372.544 63.824 371.2 62.672L368.48 64.336Z" fill="white"/>
<path d="M349.754 117.75C348.214 120.417 344.365 120.417 342.825 117.75L335.464 105C333.924 102.333 335.849 99 338.928 99H353.651C356.73 99 358.654 102.333 357.115 105L349.754 117.75Z" fill="#332200"/>
</svg>
