<svg width="1216" height="24" viewBox="0 0 1216 24" fill="none" xmlns="http://www.w3.org/2000/svg">
<line x1="2" y1="10" x2="1182" y2="10" stroke="#332200" stroke-width="4" stroke-linecap="round"/>
<path d="M1198 9C1199.66 9 1201 7.65685 1201 6C1201 4.34315 1199.66 3 1198 3C1196.34 3 1195 4.34315 1195 6C1195 7.65685 1196.34 9 1198 9Z" stroke="black" stroke-width="2" stroke-linecap="round" stroke-linejoin="round"/>
<path d="M1198 21C1199.66 21 1201 19.6569 1201 18C1201 16.3431 1199.66 15 1198 15C1196.34 15 1195 16.3431 1195 18C1195 19.6569 1196.34 21 1198 21Z" stroke="black" stroke-width="2" stroke-linecap="round" stroke-linejoin="round"/>
<path d="M1212 4L1200.12 15.88" stroke="black" stroke-width="2" stroke-linecap="round" stroke-linejoin="round"/>
<path d="M1206.47 14.48L1212 20" stroke="black" stroke-width="2" stroke-linecap="round" stroke-linejoin="round"/>
<path d="M1200.12 8.12L1204 12" stroke="black" stroke-width="2" stroke-linecap="round" stroke-linejoin="round"/>
</svg>
