<svg width="800" height="360" viewBox="0 0 800 360" fill="none" xmlns="http://www.w3.org/2000/svg">
<g clip-path="url(#clip0_518_9154)">
<path d="M102.301 110.296H108.547C110.005 110.296 111.404 110.878 112.435 111.915C113.467 112.951 114.046 114.357 114.046 115.822V358.22H96.8164V115.822C96.8164 114.359 97.3938 112.956 98.422 111.92C99.4502 110.884 100.845 110.3 102.301 110.296Z" fill="#242900"/>
<path d="M415.618 110.296H421.863C423.322 110.296 424.72 110.878 425.752 111.915C426.783 112.951 427.362 114.357 427.362 115.822V358.22H410.133V115.822C410.133 114.359 410.71 112.956 411.738 111.92C412.767 110.884 414.162 110.3 415.618 110.296Z" fill="#242900"/>
<path d="M438.184 136.657H66.6172V178.908H438.184V136.657Z" fill="#FE7624"/>
<path d="M124.978 136.657H94.3377L66.6172 177.634V178.908H96.3957L124.978 136.657Z" fill="white"/>
<path d="M159.644 178.908L188.226 136.657H157.581L129.004 178.908H159.644Z" fill="white"/>
<path d="M222.891 178.908L251.468 136.657H220.828L192.246 178.908H222.891Z" fill="white"/>
<path d="M286.132 178.908L314.714 136.657H284.074L255.492 178.908H286.132Z" fill="white"/>
<path d="M349.378 178.908L377.96 136.657H347.316L318.738 178.908H349.378Z" fill="white"/>
<path d="M412.625 178.908L438.183 141.125V136.657H410.563L381.98 178.908H412.625Z" fill="white"/>
<path d="M438.184 211.502H66.6172V253.754H438.184V211.502Z" fill="#FE7624"/>
<path d="M124.978 211.502H94.3377L66.6172 252.479V253.754H96.3957L124.978 211.502Z" fill="white"/>
<path d="M159.644 253.754L188.226 211.502H157.581L129.004 253.754H159.644Z" fill="white"/>
<path d="M222.891 253.754L251.468 211.502H220.828L192.246 253.754H222.891Z" fill="white"/>
<path d="M286.132 253.754L314.714 211.502H284.074L255.492 253.754H286.132Z" fill="white"/>
<path d="M349.378 253.754L377.96 211.502H347.316L318.738 253.754H349.378Z" fill="white"/>
<path d="M412.625 253.754L438.183 215.97V211.502H410.563L381.98 253.754H412.625Z" fill="white"/>
<path d="M696.586 3.05396H660.419H203.355C200.16 3.05648 196.997 3.69131 194.047 4.9222C191.096 6.1531 188.416 7.95594 186.159 10.2278C183.901 12.4997 182.112 15.1961 180.891 18.163C179.671 21.13 179.044 24.3095 179.047 27.5198V291.604C179.047 294.814 179.676 297.993 180.899 300.959C182.121 303.924 183.913 306.619 186.172 308.889C188.432 311.159 191.113 312.959 194.065 314.187C197.016 315.415 200.18 316.047 203.374 316.046H696.586C702.582 316.046 708.332 313.653 712.572 309.393C716.812 305.133 719.194 299.356 719.195 293.331V25.774C719.195 19.7483 716.813 13.9693 712.573 9.7085C708.333 5.44767 702.583 3.05396 696.586 3.05396Z" fill="#B37600"/>
<path d="M209.056 25.8654C212.9 25.8654 216.015 22.7345 216.015 18.8724C216.015 15.0103 212.9 11.8794 209.056 11.8794C205.213 11.8794 202.098 15.0103 202.098 18.8724C202.098 22.7345 205.213 25.8654 209.056 25.8654Z" fill="#FFB423"/>
<path d="M236.111 25.8654C239.954 25.8654 243.07 22.7345 243.07 18.8724C243.07 15.0103 239.954 11.8794 236.111 11.8794C232.268 11.8794 229.152 15.0103 229.152 18.8724C229.152 22.7345 232.268 25.8654 236.111 25.8654Z" fill="#FFCB66"/>
<path d="M263.166 25.8654C267.009 25.8654 270.125 22.7345 270.125 18.8724C270.125 15.0103 267.009 11.8794 263.166 11.8794C259.323 11.8794 256.207 15.0103 256.207 18.8724C256.207 22.7345 259.323 25.8654 263.166 25.8654Z" fill="#FFE5B3"/>
<path d="M533.718 34.7773L533.531 316.647" stroke="white" stroke-width="6" stroke-linejoin="round"/>
<path d="M697.586 34.9697H179.137" stroke="white" stroke-width="6" stroke-linecap="round" stroke-linejoin="round"/>
<path d="M592.752 101.528H591.641C590.465 101.528 589.512 102.487 589.512 103.669V106.78C589.512 107.962 590.465 108.921 591.641 108.921H592.752C593.928 108.921 594.882 107.962 594.882 106.78V103.669C594.882 102.487 593.928 101.528 592.752 101.528Z" fill="white"/>
<path d="M585.057 101.528H552.928C551.607 101.528 550.535 102.605 550.535 103.933V106.516C550.535 107.844 551.607 108.921 552.928 108.921H585.057C586.378 108.921 587.45 107.844 587.45 106.516V103.933C587.45 102.605 586.378 101.528 585.057 101.528Z" fill="white"/>
<path d="M588.397 135.854H552.928C551.607 135.854 550.535 136.93 550.535 138.258V140.841C550.535 142.169 551.607 143.246 552.928 143.246H588.397C589.719 143.246 590.79 142.169 590.79 140.841V138.258C590.79 136.93 589.719 135.854 588.397 135.854Z" fill="white"/>
<path d="M620.751 124.426H563.104C561.782 124.426 560.711 125.503 560.711 126.831V129.414C560.711 130.742 561.782 131.818 563.104 131.818H620.751C622.073 131.818 623.144 130.742 623.144 129.414V126.831C623.144 125.503 622.073 124.426 620.751 124.426Z" fill="white"/>
<path d="M610.681 84.4161H553.034C551.712 84.4161 550.641 85.4928 550.641 86.8209V89.4036C550.641 90.7317 551.712 91.8083 553.034 91.8083H610.681C612.003 91.8083 613.074 90.7317 613.074 89.4036V86.8209C613.074 85.4928 612.003 84.4161 610.681 84.4161Z" fill="#FFE5B3"/>
<path d="M610.681 172.444H553.034C551.712 172.444 550.641 173.521 550.641 174.849V177.432C550.641 178.76 551.712 179.836 553.034 179.836H610.681C612.003 179.836 613.074 178.76 613.074 177.432V174.849C613.074 173.521 612.003 172.444 610.681 172.444Z" fill="#FFE5B3"/>
<path d="M657.966 124.426H629.03C627.708 124.426 626.637 125.503 626.637 126.831V129.414C626.637 130.742 627.708 131.818 629.03 131.818H657.966C659.288 131.818 660.359 130.742 660.359 129.414V126.831C660.359 125.503 659.288 124.426 657.966 124.426Z" fill="#FFE5B3"/>
<path d="M669.65 112.999H668.54C667.364 112.999 666.41 113.957 666.41 115.139V118.251C666.41 119.433 667.364 120.391 668.54 120.391H669.65C670.827 120.391 671.78 119.433 671.78 118.251V115.139C671.78 113.957 670.827 112.999 669.65 112.999Z" fill="white"/>
<path d="M612.705 112.975H552.928C551.607 112.975 550.535 114.051 550.535 115.38V117.962C550.535 119.29 551.607 120.367 552.928 120.367H612.705C614.027 120.367 615.098 119.29 615.098 117.962V115.38C615.098 114.051 614.027 112.975 612.705 112.975Z" fill="white"/>
<path d="M631.768 101.528H599.639C598.317 101.528 597.246 102.605 597.246 103.933V106.516C597.246 107.844 598.317 108.921 599.639 108.921H631.768C633.089 108.921 634.161 107.844 634.161 106.516V103.933C634.161 102.605 633.089 101.528 631.768 101.528Z" fill="white"/>
<path d="M661.126 112.956H620.373C619.052 112.956 617.98 114.032 617.98 115.36V117.986C617.98 119.315 619.052 120.391 620.373 120.391H661.126C662.448 120.391 663.519 119.315 663.519 117.986V115.36C663.519 114.032 662.448 112.956 661.126 112.956Z" fill="white"/>
<path d="M585.057 201.489H552.928C551.607 201.489 550.535 202.565 550.535 203.894V206.476C550.535 207.804 551.607 208.881 552.928 208.881H585.057C586.378 208.881 587.45 207.804 587.45 206.476V203.894C587.45 202.565 586.378 201.489 585.057 201.489Z" fill="white"/>
<path d="M588.397 235.814H552.928C551.607 235.814 550.535 236.891 550.535 238.219V240.802C550.535 242.13 551.607 243.206 552.928 243.206H588.397C589.719 243.206 590.79 242.13 590.79 240.802V238.219C590.79 236.891 589.719 235.814 588.397 235.814Z" fill="white"/>
<path d="M620.751 224.387H563.104C561.782 224.387 560.711 225.463 560.711 226.791V229.374C560.711 230.702 561.782 231.779 563.104 231.779H620.751C622.073 231.779 623.144 230.702 623.144 229.374V226.791C623.144 225.463 622.073 224.387 620.751 224.387Z" fill="white"/>
<path d="M657.966 224.387H629.03C627.708 224.387 626.637 225.463 626.637 226.791V229.374C626.637 230.702 627.708 231.779 629.03 231.779H657.966C659.288 231.779 660.359 230.702 660.359 229.374V226.791C660.359 225.463 659.288 224.387 657.966 224.387Z" fill="#FFE5B3"/>
<path d="M669.65 212.959H668.54C667.364 212.959 666.41 213.918 666.41 215.1V218.211C666.41 219.393 667.364 220.352 668.54 220.352H669.65C670.827 220.352 671.78 219.393 671.78 218.211V215.1C671.78 213.918 670.827 212.959 669.65 212.959Z" fill="white"/>
<path d="M679.033 201.489H677.923C676.746 201.489 675.793 202.447 675.793 203.629V206.741C675.793 207.923 676.746 208.881 677.923 208.881H679.033C680.209 208.881 681.163 207.923 681.163 206.741V203.629C681.163 202.447 680.209 201.489 679.033 201.489Z" fill="white"/>
<path d="M612.705 212.935H552.928C551.607 212.935 550.535 214.012 550.535 215.34V217.923C550.535 219.251 551.607 220.327 552.928 220.327H612.705C614.027 220.327 615.098 219.251 615.098 217.923V215.34C615.098 214.012 614.027 212.935 612.705 212.935Z" fill="white"/>
<path d="M631.767 201.489H591.905C590.583 201.489 589.512 202.565 589.512 203.894V206.476C589.512 207.804 590.583 208.881 591.905 208.881H631.767C633.089 208.881 634.16 207.804 634.16 206.476V203.894C634.16 202.565 633.089 201.489 631.767 201.489Z" fill="white"/>
<path d="M671.525 201.489H639.397C638.075 201.489 637.004 202.565 637.004 203.894V206.476C637.004 207.804 638.075 208.881 639.397 208.881H671.525C672.847 208.881 673.918 207.804 673.918 206.476V203.894C673.918 202.565 672.847 201.489 671.525 201.489Z" fill="white"/>
<path d="M592.752 190.412H591.641C590.465 190.412 589.512 191.371 589.512 192.553V195.664C589.512 196.846 590.465 197.805 591.641 197.805H592.752C593.928 197.805 594.882 196.846 594.882 195.664V192.553C594.882 191.371 593.928 190.412 592.752 190.412Z" fill="white"/>
<path d="M585.057 190.412H552.928C551.607 190.412 550.535 191.489 550.535 192.817V195.4C550.535 196.728 551.607 197.805 552.928 197.805H585.057C586.378 197.805 587.45 196.728 587.45 195.4V192.817C587.45 191.489 586.378 190.412 585.057 190.412Z" fill="white"/>
<path d="M631.768 190.412H599.639C598.317 190.412 597.246 191.489 597.246 192.817V195.4C597.246 196.728 598.317 197.805 599.639 197.805H631.768C633.089 197.805 634.161 196.728 634.161 195.4V192.817C634.161 191.489 633.089 190.412 631.768 190.412Z" fill="white"/>
<path d="M661.126 212.916H620.373C619.052 212.916 617.98 213.993 617.98 215.321V217.947C617.98 219.275 619.052 220.352 620.373 220.352H661.126C662.448 220.352 663.519 219.275 663.519 217.947V215.321C663.519 213.993 662.448 212.916 661.126 212.916Z" fill="white"/>
<path d="M405.047 292.547H461.043C464.329 292.547 466.992 289.87 466.992 286.569V228.917C466.992 225.616 464.329 222.939 461.043 222.939H405.047C401.761 222.939 399.098 225.616 399.098 228.917V286.569C399.098 289.87 401.761 292.547 405.047 292.547Z" stroke="white" stroke-width="6" stroke-linejoin="round"/>
<path d="M383.402 232.5H339.543" stroke="white" stroke-width="6" stroke-linecap="round" stroke-linejoin="round"/>
<path d="M383.692 251.873H255.652" stroke="white" stroke-width="6" stroke-linecap="round" stroke-linejoin="round"/>
<path d="M383.692 263.411H255.652" stroke="white" stroke-width="6" stroke-linecap="round" stroke-linejoin="round"/>
<path d="M383.692 274.944H255.652" stroke="white" stroke-width="6" stroke-linecap="round" stroke-linejoin="round"/>
<path d="M383.692 286.775H255.652" stroke="white" stroke-width="6" stroke-linecap="round" stroke-linejoin="round"/>
<path d="M400.727 290.166L465.491 224.454" stroke="white" stroke-width="6" stroke-linecap="round" stroke-linejoin="round"/>
<path d="M317.598 131.665H261.601C258.316 131.665 255.652 134.341 255.652 137.643V195.294C255.652 198.596 258.316 201.272 261.601 201.272H317.598C320.883 201.272 323.547 198.596 323.547 195.294V137.643C323.547 134.341 320.883 131.665 317.598 131.665Z" stroke="white" stroke-width="6" stroke-linejoin="round"/>
<path d="M339.25 141.231H383.104" stroke="white" stroke-width="6" stroke-linecap="round" stroke-linejoin="round"/>
<path d="M338.953 160.603H466.993" stroke="white" stroke-width="6" stroke-linecap="round" stroke-linejoin="round"/>
<path d="M338.953 172.141H466.993" stroke="white" stroke-width="6" stroke-linecap="round" stroke-linejoin="round"/>
<path d="M338.953 183.674H466.993" stroke="white" stroke-width="6" stroke-linecap="round" stroke-linejoin="round"/>
<path d="M338.953 195.212H466.993" stroke="white" stroke-width="6" stroke-linecap="round" stroke-linejoin="round"/>
<path d="M257.074 199.007L321.843 133.295" stroke="white" stroke-width="6" stroke-linecap="round" stroke-linejoin="round"/>
<path d="M507.705 57.3867H201.425C198.271 57.3867 195.715 59.9556 195.715 63.1244V111.104C195.715 114.273 198.271 116.842 201.425 116.842H507.705C510.858 116.842 513.415 114.273 513.415 111.104V63.1244C513.415 59.9556 510.858 57.3867 507.705 57.3867Z" stroke="white" stroke-width="6" stroke-linecap="round" stroke-linejoin="round"/>
<path d="M673.266 1.44287C679.733 1.4658 685.928 4.06741 690.488 8.67634C695.048 13.2853 697.602 19.5247 697.588 26.0242V291.595" stroke="white" stroke-width="6" stroke-linecap="round" stroke-linejoin="round"/>
<path d="M561.625 334.423L568.378 335.044C568.521 334.51 568.67 333.981 568.823 333.452L569.062 290.681C569.066 289.97 569.209 289.267 569.483 288.611C569.758 287.956 570.158 287.361 570.661 286.862C571.164 286.362 571.761 285.966 572.416 285.698C573.071 285.43 573.772 285.295 574.48 285.299L603.296 285.462C618.005 275.145 635.531 269.658 653.468 269.755C701.414 270.024 740.688 309.813 740.573 357.999L560.691 357.869C559.367 357.869 558.055 357.606 556.832 357.095C555.609 356.584 554.498 355.835 553.564 354.891C552.63 353.947 551.891 352.827 551.389 351.594C550.888 350.362 550.633 349.043 550.641 347.712V344.432C550.647 343.03 550.944 341.646 551.512 340.366C552.08 339.086 552.907 337.939 553.94 336.997C554.973 336.056 556.19 335.341 557.513 334.898C558.836 334.455 560.236 334.293 561.625 334.423Z" fill="#6E7D00"/>
<path d="M731.78 328.31C731.78 328.31 717.063 326.199 712.779 342.998C712.368 344.629 711.516 351.954 711.516 351.954C711.516 351.954 620.984 354.291 570.836 335.274C570.836 335.274 569.462 321.062 587.692 301.089" fill="#6E7D00"/>
<path d="M731.78 328.31C731.78 328.31 717.063 326.199 712.779 342.998C712.368 344.629 711.516 351.954 711.516 351.954C711.516 351.954 620.984 354.291 570.836 335.274C570.836 335.274 569.462 321.062 587.692 301.089" stroke="white" stroke-width="6" stroke-linecap="round" stroke-linejoin="round"/>
<path d="M296.058 340.714H283.246L237.272 219.077C234.735 212.373 226.943 212.483 224.536 219.265L181.428 340.714H168.903C166.295 340.714 164.18 343.316 164.18 346.519V354.214C164.18 357.422 166.295 360.019 168.903 360.019H296.058C298.666 360.019 300.777 357.422 300.777 354.214V346.519C300.777 343.316 298.647 340.714 296.058 340.714Z" fill="#FE7624"/>
<path d="M276.657 322.852H187.762L194.917 302.498H268.956L276.657 322.852Z" fill="white"/>
<path d="M203.359 278.927H259.892L252.201 258.573H210.586L203.359 278.927Z" fill="white"/>
<path d="M386.061 349.289H378.945L353.411 281.73C352.004 278.003 347.668 278.066 346.338 281.831L322.408 349.289H315.439C314.003 349.289 312.816 350.732 312.816 352.512V356.778C312.816 358.557 313.989 360 315.439 360H386.061C387.497 360 388.684 358.557 388.684 356.778V352.536C388.684 350.732 387.512 349.289 386.061 349.289Z" fill="#FE7624"/>
<path d="M375.287 339.367H325.91L329.887 328.06H371.009L375.287 339.367Z" fill="white"/>
<path d="M334.578 314.969H365.974L361.7 303.662H338.589L334.578 314.969Z" fill="white"/>
<path d="M1.4375 358.466H798.566" stroke="#242900" stroke-width="6" stroke-linecap="round" stroke-linejoin="round"/>
</g>
<defs>
<clipPath id="clip0_518_9154">
<rect width="800" height="360" fill="white"/>
</clipPath>
</defs>
</svg>
