<svg width="120" height="112" viewBox="0 0 120 112" fill="none" xmlns="http://www.w3.org/2000/svg">
<path fill-rule="evenodd" clip-rule="evenodd" d="M98.8105 36.0256L59.2513 0L19.1918 36.0256H18.9999V80.0003H55.3393V79.9993H23.2499V62.2493C23.2499 56.6148 26.1175 51.6501 30.473 48.7351L34.2193 42.2463L36.5411 46.268C37.5006 46.0915 38.4895 45.9993 39.4999 45.9993C40.5162 45.9993 41.5106 46.0926 42.4752 46.271L44.7989 42.2463L48.5568 48.7552C49.1856 49.1781 49.7831 49.6437 50.3454 50.1479L57.0941 40.5098C58.635 38.309 61.3082 37.3722 63.7753 37.9351C66.0355 36.7171 68.6215 36.0259 71.369 36.0259C74.4228 36.0259 77.2772 36.8798 79.7064 38.362C82.296 37.561 85.2141 38.4722 86.8524 40.812L94.2078 51.3165C96.239 54.2173 95.534 58.2154 92.6332 60.2465C91.0493 61.3556 89.1381 61.6489 87.3987 61.2143V80.0003H98.9999V36.0256H98.8105Z" fill="white"/>
<path d="M3.15287 93.0576C3.0414 93.0576 2.98567 93.1134 2.98567 93.2248V93.2726C2.98567 93.6388 2.85828 93.9493 2.6035 94.2041C2.34873 94.4589 2.03822 94.5863 1.67197 94.5863C1.32166 94.5863 1.01911 94.4589 0.764331 94.2041C0.509554 93.9493 0.382166 93.6388 0.382166 93.2726V92.1022C0.382166 91.7201 0.517516 91.3936 0.788217 91.1229C1.05892 90.8363 1.39331 90.693 1.7914 90.693H9.31529C9.44268 90.693 9.50637 90.6372 9.50637 90.5258C9.50637 90.1436 9.64172 89.8172 9.91242 89.5465C10.1831 89.2758 10.5096 89.1404 10.8917 89.1404H11.0111C11.3933 89.1404 11.7197 89.2758 11.9904 89.5465C12.2611 89.8172 12.3965 90.1436 12.3965 90.5258C12.3965 90.6372 12.4602 90.693 12.5876 90.693H20.1831C20.5812 90.693 20.9156 90.8363 21.1863 91.1229C21.457 91.3936 21.5924 91.7201 21.5924 92.1022V93.2248C21.5924 93.5911 21.457 93.9095 21.1863 94.1802C20.9315 94.4509 20.6131 94.5863 20.2309 94.5863C19.8487 94.5863 19.5223 94.4509 19.2516 94.1802C18.9968 93.9095 18.8694 93.5911 18.8694 93.2248C18.8694 93.1134 18.8057 93.0576 18.6783 93.0576H3.15287ZM3.89331 106.768C3.89331 106.879 3.95701 106.935 4.08439 106.935H7.69108C7.81847 106.935 7.88217 106.879 7.88217 106.768V106.218C7.88217 106.091 7.81847 106.027 7.69108 106.027H4.08439C3.95701 106.027 3.89331 106.091 3.89331 106.218V106.768ZM7.88217 103.758C7.88217 103.647 7.81847 103.591 7.69108 103.591H4.08439C3.95701 103.591 3.89331 103.647 3.89331 103.758V104.26C3.89331 104.387 3.95701 104.451 4.08439 104.451H7.69108C7.81847 104.451 7.88217 104.387 7.88217 104.26V103.758ZM9.10032 101.656C9.48248 101.656 9.80892 101.8 10.0796 102.086C10.3662 102.357 10.5096 102.683 10.5096 103.066V109.682C10.5096 110.239 10.4379 110.661 10.2946 110.948C10.1672 111.234 9.92834 111.465 9.57803 111.64C9.11624 111.832 8.41561 111.935 7.47611 111.951C7.46019 111.951 7.45223 111.951 7.45223 111.951C7.16561 111.951 6.90287 111.855 6.66401 111.664C6.42516 111.473 6.25 111.226 6.13854 110.924C6.04299 110.701 6.05892 110.494 6.18631 110.303C6.32962 110.112 6.5207 110.016 6.75955 110.016C7.14172 110.016 7.3965 110.008 7.52389 109.992C7.6672 109.976 7.76274 109.945 7.81051 109.897C7.85828 109.865 7.88217 109.785 7.88217 109.658V108.703C7.88217 108.591 7.81847 108.535 7.69108 108.535H4.08439C3.95701 108.535 3.89331 108.591 3.89331 108.703V110.709C3.89331 111.059 3.76592 111.354 3.51115 111.593C3.27229 111.847 2.97771 111.975 2.62739 111.975C2.27707 111.975 1.97452 111.847 1.71975 111.593C1.48089 111.354 1.36146 111.059 1.36146 110.709V103.066C1.36146 102.683 1.49682 102.357 1.76752 102.086C2.03822 101.8 2.37261 101.656 2.7707 101.656H9.10032ZM7.26115 97.2376C7.27707 97.1898 7.26911 97.15 7.23726 97.1181C7.22134 97.0704 7.18949 97.0465 7.14172 97.0465H4.44268C4.3949 97.0465 4.3551 97.0704 4.32325 97.1181C4.30733 97.15 4.30733 97.1818 4.32325 97.2137C4.53026 97.7232 4.68153 98.185 4.77707 98.599C4.79299 98.7105 4.85669 98.7662 4.96815 98.7662H6.56847C6.69586 98.7662 6.77548 98.7105 6.80733 98.599C6.99841 98.1054 7.14968 97.6516 7.26115 97.2376ZM9.60191 97.0465V97.0704C9.68153 97.0863 9.73726 97.1341 9.76911 97.2137C9.81688 97.2774 9.82484 97.349 9.79299 97.4286C9.58599 97.9701 9.41879 98.3602 9.2914 98.599C9.27548 98.6468 9.27548 98.6866 9.2914 98.7185C9.32325 98.7503 9.36306 98.7662 9.41083 98.7662H10.4857C10.7564 98.7662 10.9952 98.8697 11.2022 99.0767C11.4092 99.2678 11.5127 99.5067 11.5127 99.7933C11.5127 100.08 11.4092 100.327 11.2022 100.534C10.9952 100.725 10.7564 100.82 10.4857 100.82H1.02707C0.740446 100.82 0.493631 100.725 0.286624 100.534C0.0955414 100.327 0 100.08 0 99.7933C0 99.5067 0.0955414 99.2678 0.286624 99.0767C0.493631 98.8697 0.740446 98.7662 1.02707 98.7662H2.17357C2.30096 98.7662 2.34873 98.7105 2.31688 98.599C2.23726 98.2169 2.11783 97.8029 1.9586 97.357C1.92675 97.2933 1.92675 97.2296 1.9586 97.1659C2.00637 97.1022 2.0621 97.0704 2.1258 97.0704V97.0465H1.45701C1.18631 97.0465 0.955414 96.9509 0.764331 96.7599C0.573248 96.5688 0.477707 96.3458 0.477707 96.0911C0.477707 95.8204 0.573248 95.5895 0.764331 95.3984C0.955414 95.2073 1.18631 95.1118 1.45701 95.1118H4.49045C4.58599 95.1118 4.63376 95.064 4.63376 94.9685C4.63376 94.65 4.73726 94.3793 4.94427 94.1564C5.1672 93.9334 5.4379 93.822 5.75637 93.822H5.99522C6.31369 93.822 6.57643 93.9334 6.78344 94.1564C7.00637 94.3793 7.11783 94.65 7.11783 94.9685C7.11783 95.064 7.16561 95.1118 7.26115 95.1118H10.2229C10.4936 95.1118 10.7245 95.2073 10.9156 95.3984C11.1067 95.5895 11.2022 95.8204 11.2022 96.0911C11.2022 96.3458 11.1067 96.5688 10.9156 96.7599C10.7245 96.9509 10.4936 97.0465 10.2229 97.0465H9.60191ZM15.8838 109.706H19.1322C19.4347 109.706 19.6576 109.65 19.801 109.539C19.9443 109.427 20.0478 109.204 20.1115 108.87C20.1274 108.758 20.0717 108.703 19.9443 108.703H14.8089C14.6815 108.703 14.6258 108.758 14.6417 108.87C14.6417 109.236 14.7134 109.467 14.8567 109.562C15.0159 109.658 15.3583 109.706 15.8838 109.706ZM19.8965 107.246C20.199 107.246 20.4538 107.357 20.6608 107.58C20.8838 107.787 20.9952 108.042 20.9952 108.344C20.9952 108.44 21.035 108.503 21.1146 108.535C21.1146 108.535 21.1306 108.535 21.1624 108.535C21.5446 108.695 21.8471 108.933 22.0701 109.252C22.1975 109.475 22.2611 109.69 22.2611 109.897C22.2611 110.024 22.2373 110.16 22.1895 110.303C21.9984 110.876 21.6879 111.274 21.258 111.497C20.828 111.736 20.207 111.855 19.3949 111.855H15.5016C14.1481 111.855 13.2245 111.64 12.7309 111.21C12.2373 110.796 11.9904 109.984 11.9904 108.774V101.824C11.9904 101.425 12.1258 101.091 12.3965 100.82C12.6831 100.55 13.0175 100.414 13.3997 100.414H18.2723C18.3838 100.414 18.4395 100.351 18.4395 100.223V99.6261C18.4395 99.5146 18.3838 99.4589 18.2723 99.4589H13.3997C13.0175 99.4589 12.6831 99.3236 12.3965 99.0529C12.1258 98.7662 11.9904 98.4318 11.9904 98.0497V95.1357C11.9904 94.7694 12.1178 94.4589 12.3726 94.2041C12.6274 93.9334 12.9379 93.7981 13.3041 93.7981H13.4713C13.7898 93.7981 14.0605 93.9175 14.2834 94.1564C14.5223 94.3793 14.6417 94.65 14.6417 94.9685C14.6417 95.0799 14.6895 95.1357 14.785 95.1357H20.4459C20.7006 95.1357 20.9156 95.2232 21.0908 95.3984C21.2659 95.5735 21.3535 95.7885 21.3535 96.0433C21.3535 96.2822 21.2659 96.4892 21.0908 96.6643C20.9156 96.8395 20.7006 96.9271 20.4459 96.9271H14.8089C14.6975 96.9271 14.6417 96.9908 14.6417 97.1181V97.572C14.6417 97.6834 14.6975 97.7392 14.8089 97.7392H19.7293C20.1115 97.7392 20.4379 97.8825 20.7086 98.1691C20.9952 98.4398 21.1385 98.7662 21.1385 99.1484V100.701C21.1385 101.099 20.9952 101.433 20.7086 101.704C20.4379 101.975 20.1115 102.11 19.7293 102.11H14.8089C14.6975 102.11 14.6417 102.174 14.6417 102.301V102.683C14.6417 102.795 14.6975 102.851 14.8089 102.851H19.801C19.992 102.851 20.1592 102.922 20.3025 103.066C20.4459 103.209 20.5175 103.384 20.5175 103.591C20.5175 103.798 20.4459 103.973 20.3025 104.117C20.1592 104.26 19.992 104.332 19.801 104.332H14.8089C14.6975 104.332 14.6417 104.387 14.6417 104.499V104.881C14.6417 104.992 14.6975 105.048 14.8089 105.048H19.7054C19.8965 105.048 20.0637 105.12 20.207 105.263C20.3503 105.406 20.422 105.582 20.422 105.789C20.422 105.996 20.3503 106.171 20.207 106.314C20.0637 106.457 19.8965 106.529 19.7054 106.529H14.8089C14.6975 106.529 14.6417 106.585 14.6417 106.696V107.078C14.6417 107.19 14.6975 107.246 14.8089 107.246H19.8965Z" fill="white"/>
<path d="M31.9347 100.271C32.0462 100.239 32.1576 100.223 32.2691 100.223C32.4761 100.223 32.6831 100.287 32.8901 100.414C33.1768 100.605 33.3439 100.868 33.3917 101.203C33.4076 101.282 33.4156 101.362 33.4156 101.441C33.4156 101.712 33.336 101.975 33.1768 102.23C32.9697 102.532 32.6911 102.739 32.3408 102.851C31.672 103.074 31.2659 103.201 31.1226 103.233C31.0111 103.281 30.9554 103.36 30.9554 103.472V110.661C30.9554 111.027 30.8201 111.338 30.5494 111.593C30.2946 111.863 29.9841 111.999 29.6178 111.999C29.2516 111.999 28.9331 111.863 28.6624 111.593C28.4076 111.338 28.2803 111.027 28.2803 110.661V104.284C28.2803 104.236 28.2643 104.204 28.2325 104.188C28.2006 104.156 28.1608 104.14 28.1131 104.14C27.8901 104.22 27.5398 104.332 27.0621 104.475C26.5844 104.618 26.2182 104.722 25.9634 104.785C25.836 104.833 25.7086 104.857 25.5812 104.857C25.3424 104.857 25.1194 104.793 24.9124 104.666C24.578 104.475 24.3631 104.188 24.2675 103.806L24.2436 103.782C24.2118 103.655 24.1959 103.535 24.1959 103.424C24.1959 103.185 24.2675 102.954 24.4108 102.731C24.6178 102.397 24.9045 102.182 25.2707 102.086C26.0828 101.895 27.0303 101.648 28.1131 101.346C28.2245 101.314 28.2803 101.234 28.2803 101.107V96.8076C28.2803 96.6802 28.2166 96.6165 28.0892 96.6165H26.8232C26.6959 96.6165 26.6242 96.6723 26.6083 96.7837C26.449 97.4525 26.2898 98.0497 26.1306 98.5751C26.051 98.8777 25.8599 99.0688 25.5573 99.1484C25.4459 99.1962 25.3424 99.22 25.2468 99.22C25.0717 99.22 24.8965 99.1643 24.7213 99.0529C24.4347 98.8618 24.2277 98.599 24.1003 98.2646C24.0366 98.0735 24.0048 97.8825 24.0048 97.6914C24.0048 97.5481 24.0287 97.3968 24.0764 97.2376C24.4586 95.8363 24.7532 94.0051 24.9602 91.7439C24.992 91.4255 25.1433 91.1627 25.414 90.9557C25.621 90.7965 25.844 90.7169 26.0828 90.7169C26.1465 90.7169 26.2182 90.7248 26.2978 90.7408C26.6322 90.7885 26.9029 90.9557 27.1099 91.2423C27.285 91.4653 27.3726 91.7201 27.3726 92.0067C27.3726 92.0544 27.3726 92.1102 27.3726 92.1739C27.3089 92.6516 27.2373 93.1532 27.1576 93.6786C27.1417 93.7901 27.1895 93.8458 27.301 93.8458H28.0892C28.2166 93.8458 28.2803 93.7901 28.2803 93.6786V90.5019C28.2803 90.1197 28.4076 89.8013 28.6624 89.5465C28.9331 89.2917 29.2516 89.1643 29.6178 89.1643C29.9841 89.1643 30.2946 89.2917 30.5494 89.5465C30.8201 89.8013 30.9554 90.1197 30.9554 90.5019V93.6786C30.9554 93.7901 31.0111 93.8458 31.1226 93.8458H31.6003C31.9825 93.8458 32.3089 93.9812 32.5796 94.2519C32.8503 94.5226 32.9857 94.849 32.9857 95.2312C32.9857 95.6134 32.8503 95.9398 32.5796 96.2105C32.3089 96.4812 31.9825 96.6165 31.6003 96.6165H31.1226C31.0111 96.6165 30.9554 96.6802 30.9554 96.8076V100.367C30.9554 100.414 30.9713 100.454 31.0032 100.486C31.035 100.518 31.0748 100.526 31.1226 100.51L31.9347 100.271ZM37.5955 92.7471C37.5955 92.7949 37.6035 92.8347 37.6194 92.8665C37.6513 92.8984 37.6911 92.9143 37.7389 92.9143H45.3344C45.7166 92.9143 46.043 93.0576 46.3137 93.3443C46.5685 93.599 46.6959 93.9095 46.6959 94.2758C46.6959 95.1834 46.5764 97.5083 46.3376 101.25C46.2261 103.097 46.0987 104.666 45.9554 105.956C45.8121 107.23 45.6529 108.209 45.4777 108.894C45.3025 109.562 45.0955 110.056 44.8567 110.375C44.586 110.757 44.3073 111.035 44.0207 111.21C43.7341 111.402 43.3758 111.545 42.9459 111.64C42.6115 111.704 42.1656 111.736 41.6083 111.736C41.5924 111.736 41.5844 111.736 41.5844 111.736C41.2022 111.736 40.8599 111.601 40.5573 111.33C40.2548 111.059 40.0478 110.725 39.9363 110.327C39.9204 110.279 39.9045 110.231 39.8885 110.183C39.8726 110.088 39.8647 109.992 39.8647 109.897C39.8647 109.69 39.9204 109.499 40.0318 109.324C40.2229 109.085 40.4697 108.965 40.7723 108.965C40.7723 108.965 40.7803 108.965 40.7962 108.965C41.0032 108.965 41.258 108.965 41.5605 108.965C41.9108 108.965 42.2134 108.814 42.4682 108.511C42.7866 108.097 43.0573 106.919 43.2803 104.976C43.5032 103.018 43.7102 99.9207 43.9013 95.685C43.9013 95.6373 43.8774 95.6134 43.8296 95.6134C43.7978 95.6134 43.7818 95.6293 43.7818 95.6611C43.1927 98.6707 42.3408 101.481 41.2261 104.093C40.1115 106.688 38.758 108.798 37.1656 110.422C36.8949 110.709 36.5526 110.852 36.1385 110.852C35.7245 110.852 35.3583 110.733 35.0398 110.494C35.008 110.478 34.9841 110.462 34.9682 110.446C34.6656 110.239 34.5143 109.945 34.5143 109.562C34.5143 109.276 34.6258 109.029 34.8487 108.822C36.3933 107.405 37.707 105.558 38.7898 103.281C39.8726 101.003 40.7086 98.5035 41.2978 95.7806C41.3296 95.6691 41.2818 95.6134 41.1545 95.6134H40.3662C40.2548 95.6134 40.1831 95.6691 40.1513 95.7806C39.6576 97.564 39.0048 99.3076 38.1927 101.011C37.3965 102.715 36.5127 104.148 35.5414 105.311C35.3025 105.597 34.9841 105.749 34.586 105.765C34.5541 105.765 34.5303 105.765 34.5143 105.765C34.1481 105.765 33.8217 105.653 33.535 105.43C33.2325 105.207 33.0812 104.905 33.0812 104.523C33.0812 104.22 33.1847 103.965 33.3917 103.758C34.2994 102.803 35.1274 101.625 35.8758 100.223C36.6242 98.822 37.2373 97.3411 37.715 95.7806C37.7309 95.7487 37.7229 95.7169 37.6911 95.685C37.6752 95.6373 37.6433 95.6134 37.5955 95.6134H36.7118C36.5844 95.6134 36.4968 95.6691 36.449 95.7806C35.9554 96.943 35.4061 97.978 34.801 98.8857C34.6099 99.1882 34.3232 99.3634 33.9411 99.4111C33.8933 99.4111 33.8376 99.4111 33.7739 99.4111C33.4713 99.4111 33.1927 99.3156 32.9379 99.1245C32.6513 98.9175 32.4761 98.6309 32.4124 98.2646C32.4124 98.185 32.4124 98.1134 32.4124 98.0497C32.4124 97.763 32.492 97.5083 32.6513 97.2853C33.8615 95.5337 34.8169 93.2567 35.5175 90.4541C35.6131 90.0879 35.8121 89.8013 36.1147 89.5943C36.3535 89.435 36.6083 89.3554 36.879 89.3554C36.9586 89.3554 37.0462 89.3634 37.1417 89.3793C37.492 89.443 37.7707 89.6261 37.9777 89.9286C38.121 90.1516 38.1927 90.3745 38.1927 90.5974C38.1927 90.7089 38.1768 90.8204 38.1449 90.9318C37.9857 91.4892 37.8025 92.0943 37.5955 92.7471Z" fill="white"/>
<path d="M70.8678 93.6309C71.1385 93.9016 71.2739 94.228 71.2739 94.6102C71.2739 94.9923 71.1385 95.3188 70.8678 95.5895C70.5971 95.8602 70.2707 95.9955 69.8885 95.9955H63.2484C63.121 95.9955 63.0573 96.0592 63.0573 96.1866V98.7662C63.0573 98.8777 63.121 98.9334 63.2484 98.9334H68.7182C69.1003 98.9334 69.4268 99.0767 69.6974 99.3634C69.9522 99.6181 70.0796 99.9207 70.0796 100.271C70.0796 102.612 69.9045 105.112 69.5541 107.771C69.3631 109.268 69.0764 110.255 68.6943 110.733C68.4076 111.083 68.1051 111.338 67.7866 111.497C67.4682 111.656 67.0701 111.768 66.5924 111.832C66.1784 111.879 65.5892 111.903 64.8248 111.903C64.7771 111.903 64.7213 111.903 64.6576 111.903C64.2755 111.903 63.9252 111.768 63.6067 111.497C63.3041 111.242 63.0892 110.908 62.9618 110.494C62.9459 110.43 62.9299 110.359 62.914 110.279C62.8662 110.168 62.8424 110.064 62.8424 109.968C62.8424 109.793 62.8981 109.626 63.0096 109.467C63.1688 109.212 63.3917 109.085 63.6783 109.085C63.6943 109.085 63.7022 109.085 63.7022 109.085C64.1481 109.101 64.6576 109.109 65.2309 109.109C65.6608 109.109 65.9713 109.005 66.1624 108.798C66.4013 108.575 66.5924 107.93 66.7357 106.863C66.879 105.781 67.0064 104.093 67.1178 101.8C67.1178 101.688 67.0621 101.632 66.9506 101.632H63.1529C63.0255 101.632 62.9538 101.688 62.9379 101.8C62.492 105.812 60.7325 108.957 57.6592 111.234C57.3726 111.425 57.078 111.521 56.7755 111.521C56.7118 111.521 56.6401 111.513 56.5605 111.497C56.1783 111.449 55.828 111.282 55.5096 110.996C55.4618 110.964 55.414 110.924 55.3662 110.876C55.1274 110.653 55.008 110.382 55.008 110.064C55.008 109.698 55.1513 109.403 55.4379 109.18C56.4252 108.448 57.2452 107.66 57.8981 106.816C58.551 105.972 59.0287 105.104 59.3312 104.212C59.6497 103.32 59.8647 102.508 59.9761 101.776C60.0876 101.027 60.1433 100.231 60.1433 99.3872V96.1866C60.1433 96.0592 60.0876 95.9955 59.9761 95.9955H56.8471C56.7357 95.9955 56.6799 96.0592 56.6799 96.1866V96.3299C56.6799 96.728 56.5366 97.0624 56.25 97.3331C55.9793 97.6038 55.6529 97.7392 55.2707 97.7392H54.5064C54.3949 97.7392 54.3392 97.8028 54.3392 97.9302V103.304C54.3392 103.352 54.3551 103.392 54.3869 103.424C54.4188 103.44 54.4586 103.44 54.5064 103.424C54.7452 103.344 55.0876 103.225 55.5334 103.066C55.6768 103.002 55.8201 102.97 55.9634 102.97C56.1545 102.97 56.3455 103.026 56.5366 103.137C56.8551 103.312 57.0541 103.583 57.1338 103.949C57.1497 104.077 57.1576 104.196 57.1576 104.308C57.1576 104.578 57.0939 104.833 56.9666 105.072C56.7755 105.438 56.4889 105.693 56.1067 105.836C54.0844 106.617 52.2213 107.325 50.5175 107.962C50.3583 108.026 50.207 108.058 50.0637 108.058C49.8567 108.058 49.6576 108.01 49.4666 107.914C49.1322 107.739 48.9172 107.468 48.8217 107.102L48.75 106.839C48.7022 106.696 48.6783 106.561 48.6783 106.433C48.6783 106.195 48.742 105.964 48.8694 105.741C49.0605 105.406 49.3392 105.175 49.7054 105.048C50.2309 104.873 50.7723 104.698 51.3296 104.523C51.4411 104.491 51.4968 104.411 51.4968 104.284V97.9302C51.4968 97.8028 51.4331 97.7392 51.3057 97.7392H50.1831C49.8169 97.7392 49.4984 97.6118 49.2277 97.357C48.957 97.0863 48.8217 96.7599 48.8217 96.3777C48.8217 95.9955 48.957 95.6691 49.2277 95.3984C49.4984 95.1277 49.8169 94.9923 50.1831 94.9923H51.3057C51.4331 94.9923 51.4968 94.9366 51.4968 94.8251V91.0035C51.4968 90.6213 51.6322 90.2949 51.9029 90.0242C52.1736 89.7376 52.508 89.5943 52.9061 89.5943H52.9299C53.3121 89.5943 53.6385 89.7376 53.9092 90.0242C54.1959 90.2949 54.3392 90.6213 54.3392 91.0035V94.8251C54.3392 94.9366 54.3949 94.9923 54.5064 94.9923H56.0589C56.1704 94.9923 56.2261 94.9366 56.2261 94.8251V94.6341C56.2261 94.236 56.3615 93.9016 56.6322 93.6309C56.9188 93.3602 57.2532 93.2248 57.6354 93.2248H62.0303C62.1417 93.2248 62.1975 93.1611 62.1975 93.0337V90.5497C62.1975 90.1516 62.3328 89.8172 62.6035 89.5465C62.8901 89.2758 63.2245 89.1404 63.6067 89.1404H63.6783C64.0764 89.1404 64.4108 89.2758 64.6815 89.5465C64.9522 89.8172 65.0876 90.1516 65.0876 90.5497V93.0337C65.0876 93.1611 65.1513 93.2248 65.2787 93.2248H69.8885C70.2707 93.2248 70.5971 93.3602 70.8678 93.6309Z" fill="white"/>
<path d="M85.3185 100.319C85.3185 100.191 85.2548 100.128 85.1274 100.128H83.5748C83.4475 100.128 83.3838 100.191 83.3838 100.319V100.629C83.3838 102.445 83.2723 104.053 83.0494 105.454C83.0334 105.582 83.0812 105.653 83.1927 105.669C83.543 105.701 83.9331 105.717 84.3631 105.717C84.6178 105.717 84.8248 105.621 84.9841 105.43C85.1592 105.112 85.2707 103.408 85.3185 100.319ZM92.508 98.8618C92.6035 98.4955 92.8105 98.2169 93.129 98.0258C93.3519 97.8666 93.5987 97.7869 93.8694 97.7869C93.9491 97.7869 94.0366 97.7949 94.1322 97.8108C94.4825 97.8745 94.7611 98.0576 94.9682 98.3602C95.0955 98.5672 95.1592 98.7822 95.1592 99.0051C95.1592 99.1165 95.1433 99.228 95.1115 99.3395C94.3471 102.078 93.3758 104.395 92.1974 106.29C92.1338 106.402 92.1099 106.513 92.1258 106.625C92.5239 108.201 92.9459 108.989 93.3917 108.989C93.6783 108.989 93.8694 108.201 93.965 106.625C93.9809 106.386 94.1003 106.218 94.3232 106.123C94.5621 106.027 94.7771 106.059 94.9682 106.218C95.6051 106.696 95.9236 107.246 95.9236 107.867C95.9236 107.946 95.9156 108.034 95.8997 108.129C95.6927 109.467 95.3742 110.39 94.9443 110.9C94.5303 111.425 93.9013 111.688 93.0573 111.688C91.9586 111.688 91.035 110.836 90.2866 109.132C90.2389 109.021 90.1752 109.013 90.0955 109.109C89.4427 109.857 88.7182 110.542 87.922 111.163C87.6513 111.37 87.3567 111.473 87.0382 111.473C86.9745 111.473 86.9108 111.473 86.8471 111.473C86.465 111.425 86.1226 111.258 85.8201 110.972C85.5971 110.765 85.4857 110.502 85.4857 110.183C85.4857 109.817 85.629 109.523 85.9156 109.3C87.1576 108.408 88.2484 107.333 89.1879 106.075C89.2675 105.98 89.2914 105.876 89.2596 105.765C88.7181 103.153 88.3519 99.6739 88.1608 95.3267C88.1608 95.2153 88.0971 95.1595 87.9697 95.1595H83.5748C83.4475 95.1595 83.3838 95.2153 83.3838 95.3267V97.6197C83.3838 97.7312 83.4475 97.7869 83.5748 97.7869H86.3217C86.7197 97.7869 87.0462 97.9302 87.301 98.2169C87.5717 98.4876 87.707 98.806 87.707 99.1723C87.707 101.402 87.6433 103.32 87.5159 104.929C87.4363 106.043 87.285 106.752 87.0621 107.054C86.7118 107.532 86.258 107.819 85.7006 107.914C85.5255 107.946 85.2946 107.978 85.008 108.01C84.9761 108.01 84.9443 108.01 84.9124 108.01C84.5621 108.01 84.2516 107.882 83.9809 107.628C83.6783 107.373 83.4713 107.039 83.3599 106.625C83.2803 106.338 83.1847 106.091 83.0732 105.884C83.0573 105.852 83.0334 105.844 83.0016 105.86C82.9857 105.86 82.9697 105.868 82.9538 105.884C82.7946 106.855 82.5637 107.771 82.2611 108.631C81.9586 109.491 81.5764 110.271 81.1147 110.972C80.9076 111.274 80.621 111.433 80.2548 111.449C80.2229 111.449 80.199 111.449 80.1831 111.449C79.8328 111.449 79.5223 111.33 79.2516 111.091C78.9809 110.852 78.8137 110.55 78.75 110.183C78.75 110.104 78.75 110.024 78.75 109.945C78.75 109.674 78.8217 109.411 78.965 109.156C79.4427 108.392 79.8089 107.548 80.0637 106.625C80.0796 106.593 80.0717 106.569 80.0398 106.553C80.008 106.521 79.9761 106.505 79.9443 106.505C79.3232 106.76 78.4475 107.126 77.3169 107.604C76.1863 108.066 75.4459 108.368 75.0955 108.511C74.9363 108.575 74.7691 108.607 74.5939 108.607C74.4188 108.607 74.2436 108.567 74.0685 108.488C73.7182 108.328 73.4873 108.066 73.3758 107.699L73.3041 107.484C73.2564 107.341 73.2325 107.198 73.2325 107.054C73.2325 106.832 73.2882 106.617 73.3997 106.41C73.5748 106.075 73.8455 105.844 74.2118 105.717C74.3869 105.669 74.7293 105.558 75.2389 105.382C75.3503 105.351 75.4061 105.271 75.4061 105.144V97.8108C75.4061 97.6834 75.3503 97.6197 75.2389 97.6197H74.6178C74.2516 97.6197 73.9331 97.4923 73.6624 97.2376C73.4076 96.9669 73.2803 96.6484 73.2803 96.2822C73.2803 95.9 73.4076 95.5815 73.6624 95.3267C73.9331 95.056 74.2516 94.9207 74.6178 94.9207H75.2389C75.3503 94.9207 75.4061 94.865 75.4061 94.7535V90.7885C75.4061 90.4223 75.5334 90.1118 75.7882 89.857C76.0589 89.5863 76.3774 89.4509 76.7436 89.4509C77.1258 89.4509 77.4443 89.5863 77.699 89.857C77.9697 90.1118 78.1051 90.4223 78.1051 90.7885V94.7535C78.1051 94.865 78.1608 94.9207 78.2723 94.9207H78.6545C79.0366 94.9207 79.3551 95.056 79.6099 95.3267C79.8806 95.5815 80.0159 95.9 80.0159 96.2822C80.0159 96.6484 79.8806 96.9669 79.6099 97.2376C79.3551 97.4923 79.0366 97.6197 78.6545 97.6197H78.2723C78.1608 97.6197 78.1051 97.6834 78.1051 97.8108V104.188C78.1051 104.236 78.121 104.276 78.1529 104.308C78.1847 104.324 78.2245 104.324 78.2723 104.308L78.6545 104.164C78.7978 104.117 78.9331 104.093 79.0605 104.093C79.2675 104.093 79.4666 104.148 79.6576 104.26C79.9761 104.451 80.1752 104.73 80.2548 105.096L80.3025 105.311C80.3025 105.343 80.3105 105.359 80.3264 105.359C80.3424 105.359 80.3583 105.343 80.3742 105.311C80.5971 104.101 80.7086 102.54 80.7086 100.629V93.9175C80.7086 93.5353 80.844 93.2089 81.1147 92.9382C81.4013 92.6516 81.7357 92.5083 82.1178 92.5083H87.8981C88.0255 92.5083 88.0892 92.4525 88.0892 92.3411C88.0573 91.2423 88.0414 90.6134 88.0414 90.4541C88.0414 90.0879 88.1688 89.7694 88.4236 89.4987C88.6943 89.2439 89.0207 89.1165 89.4029 89.1165C89.785 89.1165 90.1035 89.2519 90.3583 89.5226C90.629 89.7774 90.7643 90.0958 90.7643 90.478V90.8124C90.7643 91.322 90.7643 91.8315 90.7643 92.3411C90.7643 92.4525 90.828 92.5083 90.9554 92.5083H92.508C92.5398 92.5083 92.5637 92.4923 92.5796 92.4605C92.5955 92.4286 92.5955 92.3968 92.5796 92.365C92.293 91.935 91.9586 91.4971 91.5764 91.0513C91.4331 90.8602 91.3615 90.6532 91.3615 90.4302C91.3615 90.3665 91.3615 90.3108 91.3615 90.263C91.4092 89.9764 91.5605 89.7535 91.8153 89.5943C92.0541 89.4509 92.301 89.3793 92.5557 89.3793C92.6194 89.3793 92.6831 89.3873 92.7468 89.4032C93.0971 89.435 93.3838 89.5783 93.6067 89.8331C93.9729 90.2312 94.2994 90.6134 94.586 90.9796C94.7134 91.1548 94.7771 91.3379 94.7771 91.529C94.7771 91.6086 94.7691 91.6882 94.7532 91.7678C94.6895 92.0544 94.5223 92.2774 94.2516 92.4366C94.2516 92.4366 94.2516 92.4525 94.2516 92.4844C94.2675 92.5003 94.2755 92.5083 94.2755 92.5083H94.2994C94.6338 92.5083 94.9124 92.6277 95.1354 92.8665C95.3742 93.0895 95.4936 93.3681 95.4936 93.7025V93.822C95.4936 94.1882 95.3662 94.5067 95.1115 94.7774C94.8567 95.0322 94.5462 95.1595 94.1799 95.1595H91.0032C90.8758 95.1595 90.8201 95.2153 90.836 95.3267C90.9634 98.0337 91.1385 100.271 91.3615 102.039C91.3615 102.07 91.3694 102.086 91.3854 102.086C91.4172 102.086 91.4411 102.078 91.457 102.062C91.8551 101.107 92.2054 100.04 92.508 98.8618Z" fill="white"/>
<path d="M120 93.6309C120 94.029 119.857 94.3634 119.57 94.6341C119.299 94.9048 118.973 95.0401 118.591 95.0401H110.422C110.295 95.0401 110.231 95.1038 110.231 95.2312V97.4286C110.231 97.556 110.295 97.6197 110.422 97.6197H116.537C116.919 97.6197 117.245 97.763 117.516 98.0497C117.803 98.3204 117.946 98.6468 117.946 99.029V105.884C117.946 106.617 117.85 107.19 117.659 107.604C117.468 108.018 117.134 108.336 116.656 108.559C116.003 108.83 115.024 108.989 113.718 109.037C113.702 109.037 113.686 109.037 113.67 109.037C113.304 109.037 112.962 108.91 112.643 108.655C112.325 108.4 112.102 108.074 111.975 107.675C111.943 107.612 111.919 107.548 111.903 107.484C111.855 107.357 111.831 107.238 111.831 107.126C111.831 106.951 111.887 106.776 111.998 106.601C112.174 106.346 112.42 106.218 112.739 106.218C113.248 106.218 113.798 106.218 114.387 106.218C114.737 106.218 114.912 106.091 114.912 105.836V100.629C114.912 100.518 114.857 100.462 114.745 100.462H110.422C110.295 100.462 110.231 100.518 110.231 100.629V110.589C110.231 110.988 110.096 111.322 109.825 111.593C109.554 111.863 109.22 111.999 108.822 111.999H108.607C108.225 111.999 107.89 111.863 107.604 111.593C107.333 111.322 107.197 110.988 107.197 110.589V100.629C107.197 100.518 107.142 100.462 107.03 100.462H103.113C102.986 100.462 102.922 100.518 102.922 100.629V107.628C102.922 108.026 102.787 108.36 102.516 108.631C102.245 108.902 101.911 109.037 101.513 109.037H101.393C101.011 109.037 100.677 108.902 100.39 108.631C100.119 108.36 99.9841 108.026 99.9841 107.628V99.029C99.9841 98.6468 100.119 98.3204 100.39 98.0497C100.677 97.763 101.011 97.6197 101.393 97.6197H107.03C107.142 97.6197 107.197 97.556 107.197 97.4286V95.2312C107.197 95.1038 107.142 95.0401 107.03 95.0401H99.1003C98.7182 95.0401 98.3838 94.9048 98.0971 94.6341C97.8264 94.3634 97.6911 94.029 97.6911 93.6309C97.6911 93.2328 97.8264 92.8984 98.0971 92.6277C98.3838 92.357 98.7182 92.2216 99.1003 92.2216H107.006C107.118 92.2216 107.174 92.158 107.174 92.0306V90.4541C107.174 90.056 107.309 89.7216 107.58 89.4509C107.866 89.1802 108.201 89.0449 108.583 89.0449H108.869C109.268 89.0449 109.602 89.1802 109.873 89.4509C110.143 89.7216 110.279 90.056 110.279 90.4541V92.0306C110.279 92.158 110.342 92.2216 110.47 92.2216H118.591C118.973 92.2216 119.299 92.357 119.57 92.6277C119.857 92.8984 120 93.2328 120 93.6309Z" fill="white"/>
</svg>
