<svg width="292" height="72" viewBox="0 0 292 72" fill="none" xmlns="http://www.w3.org/2000/svg">
<path fill-rule="evenodd" clip-rule="evenodd" d="M36.2262 0L71.8293 32.4229H72L72 32.5783L72 72H0V32.4229H0.172902L36.2262 0ZM15.7874 41.6418L13.6974 38.0219L10.3253 43.8625C6.4057 46.4861 3.825 50.9542 3.825 56.025V72H33.075V56.025C33.075 50.9658 30.5061 46.5066 26.6016 43.8806L23.2191 38.0219L21.1275 41.6445C20.2595 41.4839 19.3645 41.4 18.45 41.4C17.5407 41.4 16.6507 41.483 15.7874 41.6418Z" fill="#FFB423"/>
<path fill-rule="evenodd" clip-rule="evenodd" d="M29.082 53.9493C30.1831 54.7203 31.4599 55.0532 32.7055 54.9846V72H61.5589V55.0925C63.1244 55.4836 64.8445 55.2197 66.2701 54.2215C68.8808 52.3934 69.5152 48.7951 67.6872 46.1845L61.0674 36.7303C59.5929 34.6245 56.9666 33.8045 54.6359 34.5254C52.4496 33.1914 49.8807 32.4229 47.1322 32.4229C44.6596 32.4229 42.3323 33.0449 40.2982 34.141C38.0776 33.6342 35.6717 34.4774 34.2847 36.4581L27.6649 45.9123C25.8368 48.523 26.4713 52.1213 29.082 53.9493Z" fill="#6E7D00"/>
<path d="M90.0168 28.5229C89.8245 28.5229 89.7284 28.619 89.7284 28.8113V28.8937C89.7284 29.5256 89.5086 30.0613 89.0691 30.5008C88.6295 30.9404 88.0938 31.1601 87.462 31.1601C86.8576 31.1601 86.3357 30.9404 85.8961 30.5008C85.4566 30.0613 85.2368 29.5256 85.2368 28.8937V26.8746C85.2368 26.2153 85.4703 25.6521 85.9373 25.1851C86.4043 24.6906 86.9812 24.4434 87.668 24.4434H100.648C100.868 24.4434 100.978 24.3472 100.978 24.1549C100.978 23.4956 101.211 22.9325 101.678 22.4654C102.145 21.9984 102.709 21.7649 103.368 21.7649H103.574C104.233 21.7649 104.796 21.9984 105.263 22.4654C105.73 22.9325 105.964 23.4956 105.964 24.1549C105.964 24.3472 106.074 24.4434 106.294 24.4434H119.397C120.084 24.4434 120.661 24.6906 121.128 25.1851C121.595 25.6521 121.829 26.2153 121.829 26.8746V28.8113C121.829 29.4432 121.595 29.9926 121.128 30.4596C120.689 30.9266 120.139 31.1601 119.48 31.1601C118.821 31.1601 118.257 30.9266 117.79 30.4596C117.351 29.9926 117.131 29.4432 117.131 28.8113C117.131 28.619 117.021 28.5229 116.801 28.5229H90.0168ZM91.2942 52.1757C91.2942 52.368 91.4041 52.4642 91.6239 52.4642H97.8462C98.0659 52.4642 98.1758 52.368 98.1758 52.1757V51.228C98.1758 51.0082 98.0659 50.8983 97.8462 50.8983H91.6239C91.4041 50.8983 91.2942 51.0082 91.2942 51.228V52.1757ZM98.1758 46.9837C98.1758 46.7914 98.0659 46.6952 97.8462 46.6952H91.6239C91.4041 46.6952 91.2942 46.7914 91.2942 46.9837V47.849C91.2942 48.0688 91.4041 48.1787 91.6239 48.1787H97.8462C98.0659 48.1787 98.1758 48.0688 98.1758 47.849V46.9837ZM100.277 43.3574C100.937 43.3574 101.5 43.6047 101.967 44.0992C102.461 44.5662 102.709 45.1293 102.709 45.7886V57.203C102.709 58.1645 102.585 58.8925 102.338 59.387C102.118 59.8815 101.706 60.2798 101.102 60.582C100.305 60.9116 99.0961 61.0902 97.4753 61.1177C97.4478 61.1177 97.4341 61.1177 97.4341 61.1177C96.9396 61.1177 96.4863 60.9529 96.0743 60.6232C95.6622 60.2935 95.36 59.8677 95.1677 59.3458C95.0029 58.9612 95.0303 58.604 95.2501 58.2744C95.4974 57.9447 95.827 57.7799 96.2391 57.7799C96.8984 57.7799 97.3379 57.7662 97.5577 57.7387C97.805 57.7112 97.9698 57.6563 98.0522 57.5739C98.1346 57.5189 98.1758 57.3816 98.1758 57.1618V55.5135C98.1758 55.3212 98.0659 55.2251 97.8462 55.2251H91.6239C91.4041 55.2251 91.2942 55.3212 91.2942 55.5135V58.9749C91.2942 59.5793 91.0745 60.0875 90.6349 60.4996C90.2229 60.9391 89.7146 61.1589 89.1103 61.1589C88.5059 61.1589 87.9839 60.9391 87.5444 60.4996C87.1323 60.0875 86.9263 59.5793 86.9263 58.9749V45.7886C86.9263 45.1293 87.1598 44.5662 87.6268 44.0992C88.0938 43.6047 88.6707 43.3574 89.3575 43.3574H100.277ZM97.1044 35.7341C97.1319 35.6517 97.1182 35.583 97.0632 35.5281C97.0358 35.4457 96.9808 35.4045 96.8984 35.4045H92.242C92.1596 35.4045 92.0909 35.4457 92.036 35.5281C92.0085 35.583 92.0085 35.638 92.036 35.6929C92.3931 36.572 92.6541 37.3687 92.8189 38.0829C92.8464 38.2752 92.9563 38.3714 93.1486 38.3714H95.9094C96.1292 38.3714 96.2666 38.2752 96.3215 38.0829C96.6512 37.2313 96.9121 36.4484 97.1044 35.7341ZM101.143 35.4045V35.4457C101.28 35.4731 101.376 35.5556 101.431 35.6929C101.514 35.8028 101.527 35.9264 101.472 36.0638C101.115 36.9978 100.827 37.6709 100.607 38.0829C100.58 38.1653 100.58 38.234 100.607 38.289C100.662 38.3439 100.731 38.3714 100.813 38.3714H102.667C103.134 38.3714 103.546 38.5499 103.904 38.9071C104.261 39.2367 104.439 39.6488 104.439 40.1433C104.439 40.6378 104.261 41.0636 103.904 41.4207C103.546 41.7504 103.134 41.9152 102.667 41.9152H86.3494C85.8549 41.9152 85.4291 41.7504 85.072 41.4207C84.7423 41.0636 84.5775 40.6378 84.5775 40.1433C84.5775 39.6488 84.7423 39.2367 85.072 38.9071C85.4291 38.5499 85.8549 38.3714 86.3494 38.3714H88.3273C88.5471 38.3714 88.6295 38.2752 88.5746 38.0829C88.4372 37.4236 88.2312 36.7094 87.9565 35.9402C87.9015 35.8303 87.9015 35.7204 87.9565 35.6105C88.0389 35.5006 88.135 35.4457 88.2449 35.4457V35.4045H87.0911C86.6241 35.4045 86.2258 35.2396 85.8961 34.91C85.5665 34.5803 85.4016 34.1957 85.4016 33.7562C85.4016 33.2892 85.5665 32.8908 85.8961 32.5612C86.2258 32.2315 86.6241 32.0667 87.0911 32.0667H92.3244C92.4892 32.0667 92.5717 31.9843 92.5717 31.8195C92.5717 31.27 92.7502 30.803 93.1073 30.4184C93.4919 30.0338 93.959 29.8415 94.5084 29.8415H94.9205C95.4699 29.8415 95.9232 30.0338 96.2803 30.4184C96.6649 30.803 96.8572 31.27 96.8572 31.8195C96.8572 31.9843 96.9396 32.0667 97.1044 32.0667H102.214C102.681 32.0667 103.079 32.2315 103.409 32.5612C103.739 32.8908 103.904 33.2892 103.904 33.7562C103.904 34.1957 103.739 34.5803 103.409 34.91C103.079 35.2396 102.681 35.4045 102.214 35.4045H101.143ZM111.98 57.2442H117.584C118.106 57.2442 118.491 57.1481 118.738 56.9558C118.985 56.7635 119.164 56.3789 119.274 55.802C119.301 55.6097 119.205 55.5135 118.985 55.5135H110.126C109.906 55.5135 109.81 55.6097 109.837 55.802C109.837 56.4338 109.961 56.8321 110.208 56.997C110.483 57.1618 111.074 57.2442 111.98 57.2442ZM118.903 52.9999C119.425 52.9999 119.864 53.1922 120.222 53.5768C120.606 53.9339 120.798 54.3735 120.798 54.8954C120.798 55.0602 120.867 55.1701 121.005 55.2251C121.005 55.2251 121.032 55.2251 121.087 55.2251C121.746 55.4998 122.268 55.9118 122.653 56.4613C122.873 56.8459 122.982 57.2167 122.982 57.5739C122.982 57.7936 122.941 58.0271 122.859 58.2744C122.529 59.2634 121.993 59.9501 121.252 60.3347C120.51 60.7468 119.439 60.9529 118.038 60.9529H111.321C108.986 60.9529 107.392 60.582 106.541 59.8403C105.689 59.126 105.263 57.725 105.263 55.6371V43.6459C105.263 42.9591 105.497 42.3822 105.964 41.9152C106.458 41.4482 107.035 41.2147 107.695 41.2147H116.101C116.293 41.2147 116.389 41.1048 116.389 40.885V39.8548C116.389 39.6625 116.293 39.5664 116.101 39.5664H107.695C107.035 39.5664 106.458 39.3329 105.964 38.8659C105.497 38.3714 105.263 37.7945 105.263 37.1352V32.1079C105.263 31.4761 105.483 30.9404 105.923 30.5008C106.362 30.0338 106.898 29.8003 107.53 29.8003H107.818C108.368 29.8003 108.835 30.0063 109.219 30.4184C109.631 30.803 109.837 31.27 109.837 31.8195C109.837 32.0118 109.92 32.1079 110.085 32.1079H119.851C120.29 32.1079 120.661 32.259 120.963 32.5612C121.266 32.8634 121.417 33.2342 121.417 33.6738C121.417 34.0858 121.266 34.443 120.963 34.7452C120.661 35.0473 120.29 35.1984 119.851 35.1984H110.126C109.934 35.1984 109.837 35.3083 109.837 35.5281V36.311C109.837 36.5033 109.934 36.5995 110.126 36.5995H118.615C119.274 36.5995 119.837 36.8467 120.304 37.3412C120.798 37.8082 121.046 38.3714 121.046 39.0307V41.7091C121.046 42.3959 120.798 42.9728 120.304 43.4398C119.837 43.9069 119.274 44.1404 118.615 44.1404H110.126C109.934 44.1404 109.837 44.2502 109.837 44.47V45.1293C109.837 45.3216 109.934 45.4178 110.126 45.4178H118.738C119.068 45.4178 119.356 45.5414 119.603 45.7886C119.851 46.0359 119.974 46.3381 119.974 46.6952C119.974 47.0523 119.851 47.3545 119.603 47.6018C119.356 47.849 119.068 47.9726 118.738 47.9726H110.126C109.934 47.9726 109.837 48.0688 109.837 48.2611V48.9204C109.837 49.1127 109.934 49.2088 110.126 49.2088H118.573C118.903 49.2088 119.191 49.3325 119.439 49.5797C119.686 49.8269 119.81 50.1291 119.81 50.4863C119.81 50.8434 119.686 51.1456 119.439 51.3928C119.191 51.6401 118.903 51.7637 118.573 51.7637H110.126C109.934 51.7637 109.837 51.8598 109.837 52.0521V52.7114C109.837 52.9037 109.934 52.9999 110.126 52.9999H118.903Z" fill="#FFB423"/>
<path d="M139.671 40.9674C139.864 40.9125 140.056 40.885 140.248 40.885C140.605 40.885 140.962 40.9949 141.32 41.2147C141.814 41.5443 142.103 41.9976 142.185 42.5745C142.212 42.7119 142.226 42.8492 142.226 42.9866C142.226 43.4536 142.089 43.9069 141.814 44.3464C141.457 44.8684 140.976 45.2255 140.372 45.4178C139.218 45.8024 138.518 46.0222 138.27 46.0771C138.078 46.1595 137.982 46.2969 137.982 46.4892V58.8925C137.982 59.5243 137.748 60.06 137.281 60.4996C136.842 60.9666 136.306 61.2001 135.674 61.2001C135.042 61.2001 134.493 60.9666 134.026 60.4996C133.586 60.06 133.367 59.5243 133.367 58.8925V47.8902C133.367 47.8078 133.339 47.7529 133.284 47.7254C133.229 47.6704 133.161 47.643 133.078 47.643C132.694 47.7803 132.089 47.9726 131.265 48.2199C130.441 48.4671 129.809 48.6457 129.37 48.7556C129.15 48.838 128.93 48.8792 128.71 48.8792C128.298 48.8792 127.914 48.7693 127.556 48.5495C126.98 48.2199 126.609 47.7254 126.444 47.0661L126.403 47.0249C126.348 46.8051 126.32 46.5991 126.32 46.4068C126.32 45.9947 126.444 45.5963 126.691 45.2117C127.048 44.6348 127.543 44.264 128.175 44.0992C129.576 43.7695 131.21 43.3437 133.078 42.8217C133.271 42.7668 133.367 42.6294 133.367 42.4097V34.9924C133.367 34.7726 133.257 34.6627 133.037 34.6627H130.853C130.633 34.6627 130.51 34.7589 130.482 34.9512C130.207 36.105 129.933 37.1352 129.658 38.0417C129.521 38.5637 129.191 38.8933 128.669 39.0307C128.477 39.1131 128.298 39.1543 128.133 39.1543C127.831 39.1543 127.529 39.0582 127.227 38.8659C126.732 38.5362 126.375 38.0829 126.155 37.506C126.046 37.1764 125.991 36.8467 125.991 36.5171C125.991 36.2698 126.032 36.0088 126.114 35.7341C126.774 33.3166 127.282 30.1574 127.639 26.2565C127.694 25.7071 127.955 25.2538 128.422 24.8967C128.779 24.6219 129.164 24.4846 129.576 24.4846C129.685 24.4846 129.809 24.4983 129.946 24.5258C130.523 24.6082 130.99 24.8967 131.348 25.3911C131.65 25.7757 131.801 26.2153 131.801 26.7098C131.801 26.7922 131.801 26.8883 131.801 26.9982C131.691 27.8224 131.567 28.6877 131.43 29.5943C131.402 29.7866 131.485 29.8827 131.677 29.8827H133.037C133.257 29.8827 133.367 29.7866 133.367 29.5943V24.1137C133.367 23.4544 133.586 22.905 134.026 22.4654C134.493 22.0259 135.042 21.8061 135.674 21.8061C136.306 21.8061 136.842 22.0259 137.281 22.4654C137.748 22.905 137.982 23.4544 137.982 24.1137V29.5943C137.982 29.7866 138.078 29.8827 138.27 29.8827H139.094C139.754 29.8827 140.317 30.1162 140.784 30.5832C141.251 31.0503 141.484 31.6134 141.484 32.2727C141.484 32.932 141.251 33.4952 140.784 33.9622C140.317 34.4292 139.754 34.6627 139.094 34.6627H138.27C138.078 34.6627 137.982 34.7726 137.982 34.9924V41.1322C137.982 41.2147 138.009 41.2833 138.064 41.3383C138.119 41.3932 138.188 41.407 138.27 41.3795L139.671 40.9674ZM149.437 27.9872C149.437 28.0696 149.451 28.1383 149.479 28.1932C149.534 28.2482 149.602 28.2756 149.685 28.2756H162.788C163.448 28.2756 164.011 28.5229 164.478 29.0174C164.918 29.4569 165.137 29.9926 165.137 30.6244C165.137 32.1903 164.931 36.2011 164.519 42.6569C164.327 45.8436 164.107 48.5495 163.86 50.7747C163.613 52.9724 163.338 54.6619 163.036 55.8432C162.734 56.997 162.376 57.8486 161.964 58.398C161.497 59.0573 161.017 59.5381 160.522 59.8403C160.028 60.1699 159.41 60.4172 158.668 60.582C158.091 60.6919 157.322 60.7468 156.36 60.7468C156.333 60.7468 156.319 60.7468 156.319 60.7468C155.66 60.7468 155.069 60.5133 154.547 60.0463C154.025 59.5793 153.668 59.0024 153.476 58.3156C153.448 58.2332 153.421 58.1508 153.393 58.0684C153.366 57.9035 153.352 57.7387 153.352 57.5739C153.352 57.2167 153.448 56.8871 153.641 56.5849C153.97 56.1728 154.396 55.9668 154.918 55.9668C154.918 55.9668 154.932 55.9668 154.959 55.9668C155.316 55.9668 155.756 55.9668 156.278 55.9668C156.882 55.9668 157.404 55.7058 157.844 55.1839C158.393 54.4696 158.86 52.4367 159.245 49.0852C159.629 45.7062 159.986 40.3631 160.316 33.0557C160.316 32.9732 160.275 32.932 160.192 32.932C160.138 32.932 160.11 32.9595 160.11 33.0145C159.094 38.2065 157.624 43.0552 155.701 47.5606C153.778 52.0384 151.443 55.6783 148.696 58.4804C148.229 58.9749 147.638 59.2222 146.924 59.2222C146.21 59.2222 145.578 59.0161 145.028 58.604C144.973 58.5766 144.932 58.5491 144.905 58.5216C144.383 58.1645 144.122 57.6563 144.122 56.997C144.122 56.5025 144.314 56.0767 144.699 55.7196C147.363 53.2746 149.63 50.0879 151.498 46.1595C153.366 42.2311 154.808 37.9181 155.825 33.2205C155.879 33.0282 155.797 32.932 155.577 32.932H154.217C154.025 32.932 153.902 33.0282 153.847 33.2205C152.995 36.2973 151.869 39.3054 150.468 42.2448C149.094 45.1843 147.569 47.6567 145.894 49.6621C145.482 50.1566 144.932 50.4176 144.245 50.445C144.19 50.445 144.149 50.445 144.122 50.445C143.49 50.445 142.927 50.2527 142.432 49.8681C141.91 49.4835 141.649 48.9616 141.649 48.3023C141.649 47.7803 141.828 47.3408 142.185 46.9837C143.751 45.3354 145.179 43.3025 146.47 40.885C147.762 38.4675 148.819 35.9127 149.643 33.2205C149.671 33.1655 149.657 33.1106 149.602 33.0557C149.575 32.9732 149.52 32.932 149.437 32.932H147.913C147.693 32.932 147.542 33.0282 147.459 33.2205C146.608 35.2259 145.66 37.0115 144.616 38.5774C144.287 39.0994 143.792 39.4016 143.133 39.484C143.05 39.484 142.954 39.484 142.844 39.484C142.322 39.484 141.842 39.3191 141.402 38.9895C140.908 38.6324 140.605 38.1379 140.495 37.506C140.495 37.3687 140.495 37.245 140.495 37.1352C140.495 36.6407 140.633 36.2011 140.908 35.8165C142.995 32.7947 144.644 28.8663 145.852 24.0313C146.017 23.3995 146.361 22.905 146.883 22.5479C147.295 22.2731 147.734 22.1358 148.201 22.1358C148.339 22.1358 148.49 22.1495 148.654 22.177C149.259 22.2869 149.74 22.6028 150.097 23.1248C150.344 23.5094 150.468 23.894 150.468 24.2786C150.468 24.4709 150.44 24.6632 150.385 24.8555C150.11 25.817 149.795 26.8609 149.437 27.9872Z" fill="#FFB423"/>
<path d="M206.839 29.5119C207.306 29.9789 207.539 30.542 207.539 31.2013C207.539 31.8607 207.306 32.4238 206.839 32.8908C206.372 33.3578 205.809 33.5914 205.149 33.5914H193.694C193.474 33.5914 193.364 33.7012 193.364 33.921V38.3714C193.364 38.5637 193.474 38.6598 193.694 38.6598H203.13C203.79 38.6598 204.353 38.9071 204.82 39.4016C205.259 39.8411 205.479 40.3631 205.479 40.9674C205.479 45.0057 205.177 49.3187 204.572 53.9064C204.243 56.4888 203.748 58.192 203.089 59.0161C202.595 59.6205 202.073 60.06 201.523 60.3347C200.974 60.6095 200.287 60.8018 199.463 60.9116C198.749 60.9941 197.732 61.0353 196.413 61.0353C196.331 61.0353 196.235 61.0353 196.125 61.0353C195.466 61.0353 194.861 60.8018 194.312 60.3347C193.79 59.8952 193.419 59.3183 193.199 58.604C193.172 58.4942 193.144 58.3705 193.117 58.2332C193.034 58.0409 192.993 57.8623 192.993 57.6975C192.993 57.3953 193.089 57.1069 193.282 56.8321C193.556 56.3926 193.941 56.1728 194.436 56.1728C194.463 56.1728 194.477 56.1728 194.477 56.1728C195.246 56.2003 196.125 56.214 197.114 56.214C197.856 56.214 198.391 56.0355 198.721 55.6783C199.133 55.2937 199.463 54.1812 199.71 52.3406C199.957 50.4725 200.177 47.5606 200.369 43.6047C200.369 43.4124 200.273 43.3162 200.081 43.3162H193.529C193.309 43.3162 193.186 43.4124 193.158 43.6047C192.389 50.5275 189.353 55.9531 184.051 59.8815C183.557 60.2111 183.049 60.3759 182.527 60.3759C182.417 60.3759 182.293 60.3622 182.156 60.3347C181.497 60.2523 180.892 59.9639 180.343 59.4694C180.26 59.4145 180.178 59.3458 180.095 59.2634C179.683 58.8788 179.477 58.4117 179.477 57.8623C179.477 57.2305 179.725 56.7223 180.219 56.3377C181.922 55.074 183.337 53.7141 184.463 52.2582C185.59 50.8022 186.414 49.305 186.936 47.7666C187.485 46.2282 187.856 44.8272 188.048 43.5635C188.241 42.2723 188.337 40.8987 188.337 39.4428V33.921C188.337 33.7012 188.241 33.5914 188.048 33.5914H182.65C182.458 33.5914 182.362 33.7012 182.362 33.921V34.1683C182.362 34.855 182.115 35.4319 181.62 35.899C181.153 36.366 180.59 36.5995 179.931 36.5995H178.612C178.42 36.5995 178.324 36.7094 178.324 36.9291V46.2007C178.324 46.2831 178.351 46.3518 178.406 46.4068C178.461 46.4342 178.53 46.4342 178.612 46.4068C179.024 46.2694 179.615 46.0634 180.384 45.7886C180.631 45.6788 180.878 45.6238 181.126 45.6238C181.455 45.6238 181.785 45.72 182.115 45.9123C182.664 46.2145 183.007 46.6815 183.145 47.3133C183.172 47.5331 183.186 47.7391 183.186 47.9314C183.186 48.3984 183.076 48.838 182.856 49.25C182.527 49.8819 182.032 50.3214 181.373 50.5687C177.884 51.9148 174.67 53.1372 171.73 54.2361C171.456 54.346 171.195 54.4009 170.947 54.4009C170.59 54.4009 170.247 54.3185 169.917 54.1537C169.34 53.8515 168.97 53.3845 168.805 52.7526L168.681 52.2994C168.599 52.0521 168.557 51.8186 168.557 51.5988C168.557 51.1868 168.667 50.7884 168.887 50.4038C169.217 49.8269 169.698 49.4286 170.329 49.2088C171.236 48.9067 172.17 48.6045 173.131 48.3023C173.324 48.2473 173.42 48.11 173.42 47.8902V36.9291C173.42 36.7094 173.31 36.5995 173.09 36.5995H171.154C170.522 36.5995 169.972 36.3797 169.505 35.9402C169.038 35.4731 168.805 34.91 168.805 34.2507C168.805 33.5914 169.038 33.0282 169.505 32.5612C169.972 32.0942 170.522 31.8607 171.154 31.8607H173.09C173.31 31.8607 173.42 31.7645 173.42 31.5722V24.9791C173.42 24.3198 173.653 23.7566 174.12 23.2896C174.587 22.7951 175.164 22.5479 175.851 22.5479H175.892C176.552 22.5479 177.115 22.7951 177.582 23.2896C178.076 23.7566 178.324 24.3198 178.324 24.9791V31.5722C178.324 31.7645 178.42 31.8607 178.612 31.8607H181.29C181.483 31.8607 181.579 31.7645 181.579 31.5722V31.2426C181.579 30.5558 181.812 29.9789 182.279 29.5119C182.774 29.0448 183.351 28.8113 184.01 28.8113H191.592C191.785 28.8113 191.881 28.7014 191.881 28.4817V24.1961C191.881 23.5094 192.114 22.9325 192.581 22.4654C193.076 21.9984 193.653 21.7649 194.312 21.7649H194.436C195.122 21.7649 195.699 21.9984 196.166 22.4654C196.633 22.9325 196.867 23.5094 196.867 24.1961V28.4817C196.867 28.7014 196.977 28.8113 197.196 28.8113H205.149C205.809 28.8113 206.372 29.0448 206.839 29.5119Z" fill="#FFB423"/>
<path d="M231.769 41.0498C231.769 40.8301 231.659 40.7202 231.439 40.7202H228.761C228.541 40.7202 228.431 40.8301 228.431 41.0498V41.5855C228.431 44.7173 228.239 47.4919 227.854 49.9094C227.827 50.1291 227.909 50.2527 228.102 50.2802C228.706 50.3352 229.379 50.3626 230.121 50.3626C230.56 50.3626 230.918 50.1978 231.192 49.8681C231.494 49.3187 231.687 46.3793 231.769 41.0498ZM244.172 38.5362C244.337 37.9044 244.694 37.4236 245.244 37.094C245.628 36.8192 246.054 36.6819 246.521 36.6819C246.659 36.6819 246.81 36.6956 246.975 36.7231C247.579 36.833 248.06 37.1489 248.417 37.6709C248.637 38.028 248.746 38.3988 248.746 38.7834C248.746 38.9757 248.719 39.168 248.664 39.3603C247.345 44.0854 245.67 48.0825 243.637 51.3516C243.527 51.5439 243.486 51.7362 243.513 51.9285C244.2 54.6482 244.928 56.008 245.697 56.008C246.192 56.008 246.521 54.6482 246.686 51.9285C246.714 51.5164 246.92 51.228 247.304 51.0632C247.716 50.8983 248.087 50.9533 248.417 51.228C249.516 52.0521 250.065 52.9999 250.065 54.0713C250.065 54.2086 250.051 54.3597 250.024 54.5245C249.667 56.8321 249.117 58.4255 248.376 59.3046C247.661 60.2111 246.576 60.6644 245.12 60.6644C243.225 60.6644 241.631 59.1947 240.34 56.2552C240.258 56.0629 240.148 56.0492 240.011 56.214C238.884 57.5052 237.634 58.6865 236.261 59.7578C235.794 60.115 235.285 60.2935 234.736 60.2935C234.626 60.2935 234.516 60.2935 234.406 60.2935C233.747 60.2111 233.156 59.9227 232.634 59.4282C232.25 59.0711 232.058 58.6178 232.058 58.0684C232.058 57.4365 232.305 56.9283 232.799 56.5437C234.942 55.0053 236.824 53.151 238.445 50.9807C238.582 50.8159 238.623 50.6373 238.568 50.445C237.634 45.9397 237.002 39.9372 236.673 32.4376C236.673 32.2453 236.563 32.1491 236.343 32.1491H228.761C228.541 32.1491 228.431 32.2453 228.431 32.4376V36.3934C228.431 36.5857 228.541 36.6819 228.761 36.6819H233.5C234.187 36.6819 234.75 36.9291 235.189 37.4236C235.656 37.8906 235.89 38.4401 235.89 39.0719C235.89 42.9179 235.78 46.2282 235.56 49.0028C235.423 50.9258 235.162 52.1483 234.777 52.6702C234.173 53.4944 233.39 53.9889 232.428 54.1537C232.126 54.2086 231.728 54.2636 231.233 54.3185C231.178 54.3185 231.124 54.3185 231.069 54.3185C230.464 54.3185 229.929 54.0987 229.462 53.6592C228.94 53.2197 228.582 52.6428 228.39 51.9285C228.253 51.434 228.088 51.0082 227.896 50.6511C227.868 50.5961 227.827 50.5824 227.772 50.6099C227.745 50.6099 227.717 50.6236 227.69 50.6511C227.415 52.3268 227.017 53.9064 226.495 55.3899C225.973 56.8733 225.313 58.2194 224.517 59.4282C224.16 59.9501 223.665 60.2249 223.033 60.2523C222.978 60.2523 222.937 60.2523 222.91 60.2523C222.305 60.2523 221.77 60.0463 221.303 59.6342C220.836 59.2222 220.547 58.7002 220.437 58.0684C220.437 57.931 220.437 57.7936 220.437 57.6563C220.437 57.1893 220.561 56.736 220.808 56.2965C221.632 54.9778 222.264 53.5218 222.704 51.9285C222.731 51.8736 222.717 51.8324 222.662 51.8049C222.607 51.7499 222.552 51.7225 222.498 51.7225C221.426 52.162 219.915 52.7938 217.965 53.618C216.014 54.4147 214.737 54.9366 214.133 55.1839C213.858 55.2937 213.569 55.3487 213.267 55.3487C212.965 55.3487 212.663 55.28 212.361 55.1427C211.756 54.8679 211.358 54.4147 211.166 53.7828L211.042 53.412C210.96 53.1647 210.918 52.9175 210.918 52.6702C210.918 52.2856 211.015 51.9148 211.207 51.5576C211.509 50.9807 211.976 50.5824 212.608 50.3626C212.91 50.2802 213.501 50.0879 214.38 49.7857C214.572 49.7308 214.668 49.5934 214.668 49.3737V36.7231C214.668 36.5033 214.572 36.3934 214.38 36.3934H213.308C212.677 36.3934 212.127 36.1737 211.66 35.7341C211.221 35.2671 211.001 34.7177 211.001 34.0858C211.001 33.4265 211.221 32.8771 211.66 32.4376C212.127 31.9705 212.677 31.737 213.308 31.737H214.38C214.572 31.737 214.668 31.6409 214.668 31.4486V24.6082C214.668 23.9764 214.888 23.4407 215.328 23.0011C215.795 22.5341 216.344 22.3006 216.976 22.3006C217.635 22.3006 218.185 22.5341 218.624 23.0011C219.091 23.4407 219.325 23.9764 219.325 24.6082V31.4486C219.325 31.6409 219.421 31.737 219.613 31.737H220.272C220.932 31.737 221.481 31.9705 221.921 32.4376C222.388 32.8771 222.621 33.4265 222.621 34.0858C222.621 34.7177 222.388 35.2671 221.921 35.7341C221.481 36.1737 220.932 36.3934 220.272 36.3934H219.613C219.421 36.3934 219.325 36.5033 219.325 36.7231V47.7254C219.325 47.8078 219.352 47.8765 219.407 47.9314C219.462 47.9589 219.531 47.9589 219.613 47.9314L220.272 47.6842C220.52 47.6018 220.753 47.5606 220.973 47.5606C221.33 47.5606 221.673 47.6567 222.003 47.849C222.552 48.1787 222.896 48.6594 223.033 49.2912L223.116 49.6621C223.116 49.7171 223.129 49.7445 223.157 49.7445C223.184 49.7445 223.212 49.7171 223.239 49.6621C223.624 47.5743 223.816 44.8821 223.816 41.5855V30.0063C223.816 29.347 224.05 28.7839 224.517 28.3169C225.011 27.8224 225.588 27.5751 226.247 27.5751H236.219C236.439 27.5751 236.549 27.479 236.549 27.2867C236.494 25.3911 236.467 24.306 236.467 24.0313C236.467 23.3995 236.687 22.85 237.126 22.383C237.593 21.9435 238.156 21.7237 238.816 21.7237C239.475 21.7237 240.024 21.9572 240.464 22.4242C240.931 22.8638 241.164 23.4132 241.164 24.0725V24.6494C241.164 25.5285 241.164 26.4076 241.164 27.2867C241.164 27.479 241.274 27.5751 241.494 27.5751H244.172C244.227 27.5751 244.269 27.5477 244.296 27.4927C244.324 27.4378 244.324 27.3828 244.296 27.3279C243.802 26.5862 243.225 25.8307 242.565 25.0615C242.318 24.7318 242.195 24.3747 242.195 23.9901C242.195 23.8802 242.195 23.7841 242.195 23.7017C242.277 23.2072 242.538 22.8226 242.977 22.5479C243.39 22.3006 243.815 22.177 244.255 22.177C244.365 22.177 244.475 22.1907 244.585 22.2182C245.189 22.2731 245.683 22.5204 246.068 22.9599C246.7 23.6467 247.263 24.306 247.757 24.9379C247.977 25.2401 248.087 25.556 248.087 25.8856C248.087 26.023 248.073 26.1603 248.046 26.2977C247.936 26.7922 247.648 27.1768 247.181 27.4515C247.181 27.4515 247.181 27.479 247.181 27.5339C247.208 27.5614 247.222 27.5751 247.222 27.5751H247.263C247.84 27.5751 248.321 27.7812 248.705 28.1932C249.117 28.5778 249.323 29.0586 249.323 29.6355V29.8415C249.323 30.4734 249.104 31.0228 248.664 31.4898C248.224 31.9293 247.689 32.1491 247.057 32.1491H241.576C241.357 32.1491 241.26 32.2453 241.288 32.4376C241.508 37.1077 241.81 40.9674 242.195 44.0167C242.195 44.0717 242.208 44.0992 242.236 44.0992C242.291 44.0992 242.332 44.0854 242.359 44.058C243.046 42.4097 243.65 40.5691 244.172 38.5362Z" fill="#FFB423"/>
<path d="M291.602 29.5119C291.602 30.1986 291.355 30.7755 290.86 31.2426C290.393 31.7096 289.83 31.9431 289.171 31.9431H275.078C274.858 31.9431 274.748 32.053 274.748 32.2727V36.0638C274.748 36.2836 274.858 36.3934 275.078 36.3934H285.627C286.286 36.3934 286.849 36.6407 287.316 37.1352C287.811 37.6022 288.058 38.1653 288.058 38.8247V50.6511C288.058 51.9148 287.893 52.9037 287.563 53.618C287.234 54.3322 286.657 54.8817 285.833 55.2663C284.706 55.7333 283.017 56.008 280.764 56.0904C280.737 56.0904 280.709 56.0904 280.682 56.0904C280.05 56.0904 279.459 55.8706 278.91 55.4311C278.361 54.9916 277.976 54.4284 277.756 53.7416C277.701 53.6317 277.66 53.5218 277.633 53.412C277.55 53.1922 277.509 52.9861 277.509 52.7938C277.509 52.4917 277.605 52.1895 277.797 51.8873C278.1 51.4478 278.525 51.228 279.075 51.228C279.954 51.228 280.902 51.228 281.918 51.228C282.522 51.228 282.825 51.0082 282.825 50.5687V41.5855C282.825 41.3932 282.729 41.2971 282.536 41.2971H275.078C274.858 41.2971 274.748 41.3932 274.748 41.5855V58.7689C274.748 59.4557 274.515 60.0326 274.048 60.4996C273.581 60.9666 273.004 61.2001 272.317 61.2001H271.946C271.287 61.2001 270.71 60.9666 270.215 60.4996C269.748 60.0326 269.515 59.4557 269.515 58.7689V41.5855C269.515 41.3932 269.419 41.2971 269.226 41.2971H262.468C262.249 41.2971 262.139 41.3932 262.139 41.5855V53.6592C262.139 54.346 261.905 54.9229 261.438 55.3899C260.971 55.8569 260.394 56.0904 259.708 56.0904H259.501C258.842 56.0904 258.265 55.8569 257.771 55.3899C257.304 54.9229 257.07 54.346 257.07 53.6592V38.8247C257.07 38.1653 257.304 37.6022 257.771 37.1352C258.265 36.6407 258.842 36.3934 259.501 36.3934H269.226C269.419 36.3934 269.515 36.2836 269.515 36.0638V32.2727C269.515 32.053 269.419 31.9431 269.226 31.9431H255.546C254.886 31.9431 254.309 31.7096 253.815 31.2426C253.348 30.7755 253.114 30.1986 253.114 29.5119C253.114 28.8251 253.348 28.2482 253.815 27.7812C254.309 27.3141 254.886 27.0806 255.546 27.0806H269.185C269.377 27.0806 269.474 26.9708 269.474 26.751V24.0313C269.474 23.3445 269.707 22.7676 270.174 22.3006C270.669 21.8336 271.245 21.6001 271.905 21.6001H272.399C273.086 21.6001 273.663 21.8336 274.13 22.3006C274.597 22.7676 274.831 23.3445 274.831 24.0313V26.751C274.831 26.9708 274.94 27.0806 275.16 27.0806H289.171C289.83 27.0806 290.393 27.3141 290.86 27.7812C291.355 28.2482 291.602 28.8251 291.602 29.5119Z" fill="#FFB423"/>
</svg>
