<svg width="806" height="406" viewBox="0 0 806 406" fill="none" xmlns="http://www.w3.org/2000/svg">
<path d="M668.012 341.462C659.818 346.072 644.682 351.577 632.15 339.292C619.258 326.665 610.02 326.904 605.72 328.122C605.06 327.989 604.375 328.071 603.765 328.355C603.154 328.639 602.649 329.111 602.323 329.702L575.216 379.221C574.163 381.143 572.616 382.746 570.736 383.862C568.856 384.979 566.712 385.568 564.528 385.567H476.167C475.329 385.567 474.525 385.901 473.933 386.497C473.341 387.092 473.008 387.899 473.008 388.74C473.008 389.582 473.341 390.389 473.933 390.984C474.525 391.579 475.329 391.913 476.167 391.913H564.528C567.843 391.914 571.098 391.02 573.952 389.325C576.807 387.63 579.155 385.196 580.753 382.278L596.631 353.273C602.542 354.031 610.607 356.725 618.175 364.146C632.711 378.392 649.827 370.336 656.099 366.535C657.634 365.609 658.904 364.299 659.786 362.734L670.404 343.864C670.594 343.529 670.669 343.14 670.618 342.757C670.567 342.375 670.392 342.019 670.12 341.746C669.848 341.473 669.495 341.298 669.114 341.246C668.733 341.195 668.346 341.27 668.012 341.462Z" fill="#FFE5B3"/>
<path d="M229.403 284.166C229.309 283.97 229.176 283.795 229.012 283.652C228.849 283.51 228.658 283.402 228.451 283.337C228.244 283.271 228.027 283.249 227.811 283.271C227.596 283.294 227.387 283.36 227.198 283.466C226.947 283.609 224.213 285.292 212.429 291.159L206.982 293.834C181.261 306.28 143.311 322.081 127.859 315.553C127.557 315.425 127.223 315.394 126.903 315.465C126.583 315.535 126.293 315.704 126.073 315.948C126.022 316.006 120.465 322.055 108.365 327.708C97.1867 332.934 77.9764 338.885 49.9409 337.557C49.707 337.546 49.4735 337.587 49.2574 337.677C49.0412 337.768 48.8477 337.905 48.691 338.08C48.5343 338.255 48.4182 338.463 48.3512 338.688C48.2842 338.913 48.2679 339.151 48.3036 339.383C48.3684 339.752 48.5576 340.087 48.8393 340.332C49.121 340.578 49.4781 340.718 49.8507 340.73C52.3519 340.847 54.7758 340.905 57.1416 340.918L58.2762 348.572C58.3295 348.948 58.4981 349.297 58.7585 349.571C59.0189 349.845 59.358 350.031 59.7286 350.102C60.0992 350.174 60.4827 350.127 60.8256 349.969C61.1685 349.811 61.4536 349.549 61.6412 349.22L66.5211 340.691C69.9635 340.497 73.2447 340.193 76.3584 339.804L78.1311 346.435C78.2283 346.796 78.4333 347.117 78.7184 347.356C79.0036 347.595 79.355 347.741 79.7251 347.772C80.0952 347.804 80.466 347.721 80.7874 347.534C81.1089 347.347 81.3653 347.065 81.5219 346.727L85.3898 338.347C88.007 337.829 90.4824 337.253 92.8161 336.638L94.2923 342.155C94.3894 342.515 94.5945 342.837 94.8796 343.076C95.1647 343.315 95.5161 343.46 95.8862 343.492C96.2563 343.524 96.6272 343.441 96.9486 343.253C97.27 343.066 97.5264 342.785 97.6831 342.446L101.654 333.892C104.587 332.837 107.204 331.749 109.499 330.654L110.531 334.501C110.627 334.861 110.832 335.183 111.116 335.423C111.401 335.663 111.752 335.809 112.122 335.842C112.493 335.874 112.864 335.791 113.186 335.605C113.507 335.418 113.764 335.137 113.922 334.799L117.931 326.147C121.405 324.072 124.647 321.627 127.601 318.856C130.824 319.995 134.866 320.352 139.391 320.099L142.08 326.808C142.217 327.146 142.452 327.436 142.755 327.638C143.058 327.84 143.415 327.946 143.778 327.942C144.142 327.938 144.496 327.824 144.795 327.615C145.093 327.405 145.322 327.111 145.451 326.769L148.391 318.953C151.201 318.428 154.121 317.761 157.119 316.958L158.337 322.197C158.422 322.56 158.616 322.888 158.893 323.137C159.17 323.385 159.516 323.542 159.884 323.587C160.253 323.631 160.626 323.561 160.954 323.385C161.281 323.21 161.547 322.937 161.715 322.605L165.88 314.349C168.703 313.429 171.553 312.406 174.415 311.376L175.491 316.116C175.573 316.475 175.76 316.8 176.029 317.049C176.298 317.298 176.636 317.46 176.998 317.513C177.36 317.565 177.73 317.506 178.058 317.344C178.386 317.181 178.658 316.923 178.837 316.602L183.833 307.705C186.366 306.675 188.881 305.613 191.349 304.538L192.561 309.071C192.658 309.432 192.862 309.753 193.147 309.993C193.432 310.233 193.783 310.379 194.153 310.412C194.523 310.444 194.894 310.362 195.216 310.175C195.538 309.989 195.795 309.707 195.952 309.369L199.975 300.692C202.669 299.448 205.287 298.211 207.788 297L208.768 300.666C208.865 301.026 209.07 301.347 209.355 301.586C209.64 301.825 209.992 301.971 210.362 302.003C210.732 302.034 211.103 301.951 211.424 301.764C211.745 301.577 212.002 301.295 212.159 300.957L215.833 293.031C225.851 287.98 227.675 286.821 228.642 286.27C229.01 286.081 229.293 285.758 229.434 285.368C229.575 284.978 229.564 284.548 229.403 284.166Z" fill="#B9C850"/>
<path d="M306.152 261.326C305.85 261.2 305.517 261.171 305.199 261.243C304.88 261.315 304.591 261.484 304.373 261.728C304.315 261.786 298.758 267.834 286.664 273.487C275.486 278.713 256.269 284.664 228.234 283.337C228 283.325 227.767 283.366 227.55 283.457C227.334 283.547 227.141 283.685 226.984 283.86C226.827 284.034 226.711 284.242 226.644 284.468C226.577 284.693 226.561 284.93 226.597 285.163C226.662 285.533 226.852 285.869 227.135 286.114C227.418 286.359 227.776 286.499 228.15 286.51C230.651 286.626 233.075 286.685 235.441 286.691L236.55 294.184C236.609 294.568 236.786 294.924 237.056 295.203C237.325 295.482 237.675 295.671 238.055 295.742C238.436 295.813 238.829 295.763 239.181 295.6C239.533 295.437 239.825 295.168 240.018 294.831L244.814 286.445C248.263 286.251 251.538 285.947 254.651 285.558L256.385 292.034C256.485 292.406 256.696 292.738 256.99 292.986C257.285 293.233 257.647 293.384 258.03 293.417C258.412 293.45 258.795 293.364 259.127 293.171C259.459 292.978 259.724 292.687 259.886 292.338L263.702 284.101C266.326 283.583 268.801 283.007 271.128 282.391L273.178 288.576C273.302 288.944 273.536 289.265 273.848 289.494C274.161 289.724 274.536 289.85 274.923 289.855C275.31 289.861 275.689 289.746 276.008 289.526C276.327 289.306 276.571 288.992 276.705 288.627L279.966 279.678C282.906 278.623 285.517 277.535 287.818 276.44L288.804 280.138C288.904 280.51 289.115 280.842 289.409 281.09C289.704 281.337 290.066 281.488 290.449 281.521C290.831 281.554 291.214 281.469 291.546 281.276C291.878 281.083 292.143 280.792 292.305 280.442L296.25 271.933C299.724 269.856 302.966 267.409 305.92 264.635" fill="#B9C850"/>
<path d="M716.874 297.557C716.802 297.354 716.69 297.168 716.544 297.01C716.398 296.852 716.222 296.726 716.026 296.639C715.83 296.551 715.618 296.505 715.404 296.503C715.189 296.5 714.977 296.542 714.779 296.625C689.947 307.031 663.852 301.805 637.229 281.141C617.206 265.6 604.423 246.659 604.294 246.471C604.06 246.121 603.698 245.879 603.287 245.798C602.876 245.717 602.45 245.803 602.102 246.037C601.754 246.271 601.513 246.635 601.432 247.048C601.351 247.461 601.437 247.889 601.67 248.239C604.902 252.854 608.389 257.284 612.113 261.507L615.298 276.706C615.375 277.074 615.56 277.411 615.831 277.672C616.101 277.933 616.444 278.106 616.813 278.168C617.183 278.23 617.563 278.179 617.903 278.021C618.244 277.863 618.529 277.605 618.721 277.282L621.905 271.907C624.587 274.53 627.488 277.204 630.602 279.833L633.973 291.541C634.073 291.887 634.27 292.196 634.54 292.431C634.81 292.667 635.142 292.82 635.497 292.871C635.851 292.922 636.212 292.87 636.538 292.72C636.863 292.571 637.139 292.33 637.332 292.027L640.297 287.352C642.953 289.221 645.611 290.948 648.271 292.532L652.945 305.697C653.065 306.034 653.279 306.329 653.561 306.548C653.842 306.766 654.181 306.899 654.536 306.931C654.89 306.962 655.247 306.89 655.562 306.725C655.878 306.559 656.14 306.306 656.316 305.995L660.429 298.71C662.982 299.785 665.533 300.722 668.081 301.52L674.115 312.173C674.296 312.489 674.564 312.746 674.888 312.911C675.212 313.076 675.577 313.142 675.938 313.102C676.299 313.061 676.641 312.915 676.92 312.682C677.2 312.449 677.406 312.139 677.512 311.791L679.801 304.227C683.071 304.708 686.371 304.952 689.677 304.959H690.476L697.006 313.487C697.218 313.76 697.502 313.968 697.825 314.089C698.147 314.21 698.497 314.238 698.835 314.171C699.173 314.104 699.486 313.944 699.739 313.709C699.992 313.474 700.175 313.173 700.268 312.84L702.918 303.612C707.37 302.703 711.722 301.358 715.913 299.597C716.302 299.444 716.618 299.148 716.797 298.769C716.975 298.389 717.003 297.956 716.874 297.557Z" fill="#B9C850"/>
<path d="M49.6445 403V338.988" stroke="#242900" stroke-width="6" stroke-linecap="round" stroke-linejoin="round"/>
<path d="M127.246 317.01V401.964" stroke="#242900" stroke-width="6" stroke-linecap="round" stroke-linejoin="round"/>
<path d="M228.191 284.742V401.834" stroke="#242900" stroke-width="6" stroke-linecap="round" stroke-linejoin="round"/>
<path d="M715.566 297.842V403" stroke="#242900" stroke-width="6" stroke-linecap="round" stroke-linejoin="round"/>
<path d="M596.945 238.299L363.585 239.82C361.833 239.792 360.106 240.235 358.582 241.102C357.057 241.97 355.791 243.231 354.915 244.755L279.666 382.381L88.3492 382.511C88.3492 382.511 85.0551 401.789 112.607 402.993L525.178 402.456L605.738 250.602C608.8 244.858 604.069 238.234 596.945 238.299Z" fill="#6E7D00"/>
<path d="M303.633 381.837L500.661 380.989L561.618 261.656C563.984 257.085 560.858 251.483 555.971 251.535L376.903 253.717L303.633 381.837Z" fill="white"/>
<path d="M506.715 402.456L586.509 252.681C589.551 246.931 584.82 240.326 577.696 240.378" stroke="white" stroke-width="6" stroke-linecap="round" stroke-linejoin="round"/>
<path d="M314.168 299.377L335.763 339.286C335.996 339.691 336.355 340.007 336.785 340.186C337.215 340.365 337.692 340.396 338.142 340.275C338.591 340.154 338.988 339.887 339.272 339.517C339.555 339.146 339.709 338.691 339.709 338.224L338.265 320.092C338.265 320.092 350.893 363.77 368.221 364.858C385.549 365.946 402.213 318.881 402.213 318.881L397.662 338.606C397.662 339.073 397.816 339.528 398.099 339.899C398.382 340.269 398.78 340.536 399.229 340.657C399.679 340.778 400.155 340.747 400.585 340.568C401.015 340.389 401.374 340.073 401.607 339.668L424.685 299.37" fill="#B37600"/>
<path d="M287.158 145.14C287.158 145.14 235.67 215.206 242.291 277.89H355.935V143.689L287.158 145.14Z" fill="#FFB423"/>
<path d="M449.092 145.14C449.092 145.14 500.58 215.206 493.959 277.89H380.328V143.689L449.092 145.14Z" fill="#FFB423"/>
<path d="M414.501 277.89C458.144 199.075 453.393 136.514 440.648 93.6588C427.903 50.8031 397.986 3 369.544 3C341.102 3 311.191 50.7772 298.44 93.6588C285.689 136.54 280.293 199.075 323.936 277.89L311.733 304.285H426.782L414.534 277.897L414.501 277.89Z" fill="white" stroke="#332200" stroke-width="6" stroke-linecap="round" stroke-linejoin="round"/>
<path d="M369.546 165.118C387.507 165.118 402.068 147.722 402.068 126.264C402.068 104.805 387.507 87.41 369.546 87.41C351.584 87.41 337.023 104.805 337.023 126.264C337.023 147.722 351.584 165.118 369.546 165.118Z" fill="#FFE5B3"/>
<path d="M369.543 182.627C372.537 182.627 374.964 179.728 374.964 176.152C374.964 172.575 372.537 169.676 369.543 169.676C366.548 169.676 364.121 172.575 364.121 176.152C364.121 179.728 366.548 182.627 369.543 182.627Z" fill="#FFCB66"/>
<path d="M390.398 182.627C393.392 182.627 395.819 179.728 395.819 176.152C395.819 172.575 393.392 169.676 390.398 169.676C387.404 169.676 384.977 172.575 384.977 176.152C384.977 179.728 387.404 182.627 390.398 182.627Z" fill="#FFCB66"/>
<path d="M347.015 182.627C350.009 182.627 352.437 179.728 352.437 176.152C352.437 172.575 350.009 169.676 347.015 169.676C344.021 169.676 341.594 172.575 341.594 176.152C341.594 179.728 344.021 182.627 347.015 182.627Z" fill="#FFCB66"/>
<path d="M369.543 151.784C383.093 151.784 394.078 138.662 394.078 122.476C394.078 106.289 383.093 93.167 369.543 93.167C355.993 93.167 345.008 106.289 345.008 122.476C345.008 138.662 355.993 151.784 369.543 151.784Z" fill="white" stroke="#332200" stroke-width="6" stroke-linecap="round" stroke-linejoin="round"/>
<path d="M419.484 53.8531C402.541 47.9447 387.816 44.6246 369.892 44.0036C347.465 43.1424 334.433 48.1869 320.431 53.7171C314.426 64.8315 309.438 76.4707 305.527 88.4912C322.288 80.2866 338.82 71.6157 370.369 72.192C400.319 72.736 417.949 79.3541 433.601 86.3607C429.82 75.1427 425.098 64.2677 419.484 53.8531Z" fill="#FFCB66"/>
<path d="M408.765 277.586C410.841 273.839 412.809 270.126 414.67 266.448C404.788 262.407 394.618 259.085 369.426 259.325C343.943 259.111 333.716 262.563 323.859 266.655C325.703 270.281 327.648 273.951 329.693 277.664C329.693 277.664 348.062 273.286 369.426 273.467C390.428 273.247 408.765 277.586 408.765 277.586Z" fill="#FFCB66"/>
<path d="M531.676 380.989H430.325C430.325 380.989 415.737 367.843 422.435 357.094C429.133 346.344 446.744 343.76 452.449 354.607C452.449 354.607 454.938 333.82 476.179 335.42C497.419 337.019 495.75 359.244 495.75 359.244C495.75 359.244 522.638 340.121 521.922 369.993C521.942 369.993 523.637 380.963 531.676 380.989Z" fill="white" stroke="#313800" stroke-width="6" stroke-linecap="round" stroke-linejoin="round"/>
<path d="M209.043 381.157H310.387C310.387 381.157 324.982 368.018 318.277 357.262C311.573 346.506 293.974 343.929 288.263 354.775C288.263 354.775 285.781 333.995 264.54 335.588C243.299 337.181 244.962 359.412 244.962 359.412C244.962 359.412 218.081 340.296 218.796 370.168C218.796 370.168 217.075 381.131 209.043 381.157Z" fill="white" stroke="#313800" stroke-width="6" stroke-linecap="round" stroke-linejoin="round"/>
<path d="M3 403H803" stroke="#242900" stroke-width="6" stroke-linecap="round" stroke-linejoin="round"/>
</svg>
