<svg width="806" height="406" viewBox="0 0 806 406" fill="none" xmlns="http://www.w3.org/2000/svg">
<path d="M668.012 341.462C659.818 346.072 644.682 351.577 632.15 339.292C619.258 326.665 610.02 326.904 605.72 328.122C605.06 327.989 604.375 328.071 603.765 328.355C603.154 328.639 602.649 329.111 602.323 329.702L575.216 379.221C574.163 381.143 572.616 382.746 570.736 383.862C568.856 384.979 566.712 385.568 564.528 385.567H476.167C475.329 385.567 474.525 385.901 473.933 386.497C473.341 387.092 473.008 387.899 473.008 388.74C473.008 389.582 473.341 390.389 473.933 390.984C474.525 391.579 475.329 391.913 476.167 391.913H564.528C567.843 391.914 571.098 391.02 573.952 389.325C576.807 387.63 579.155 385.196 580.753 382.278L596.631 353.273C602.542 354.031 610.607 356.725 618.175 364.146C632.711 378.392 649.827 370.336 656.099 366.535C657.634 365.609 658.904 364.299 659.786 362.734L670.404 343.864C670.594 343.529 670.669 343.14 670.618 342.757C670.567 342.375 670.392 342.019 670.12 341.746C669.848 341.473 669.495 341.298 669.114 341.246C668.733 341.195 668.346 341.27 668.012 341.462Z" fill="#FFE5B3"/>
<path d="M257.118 284.166C257.024 283.97 256.891 283.795 256.727 283.652C256.563 283.51 256.372 283.402 256.166 283.337C255.959 283.271 255.741 283.249 255.526 283.271C255.31 283.294 255.102 283.36 254.913 283.466C254.661 283.609 251.928 285.292 240.144 291.159L234.697 293.834C208.976 306.28 171.026 322.081 155.574 315.553C155.272 315.425 154.938 315.394 154.618 315.465C154.298 315.535 154.008 315.704 153.788 315.948C153.736 316.006 148.18 322.055 136.08 327.708C124.902 332.934 105.691 338.885 77.6558 337.557C77.4219 337.546 77.1884 337.587 76.9722 337.677C76.756 337.768 76.5626 337.905 76.4059 338.08C76.2491 338.255 76.1331 338.463 76.066 338.688C75.999 338.913 75.9828 339.151 76.0184 339.383C76.0833 339.752 76.2725 340.087 76.5542 340.332C76.8359 340.578 77.193 340.718 77.5655 340.73C80.0667 340.847 82.4906 340.905 84.8564 340.918L85.991 348.572C86.0443 348.948 86.2129 349.297 86.4733 349.571C86.7337 349.845 87.0729 350.031 87.4435 350.102C87.814 350.174 88.1976 350.127 88.5404 349.969C88.8833 349.811 89.1685 349.549 89.356 349.22L94.236 340.691C97.6784 340.497 100.96 340.193 104.073 339.804L105.846 346.435C105.943 346.796 106.148 347.117 106.433 347.356C106.718 347.595 107.07 347.741 107.44 347.772C107.81 347.804 108.181 347.721 108.502 347.534C108.824 347.347 109.08 347.065 109.237 346.727L113.105 338.347C115.722 337.829 118.197 337.253 120.531 336.638L122.007 342.155C122.104 342.515 122.309 342.837 122.594 343.076C122.88 343.315 123.231 343.46 123.601 343.492C123.971 343.524 124.342 343.441 124.663 343.253C124.985 343.066 125.241 342.785 125.398 342.446L129.369 333.892C132.302 332.837 134.919 331.749 137.214 330.654L138.246 334.501C138.342 334.861 138.546 335.183 138.831 335.423C139.116 335.663 139.467 335.809 139.837 335.842C140.207 335.874 140.579 335.791 140.9 335.605C141.222 335.418 141.479 335.137 141.636 334.799L145.646 326.147C149.12 324.072 152.362 321.627 155.316 318.856C158.539 319.995 162.581 320.352 167.106 320.099L169.794 326.808C169.931 327.146 170.167 327.436 170.47 327.638C170.773 327.84 171.129 327.946 171.493 327.942C171.857 327.938 172.211 327.824 172.51 327.615C172.808 327.405 173.037 327.111 173.166 326.769L176.105 318.953C178.916 318.428 181.836 317.761 184.834 316.958L186.052 322.197C186.137 322.56 186.331 322.888 186.608 323.137C186.885 323.385 187.231 323.542 187.599 323.587C187.968 323.631 188.341 323.561 188.669 323.385C188.996 323.21 189.262 322.937 189.43 322.605L193.595 314.349C196.418 313.429 199.267 312.406 202.13 311.376L203.206 316.116C203.288 316.475 203.475 316.8 203.744 317.049C204.013 317.298 204.351 317.46 204.713 317.513C205.075 317.565 205.445 317.506 205.773 317.344C206.101 317.181 206.373 316.923 206.552 316.602L211.548 307.705C214.081 306.675 216.595 305.613 219.064 304.538L220.276 309.071C220.373 309.432 220.577 309.753 220.862 309.993C221.146 310.233 221.498 310.379 221.868 310.412C222.238 310.444 222.609 310.362 222.931 310.175C223.253 309.989 223.51 309.707 223.667 309.369L227.69 300.692C230.384 299.448 233.001 298.211 235.503 297L236.483 300.666C236.58 301.026 236.785 301.347 237.07 301.586C237.355 301.825 237.706 301.971 238.076 302.003C238.447 302.034 238.817 301.951 239.139 301.764C239.46 301.577 239.717 301.295 239.873 300.957L243.548 293.031C253.566 287.98 255.39 286.821 256.357 286.27C256.725 286.081 257.008 285.758 257.149 285.368C257.29 284.978 257.279 284.548 257.118 284.166Z" fill="#B9C850"/>
<path d="M333.867 261.326C333.565 261.2 333.232 261.171 332.913 261.243C332.595 261.315 332.306 261.484 332.087 261.728C332.029 261.786 326.473 267.834 314.379 273.487C303.201 278.713 283.984 284.664 255.949 283.337C255.715 283.325 255.481 283.366 255.265 283.457C255.049 283.547 254.856 283.685 254.699 283.86C254.542 284.034 254.426 284.242 254.359 284.468C254.292 284.693 254.276 284.93 254.311 285.163C254.376 285.533 254.567 285.869 254.85 286.114C255.133 286.359 255.491 286.499 255.865 286.51C258.366 286.626 260.79 286.685 263.156 286.691L264.265 294.184C264.324 294.568 264.501 294.924 264.771 295.203C265.04 295.482 265.39 295.671 265.77 295.742C266.151 295.813 266.544 295.763 266.896 295.6C267.247 295.437 267.54 295.168 267.733 294.831L272.529 286.445C275.978 286.251 279.253 285.947 282.366 285.558L284.1 292.034C284.2 292.406 284.411 292.738 284.705 292.986C284.999 293.233 285.362 293.384 285.744 293.417C286.127 293.45 286.51 293.364 286.842 293.171C287.174 292.978 287.439 292.687 287.601 292.338L291.417 284.101C294.041 283.583 296.516 283.007 298.843 282.391L300.893 288.576C301.016 288.944 301.25 289.265 301.563 289.494C301.875 289.724 302.251 289.85 302.638 289.855C303.025 289.861 303.404 289.746 303.723 289.526C304.042 289.306 304.285 288.992 304.419 288.627L307.681 279.678C310.621 278.623 313.232 277.535 315.533 276.44L316.519 280.138C316.619 280.51 316.83 280.842 317.124 281.09C317.418 281.337 317.781 281.488 318.163 281.521C318.546 281.554 318.929 281.469 319.261 281.276C319.593 281.083 319.858 280.792 320.02 280.442L323.965 271.933C327.439 269.856 330.681 267.409 333.635 264.635" fill="#B9C850"/>
<path d="M744.589 297.557C744.517 297.354 744.405 297.168 744.259 297.01C744.113 296.852 743.937 296.726 743.741 296.639C743.545 296.551 743.333 296.505 743.119 296.503C742.904 296.5 742.692 296.542 742.494 296.625C717.662 307.031 691.567 301.805 664.943 281.141C644.921 265.6 632.138 246.659 632.009 246.471C631.775 246.121 631.413 245.879 631.002 245.798C630.591 245.717 630.165 245.803 629.817 246.037C629.469 246.271 629.228 246.635 629.147 247.048C629.066 247.461 629.152 247.889 629.385 248.239C632.617 252.854 636.104 257.284 639.828 261.507L643.013 276.706C643.089 277.074 643.275 277.411 643.546 277.672C643.816 277.933 644.158 278.106 644.528 278.168C644.898 278.23 645.278 278.179 645.618 278.021C645.959 277.863 646.243 277.605 646.436 277.282L649.62 271.907C652.302 274.53 655.203 277.204 658.316 279.833L661.688 291.541C661.788 291.887 661.985 292.196 662.255 292.431C662.525 292.667 662.857 292.82 663.211 292.871C663.566 292.922 663.927 292.87 664.253 292.72C664.578 292.571 664.854 292.33 665.047 292.027L668.012 287.352C670.668 289.221 673.326 290.948 675.986 292.532L680.66 305.697C680.78 306.034 680.993 306.329 681.275 306.548C681.557 306.766 681.896 306.899 682.251 306.931C682.605 306.962 682.962 306.89 683.277 306.725C683.593 306.559 683.854 306.306 684.031 305.995L688.144 298.71C690.697 299.785 693.247 300.722 695.796 301.52L701.83 312.173C702.01 312.489 702.279 312.746 702.603 312.911C702.927 313.076 703.292 313.142 703.653 313.102C704.014 313.061 704.356 312.915 704.635 312.682C704.915 312.449 705.12 312.139 705.227 311.791L707.516 304.227C710.786 304.708 714.086 304.952 717.391 304.959H718.191L724.721 313.487C724.933 313.76 725.216 313.968 725.539 314.089C725.862 314.21 726.212 314.238 726.55 314.171C726.888 314.104 727.201 313.944 727.454 313.709C727.707 313.474 727.89 313.173 727.983 312.84L730.632 303.612C735.084 302.703 739.437 301.358 743.628 299.597C744.017 299.444 744.333 299.148 744.512 298.769C744.69 298.389 744.718 297.956 744.589 297.557Z" fill="#B9C850"/>
<path d="M77.3594 403V338.988" stroke="#242900" stroke-width="6" stroke-linecap="round" stroke-linejoin="round"/>
<path d="M154.961 317.01V401.964" stroke="#242900" stroke-width="6" stroke-linecap="round" stroke-linejoin="round"/>
<path d="M255.906 284.742V401.834" stroke="#242900" stroke-width="6" stroke-linecap="round" stroke-linejoin="round"/>
<path d="M743.281 297.842V403" stroke="#242900" stroke-width="6" stroke-linecap="round" stroke-linejoin="round"/>
<path d="M624.66 238.299L391.3 239.82C389.548 239.792 387.821 240.235 386.296 241.102C384.772 241.97 383.506 243.231 382.63 244.755L307.381 382.381L116.064 382.511C116.064 382.511 112.77 401.789 140.322 402.993L552.892 402.456L633.453 250.602C636.515 244.858 631.784 238.234 624.66 238.299Z" fill="#6E7D00"/>
<path d="M331.348 381.837L528.376 380.989L589.333 261.656C591.699 257.085 588.572 251.483 583.686 251.535L404.618 253.717L331.348 381.837Z" fill="white"/>
<path d="M534.43 402.456L614.223 252.681C617.266 246.931 612.534 240.326 605.411 240.378" stroke="white" stroke-width="6" stroke-linecap="round" stroke-linejoin="round"/>
<path d="M349.465 299.377L371.06 339.286C371.293 339.691 371.652 340.007 372.082 340.186C372.512 340.365 372.989 340.396 373.438 340.275C373.888 340.154 374.285 339.887 374.568 339.517C374.852 339.146 375.005 338.691 375.006 338.224L373.562 320.092C373.562 320.092 386.19 363.77 403.518 364.858C420.846 365.946 437.51 318.881 437.51 318.881L432.959 338.606C432.959 339.073 433.113 339.528 433.396 339.899C433.679 340.269 434.076 340.536 434.526 340.657C434.975 340.778 435.452 340.747 435.882 340.568C436.312 340.389 436.671 340.073 436.904 339.668L459.982 299.37" fill="#B37600"/>
<path d="M322.455 145.14C322.455 145.14 270.967 215.206 277.588 277.89H391.232V143.689L322.455 145.14Z" fill="#FFB423"/>
<path d="M484.389 145.14C484.389 145.14 535.876 215.206 529.256 277.89H415.625V143.689L484.389 145.14Z" fill="#FFB423"/>
<path d="M449.798 277.89C493.44 199.075 488.689 136.514 475.945 93.6588C463.2 50.8031 433.283 3 404.841 3C376.399 3 346.488 50.7772 333.737 93.6588C320.986 136.54 315.59 199.075 359.233 277.89L347.03 304.285H462.079L449.83 277.897L449.798 277.89Z" fill="white" stroke="#332200" stroke-width="6" stroke-linecap="round" stroke-linejoin="round"/>
<path d="M404.842 165.118C422.804 165.118 437.365 147.722 437.365 126.264C437.365 104.805 422.804 87.41 404.842 87.41C386.881 87.41 372.32 104.805 372.32 126.264C372.32 147.722 386.881 165.118 404.842 165.118Z" fill="#FFE5B3"/>
<path d="M404.839 182.627C407.834 182.627 410.261 179.728 410.261 176.152C410.261 172.575 407.834 169.676 404.839 169.676C401.845 169.676 399.418 172.575 399.418 176.152C399.418 179.728 401.845 182.627 404.839 182.627Z" fill="#FFCB66"/>
<path d="M425.695 182.627C428.689 182.627 431.116 179.728 431.116 176.152C431.116 172.575 428.689 169.676 425.695 169.676C422.701 169.676 420.273 172.575 420.273 176.152C420.273 179.728 422.701 182.627 425.695 182.627Z" fill="#FFCB66"/>
<path d="M382.312 182.627C385.306 182.627 387.733 179.728 387.733 176.152C387.733 172.575 385.306 169.676 382.312 169.676C379.318 169.676 376.891 172.575 376.891 176.152C376.891 179.728 379.318 182.627 382.312 182.627Z" fill="#FFCB66"/>
<path d="M404.84 151.784C418.39 151.784 429.375 138.662 429.375 122.476C429.375 106.289 418.39 93.167 404.84 93.167C391.289 93.167 380.305 106.289 380.305 122.476C380.305 138.662 391.289 151.784 404.84 151.784Z" fill="white" stroke="#332200" stroke-width="6" stroke-linecap="round" stroke-linejoin="round"/>
<path d="M454.78 53.8531C437.838 47.9447 423.113 44.6246 405.189 44.0036C382.762 43.1424 369.73 48.1869 355.728 53.7171C349.723 64.8315 344.735 76.4707 340.824 88.4912C357.585 80.2866 374.117 71.6157 405.666 72.192C435.616 72.736 453.246 79.3541 468.898 86.3607C465.117 75.1427 460.394 64.2677 454.78 53.8531Z" fill="#FFCB66"/>
<path d="M444.062 277.586C446.138 273.839 448.106 270.126 449.967 266.448C440.085 262.407 429.915 259.085 404.723 259.325C379.24 259.111 369.013 262.563 359.156 266.655C361 270.281 362.945 273.951 364.99 277.664C364.99 277.664 383.359 273.286 404.723 273.467C425.725 273.247 444.062 277.586 444.062 277.586Z" fill="#FFCB66"/>
<path d="M559.391 380.989H458.04C458.04 380.989 443.452 367.843 450.15 357.094C456.847 346.344 474.459 343.76 480.164 354.607C480.164 354.607 482.652 333.82 503.893 335.42C525.134 337.019 523.465 359.244 523.465 359.244C523.465 359.244 550.353 340.121 549.637 369.993C549.656 369.993 551.352 380.963 559.391 380.989Z" fill="white" stroke="#313800" stroke-width="6" stroke-linecap="round" stroke-linejoin="round"/>
<path d="M236.758 381.157H338.102C338.102 381.157 352.697 368.018 345.992 357.262C339.288 346.506 321.689 343.929 315.978 354.775C315.978 354.775 313.496 333.995 292.255 335.588C271.014 337.181 272.677 359.412 272.677 359.412C272.677 359.412 245.796 340.296 246.511 370.168C246.511 370.168 244.79 381.131 236.758 381.157Z" fill="white" stroke="#313800" stroke-width="6" stroke-linecap="round" stroke-linejoin="round"/>
<path d="M3 403H803" stroke="#242900" stroke-width="6" stroke-linecap="round" stroke-linejoin="round"/>
</svg>
