<svg width="1028" height="480" viewBox="0 0 1028 480" fill="none" xmlns="http://www.w3.org/2000/svg">
<g clip-path="url(#clip0_97_1653)">
<path d="M211.405 245.436C211.725 238.352 209.416 231.399 204.922 225.913C197.382 216.717 197.291 210.883 193.042 206.482C188.792 202.081 182.048 204.09 188.118 219.017C194.189 233.945 196.811 240.076 196.811 240.076L211.405 245.436Z" fill="white" stroke="#332200" stroke-width="6" stroke-linecap="round" stroke-linejoin="round"/>
<path d="M176.651 224.378C177.307 224.378 218.635 222.271 223.558 263.229L176.651 224.378Z" fill="white"/>
<path d="M176.651 224.378C177.307 224.378 218.635 222.271 223.558 263.229" stroke="#332200" stroke-width="6" stroke-linecap="round" stroke-linejoin="round"/>
<path d="M204.612 306.159C204.612 306.159 199.489 275.922 192.775 265.426C186.061 254.93 171.066 255.714 171.066 255.714C171.066 255.714 132.944 221.919 127.426 215.812C121.908 209.705 124.02 203.884 133.885 210.671C143.749 217.457 173.398 238.965 173.398 238.965C173.398 238.965 222.823 222.229 230.861 269.706L239.967 297.885L204.612 306.159Z" fill="white" stroke="#332200" stroke-width="6" stroke-linecap="round" stroke-linejoin="round"/>
<path d="M170.417 254.22C170.417 254.22 150.84 210.725 147.908 202.53C144.975 194.335 148.94 190.013 155.599 200.885C162.258 211.757 177.41 236.95 177.41 236.95" fill="white"/>
<path d="M170.417 254.22C170.417 254.22 150.84 210.725 147.908 202.53C144.975 194.335 148.94 190.013 155.599 200.885C162.258 211.757 177.41 236.95 177.41 236.95" stroke="#332200" stroke-width="6" stroke-linecap="round" stroke-linejoin="round"/>
<path d="M168.565 250.742C168.565 250.742 167.005 213.433 167.011 206.203C167.011 194.286 174.168 190.899 176.014 206.961C177.228 217.688 178.606 237.46 178.606 237.46" fill="white"/>
<path d="M168.565 250.742C168.565 250.742 167.005 213.433 167.011 206.203C167.011 194.286 174.168 190.899 176.014 206.961C177.228 217.688 178.606 237.46 178.606 237.46" stroke="#332200" stroke-width="6" stroke-linecap="round" stroke-linejoin="round"/>
<path d="M730.887 245.436C730.563 238.352 732.87 231.399 737.365 225.913C744.91 216.723 744.989 210.883 749.257 206.488C753.524 202.093 760.244 204.096 754.174 219.023C748.103 233.951 745.457 240.076 745.457 240.076L730.887 245.436Z" fill="white" stroke="#332200" stroke-width="6" stroke-linecap="round" stroke-linejoin="round"/>
<path d="M765.604 224.378C764.949 224.378 723.615 222.271 718.698 263.229L765.604 224.378Z" fill="white"/>
<path d="M765.604 224.378C764.949 224.378 723.615 222.271 718.698 263.229" stroke="#332200" stroke-width="6" stroke-linecap="round" stroke-linejoin="round"/>
<path d="M737.662 306.159C737.662 306.159 742.786 275.922 749.5 265.426C756.213 254.93 771.208 255.714 771.208 255.714C771.208 255.714 809.318 221.913 814.848 215.806C820.379 209.699 818.254 203.878 808.389 210.664C798.525 217.451 768.876 238.959 768.876 238.959C768.876 238.959 719.451 222.223 711.413 269.7L702.307 297.879L737.662 306.159Z" fill="white" stroke="#332200" stroke-width="6" stroke-linecap="round" stroke-linejoin="round"/>
<path d="M771.857 254.22C771.857 254.22 791.434 210.725 794.366 202.53C797.299 194.335 793.335 190.013 786.681 200.885C780.028 211.757 764.882 236.95 764.882 236.95" fill="white"/>
<path d="M771.857 254.22C771.857 254.22 791.434 210.725 794.366 202.53C797.299 194.335 793.335 190.013 786.681 200.885C780.028 211.757 764.882 236.95 764.882 236.95" stroke="#332200" stroke-width="6" stroke-linecap="round" stroke-linejoin="round"/>
<path d="M773.709 250.742C773.709 250.742 775.269 213.433 775.263 206.203C775.263 194.286 768.106 190.899 766.26 206.961C765.046 217.688 763.674 237.46 763.674 237.46" fill="white"/>
<path d="M773.709 250.742C773.709 250.742 775.269 213.433 775.263 206.203C775.263 194.286 768.106 190.899 766.26 206.961C765.046 217.688 763.674 237.46 763.674 237.46" stroke="#332200" stroke-width="6" stroke-linecap="round" stroke-linejoin="round"/>
<path d="M749.014 289.921C749.821 280.633 748.607 276.954 748.607 276.954C727.251 279.212 710.126 258.815 710.126 258.815C710.126 258.815 708.087 261.122 702.338 268.528C696.589 275.934 685.674 267.569 679.227 278.205C674.019 286.8 655.553 331.85 648.65 348.817C627.689 286.527 600.742 254.876 556.78 246.911C551.049 212.194 526.312 168.153 427.848 175.838C366.658 186.868 347.985 218.216 352.216 251.318H351.925C351.925 251.318 312.309 250.79 290.115 316.722C283.613 301.424 277.015 286.454 274.18 281.768C267.727 271.133 245.697 275.91 239.942 268.522C234.187 261.134 232.148 258.809 232.148 258.809C232.148 258.809 215.029 279.243 193.649 276.954C193.649 276.954 192.435 280.633 193.248 289.921C194.061 299.209 182.764 300.271 185.284 312.418C187.803 324.565 227.577 433.5 227.577 433.5C231.328 443.626 236.282 475.308 256.836 476.437C256.892 476.584 256.99 476.713 257.117 476.806C257.244 476.9 257.395 476.955 257.553 476.965C290.145 476.874 688.685 477.208 688.685 477.208C688.685 477.208 688.722 476.777 688.764 475.963C706.52 471.774 711.122 443.049 714.661 433.5C714.661 433.5 754.441 324.565 756.954 312.418C759.467 300.271 748.206 299.209 749.014 289.921Z" fill="#FFB423"/>
<path d="M749.196 288.439C750.72 278.727 748.838 275.084 748.838 275.084C729.327 279.303 711.298 257.122 711.298 257.122C711.298 257.122 708.87 259.277 703.054 267.442C700.705 270.738 698.313 271.084 695.879 271.764C703.983 298.122 741.942 301.764 755.169 302.086C754.168 296.386 748.043 295.815 749.196 288.439Z" fill="#242900"/>
<path d="M193.005 288.512C191.482 278.8 193.436 275.109 193.436 275.109C212.953 279.328 230.982 257.146 230.982 257.146C230.982 257.146 233.92 257.474 239.754 265.645C242.103 268.941 246.14 271.715 248.575 272.389C240.477 298.741 199.92 302.317 186.698 302.638C187.694 296.908 194.159 295.894 193.005 288.512Z" fill="#242900"/>
<path d="M351.991 249.26C340.13 251.689 327.837 257.917 316.965 269.979C327.084 284.621 362.421 334.423 427.569 345.01C427.52 344.559 427.424 344.113 427.284 343.681C391.176 328.863 355.81 287.638 351.991 249.26Z" fill="#242900"/>
<path d="M556.737 246.644C558.995 260.133 558.376 272.243 558.073 279.394C557.071 303.033 546.466 319.527 539.794 331.291L539.321 343.396C566.857 336.906 588.492 285.914 592.195 260.837C582.421 255.477 580.673 251.488 556.737 246.644Z" fill="#242900"/>
<path d="M422.943 330.344C422.943 330.344 449.095 375.49 451.821 404.003" stroke="#332200" stroke-width="8" stroke-linecap="round" stroke-linejoin="round"/>
<path d="M535.733 327.576C535.733 327.576 523.489 372.176 526.482 400.653" stroke="#332200" stroke-width="8" stroke-linecap="round" stroke-linejoin="round"/>
<path d="M288.494 318.3C288.767 319.132 317.784 380.741 317.784 380.741" stroke="#332200" stroke-width="6" stroke-linecap="round" stroke-linejoin="round"/>
<path d="M650.156 350.146L630.269 384.754" stroke="#332200" stroke-width="6" stroke-linecap="round" stroke-linejoin="round"/>
<path d="M374.301 429.184C374.301 429.184 371.872 478.61 346.036 477.456" stroke="#332200" stroke-width="6" stroke-linecap="round" stroke-linejoin="round"/>
<path d="M521.134 477.365C515.749 435.643 510.018 373.942 518.821 347.839C532.716 306.718 527.319 255.106 517.934 247.634C508.549 240.161 404.902 241.606 404.902 241.606L386.271 248.022C386.271 248.022 457.205 313.923 478.209 434.174C481.505 453.029 483.733 467.847 485.214 479.472" fill="white"/>
<path d="M421.031 206.609L419.532 232.913L404.052 243.585C404.052 243.585 444.597 271.661 480.856 313.596C480.856 313.596 503.104 297.867 508.307 248.034L496.639 246.213L440.791 213.129L421.031 206.609Z" fill="white" stroke="#332200" stroke-width="6" stroke-linecap="round" stroke-linejoin="round"/>
<path d="M403.487 158.598C403.487 158.598 379.564 161.9 386.35 183.207C393.137 204.515 418.19 188.792 418.19 188.792L411.1 158.203L403.487 158.598Z" fill="white" stroke="#332200" stroke-width="6" stroke-linecap="round" stroke-linejoin="round"/>
<mask id="path-30-inside-1_97_1653" fill="white">
<path fill-rule="evenodd" clip-rule="evenodd" d="M518.59 100.454C509.654 64.2925 466.663 72.178 460.404 73.4528C393.162 87.2086 405.582 154.797 405.582 154.797L405.622 154.921L399.451 156.151C399.451 156.151 415.137 202.773 420.467 215.144C425.796 227.516 429.214 232.913 447.28 242.929C465.346 252.945 501.587 254.317 516.144 232.391C528.824 213.29 526.96 181.44 526.269 173.546C526.441 152.763 524.76 125.422 518.59 100.454Z"/>
</mask>
<path fill-rule="evenodd" clip-rule="evenodd" d="M518.59 100.454C509.654 64.2925 466.663 72.178 460.404 73.4528C393.162 87.2086 405.582 154.797 405.582 154.797L405.622 154.921L399.451 156.151C399.451 156.151 415.137 202.773 420.467 215.144C425.796 227.516 429.214 232.913 447.28 242.929C465.346 252.945 501.587 254.317 516.144 232.391C528.824 213.29 526.96 181.44 526.269 173.546C526.441 152.763 524.76 125.422 518.59 100.454Z" fill="white"/>
<path d="M460.404 73.4528L459.207 67.5735L459.202 67.5746L460.404 73.4528ZM518.59 100.454L512.765 101.894V101.894L518.59 100.454ZM405.582 154.797L399.681 155.882L399.752 156.27L399.874 156.646L405.582 154.797ZM405.622 154.921L406.795 160.806L413.407 159.488L411.33 153.073L405.622 154.921ZM399.451 156.151L398.278 150.267L391.589 151.6L393.764 158.065L399.451 156.151ZM420.467 215.144L425.977 212.77L425.977 212.77L420.467 215.144ZM447.28 242.929L444.371 248.176H444.371L447.28 242.929ZM516.144 232.391L511.145 229.072L516.144 232.391ZM526.269 173.546L520.269 173.496L520.267 173.783L520.292 174.069L526.269 173.546ZM461.602 79.3321C464.551 78.7315 475.919 76.6452 487.379 78.8105C493.046 79.8812 498.448 81.9405 502.851 85.4778C507.172 88.9491 510.835 94.081 512.765 101.894L524.415 99.0151C521.878 88.7468 516.816 81.3037 510.367 76.1228C504 71.0079 496.587 68.3379 489.607 67.0191C475.774 64.4055 462.517 66.8993 459.207 67.5736L461.602 79.3321ZM405.582 154.797C411.483 153.713 411.483 153.716 411.484 153.718C411.484 153.718 411.484 153.721 411.485 153.722C411.485 153.723 411.485 153.724 411.485 153.724C411.485 153.724 411.484 153.719 411.483 153.711C411.48 153.694 411.474 153.662 411.466 153.614C411.45 153.518 411.425 153.362 411.393 153.147C411.329 152.719 411.238 152.061 411.143 151.204C410.952 149.487 410.744 146.981 410.691 143.918C410.584 137.763 411.105 129.506 413.548 120.926C415.984 112.37 420.295 103.608 427.708 96.2141C435.087 88.8529 445.827 82.5591 461.607 79.3311L459.202 67.5746C441.36 71.2244 428.437 78.5376 419.233 87.7182C410.062 96.8661 404.871 107.58 402.006 117.641C399.149 127.677 398.572 137.178 398.693 144.126C398.753 147.614 398.99 150.495 399.216 152.529C399.329 153.546 399.44 154.354 399.525 154.923C399.567 155.207 399.603 155.431 399.63 155.592C399.644 155.673 399.655 155.738 399.663 155.786C399.668 155.81 399.671 155.83 399.674 155.846C399.676 155.854 399.677 155.861 399.678 155.867C399.678 155.87 399.679 155.874 399.679 155.875C399.68 155.879 399.681 155.882 405.582 154.797ZM411.33 153.073L411.29 152.949L399.874 156.646L399.914 156.769L411.33 153.073ZM400.623 162.036L406.795 160.806L404.449 149.037L398.278 150.267L400.623 162.036ZM425.977 212.77C423.418 206.83 418.244 192.322 413.627 179.039C411.339 172.453 409.216 166.252 407.665 161.695C406.889 159.418 406.257 157.552 405.819 156.256C405.6 155.609 405.429 155.103 405.313 154.76C405.256 154.589 405.211 154.458 405.182 154.37C405.167 154.326 405.156 154.293 405.148 154.271C405.145 154.26 405.142 154.251 405.14 154.246C405.139 154.243 405.138 154.241 405.138 154.24C405.138 154.239 405.138 154.239 405.137 154.238C405.137 154.238 405.137 154.238 399.451 156.151C393.764 158.065 393.764 158.065 393.764 158.065C393.764 158.066 393.764 158.066 393.765 158.067C393.765 158.069 393.766 158.071 393.767 158.074C393.769 158.079 393.772 158.088 393.776 158.099C393.783 158.122 393.795 158.156 393.81 158.201C393.84 158.29 393.884 158.422 393.943 158.595C394.059 158.941 394.231 159.45 394.451 160.101C394.892 161.403 395.527 163.277 396.305 165.563C397.861 170.135 399.993 176.362 402.292 182.978C406.852 196.098 412.185 211.087 414.956 217.518L425.977 212.77ZM450.189 237.682C441.34 232.775 436.649 229.3 433.533 225.879C430.472 222.519 428.606 218.873 425.977 212.77L414.956 217.518C417.657 223.787 420.165 229.025 424.662 233.961C429.103 238.835 435.154 243.067 444.371 248.176L450.189 237.682ZM511.145 229.072C505.242 237.964 494.605 242.606 482.506 243.661C470.402 244.717 458.047 242.038 450.189 237.682L444.371 248.176C454.578 253.836 469.377 256.852 483.549 255.616C497.727 254.379 512.488 248.744 521.142 235.709L511.145 229.072ZM520.292 174.069C520.621 177.825 521.234 187.373 520.246 198.222C519.244 209.216 516.661 220.763 511.145 229.072L521.142 235.709C528.306 224.918 531.132 210.99 532.196 199.31C533.273 187.485 532.609 177.161 532.246 173.023L520.292 174.069ZM512.765 101.894C518.773 126.204 520.439 153.003 520.269 173.496L532.269 173.596C532.443 152.524 530.747 124.64 524.415 99.015L512.765 101.894Z" fill="#332200" mask="url(#path-30-inside-1_97_1653)"/>
<path d="M384.266 128.368L384.265 128.367C378.269 111.727 384.115 92.898 398.811 83.4283C404.956 79.4704 410.569 78.4737 414.636 78.4596C416.672 78.4525 418.322 78.6916 419.459 78.931C420.028 79.0507 420.468 79.1703 420.763 79.2591C420.911 79.3035 421.023 79.3402 421.096 79.3652C421.106 79.3689 421.116 79.3723 421.125 79.3754C421.147 79.3831 421.165 79.3892 421.177 79.3937L421.195 79.4004L421.199 79.4018L421.199 79.4018L421.199 79.4019L421.199 79.402L422.796 80.0116L421.779 78.6373L421.779 78.6372L421.779 78.637L421.777 78.6347L421.769 78.624L421.737 78.5783C421.707 78.5371 421.663 78.4745 421.606 78.3913C421.491 78.2247 421.324 77.9754 421.117 77.6485C420.702 76.9947 420.129 76.0311 419.497 74.7995C418.233 72.3351 416.74 68.8037 415.822 64.5373C413.989 56.0175 414.445 44.5551 423.647 32.7605L423.648 32.7597C426.836 28.657 430.834 25.2546 435.395 22.7643C439.954 20.2741 444.978 18.7492 450.153 18.2847C462.872 17.1908 471.786 21.8583 477.529 26.7957C480.403 29.2673 482.484 31.8078 483.845 33.7292C484.525 34.6895 485.025 35.4942 485.353 36.0566C485.518 36.3378 485.639 36.5583 485.719 36.7074C485.759 36.782 485.788 36.8386 485.807 36.8761L485.829 36.9176L485.833 36.9273L485.834 36.9293L485.834 36.9293L485.835 36.9295L486.331 37.9377L486.747 36.8933L486.681 36.8667C486.747 36.8933 486.747 36.8933 486.747 36.8932L486.748 36.8919L486.751 36.8854L486.762 36.858C486.772 36.8332 486.787 36.7957 486.808 36.7459C486.85 36.6463 486.913 36.4976 486.999 36.3039C487.17 35.9164 487.429 35.3488 487.781 34.6335C488.485 33.2027 489.559 31.1818 491.033 28.8294C493.983 24.1228 498.532 18.0995 504.929 12.8187C511.323 7.54 519.562 3.00532 529.9 1.26298C540.238 -0.479094 552.707 0.56481 567.574 6.49181C570.5 7.67052 573.792 10.1685 576.833 13.0732C579.867 15.9707 582.613 19.2351 584.45 21.9008C589.982 29.9278 590.664 38.9233 588.057 48.0564C585.446 57.2041 579.537 66.4743 571.915 74.9737C556.663 91.9832 534.686 105.762 519.035 109.224C484.949 116.757 464.029 113.433 451.829 106.345C451.637 106.206 451.437 106.089 451.229 105.992L450.761 106.874C450.932 106.977 451.105 107.08 451.279 107.181C452.034 107.741 452.723 108.79 453.259 110.317C453.898 112.134 454.288 114.536 454.342 117.326C454.451 122.904 453.218 129.954 450.063 136.813C446.909 143.669 441.842 150.32 434.289 155.126C426.782 159.903 416.791 162.875 403.723 162.387C403.721 162.384 403.719 162.381 403.717 162.378C403.619 162.255 403.475 162.071 403.288 161.831C402.915 161.349 402.374 160.641 401.705 159.735C400.366 157.922 398.513 155.318 396.461 152.155C392.353 145.826 387.455 137.277 384.266 128.368Z" fill="#242900" stroke="#332200"/>
<path d="M494.454 148.084L502.078 181.192L492.274 183.42" stroke="#332200" stroke-width="8" stroke-linecap="round" stroke-linejoin="round"/>
<path d="M509.755 155.728C509.91 157.118 509.689 158.393 509.232 159.326C508.772 160.267 508.112 160.797 507.406 160.875C506.701 160.954 505.94 160.583 505.284 159.768C504.632 158.958 504.135 157.764 503.979 156.374C503.824 154.985 504.045 153.71 504.502 152.776C504.962 151.836 505.622 151.306 506.328 151.227C507.033 151.148 507.794 151.52 508.45 152.335C509.102 153.145 509.599 154.339 509.755 155.728Z" fill="#332200" stroke="#332200"/>
<path d="M477.389 157.885C477.545 159.274 477.324 160.549 476.867 161.483C476.407 162.423 475.747 162.953 475.041 163.032C474.336 163.11 473.575 162.739 472.919 161.924C472.267 161.114 471.77 159.92 471.614 158.53C471.459 157.141 471.68 155.866 472.137 154.932C472.597 153.992 473.257 153.462 473.963 153.383C474.668 153.304 475.429 153.676 476.085 154.491C476.737 155.301 477.234 156.495 477.389 157.885Z" fill="#332200" stroke="#332200"/>
<path d="M462.499 149.583C462.499 149.583 476.346 148.758 476.169 139.506" stroke="#332200" stroke-width="8" stroke-linecap="round" stroke-linejoin="round"/>
<path d="M502.352 126.266C502.352 126.266 511.457 122.679 514.687 130.194" stroke="#332200" stroke-width="8" stroke-linecap="round" stroke-linejoin="round"/>
<path d="M481.997 206.19C481.997 206.19 491.922 204.218 495.959 208.163L481.997 206.19Z" fill="white"/>
<path d="M481.997 206.19C481.997 206.19 491.922 204.218 495.959 208.163" stroke="#332200" stroke-width="6" stroke-linecap="round" stroke-linejoin="round"/>
<path d="M183.428 477.572H743.428" stroke="#332200" stroke-width="8" stroke-linecap="round" stroke-linejoin="round"/>
</g>
<defs>
<clipPath id="clip0_97_1653">
<rect width="1027.73" height="480" fill="white"/>
</clipPath>
</defs>
</svg>
