<svg width="1176" height="315" viewBox="0 0 1176 315" fill="none" xmlns="http://www.w3.org/2000/svg">
<rect y="159" width="432" height="104" rx="52" fill="#332200"/>
<path d="M74.08 210.216V206.888C74.752 205.928 75.392 204.936 75.936 203.944H85.888V200.04H58.144V203.944H70.912C67.936 208.84 62.944 213.8 57.12 216.52C57.952 217.384 59.136 218.952 59.744 219.976C63.584 217.992 67.008 215.208 69.92 212.104V227.72H74.08V211.144C77.536 213.8 81.888 217.448 83.872 219.816L87.104 216.904C84.8 214.376 79.872 210.696 76.448 208.232L74.08 210.216ZM102.432 211.912C103.328 212.584 104.736 213.832 105.28 214.504C105.696 213.96 106.08 213.384 106.432 212.776C107.072 215.176 107.872 217.384 108.864 219.368C107.264 221.48 105.184 223.176 102.432 224.456V211.912ZM94.528 220.264V217.928H98.88V219.72L94.528 220.264ZM98.88 207.848V209.8H94.528V207.848H98.88ZM94.528 212.872H98.88V214.824H94.528V212.872ZM113.024 207.272C112.608 210.312 112 212.968 111.072 215.272C110.08 212.968 109.344 210.344 108.832 207.56L108.928 207.272H113.024ZM118.944 207.272V203.72H109.984C110.432 202.024 110.816 200.264 111.104 198.472L107.168 197.896C106.432 203.208 104.96 208.296 102.432 211.464V207.848H104.352V204.552H98.496V202.216H103.584V198.92H90.08V202.216H94.944V204.552H89.056V207.848H91.04V220.712L88.864 220.968L89.408 224.616C92.128 224.232 95.52 223.72 98.88 223.208V227.784H102.432V224.488C103.104 225.32 104.224 227.016 104.576 227.912C107.2 226.568 109.312 224.904 111.008 222.888C112.512 224.904 114.368 226.568 116.64 227.816C117.248 226.76 118.4 225.224 119.264 224.456C116.832 223.304 114.912 221.576 113.376 219.432C115.136 216.104 116.256 212.104 116.928 207.272H118.944ZM132.576 203.112H127.008L129.536 202.248C129.184 201.128 128.448 199.336 127.808 197.992L124.608 198.92C125.152 200.232 125.824 201.896 126.112 203.112H121.248V206.12H132.576V203.112ZM131.68 211.848H122.08V214.728H131.68V211.848ZM128.416 219.368V223.048H125.312V219.368H128.416ZM131.712 216.36H122.08V227.304H125.312V226.024H131.712V216.36ZM122.112 210.376H131.712V207.496H122.112V210.376ZM137.568 220.488C137.6 219.976 137.632 219.464 137.664 218.952H145.856V220.488H137.568ZM145.856 214.984V216.488H137.664V214.984H145.856ZM149.376 212.2H134.24V217.896C134.24 220.392 134.048 223.4 132.16 225.64C132.896 226.056 134.304 227.368 134.848 228.04C136.064 226.632 136.8 224.808 137.184 222.952H145.856V224.296C145.856 224.648 145.728 224.776 145.312 224.776C144.928 224.776 143.584 224.776 142.4 224.744C142.816 225.576 143.264 226.856 143.392 227.752C145.408 227.784 146.912 227.72 147.968 227.24C149.088 226.76 149.376 225.928 149.376 224.328V212.2ZM143.52 208.168V206.76H149.856V204.232H143.52V202.952H150.496V200.232H143.52V197.896H139.84V200.232H133.216V202.952H139.84V204.232H134.016V206.76H139.84V208.168H132.736V210.888H150.912V208.168H143.52ZM162.208 199.144H154.144V227.752H157.696V202.792H160.768C160.096 204.904 159.264 207.56 158.464 209.512C160.768 211.848 161.344 213.96 161.376 215.56C161.376 216.488 161.152 217.192 160.672 217.48C160.352 217.672 159.968 217.736 159.552 217.736C159.072 217.768 158.464 217.768 157.696 217.704C158.272 218.696 158.624 220.168 158.656 221.16C159.52 221.192 160.48 221.192 161.184 221.128C161.984 221 162.72 220.744 163.232 220.36C164.416 219.56 164.896 218.088 164.896 215.976C164.896 214.024 164.416 211.72 162.048 209.064C163.136 206.6 164.416 203.368 165.44 200.584L162.784 198.984L162.208 199.144ZM177.824 214.376H169.792V210.024H177.824V214.376ZM169.792 222.12V217.768H177.824V222.12H169.792ZM182.496 202.664V199.112H165.408V202.664H171.648C171.52 204.008 171.36 205.416 171.136 206.696H166.24V227.72H169.792V225.576H177.824V227.592H181.6V206.696H174.688C175.04 205.48 175.392 204.104 175.712 202.664H182.496ZM202.048 223.144V216.712H211.616V213.032H202.048V207.4H212.832V203.688H202.048V197.928H198.048V203.688H193.12C193.664 202.216 194.176 200.712 194.624 199.176L190.688 198.312C189.6 202.664 187.52 207.08 185.024 209.768C185.984 210.28 187.68 211.432 188.448 212.04C189.504 210.792 190.496 209.16 191.424 207.4H198.048V213.032H189.376V216.712H198.048V223.144H185.696V226.888H214.464V223.144H202.048ZM229.504 197.928C229.376 203.336 229.984 217.672 216.992 224.616C218.272 225.48 219.488 226.696 220.16 227.72C226.816 223.816 230.176 218.024 231.936 212.392C233.792 217.896 237.344 224.136 244.448 227.528C244.96 226.44 246.048 225.16 247.232 224.232C236.064 219.304 234.112 207.24 233.664 202.92C233.792 201 233.856 199.272 233.888 197.928H229.504ZM260.224 217.672H265.984V214.376H260.224V211.528H256.608V214.376H250.784V217.672H256.608V222.024C254.016 222.44 251.616 222.824 249.696 223.08L250.528 226.6C254.88 225.832 260.928 224.744 266.528 223.656L266.336 220.392C264.32 220.712 262.24 221.064 260.224 221.416V217.672ZM255.424 207.56C256.416 206.184 257.408 204.584 258.208 203.048H262.048L259.36 204.616C259.968 205.416 260.608 206.312 261.216 207.24L255.424 207.56ZM250.016 203.048H254.08C253.312 204.712 252.448 206.152 252.096 206.632C251.616 207.336 251.104 207.848 250.624 207.976C251.008 208.968 251.616 210.664 251.84 211.432C252.768 211.048 254.144 210.888 262.976 210.152C263.264 210.728 263.52 211.272 263.712 211.752L266.592 209.864C265.792 207.976 263.808 205.128 262.144 203.048H266.656V199.784H250.016V203.048ZM271.424 200.872H267.904V220.2H271.424V200.872ZM274.016 198.28V222.984C274.016 223.528 273.824 223.72 273.28 223.72C272.736 223.72 271.008 223.72 269.312 223.656C269.824 224.68 270.432 226.312 270.592 227.304C273.088 227.304 274.912 227.176 276.128 226.6C277.344 225.992 277.728 225.032 277.728 223.016V198.28H274.016ZM287.296 204.52H310.592V201H299.808C299.392 199.88 298.816 198.6 298.24 197.512L294.4 198.504C294.72 199.272 295.104 200.136 295.392 201H283.424V210.792C283.424 215.24 283.232 221.544 280.896 225.832C281.824 226.152 283.552 227.304 284.256 228.008C286.88 223.272 287.296 215.752 287.296 210.76V204.52ZM292.64 204.808C291.776 208.04 289.76 211.976 287.296 214.312C287.808 215.208 288.576 216.968 288.864 217.896C289.408 217.384 289.984 216.84 290.528 216.2V227.72H294.112V210.984C295.008 209.288 295.776 207.56 296.384 205.832L292.64 204.808ZM295.872 215.688C296.992 217.608 298.304 220.168 298.912 221.832L302.112 220.328C301.44 218.728 300.128 216.328 298.944 214.44L295.872 215.688ZM310.624 209.544H307.616V205.32H303.808V209.544H295.456V213.032H303.808V223.496C303.808 223.944 303.616 224.072 303.104 224.104C302.592 224.104 300.8 224.104 299.2 224.04C299.712 225.096 300.224 226.696 300.384 227.784C302.88 227.784 304.704 227.72 305.952 227.112C307.232 226.504 307.616 225.512 307.616 223.528V213.032H310.624V209.544ZM321.248 202.44V206.6H318.144V202.44H321.248ZM318.144 214.568V209.928H321.248V214.568H318.144ZM330.208 212.584H337.376V216.008H330.208V212.584ZM318.144 217.96H324.736V207.176C325.472 207.88 326.24 209.032 326.56 209.832L326.624 209.8V219.08H341.152V209.544H327.456C331.744 208.04 333.28 205.672 333.952 202.344H338.368C338.208 204.168 338.016 205.032 337.728 205.32C337.472 205.576 337.216 205.64 336.768 205.64C336.256 205.64 335.2 205.608 333.984 205.512C334.496 206.344 334.848 207.592 334.912 208.552C336.352 208.616 337.792 208.584 338.592 208.488C339.456 208.392 340.192 208.136 340.8 207.464C341.536 206.664 341.824 204.648 342.08 200.296C342.112 199.848 342.144 199.016 342.144 199.016H325.664V202.344H330.208C329.632 204.488 328.352 206.024 324.736 207.016V199.112H314.56V219.464H318.144V217.96ZM316.8 227.944C318.144 226.056 319.68 223.208 320.736 220.776L317.056 219.752C316.064 222.12 314.432 224.776 313.12 226.344L316.8 227.944ZM322.368 220.968C322.72 223.144 322.976 225.992 322.976 227.656L326.72 227.08C326.688 225.384 326.304 222.664 325.888 220.552L322.368 220.968ZM329.12 220.904C329.856 223.048 330.592 225.864 330.784 227.528L334.592 226.76C334.304 225 333.504 222.312 332.704 220.264L329.12 220.904ZM335.712 220.872C337.024 223.048 338.56 225.992 339.2 227.784L342.88 226.216C342.144 224.392 340.48 221.576 339.168 219.528L335.712 220.872ZM370.56 209.192H365.056V207.272H370.56V209.192ZM370.56 213.8H365.056V211.816H370.56V213.8ZM370.56 218.344H365.056V216.456H370.56V218.344ZM361.952 204.424V221.192H373.76V204.424H369.216C369.408 203.784 369.6 203.08 369.792 202.376H374.56V199.176H361.28V202.376H366.016C365.952 203.048 365.888 203.752 365.792 204.424H361.952ZM353.216 222.408H355.296V223.56H353.216V222.408ZM351.552 211.08C351.104 212.648 350.432 214.216 349.568 215.528C349.664 213.96 349.696 212.456 349.728 211.08H351.552ZM357.088 206.504V208.264H349.728V206.504H357.088ZM355.296 217.032H353.216V215.912H355.296V217.032ZM355.296 220.264H353.216V219.112H355.296V220.264ZM360.992 223.56H357.76V222.408H360.448V220.264H357.76V219.112H360.416V217.032H357.76V215.912H360.736V213.544H358.08C357.824 212.776 357.408 211.848 356.992 211.112L354.496 211.752C354.752 212.296 355.008 212.936 355.232 213.544H353.568C353.792 212.904 354.016 212.296 354.208 211.656L352.096 211.08H360.48V203.688H349.728V202.728C353.472 202.376 357.568 201.768 360.64 200.872L357.888 198.344C355.2 199.176 350.656 199.88 346.624 200.2V209.896C346.624 214.568 346.496 221.288 344.704 225.928C345.504 226.216 346.912 226.984 347.52 227.464C348.48 225 349.024 221.96 349.312 218.824C349.568 219.208 349.76 219.56 349.888 219.784C350.08 219.56 350.272 219.336 350.464 219.112V227.496H353.216V226.024H360.384C361.056 226.6 361.824 227.336 362.272 227.816C364.128 226.856 366.304 225 367.616 223.4L364.64 221.608C363.872 222.632 362.432 224.008 360.992 224.936V223.56ZM368.48 223.336C369.824 224.616 371.456 226.408 372.192 227.592L375.072 225.672C374.24 224.52 372.544 222.824 371.2 221.672L368.48 223.336Z" fill="white"/>
<path d="M349.754 276.75C348.214 279.417 344.365 279.417 342.825 276.75L335.464 264C333.924 261.333 335.849 258 338.928 258H353.651C356.73 258 358.654 261.333 357.115 264L349.754 276.75Z" fill="#332200"/>
<rect x="235" width="688" height="104" rx="52" fill="#332200"/>
<path d="M310.712 52.816H316.6V54.736H310.712V52.816ZM310.712 48.176H316.6V50.032H310.712V48.176ZM310.712 43.504H316.6V45.36H310.712V43.504ZM303.992 58.96C305.432 60.304 307.32 62.256 308.216 63.408L310.968 61.104C310.2 60.208 308.824 58.864 307.576 57.712H320.248V40.496H307.256V57.424L306.616 56.848L303.992 58.96ZM297.88 58.096H301.496V51.408C302.648 52.464 303.832 53.616 304.568 54.416L306.552 51.376C305.816 50.768 302.776 48.592 301.496 47.856V46.672H306.008V43.44H301.496V38.928H297.88V43.44H292.632V46.672H297.272C296.024 49.456 293.944 52.24 291.832 53.808C292.6 54.416 293.72 55.6 294.264 56.432C295.576 55.28 296.792 53.68 297.88 51.792V58.096ZM295.544 67.024C296.664 65.168 297.592 62.32 298.232 60.048L294.84 58.704C294.296 60.976 293.208 63.6 292.056 65.296L295.544 67.024ZM305.208 64.784C303.48 64.784 303.16 64.656 303.16 63.696V59.376H299.384V63.76C299.384 67.088 300.504 68.144 304.856 68.144H310.616C314.136 68.144 315.192 67.024 315.672 62.448C314.616 62.256 313.016 61.712 312.248 61.104C312.056 64.336 311.832 64.784 310.328 64.784H305.208ZM314.776 59.824C316.024 61.968 317.784 64.784 318.552 66.48L322.104 64.656C321.24 62.992 319.384 60.272 318.104 58.288L314.776 59.824ZM347.768 54.864V63.248H341.016V53.2H350.744V41.584H346.52V49.52H341.016V38.896H336.792V49.52H331.512V41.584H327.48V53.2H336.792V63.248H330.072V54.896H325.784V67.024H347.768V68.752H352.056V54.864H347.768ZM364.024 43.728C363.16 42.416 361.496 40.432 360.056 38.928L357.208 40.592C358.552 42.16 360.248 44.4 361.048 45.776L364.024 43.728ZM385.176 47.504V44.816H376.568V43.408H383.352V40.72H376.568V38.928H372.888V40.72H366.392V43.408H372.888V44.816H364.728V47.504H385.176ZM381.24 55.824C380.568 56.432 379.704 57.072 378.936 57.584C378.104 57.168 377.336 56.784 376.568 56.432L374.36 58.544C375.128 58.928 375.992 59.376 376.856 59.888L372.664 60.88V58.384C373.848 57.584 374.872 56.752 375.736 55.824H381.24ZM370.488 51.28H379.064V53.264H370.488V51.28ZM385.112 61.552C384.216 60.752 382.904 59.856 381.432 58.992C382.584 58.352 383.864 57.584 385.048 56.752L382.744 55.28V48.752H367V55.824H371.256C369.272 57.168 366.52 58.224 363.832 58.896C364.472 59.536 365.464 60.944 365.848 61.648C367.128 61.2 368.408 60.72 369.656 60.112V60.656C369.656 61.84 369.08 62.192 368.568 62.384C368.92 62.928 369.368 64.016 369.528 64.752C366.552 64.368 364.44 63.44 363.16 61.008C363.768 59.12 364.216 57.008 364.536 54.64L362.936 53.968L362.328 54.064H360.504C361.944 51.888 363.704 48.88 364.728 47.088L362.392 46.192L362.072 46.32H356.408V49.36H359.96C358.968 51.088 357.848 52.88 357.336 53.424C356.824 54.064 356.312 54.32 355.832 54.448C356.152 55.12 356.824 56.72 357.016 57.488C357.304 57.232 358.232 57.008 358.904 57.008H360.824C359.992 61.264 358.296 64.464 355.832 66.352C356.536 66.832 357.784 68.112 358.296 68.848C359.672 67.728 360.888 66.192 361.88 64.24C364.312 67.6 368.056 68.24 373.976 68.24C377.72 68.24 381.784 68.144 385.112 67.952C385.304 66.896 385.816 65.2 386.36 64.432C382.712 64.784 377.464 64.976 374.072 64.976C372.44 64.976 371.032 64.912 369.72 64.784C370.36 64.4 371.704 63.92 377.048 62.416C376.952 61.84 376.888 60.72 376.952 59.92C379.224 61.2 381.464 62.736 382.744 63.888L385.112 61.552ZM398.264 43.248V44.912H393.4V43.248H398.264ZM393.4 49.456V47.632H398.264V49.456H393.4ZM401.816 40.176H389.624V68.784H393.4V52.496H401.816V40.176ZM407.672 49.52V47.632H412.728V49.52H407.672ZM412.728 43.248V44.912H407.672V43.248H412.728ZM416.568 40.176H404.056V52.592H412.728V64.112C412.728 64.72 412.504 64.944 411.832 64.944C411.16 64.944 408.792 64.976 406.776 64.848C407.352 65.872 407.96 67.664 408.12 68.752C411.224 68.752 413.336 68.688 414.712 68.048C416.12 67.472 416.568 66.352 416.568 64.176V40.176ZM433.176 52.752C432.888 51.28 431.96 49.072 430.968 47.376L428.44 48.24C428.728 48.784 429.016 49.392 429.272 50.032L425.72 50.352C427.736 48.4 429.816 46.064 431.544 43.632L428.824 42.416C428.184 43.504 427.416 44.592 426.68 45.584L424.44 45.712C425.784 44.048 427.096 42.032 428.12 40.048L425.4 39.024C424.44 41.52 422.744 44.08 422.2 44.752C421.688 45.424 421.208 45.904 420.728 46C421.048 46.768 421.464 48.08 421.624 48.656C421.976 48.464 422.584 48.304 424.504 48.112C423.96 48.72 423.512 49.168 423.256 49.424C422.424 50.256 421.784 50.768 421.112 50.896C421.464 51.664 421.88 53.104 422.008 53.648C422.712 53.36 423.704 53.168 430.168 52.464C430.296 52.912 430.392 53.36 430.456 53.712L433.176 52.752ZM442.808 57.936C442.2 58.992 441.4 59.92 440.44 60.816C439.992 59.952 439.544 58.992 439.128 57.904H449.528V54.768H444.472L445.656 53.648C445.112 53.136 444.184 52.496 443.224 51.952C444.056 51.856 445.08 51.728 446.264 51.6C446.488 52.176 446.68 52.752 446.808 53.2L449.56 52.016C449.144 50.512 447.96 48.24 446.776 46.576L444.184 47.664C444.504 48.144 444.824 48.688 445.112 49.232L442.136 49.488C444.152 47.536 446.168 45.2 447.928 42.8L445.208 41.584C444.568 42.704 443.768 43.792 443 44.784L440.792 44.912C441.944 43.44 443.096 41.648 443.992 39.888L441.272 38.864C440.44 41.136 438.936 43.44 438.488 44.08C438.008 44.688 437.592 45.104 437.144 45.232C437.496 45.968 437.848 47.28 438.008 47.856C438.392 47.664 439 47.536 440.888 47.312C440.344 47.888 439.96 48.336 439.704 48.592C438.84 49.424 438.232 49.936 437.592 50.064C437.88 50.8 438.328 52.24 438.456 52.816C438.872 52.624 439.384 52.496 441.048 52.24L440.088 53.168C440.888 53.584 441.848 54.192 442.616 54.768H438.104C436.888 50.288 436.152 44.656 436.216 38.928H432.504C432.568 44.464 433.144 50.032 434.36 54.768H420.536V57.904H425.176C424.856 61.424 423.64 64.944 420.152 66.544C420.856 67.056 422.168 68.336 422.68 69.008C425.304 67.632 426.936 65.232 427.864 62.512C429.112 63.344 430.264 64.208 430.904 64.944L433.4 62.512C432.376 61.488 430.424 60.24 428.696 59.312C428.76 58.864 428.856 58.384 428.888 57.904H435.224C435.864 59.792 436.632 61.52 437.528 62.992C435.416 64.24 433.016 65.2 430.456 65.904C431.16 66.576 432.44 67.984 432.92 68.72C435.192 67.92 437.432 66.896 439.448 65.648C441.08 67.408 443.032 68.432 445.304 68.432C448.216 68.432 449.336 67.472 450.072 63.12C449.144 62.8 447.96 62.064 447.16 61.296C446.904 64.176 446.52 64.88 445.496 64.88C444.408 64.88 443.384 64.368 442.456 63.472C443.96 62.16 445.272 60.688 446.264 59.024L442.808 57.936ZM480.888 54.544V50.64H468.696C468.728 49.808 468.76 49.008 468.76 48.24V44.944H479.64V41.04H454.296V44.944H464.76V48.176C464.76 48.976 464.728 49.776 464.664 50.64H453.144V54.544H463.864C462.552 58.608 459.416 62.736 452.024 65.36C452.856 66.096 454.008 67.696 454.52 68.656C461.72 65.968 465.336 61.936 467.096 57.68C469.784 62.928 473.656 66.64 479.672 68.56C480.216 67.472 481.368 65.808 482.296 65.008C476.056 63.376 471.96 59.632 469.72 54.544H480.888ZM496.312 60.848C500.28 59.696 502.616 56.72 502.616 53.104C502.616 50.416 501.432 48.72 499.16 48.72C497.464 48.72 496.024 49.808 496.024 51.6C496.024 53.424 497.464 54.448 499.064 54.448C499.192 54.448 499.32 54.448 499.416 54.416C499.224 56.112 497.784 57.488 495.288 58.288L496.312 60.848ZM529.368 52.08V57.2H523.288V52.08H529.368ZM533.144 60.848V48.464H519.576V63.28H523.288V60.848H533.144ZM545.464 41.04H516.632V44.88H537.784V63.888C537.784 64.56 537.496 64.784 536.76 64.784C535.992 64.784 533.208 64.816 530.936 64.688C531.512 65.712 532.28 67.6 532.504 68.72C535.768 68.72 538.136 68.656 539.736 68.016C541.24 67.376 541.784 66.256 541.784 63.952V44.88H545.464V41.04ZM570.232 44.272H555.576V42.672H570.232V44.272ZM570.232 48.4H555.576V46.768H570.232V48.4ZM574.104 39.984H551.896V51.088H574.104V39.984ZM565.272 61.552H575.128V58.256H565.272V55.856H577.144V52.496H548.92V55.856H561.4V63.984C559.352 63.344 557.784 62.16 556.792 59.984C557.048 59.056 557.304 58.096 557.528 57.072L553.72 56.496C552.984 60.784 551.032 64.176 547.768 66.192C548.632 66.736 550.104 68.144 550.648 68.848C552.504 67.568 553.976 65.872 555.128 63.76C557.816 67.472 561.784 68.272 567.64 68.272H576.76C576.952 67.184 577.528 65.52 578.04 64.656C575.768 64.752 569.624 64.752 567.832 64.752C566.968 64.752 566.104 64.72 565.272 64.656V61.552ZM604.216 45.104C604.024 47.536 603.736 48.688 603.352 49.072C603.032 49.328 602.744 49.392 602.232 49.392C601.592 49.392 600.152 49.36 598.712 49.2C599.352 50.192 599.768 51.632 599.832 52.72C601.528 52.752 603.064 52.752 603.992 52.656C605.08 52.528 605.88 52.272 606.552 51.504C607.416 50.544 607.832 48.24 608.152 43.088C608.216 42.576 608.248 41.68 608.248 41.68H597.816C597.976 40.912 598.104 40.144 598.232 39.344L594.296 38.896C593.656 44.176 591.992 48.592 588.728 51.152C589.656 51.664 591.352 52.912 592.024 53.552C594.232 51.504 595.864 48.592 596.952 45.104H604.216ZM589.976 42.32C588.664 41.2 586.008 39.792 583.96 39.024L581.88 41.84C583.928 42.736 586.552 44.272 587.736 45.424L589.976 42.32ZM588.056 50.8C586.744 49.712 584.024 48.368 582.008 47.6L580.024 50.448C582.072 51.344 584.696 52.816 585.944 53.936L588.056 50.8ZM586.872 55.824C585.016 59.504 582.712 63.472 581.08 65.872L584.344 68.368C586.2 65.296 588.12 61.648 589.72 58.288L586.872 55.824ZM603.096 57.104C602.232 58.544 601.144 59.792 599.8 60.848C598.424 59.728 597.24 58.48 596.376 57.104H603.096ZM605.816 53.584L605.144 53.712H590.936V57.104H595.256L592.792 57.936C593.848 59.792 595.128 61.424 596.632 62.864C594.296 64.048 591.544 64.848 588.568 65.328C589.272 66.16 590.104 67.728 590.456 68.752C593.944 68.016 597.08 66.96 599.8 65.36C602.104 66.864 604.76 67.984 607.8 68.72C608.344 67.664 609.432 66.096 610.296 65.296C607.64 64.784 605.24 63.984 603.128 62.928C605.432 60.816 607.224 58.096 608.344 54.608L605.816 53.584ZM624.504 38.928C624.376 44.336 624.984 58.672 611.992 65.616C613.272 66.48 614.488 67.696 615.16 68.72C621.816 64.816 625.176 59.024 626.936 53.392C628.792 58.896 632.344 65.136 639.448 68.528C639.96 67.44 641.048 66.16 642.232 65.232C631.064 60.304 629.112 48.24 628.664 43.92C628.792 42 628.856 40.272 628.888 38.928H624.504ZM651.864 57.232H666.424V58.192H651.864V57.232ZM651.864 54.352H666.424V55.312H651.864V54.352ZM671.736 61.2H660.792V60.176H669.944V52.368H660.696C660.984 51.92 661.272 51.408 661.624 50.864L659.288 50.416L659.32 48.72C657.464 48.848 655.608 48.944 653.784 49.072V48.112H658.392V46.192H653.784V45.264H659.032V43.376H653.784V42.384H658.104V40.56H653.784V38.928H650.264V40.56H646.136V42.384H650.264V43.376H644.92V45.264H650.264V46.192H645.656V48.112H650.264V49.264C648.184 49.36 646.296 49.456 644.76 49.52L644.952 51.792C648.408 51.6 653.144 51.248 657.816 50.896C657.688 51.376 657.496 51.888 657.304 52.368H648.472V60.176H657.048V61.2H646.776V68.24H650.456V63.824H657.048V68.784H660.792V63.824H667.992V65.104C667.992 65.488 667.864 65.584 667.416 65.616C667 65.616 665.464 65.616 664.088 65.552C664.536 66.32 665.08 67.408 665.304 68.272C667.416 68.272 669.048 68.272 670.2 67.856C671.384 67.44 671.736 66.704 671.736 65.136V61.2ZM670.456 41.456V38.928H666.968V41.456H659.256V44.208H662.552L660.248 45.392C661.208 46.544 662.296 48.112 662.744 49.136L665.368 47.728C664.856 46.736 663.768 45.296 662.744 44.208H666.968V48.624C666.968 48.976 666.872 49.104 666.456 49.104C666.104 49.104 664.792 49.104 663.672 49.072C664.056 49.776 664.632 50.928 664.856 51.728C666.776 51.728 668.088 51.696 669.144 51.28C670.168 50.832 670.456 50.192 670.456 48.72V44.208H673.464V41.456H670.456ZM678.456 54.576C679.288 52.176 679.768 48.368 679.832 45.584L677.112 45.2C676.952 47.888 676.472 51.44 675.672 53.552L678.456 54.576ZM705.944 48.72V45.072H696.728L699.864 43.824C699.32 42.416 698.232 40.112 697.368 38.384L693.592 39.728C694.328 41.392 695.256 43.568 695.736 45.072H687.384V47.76C686.904 46.608 686.36 45.36 685.88 44.304L684.056 45.072V38.896H680.344V68.784H684.056V46.48C684.792 48.24 685.528 50.256 685.848 51.568L688.376 50.352C688.216 49.904 688.024 49.328 687.768 48.72H689.912V61.68C689.912 66.128 691.288 67.664 695.64 67.664H701.592C703.064 67.664 704.664 67.6 705.4 67.344C705.208 66.416 705.08 64.72 704.984 63.728C704.184 63.92 702.776 64.016 701.688 64.016H695.48C694.104 64.016 693.752 63.472 693.752 61.84V48.72H705.944ZM716.248 43.44V47.6H713.144V43.44H716.248ZM713.144 55.568V50.928H716.248V55.568H713.144ZM725.208 53.584H732.376V57.008H725.208V53.584ZM713.144 58.96H719.736V48.176C720.472 48.88 721.24 50.032 721.56 50.832L721.624 50.8V60.08H736.152V50.544H722.456C726.744 49.04 728.28 46.672 728.952 43.344H733.368C733.208 45.168 733.016 46.032 732.728 46.32C732.472 46.576 732.216 46.64 731.768 46.64C731.256 46.64 730.2 46.608 728.984 46.512C729.496 47.344 729.848 48.592 729.912 49.552C731.352 49.616 732.792 49.584 733.592 49.488C734.456 49.392 735.192 49.136 735.8 48.464C736.536 47.664 736.824 45.648 737.08 41.296C737.112 40.848 737.144 40.016 737.144 40.016H720.664V43.344H725.208C724.632 45.488 723.352 47.024 719.736 48.016V40.112H709.56V60.464H713.144V58.96ZM711.8 68.944C713.144 67.056 714.68 64.208 715.736 61.776L712.056 60.752C711.064 63.12 709.432 65.776 708.12 67.344L711.8 68.944ZM717.368 61.968C717.72 64.144 717.976 66.992 717.976 68.656L721.72 68.08C721.688 66.384 721.304 63.664 720.888 61.552L717.368 61.968ZM724.12 61.904C724.856 64.048 725.592 66.864 725.784 68.528L729.592 67.76C729.304 66 728.504 63.312 727.704 61.264L724.12 61.904ZM730.712 61.872C732.024 64.048 733.56 66.992 734.2 68.784L737.88 67.216C737.144 65.392 735.48 62.576 734.168 60.528L730.712 61.872ZM765.56 50.192H760.056V48.272H765.56V50.192ZM765.56 54.8H760.056V52.816H765.56V54.8ZM765.56 59.344H760.056V57.456H765.56V59.344ZM756.952 45.424V62.192H768.76V45.424H764.216C764.408 44.784 764.6 44.08 764.792 43.376H769.56V40.176H756.28V43.376H761.016C760.952 44.048 760.888 44.752 760.792 45.424H756.952ZM748.216 63.408H750.296V64.56H748.216V63.408ZM746.552 52.08C746.104 53.648 745.432 55.216 744.568 56.528C744.664 54.96 744.696 53.456 744.728 52.08H746.552ZM752.088 47.504V49.264H744.728V47.504H752.088ZM750.296 58.032H748.216V56.912H750.296V58.032ZM750.296 61.264H748.216V60.112H750.296V61.264ZM755.992 64.56H752.76V63.408H755.448V61.264H752.76V60.112H755.416V58.032H752.76V56.912H755.736V54.544H753.08C752.824 53.776 752.408 52.848 751.992 52.112L749.496 52.752C749.752 53.296 750.008 53.936 750.232 54.544H748.568C748.792 53.904 749.016 53.296 749.208 52.656L747.096 52.08H755.48V44.688H744.728V43.728C748.472 43.376 752.568 42.768 755.64 41.872L752.888 39.344C750.2 40.176 745.656 40.88 741.624 41.2V50.896C741.624 55.568 741.496 62.288 739.704 66.928C740.504 67.216 741.912 67.984 742.52 68.464C743.48 66 744.024 62.96 744.312 59.824C744.568 60.208 744.76 60.56 744.888 60.784C745.08 60.56 745.272 60.336 745.464 60.112V68.496H748.216V67.024H755.384C756.056 67.6 756.824 68.336 757.272 68.816C759.128 67.856 761.304 66 762.616 64.4L759.64 62.608C758.872 63.632 757.432 65.008 755.992 65.936V64.56ZM763.48 64.336C764.824 65.616 766.456 67.408 767.192 68.592L770.072 66.672C769.24 65.52 767.544 63.824 766.2 62.672L763.48 64.336ZM789.464 64.56C787.352 64.56 787.032 64.304 787.032 62.512V59.728L801.048 57.904L800.536 54.32L787.032 56.048V52.464L799.064 50.8L798.52 47.248L787.032 48.784V45.008C790.968 44.176 794.744 43.216 797.912 42.032L794.744 38.928C789.528 41.008 780.856 42.768 772.92 43.792C773.368 44.592 773.944 46.16 774.072 47.12C776.984 46.768 780.056 46.32 783.064 45.776V49.328L773.72 50.544L774.264 54.192L783.064 53.008V56.56L772.664 57.84L773.176 61.52L783.064 60.24V62.512C783.064 67.024 784.376 68.304 789.112 68.304H796.152C800.28 68.304 801.432 66.704 802.008 61.936C800.888 61.68 799.256 61.008 798.296 60.368C798.072 63.856 797.72 64.56 795.832 64.56H789.464ZM817.048 39.344V64.016C817.048 64.624 816.792 64.848 816.088 64.848C815.384 64.88 813.016 64.88 810.936 64.784C811.512 65.84 812.216 67.632 812.44 68.752C815.544 68.752 817.72 68.624 819.224 68.016C820.632 67.408 821.176 66.352 821.176 64.016V39.344H817.048ZM824.664 47.696C827.192 52.368 829.624 58.384 830.264 62.256L834.424 60.624C833.624 56.624 831 50.832 828.408 46.288L824.664 47.696ZM808.664 46.64C807.992 50.8 806.392 56.4 803.832 59.632C804.824 60.08 806.584 60.976 807.544 61.616C810.2 58.096 811.928 52.144 813.016 47.376L808.664 46.64ZM861.4 54.064C858.904 59.088 853.144 63.568 845.912 65.712C846.584 66.48 847.64 67.952 848.12 68.848C851.8 67.6 855.096 65.872 857.88 63.696C859.736 65.392 861.784 67.408 862.808 68.752L865.752 66.416C864.6 65.008 862.392 63.088 860.504 61.456C862.392 59.632 863.992 57.584 865.272 55.376L861.4 54.064ZM859.416 42.672C859.16 41.456 858.456 39.824 857.752 38.544L854.104 39.664C854.552 40.592 854.968 41.68 855.256 42.672H848.312L848.472 42.32L846.104 40.592L845.304 40.816H836.728V44.304H843.32C842.488 46.064 841.496 47.984 840.568 49.296V54.384C838.84 54.8 837.208 55.216 835.896 55.504L836.6 59.376C837.816 59.024 839.16 58.608 840.568 58.192V64.72C840.568 65.104 840.408 65.264 839.96 65.264C839.512 65.296 838.008 65.296 836.6 65.232C837.112 66.16 837.72 67.6 837.912 68.592C840.088 68.592 841.656 68.528 842.808 67.952C843.96 67.408 844.312 66.512 844.312 64.752V57.072L848.28 55.856L847.8 52.464L844.312 53.392V49.392C845.624 47.568 846.904 45.328 847.96 43.344V46.128H853.112C852.28 47.728 851.16 49.68 850.68 50.224C850.136 50.864 849.048 51.152 848.28 51.28C848.568 52.144 849.048 53.84 849.176 54.736C849.848 54.448 850.808 54.256 855 53.936C852.728 56.016 849.944 57.808 846.936 59.024C847.576 59.728 848.6 61.104 849.048 61.904C855.256 59.184 860.344 54.352 863.352 48.976L859.768 47.792C859.32 48.752 858.712 49.744 857.976 50.704L854.36 50.896C855.224 49.392 856.184 47.632 856.984 46.128H865.944V42.672H859.416Z" fill="white"/>
<path d="M810.754 117.75C809.214 120.417 805.365 120.417 803.825 117.75L796.464 105C794.924 102.333 796.849 99 799.928 99H814.651C817.73 99 819.654 102.333 818.115 105L810.754 117.75Z" fill="#332200"/>
<rect x="616" y="191" width="560" height="104" rx="52" fill="#332200"/>
<path d="M690.08 242.216V238.888C690.752 237.928 691.392 236.936 691.936 235.944H701.888V232.04H674.144V235.944H686.912C683.936 240.84 678.944 245.8 673.12 248.52C673.952 249.384 675.136 250.952 675.744 251.976C679.584 249.992 683.008 247.208 685.92 244.104V259.72H690.08V243.144C693.536 245.8 697.888 249.448 699.872 251.816L703.104 248.904C700.8 246.376 695.872 242.696 692.448 240.232L690.08 242.216ZM713.664 239.912C713.568 242.408 713.184 245.32 712.064 248.2C711.264 247.496 710.432 246.792 709.632 246.12C710.048 244.296 710.432 242.216 710.816 240.104L713.664 239.912ZM718.912 239.56V236.136L717.248 236.232V234.408H713.696V236.424L711.392 236.552C711.744 234.344 712 232.168 712.192 230.12L708.416 229.96C708.288 232.104 708.032 234.408 707.712 236.712C706.752 236.744 705.824 236.776 704.992 236.808L705.344 240.424L707.136 240.296C706.688 242.92 706.144 245.352 705.632 247.272C707.072 248.552 708.768 250.088 710.4 251.592C709.152 253.608 707.392 255.496 704.992 257.192C705.856 257.8 707.104 259.048 707.68 259.848C710.048 258.12 711.776 256.232 713.12 254.216C714.432 255.528 715.584 256.776 716.384 257.8L718.88 254.632C717.952 253.512 716.544 252.2 715.008 250.76C716.672 246.952 717.12 242.984 717.216 239.688L718.912 239.56ZM734.944 243.048H728.544V240.648C730.816 238.536 732.928 235.848 734.432 233.512L731.872 231.656L730.976 231.848H719.104V235.304H728.48C727.36 236.968 725.952 238.76 724.576 239.976V243.048H717.856V246.664H724.576V255.592C724.576 256.072 724.416 256.2 723.872 256.2C723.36 256.2 721.504 256.2 719.904 256.168C720.448 257.16 720.992 258.728 721.184 259.784C723.68 259.816 725.504 259.72 726.784 259.176C728.128 258.568 728.544 257.608 728.544 255.656V246.664H734.944V243.048ZM756.16 234.632C755.936 235.304 755.584 236.136 755.264 236.872H748.736C748.544 236.2 748.192 235.336 747.84 234.632H756.16ZM765.888 236.872H759.168C759.488 236.328 759.808 235.72 760.192 235.08L757.632 234.632H764.192V231.688H754.24C753.984 230.952 753.664 230.152 753.312 229.512L749.6 230.184C749.792 230.632 749.984 231.176 750.144 231.688H739.776V234.632H746.656L744.256 235.112C744.48 235.624 744.736 236.264 744.896 236.872H738.208V239.816H765.888V236.872ZM758.656 244.712H745.408V243.336H758.656V244.712ZM758.656 248.328H745.408V246.952H758.656V248.328ZM762.432 240.968H741.824V250.728H749.952L748.64 252.008C750.432 252.84 752.608 254.184 753.664 255.176L756 252.84C755.2 252.2 753.888 251.4 752.64 250.728H762.432V240.968ZM740.48 258.984C742.144 257.448 743.488 255.112 744.448 253.096L741.28 251.688C740.416 253.608 738.976 255.752 737.312 257.128L740.48 258.984ZM750.592 256.392C749.152 256.392 748.896 256.296 748.896 255.464V252.136H745.184V255.496C745.184 258.504 746.176 259.432 750.208 259.432H755.36C758.336 259.432 759.36 258.536 759.776 254.984C758.784 254.792 757.28 254.28 756.544 253.8C756.384 256.04 756.192 256.392 755.008 256.392H750.592ZM759.264 252.744C760.768 254.536 762.368 256.968 762.944 258.536L766.24 257.064C765.536 255.432 763.84 253.096 762.336 251.4L759.264 252.744ZM776.032 240.296H782.048V243.112H776.032V240.296ZM776.032 234.536H782.048V237.224H776.032V234.536ZM791.584 237.224H785.728V234.536H791.584V237.224ZM791.584 243.112H785.728V240.296H791.584V243.112ZM780.224 248.488C782.528 249.704 785.216 251.688 786.464 253.064L789.184 250.472C787.872 249.128 785.408 247.496 783.264 246.408H795.36V231.24H772.448V246.408H782.464L780.224 248.488ZM772.672 257.96C774.208 255.848 775.296 252.616 776.064 249.896L772.608 248.648C771.936 251.272 770.72 254.152 769.248 256.072L772.672 257.96ZM782.784 255.752C781.184 255.752 780.896 255.624 780.896 254.664V249.448H777.056V254.696C777.056 258.088 778.112 259.208 782.336 259.208H787.648C790.976 259.208 792.096 258.056 792.512 253.512C791.488 253.288 789.856 252.68 789.088 252.104C788.896 255.272 788.64 255.752 787.328 255.752H782.784ZM791.264 249.864C792.992 252.36 794.624 255.624 795.168 257.768L798.88 256.2C798.24 253.96 796.448 250.856 794.656 248.456L791.264 249.864ZM830.496 231.944H823.136C822.848 231.112 822.368 230.184 821.888 229.384L818.72 230.344C818.976 230.792 819.2 231.368 819.424 231.944H811.872V234.664H830.496V231.944ZM811.552 235.24H806.24L808.512 234.312C808.192 233.192 807.392 231.368 806.624 230.056L803.936 231.016C804.64 232.328 805.312 234.056 805.6 235.24H801.056V238.216H811.552V235.24ZM810.528 239.656H802.368V242.536H810.528V239.656ZM802.368 246.856H810.528V244.008H802.368V246.856ZM808 251.336V255.112H804.736V251.336H808ZM810.72 248.424H802.048V259.368H804.736V258.024H810.72V248.424ZM819.424 248.136H822.816V249.16H819.424V248.136ZM819.424 244.808H822.816V245.864H819.424V244.808ZM815.712 237.512H817.76V239.176H815.712V237.512ZM824.544 237.512H826.688V239.176H824.544V237.512ZM828.64 251.816C827.872 252.36 826.656 253.096 825.536 253.672C825.024 253.096 824.576 252.456 824.192 251.752H830.88V249.16H826.24V248.136H829.792V245.864H826.24V244.808H830.176V242.536H826.24V241.128H829.568V235.528H821.824V241.128H822.816V242.536H819.424V241.128H820.608V235.528H812.992V241.128H816.064V242.536H812.544V244.808H816.064V245.864H812.96V248.136H816.064V249.16H811.52V251.752H816.32C814.688 252.616 812.768 253.288 810.88 253.736C811.392 254.248 812.256 255.496 812.608 256.104C813.632 255.784 814.624 255.368 815.616 254.92C815.488 256.296 814.656 257.16 814.112 257.608C814.624 258.056 815.392 259.176 815.68 259.752C816.256 259.4 817.248 259.08 822.368 258.088C822.272 257.352 822.208 256.136 822.24 255.272L818.528 255.88V253.352C819.296 252.872 820.032 252.328 820.64 251.752H821.056C822.592 255.656 825.248 258.408 829.504 259.688C829.888 258.888 830.752 257.672 831.456 257C829.92 256.648 828.608 256.104 827.456 255.368C828.512 254.888 829.632 254.312 830.56 253.64L828.64 251.816ZM853.056 245.576C853.12 244.328 853.152 243.144 853.152 242.056V241.8H857.792V245.576H853.056ZM857.792 234.76V238.44H853.152V234.76H857.792ZM839.008 245.576C839.072 244.584 839.072 243.688 839.072 242.792V241.8H843.104V245.576H839.008ZM843.104 234.76V238.44H839.072V234.76H843.104ZM861.472 231.304H849.536V242.056C849.536 246.728 849.28 252.936 846.4 257.384C846.592 256.84 846.656 256.168 846.656 255.304V231.304H835.552V242.824C835.552 247.496 835.36 253.736 832.64 257.928C833.536 258.312 835.04 259.272 835.712 259.848C837.568 256.904 838.432 252.84 838.816 248.968H843.104V255.304C843.104 255.688 842.976 255.848 842.592 255.848C842.176 255.88 840.96 255.88 839.84 255.816C840.288 256.712 840.768 258.248 840.864 259.208C842.912 259.208 844.352 259.112 845.344 258.536C845.632 258.376 845.856 258.184 846.048 257.96C846.944 258.344 848.48 259.304 849.152 259.912C851.296 256.936 852.288 252.872 852.768 248.968H857.792V255.208C857.792 255.656 857.632 255.816 857.152 255.816C856.672 255.848 855.168 255.88 853.792 255.784C854.272 256.776 854.784 258.472 854.912 259.528C857.28 259.528 858.912 259.432 860 258.792C861.152 258.152 861.472 257.128 861.472 255.272V231.304ZM886.112 245.32C885.216 247.368 883.936 249.192 882.432 250.696C880.672 249.192 879.296 247.368 878.208 245.32H886.112ZM888.608 241.48L887.904 241.64H876.704C876.96 240.488 877.152 239.4 877.312 238.344H893.888V234.632H877.728C877.92 232.68 877.984 231.016 878.048 229.864H874.08C874.016 230.856 873.984 232.552 873.824 234.632H866.08V238.344H873.376C872.512 244.168 870.4 251.4 864.864 255.944C866.112 256.648 867.328 257.64 868.128 258.632C871.584 255.496 873.792 251.304 875.264 247.08C876.416 249.416 877.856 251.4 879.52 253.128C877.312 254.664 874.72 255.816 871.904 256.52C872.64 257.288 873.568 258.792 874.048 259.752C877.184 258.792 880.064 257.416 882.528 255.624C885.248 257.48 888.448 258.824 892.288 259.656C892.8 258.632 893.92 257 894.752 256.2C891.168 255.56 888.128 254.472 885.568 253C888.096 250.312 890.016 246.92 891.2 242.6L888.608 241.48ZM904.864 248.232H919.424V249.192H904.864V248.232ZM904.864 245.352H919.424V246.312H904.864V245.352ZM924.736 252.2H913.792V251.176H922.944V243.368H913.696C913.984 242.92 914.272 242.408 914.624 241.864L912.288 241.416L912.32 239.72C910.464 239.848 908.608 239.944 906.784 240.072V239.112H911.392V237.192H906.784V236.264H912.032V234.376H906.784V233.384H911.104V231.56H906.784V229.928H903.264V231.56H899.136V233.384H903.264V234.376H897.92V236.264H903.264V237.192H898.656V239.112H903.264V240.264C901.184 240.36 899.296 240.456 897.76 240.52L897.952 242.792C901.408 242.6 906.144 242.248 910.816 241.896C910.688 242.376 910.496 242.888 910.304 243.368H901.472V251.176H910.048V252.2H899.776V259.24H903.456V254.824H910.048V259.784H913.792V254.824H920.992V256.104C920.992 256.488 920.864 256.584 920.416 256.616C920 256.616 918.464 256.616 917.088 256.552C917.536 257.32 918.08 258.408 918.304 259.272C920.416 259.272 922.048 259.272 923.2 258.856C924.384 258.44 924.736 257.704 924.736 256.136V252.2ZM923.456 232.456V229.928H919.968V232.456H912.256V235.208H915.552L913.248 236.392C914.208 237.544 915.296 239.112 915.744 240.136L918.368 238.728C917.856 237.736 916.768 236.296 915.744 235.208H919.968V239.624C919.968 239.976 919.872 240.104 919.456 240.104C919.104 240.104 917.792 240.104 916.672 240.072C917.056 240.776 917.632 241.928 917.856 242.728C919.776 242.728 921.088 242.696 922.144 242.28C923.168 241.832 923.456 241.192 923.456 239.72V235.208H926.464V232.456H923.456ZM931.456 245.576C932.288 243.176 932.768 239.368 932.832 236.584L930.112 236.2C929.952 238.888 929.472 242.44 928.672 244.552L931.456 245.576ZM958.944 239.72V236.072H949.728L952.864 234.824C952.32 233.416 951.232 231.112 950.368 229.384L946.592 230.728C947.328 232.392 948.256 234.568 948.736 236.072H940.384V238.76C939.904 237.608 939.36 236.36 938.88 235.304L937.056 236.072V229.896H933.344V259.784H937.056V237.48C937.792 239.24 938.528 241.256 938.848 242.568L941.376 241.352C941.216 240.904 941.024 240.328 940.768 239.72H942.912V252.68C942.912 257.128 944.288 258.664 948.64 258.664H954.592C956.064 258.664 957.664 258.6 958.4 258.344C958.208 257.416 958.08 255.72 957.984 254.728C957.184 254.92 955.776 255.016 954.688 255.016H948.48C947.104 255.016 946.752 254.472 946.752 252.84V239.72H958.944ZM969.248 234.44V238.6H966.144V234.44H969.248ZM966.144 246.568V241.928H969.248V246.568H966.144ZM978.208 244.584H985.376V248.008H978.208V244.584ZM966.144 249.96H972.736V239.176C973.472 239.88 974.24 241.032 974.56 241.832L974.624 241.8V251.08H989.152V241.544H975.456C979.744 240.04 981.28 237.672 981.952 234.344H986.368C986.208 236.168 986.016 237.032 985.728 237.32C985.472 237.576 985.216 237.64 984.768 237.64C984.256 237.64 983.2 237.608 981.984 237.512C982.496 238.344 982.848 239.592 982.912 240.552C984.352 240.616 985.792 240.584 986.592 240.488C987.456 240.392 988.192 240.136 988.8 239.464C989.536 238.664 989.824 236.648 990.08 232.296C990.112 231.848 990.144 231.016 990.144 231.016H973.664V234.344H978.208C977.632 236.488 976.352 238.024 972.736 239.016V231.112H962.56V251.464H966.144V249.96ZM964.8 259.944C966.144 258.056 967.68 255.208 968.736 252.776L965.056 251.752C964.064 254.12 962.432 256.776 961.12 258.344L964.8 259.944ZM970.368 252.968C970.72 255.144 970.976 257.992 970.976 259.656L974.72 259.08C974.688 257.384 974.304 254.664 973.888 252.552L970.368 252.968ZM977.12 252.904C977.856 255.048 978.592 257.864 978.784 259.528L982.592 258.76C982.304 257 981.504 254.312 980.704 252.264L977.12 252.904ZM983.712 252.872C985.024 255.048 986.56 257.992 987.2 259.784L990.88 258.216C990.144 256.392 988.48 253.576 987.168 251.528L983.712 252.872ZM1018.56 241.192H1013.06V239.272H1018.56V241.192ZM1018.56 245.8H1013.06V243.816H1018.56V245.8ZM1018.56 250.344H1013.06V248.456H1018.56V250.344ZM1009.95 236.424V253.192H1021.76V236.424H1017.22C1017.41 235.784 1017.6 235.08 1017.79 234.376H1022.56V231.176H1009.28V234.376H1014.02C1013.95 235.048 1013.89 235.752 1013.79 236.424H1009.95ZM1001.22 254.408H1003.3V255.56H1001.22V254.408ZM999.552 243.08C999.104 244.648 998.432 246.216 997.568 247.528C997.664 245.96 997.696 244.456 997.728 243.08H999.552ZM1005.09 238.504V240.264H997.728V238.504H1005.09ZM1003.3 249.032H1001.22V247.912H1003.3V249.032ZM1003.3 252.264H1001.22V251.112H1003.3V252.264ZM1008.99 255.56H1005.76V254.408H1008.45V252.264H1005.76V251.112H1008.42V249.032H1005.76V247.912H1008.74V245.544H1006.08C1005.82 244.776 1005.41 243.848 1004.99 243.112L1002.5 243.752C1002.75 244.296 1003.01 244.936 1003.23 245.544H1001.57C1001.79 244.904 1002.02 244.296 1002.21 243.656L1000.1 243.08H1008.48V235.688H997.728V234.728C1001.47 234.376 1005.57 233.768 1008.64 232.872L1005.89 230.344C1003.2 231.176 998.656 231.88 994.624 232.2V241.896C994.624 246.568 994.496 253.288 992.704 257.928C993.504 258.216 994.912 258.984 995.52 259.464C996.48 257 997.024 253.96 997.312 250.824C997.568 251.208 997.76 251.56 997.888 251.784C998.08 251.56 998.272 251.336 998.464 251.112V259.496H1001.22V258.024H1008.38C1009.06 258.6 1009.82 259.336 1010.27 259.816C1012.13 258.856 1014.3 257 1015.62 255.4L1012.64 253.608C1011.87 254.632 1010.43 256.008 1008.99 256.936V255.56ZM1016.48 255.336C1017.82 256.616 1019.46 258.408 1020.19 259.592L1023.07 257.672C1022.24 256.52 1020.54 254.824 1019.2 253.672L1016.48 255.336ZM1054.46 233.448H1044.9L1046.62 232.712C1046.18 231.848 1045.22 230.44 1044.48 229.416L1040.99 230.76C1041.47 231.592 1042.11 232.584 1042.56 233.448H1034.11V236.264H1054.46V233.448ZM1036.42 244.424H1051.78V241.768H1036.42V244.424ZM1051.78 237.64H1036.42V240.296H1051.78V237.64ZM1039.62 248.616H1048.32V251.304H1039.62V248.616ZM1036.06 254.024H1052.06V245.928H1036.06V254.024ZM1033.31 234.696C1032.35 233.416 1030.59 231.432 1029.06 229.896L1026.24 231.656C1027.71 233.224 1029.54 235.432 1030.43 236.776L1033.31 234.696ZM1032.64 244.968L1032.03 245.064H1029.7C1031.39 242.888 1033.44 239.976 1034.62 238.216L1032.32 237.16L1031.94 237.32H1025.44V240.36H1029.57C1028.35 242.056 1027.07 243.816 1026.46 244.392C1025.86 245.032 1025.31 245.288 1024.83 245.416C1025.12 246.088 1025.82 247.72 1026.02 248.488C1026.3 248.232 1027.23 248.008 1028 248.008H1030.69C1029.63 252.36 1027.58 255.496 1024.64 257.256C1025.34 257.736 1026.59 259.08 1027.07 259.816C1028.61 258.76 1030.02 257.352 1031.17 255.496C1033.6 258.632 1037.28 259.24 1043.04 259.24C1046.78 259.24 1050.82 259.176 1054.11 258.952C1054.3 257.928 1054.82 256.2 1055.36 255.432C1051.74 255.784 1046.53 255.976 1043.1 255.976C1038.05 255.944 1034.56 255.56 1032.61 252.584C1033.44 250.6 1034.08 248.296 1034.46 245.64L1032.64 244.968ZM1085.02 245.448C1084.64 245.448 1084.61 245.256 1084.61 244.744V241.512H1082.46V244.712C1082.46 246.312 1082.75 247.048 1084.42 247.048H1085.54C1086.02 247.048 1086.56 247.016 1086.85 246.92C1086.78 246.408 1086.75 245.8 1086.72 245.32C1086.4 245.416 1085.79 245.448 1085.47 245.448H1085.02ZM1081.63 247.304V240.552H1086.18V237.704H1081.63V236.232H1078.78V237.704H1074.94V240.552H1078.78V247.304H1081.63ZM1086.4 235.56V232.264H1075.49C1075.26 231.432 1074.94 230.44 1074.62 229.64L1070.78 230.344C1070.94 230.888 1071.14 231.592 1071.3 232.264H1059.3V241.064C1059.3 245.832 1059.14 252.68 1057.06 257.448C1057.82 257.8 1059.46 259.016 1060.1 259.688C1062.46 254.504 1062.91 246.28 1062.91 241.064V235.56H1086.4ZM1070.24 247.24V240.552H1074.11V237.704H1070.24V236.232H1067.39V237.704H1063.9V240.552H1067.39V247.24H1070.24ZM1066.53 241.544H1064.45V242.792C1064.45 243.88 1064.26 245.48 1063.04 246.376C1063.58 246.664 1064.48 247.4 1064.86 247.848C1066.3 246.472 1066.53 244.52 1066.53 242.888V241.544ZM1078.4 252.968C1078.94 253.64 1079.58 254.376 1080.19 255.112L1071.26 255.752C1074.69 254.088 1078.24 252.04 1081.54 249.64L1078.72 247.752C1077.41 248.84 1075.94 249.832 1074.46 250.76L1069.7 250.984C1071.42 250.088 1073.22 248.968 1074.75 247.816L1072.8 246.568H1072.83H1073.41C1073.82 246.568 1074.27 246.536 1074.53 246.44L1074.5 246.12C1075.04 246.44 1075.81 247.048 1076.16 247.496C1077.63 246.184 1077.86 244.328 1077.86 242.792V241.48H1075.78V242.696C1075.78 243.688 1075.58 245.032 1074.5 245.928C1074.46 245.576 1074.46 245.256 1074.43 244.936C1074.14 245.032 1073.66 245.032 1073.41 245.032C1073.09 245.032 1073.06 244.872 1073.06 244.392V241.672H1071.04V244.36C1071.04 245.48 1071.2 246.12 1071.9 246.408C1069.95 248.136 1067.36 249.608 1066.53 249.992C1065.76 250.44 1065.09 250.728 1064.45 250.792C1064.77 251.592 1065.18 253.032 1065.31 253.608C1065.82 253.416 1066.59 253.256 1070.72 253C1069.15 253.896 1067.81 254.536 1067.1 254.824C1065.47 255.624 1064.38 256.072 1063.3 256.232C1063.62 257.096 1064.06 258.664 1064.19 259.272C1065.34 258.888 1067.14 258.856 1082.18 257.768C1082.66 258.376 1083.07 258.984 1083.39 259.464L1086.3 257.896C1085.12 256.264 1082.78 253.544 1081.12 251.688L1078.4 252.968ZM1108.1 234.536L1107.36 234.728H1100.83C1101.38 233.448 1101.86 232.2 1102.27 230.856L1098.08 229.928C1096.32 235.976 1093.09 241.48 1088.8 244.712C1089.79 245.384 1091.52 246.824 1092.22 247.56C1094.78 245.288 1097.12 242.184 1099.04 238.568H1105.76C1102.85 247.336 1096.77 253.352 1089.15 256.392C1090.11 257.096 1091.52 258.856 1092.13 259.816C1097.28 257.512 1101.95 253.704 1105.47 248.392C1108.03 253.384 1111.58 257.352 1116.42 259.688C1117.02 258.664 1118.27 257.064 1119.2 256.264C1113.95 254.088 1109.95 249.576 1107.81 244.328C1109.06 241.768 1110.11 238.92 1110.88 235.816L1108.1 234.536Z" fill="white"/>
<path d="M708.754 308.75C707.214 311.417 703.365 311.417 701.825 308.75L694.464 296C692.924 293.333 694.849 290 697.928 290H712.651C715.73 290 717.654 293.333 716.115 296L708.754 308.75Z" fill="#332200"/>
</svg>
