<svg width="240" height="224" viewBox="0 0 240 224" fill="none" xmlns="http://www.w3.org/2000/svg">
<path fill-rule="evenodd" clip-rule="evenodd" d="M118.503 0L197.62 72.0507H198L198 72.3963L198 160H38V72.0507H38.3843L118.503 0ZM73.083 92.5373L68.4387 84.4931L60.9451 97.4723C52.2348 103.302 46.5 113.232 46.5 124.5V160H111.5V124.5C111.5 113.257 105.791 103.348 97.1147 97.5125L89.5979 84.4931L84.95 92.5434C83.021 92.1865 81.0323 92 79 92C76.9793 92 75.0017 92.1844 73.083 92.5373Z" fill="#FFB423"/>
<path fill-rule="evenodd" clip-rule="evenodd" d="M102.627 119.887C105.074 121.601 107.911 122.341 110.679 122.188V160H174.797V122.428C178.276 123.297 182.099 122.71 185.267 120.492C191.068 116.43 192.478 108.434 188.416 102.632L173.705 81.6229C170.429 76.9433 164.592 75.121 159.413 76.723C154.555 73.7586 148.846 72.0507 142.738 72.0507C137.243 72.0507 132.071 73.433 127.551 75.869C122.617 74.743 117.27 76.6167 114.188 81.0182L99.4775 102.027C95.4152 107.829 96.8251 115.825 102.627 119.887Z" fill="#6E7D00"/>
<path d="M6.30573 186.115C6.0828 186.115 5.97134 186.227 5.97134 186.45V186.545C5.97134 187.278 5.71656 187.899 5.20701 188.408C4.69745 188.918 4.07643 189.173 3.34395 189.173C2.64331 189.173 2.03822 188.918 1.52866 188.408C1.01911 187.899 0.764331 187.278 0.764331 186.545V184.205C0.764331 183.44 1.03503 182.787 1.57643 182.246C2.11783 181.673 2.78662 181.386 3.5828 181.386H18.6306C18.8854 181.386 19.0127 181.275 19.0127 181.052C19.0127 180.287 19.2834 179.635 19.8248 179.093C20.3662 178.552 21.0191 178.281 21.7834 178.281H22.0223C22.7866 178.281 23.4395 178.552 23.9809 179.093C24.5223 179.635 24.793 180.287 24.793 181.052C24.793 181.275 24.9204 181.386 25.1752 181.386H40.3662C41.1624 181.386 41.8312 181.673 42.3726 182.246C42.914 182.787 43.1847 183.44 43.1847 184.205V186.45C43.1847 187.182 42.914 187.819 42.3726 188.361C41.8631 188.902 41.2261 189.173 40.4618 189.173C39.6975 189.173 39.0446 188.902 38.5032 188.361C37.9936 187.819 37.7389 187.182 37.7389 186.45C37.7389 186.227 37.6115 186.115 37.3567 186.115H6.30573ZM7.78662 213.536C7.78662 213.759 7.91401 213.87 8.16879 213.87H15.3822C15.6369 213.87 15.7643 213.759 15.7643 213.536V212.437C15.7643 212.182 15.6369 212.055 15.3822 212.055H8.16879C7.91401 212.055 7.78662 212.182 7.78662 212.437V213.536ZM15.7643 207.517C15.7643 207.294 15.6369 207.182 15.3822 207.182H8.16879C7.91401 207.182 7.78662 207.294 7.78662 207.517V208.52C7.78662 208.775 7.91401 208.902 8.16879 208.902H15.3822C15.6369 208.902 15.7643 208.775 15.7643 208.52V207.517ZM18.2006 203.313C18.965 203.313 19.6178 203.6 20.1592 204.173C20.7325 204.714 21.0191 205.367 21.0191 206.131V219.364C21.0191 220.479 20.8758 221.322 20.5892 221.896C20.3344 222.469 19.8567 222.931 19.1561 223.281C18.2325 223.663 16.8312 223.87 14.9522 223.902C14.9204 223.902 14.9045 223.902 14.9045 223.902C14.3312 223.902 13.8057 223.711 13.328 223.329C12.8503 222.947 12.5 222.453 12.2771 221.848C12.086 221.402 12.1178 220.988 12.3726 220.606C12.6592 220.224 13.0414 220.033 13.5191 220.033C14.2834 220.033 14.793 220.017 15.0478 219.985C15.3344 219.953 15.5255 219.889 15.621 219.794C15.7166 219.73 15.7643 219.571 15.7643 219.316V217.405C15.7643 217.182 15.6369 217.071 15.3822 217.071H8.16879C7.91401 217.071 7.78662 217.182 7.78662 217.405V221.418C7.78662 222.119 7.53185 222.708 7.02229 223.186C6.54459 223.695 5.95541 223.95 5.25478 223.95C4.55414 223.95 3.94904 223.695 3.43949 223.186C2.96178 222.708 2.72293 222.119 2.72293 221.418V206.131C2.72293 205.367 2.99363 204.714 3.53503 204.173C4.07643 203.6 4.74522 203.313 5.5414 203.313H18.2006ZM14.5223 194.475C14.5541 194.38 14.5382 194.3 14.4745 194.236C14.4427 194.141 14.379 194.093 14.2834 194.093H8.88535C8.78981 194.093 8.71019 194.141 8.6465 194.236C8.61465 194.3 8.61465 194.364 8.6465 194.428C9.06051 195.447 9.36306 196.37 9.55414 197.198C9.58599 197.421 9.71338 197.533 9.93631 197.533H13.1369C13.3917 197.533 13.551 197.421 13.6147 197.198C13.9968 196.211 14.2994 195.303 14.5223 194.475ZM19.2038 194.093V194.141C19.3631 194.173 19.4745 194.268 19.5382 194.428C19.6338 194.555 19.6497 194.698 19.586 194.857C19.172 195.94 18.8376 196.721 18.5828 197.198C18.551 197.294 18.551 197.373 18.5828 197.437C18.6465 197.501 18.7261 197.533 18.8217 197.533H20.9713C21.5127 197.533 21.9904 197.74 22.4045 198.154C22.8185 198.536 23.0255 199.014 23.0255 199.587C23.0255 200.16 22.8185 200.654 22.4045 201.068C21.9904 201.45 21.5127 201.641 20.9713 201.641H2.05414C1.48089 201.641 0.987261 201.45 0.573248 201.068C0.191083 200.654 0 200.16 0 199.587C0 199.014 0.191083 198.536 0.573248 198.154C0.987261 197.74 1.48089 197.533 2.05414 197.533H4.34713C4.60191 197.533 4.69745 197.421 4.63376 197.198C4.47452 196.434 4.23567 195.606 3.9172 194.714C3.8535 194.587 3.8535 194.459 3.9172 194.332C4.01274 194.205 4.1242 194.141 4.25159 194.141V194.093H2.91401C2.37261 194.093 1.91083 193.902 1.52866 193.52C1.1465 193.138 0.955414 192.692 0.955414 192.182C0.955414 191.641 1.1465 191.179 1.52866 190.797C1.91083 190.415 2.37261 190.224 2.91401 190.224H8.98089C9.17197 190.224 9.26752 190.128 9.26752 189.937C9.26752 189.3 9.47452 188.759 9.88853 188.313C10.3344 187.867 10.8758 187.644 11.5127 187.644H11.9904C12.6274 187.644 13.1529 187.867 13.5669 188.313C14.0127 188.759 14.2357 189.3 14.2357 189.937C14.2357 190.128 14.3312 190.224 14.5223 190.224H20.4459C20.9873 190.224 21.449 190.415 21.8312 190.797C22.2134 191.179 22.4045 191.641 22.4045 192.182C22.4045 192.692 22.2134 193.138 21.8312 193.52C21.449 193.902 20.9873 194.093 20.4459 194.093H19.2038ZM31.7675 219.412H38.2643C38.8694 219.412 39.3153 219.3 39.6019 219.077C39.8885 218.854 40.0955 218.408 40.2229 217.74C40.2548 217.517 40.1433 217.405 39.8885 217.405H29.6178C29.3631 217.405 29.2516 217.517 29.2834 217.74C29.2834 218.472 29.4268 218.934 29.7134 219.125C30.0318 219.316 30.7166 219.412 31.7675 219.412ZM39.793 214.491C40.3981 214.491 40.9076 214.714 41.3217 215.16C41.7675 215.574 41.9904 216.084 41.9904 216.689C41.9904 216.88 42.0701 217.007 42.2293 217.071C42.2293 217.071 42.2611 217.071 42.3248 217.071C43.0892 217.389 43.6943 217.867 44.1401 218.504C44.3949 218.95 44.5223 219.38 44.5223 219.794C44.5223 220.049 44.4745 220.319 44.379 220.606C43.9968 221.752 43.3758 222.549 42.5159 222.994C41.6561 223.472 40.414 223.711 38.7898 223.711H31.0032C28.2962 223.711 26.449 223.281 25.4618 222.421C24.4745 221.593 23.9809 219.969 23.9809 217.549V203.647C23.9809 202.851 24.2516 202.182 24.793 201.641C25.3662 201.1 26.035 200.829 26.7994 200.829H36.5446C36.7675 200.829 36.879 200.701 36.879 200.447V199.252C36.879 199.029 36.7675 198.918 36.5446 198.918H26.7994C26.035 198.918 25.3662 198.647 24.793 198.106C24.2516 197.533 23.9809 196.864 23.9809 196.1V190.271C23.9809 189.539 24.2357 188.918 24.7452 188.408C25.2548 187.867 25.8758 187.596 26.6083 187.596H26.9427C27.5796 187.596 28.121 187.835 28.5669 188.313C29.0446 188.759 29.2834 189.3 29.2834 189.937C29.2834 190.16 29.379 190.271 29.5701 190.271H40.8917C41.4013 190.271 41.8312 190.447 42.1815 190.797C42.5318 191.147 42.707 191.577 42.707 192.087C42.707 192.564 42.5318 192.979 42.1815 193.329C41.8312 193.679 41.4013 193.854 40.8917 193.854H29.6178C29.3949 193.854 29.2834 193.982 29.2834 194.236V195.144C29.2834 195.367 29.3949 195.479 29.6178 195.479H39.4586C40.2229 195.479 40.8758 195.765 41.4172 196.338C41.9904 196.88 42.2771 197.533 42.2771 198.297V201.402C42.2771 202.198 41.9904 202.867 41.4172 203.408C40.8758 203.95 40.2229 204.221 39.4586 204.221H29.6178C29.3949 204.221 29.2834 204.348 29.2834 204.603V205.367C29.2834 205.59 29.3949 205.701 29.6178 205.701H39.6019C39.9841 205.701 40.3185 205.845 40.6051 206.131C40.8917 206.418 41.035 206.768 41.035 207.182C41.035 207.596 40.8917 207.947 40.6051 208.233C40.3185 208.52 39.9841 208.663 39.6019 208.663H29.6178C29.3949 208.663 29.2834 208.775 29.2834 208.998V209.762C29.2834 209.985 29.3949 210.096 29.6178 210.096H39.4108C39.793 210.096 40.1274 210.24 40.414 210.526C40.7006 210.813 40.8439 211.163 40.8439 211.577C40.8439 211.991 40.7006 212.342 40.414 212.628C40.1274 212.915 39.793 213.058 39.4108 213.058H29.6178C29.3949 213.058 29.2834 213.17 29.2834 213.393V214.157C29.2834 214.38 29.3949 214.491 29.6178 214.491H39.793Z" fill="#FFB423"/>
<path d="M63.8694 200.542C64.0924 200.479 64.3153 200.447 64.5382 200.447C64.9522 200.447 65.3662 200.574 65.7803 200.829C66.3535 201.211 66.6879 201.736 66.7834 202.405C66.8153 202.564 66.8312 202.724 66.8312 202.883C66.8312 203.424 66.672 203.95 66.3535 204.459C65.9395 205.064 65.3822 205.478 64.6815 205.701C63.344 206.147 62.5318 206.402 62.2452 206.466C62.0223 206.561 61.9108 206.721 61.9108 206.943V221.322C61.9108 222.055 61.6401 222.676 61.0987 223.186C60.5892 223.727 59.9682 223.998 59.2357 223.998C58.5032 223.998 57.8662 223.727 57.3248 223.186C56.8153 222.676 56.5605 222.055 56.5605 221.322V208.568C56.5605 208.472 56.5287 208.408 56.465 208.377C56.4013 208.313 56.3217 208.281 56.2261 208.281C55.7803 208.44 55.0796 208.663 54.1242 208.95C53.1688 209.236 52.4363 209.443 51.9268 209.571C51.672 209.666 51.4172 209.714 51.1624 209.714C50.6847 209.714 50.2389 209.587 49.8248 209.332C49.1561 208.95 48.7261 208.377 48.535 207.612L48.4873 207.564C48.4236 207.31 48.3917 207.071 48.3917 206.848C48.3917 206.37 48.535 205.908 48.8217 205.463C49.2357 204.794 49.8089 204.364 50.5414 204.173C52.1656 203.791 54.0605 203.297 56.2261 202.692C56.449 202.628 56.5605 202.469 56.5605 202.214V193.615C56.5605 193.361 56.4331 193.233 56.1783 193.233H53.6465C53.3917 193.233 53.2484 193.345 53.2166 193.568C52.8981 194.905 52.5796 196.1 52.2612 197.15C52.1019 197.756 51.7197 198.138 51.1147 198.297C50.8917 198.393 50.6847 198.44 50.4936 198.44C50.1433 198.44 49.793 198.329 49.4427 198.106C48.8694 197.724 48.4554 197.198 48.2006 196.529C48.0732 196.147 48.0096 195.765 48.0096 195.383C48.0096 195.096 48.0573 194.794 48.1529 194.475C48.9172 191.673 49.5064 188.01 49.9204 183.488C49.9841 182.851 50.2866 182.326 50.828 181.912C51.242 181.593 51.6879 181.434 52.1656 181.434C52.293 181.434 52.4363 181.45 52.5955 181.482C53.2643 181.577 53.8057 181.912 54.2197 182.485C54.5701 182.931 54.7452 183.44 54.7452 184.014C54.7452 184.109 54.7452 184.221 54.7452 184.348C54.6178 185.303 54.4745 186.307 54.3153 187.357C54.2834 187.58 54.379 187.692 54.6019 187.692H56.1783C56.4331 187.692 56.5605 187.58 56.5605 187.357V181.004C56.5605 180.24 56.8153 179.603 57.3248 179.093C57.8662 178.584 58.5032 178.329 59.2357 178.329C59.9682 178.329 60.5892 178.584 61.0987 179.093C61.6401 179.603 61.9108 180.24 61.9108 181.004V187.357C61.9108 187.58 62.0223 187.692 62.2452 187.692H63.2006C63.965 187.692 64.6178 187.963 65.1592 188.504C65.7006 189.045 65.9713 189.698 65.9713 190.463C65.9713 191.227 65.7006 191.88 65.1592 192.421C64.6178 192.963 63.965 193.233 63.2006 193.233H62.2452C62.0223 193.233 61.9108 193.361 61.9108 193.615V200.733C61.9108 200.829 61.9427 200.908 62.0064 200.972C62.0701 201.036 62.1497 201.052 62.2452 201.02L63.8694 200.542ZM75.1911 185.494C75.1911 185.59 75.207 185.67 75.2389 185.733C75.3026 185.797 75.3822 185.829 75.4777 185.829H90.6688C91.4331 185.829 92.086 186.115 92.6274 186.689C93.1369 187.198 93.3917 187.819 93.3917 188.552C93.3917 190.367 93.1529 195.017 92.6752 202.501C92.4522 206.195 92.1975 209.332 91.9108 211.912C91.6242 214.459 91.3057 216.418 90.9554 217.787C90.6051 219.125 90.1911 220.112 89.7134 220.749C89.172 221.514 88.6147 222.071 88.0414 222.421C87.4682 222.803 86.7516 223.09 85.8917 223.281C85.2229 223.408 84.3312 223.472 83.2166 223.472C83.1847 223.472 83.1688 223.472 83.1688 223.472C82.4045 223.472 81.7197 223.201 81.1147 222.66C80.5096 222.119 80.0955 221.45 79.8726 220.654C79.8408 220.558 79.8089 220.463 79.7771 220.367C79.7452 220.176 79.7293 219.985 79.7293 219.794C79.7293 219.38 79.8408 218.998 80.0637 218.647C80.4459 218.17 80.9395 217.931 81.5446 217.931C81.5446 217.931 81.5605 217.931 81.5924 217.931C82.0064 217.931 82.5159 217.931 83.121 217.931C83.8217 217.931 84.4268 217.628 84.9363 217.023C85.5732 216.195 86.1146 213.838 86.5605 209.953C87.0064 206.036 87.4204 199.842 87.8025 191.37C87.8025 191.275 87.7548 191.227 87.6592 191.227C87.5955 191.227 87.5637 191.259 87.5637 191.322C86.3854 197.342 84.6815 202.963 82.4522 208.186C80.2229 213.377 77.5159 217.596 74.3312 220.845C73.7898 221.418 73.1051 221.705 72.2771 221.705C71.4491 221.705 70.7166 221.466 70.0796 220.988C70.0159 220.956 69.9682 220.924 69.9363 220.893C69.3312 220.479 69.0287 219.889 69.0287 219.125C69.0287 218.552 69.2516 218.058 69.6974 217.644C72.7866 214.81 75.414 211.115 77.5796 206.561C79.7452 202.007 81.4172 197.007 82.5955 191.561C82.6592 191.338 82.5637 191.227 82.3089 191.227H80.7325C80.5096 191.227 80.3662 191.338 80.3025 191.561C79.3153 195.128 78.0096 198.615 76.3854 202.023C74.793 205.431 73.0255 208.297 71.0828 210.622C70.6051 211.195 69.9682 211.498 69.172 211.529C69.1083 211.529 69.0605 211.529 69.0287 211.529C68.2962 211.529 67.6433 211.307 67.0701 210.861C66.465 210.415 66.1624 209.81 66.1624 209.045C66.1624 208.44 66.3694 207.931 66.7834 207.517C68.5987 205.606 70.2548 203.249 71.7516 200.447C73.2484 197.644 74.4745 194.682 75.4299 191.561C75.4618 191.498 75.4459 191.434 75.3822 191.37C75.3503 191.275 75.2866 191.227 75.1911 191.227H73.4236C73.1688 191.227 72.9936 191.338 72.8981 191.561C71.9108 193.886 70.8121 195.956 69.6019 197.771C69.2197 198.377 68.6465 198.727 67.8822 198.822C67.7866 198.822 67.6752 198.822 67.5478 198.822C66.9427 198.822 66.3854 198.631 65.8758 198.249C65.3026 197.835 64.9522 197.262 64.8248 196.529C64.8248 196.37 64.8248 196.227 64.8248 196.1C64.8248 195.526 64.9841 195.017 65.3026 194.571C67.7229 191.068 69.6338 186.514 71.035 180.908C71.2261 180.176 71.6242 179.603 72.2293 179.189C72.707 178.87 73.2166 178.711 73.758 178.711C73.9172 178.711 74.0924 178.727 74.2834 178.759C74.9841 178.886 75.5414 179.252 75.9554 179.857C76.242 180.303 76.3854 180.749 76.3854 181.195C76.3854 181.418 76.3535 181.641 76.2898 181.864C75.9713 182.979 75.6051 184.189 75.1911 185.494Z" fill="#FFB423"/>
<path d="M141.736 187.262C142.277 187.803 142.548 188.456 142.548 189.221C142.548 189.985 142.277 190.638 141.736 191.179C141.194 191.721 140.541 191.991 139.777 191.991H126.497C126.242 191.991 126.115 192.119 126.115 192.373V197.533C126.115 197.756 126.242 197.867 126.497 197.867H137.436C138.201 197.867 138.854 198.154 139.395 198.727C139.904 199.236 140.159 199.842 140.159 200.542C140.159 205.224 139.809 210.224 139.108 215.542C138.726 218.536 138.153 220.51 137.389 221.466C136.815 222.166 136.21 222.676 135.573 222.994C134.936 223.313 134.14 223.536 133.185 223.663C132.357 223.759 131.178 223.807 129.65 223.807C129.554 223.807 129.443 223.807 129.315 223.807C128.551 223.807 127.85 223.536 127.213 222.994C126.608 222.485 126.178 221.816 125.924 220.988C125.892 220.861 125.86 220.717 125.828 220.558C125.732 220.335 125.685 220.128 125.685 219.937C125.685 219.587 125.796 219.252 126.019 218.934C126.338 218.424 126.783 218.17 127.357 218.17C127.389 218.17 127.404 218.17 127.404 218.17C128.296 218.201 129.315 218.217 130.462 218.217C131.322 218.217 131.943 218.01 132.325 217.596C132.803 217.15 133.185 215.861 133.471 213.727C133.758 211.561 134.013 208.186 134.236 203.6C134.236 203.377 134.124 203.265 133.901 203.265H126.306C126.051 203.265 125.908 203.377 125.876 203.6C124.984 211.625 121.465 217.915 115.318 222.469C114.745 222.851 114.156 223.042 113.551 223.042C113.424 223.042 113.28 223.026 113.121 222.994C112.357 222.899 111.656 222.564 111.019 221.991C110.924 221.928 110.828 221.848 110.732 221.752C110.255 221.307 110.016 220.765 110.016 220.128C110.016 219.396 110.303 218.807 110.876 218.361C112.85 216.896 114.49 215.319 115.796 213.631C117.102 211.943 118.057 210.208 118.662 208.424C119.299 206.641 119.729 205.017 119.952 203.552C120.175 202.055 120.287 200.463 120.287 198.775V192.373C120.287 192.119 120.175 191.991 119.952 191.991H113.694C113.471 191.991 113.36 192.119 113.36 192.373V192.66C113.36 193.456 113.073 194.125 112.5 194.666C111.959 195.208 111.306 195.479 110.541 195.479H109.013C108.79 195.479 108.678 195.606 108.678 195.861V206.609C108.678 206.705 108.71 206.784 108.774 206.848C108.838 206.88 108.917 206.88 109.013 206.848C109.49 206.689 110.175 206.45 111.067 206.131C111.354 206.004 111.64 205.94 111.927 205.94C112.309 205.94 112.691 206.052 113.073 206.275C113.71 206.625 114.108 207.166 114.268 207.899C114.299 208.154 114.315 208.393 114.315 208.615C114.315 209.157 114.188 209.666 113.933 210.144C113.551 210.877 112.978 211.386 112.213 211.673C108.169 213.233 104.443 214.65 101.035 215.924C100.717 216.052 100.414 216.115 100.127 216.115C99.7134 216.115 99.3153 216.02 98.9331 215.829C98.2643 215.479 97.8344 214.937 97.6433 214.205L97.5 213.679C97.4045 213.393 97.3567 213.122 97.3567 212.867C97.3567 212.389 97.4841 211.928 97.7389 211.482C98.121 210.813 98.6784 210.351 99.4108 210.096C100.462 209.746 101.545 209.396 102.659 209.045C102.882 208.982 102.994 208.822 102.994 208.568V195.861C102.994 195.606 102.866 195.479 102.611 195.479H100.366C99.6338 195.479 98.9968 195.224 98.4554 194.714C97.914 194.173 97.6433 193.52 97.6433 192.756C97.6433 191.991 97.914 191.338 98.4554 190.797C98.9968 190.256 99.6338 189.985 100.366 189.985H102.611C102.866 189.985 102.994 189.873 102.994 189.65V182.007C102.994 181.243 103.264 180.59 103.806 180.049C104.347 179.475 105.016 179.189 105.812 179.189H105.86C106.624 179.189 107.277 179.475 107.818 180.049C108.392 180.59 108.678 181.243 108.678 182.007V189.65C108.678 189.873 108.79 189.985 109.013 189.985H112.118C112.341 189.985 112.452 189.873 112.452 189.65V189.268C112.452 188.472 112.723 187.803 113.264 187.262C113.838 186.721 114.506 186.45 115.271 186.45H124.061C124.283 186.45 124.395 186.322 124.395 186.068V181.1C124.395 180.303 124.666 179.635 125.207 179.093C125.78 178.552 126.449 178.281 127.213 178.281H127.357C128.153 178.281 128.822 178.552 129.363 179.093C129.904 179.635 130.175 180.303 130.175 181.1V186.068C130.175 186.322 130.303 186.45 130.557 186.45H139.777C140.541 186.45 141.194 186.721 141.736 187.262Z" fill="#FFB423"/>
<path d="M170.637 200.638C170.637 200.383 170.51 200.256 170.255 200.256H167.15C166.895 200.256 166.768 200.383 166.768 200.638V201.259C166.768 204.889 166.545 208.106 166.099 210.908C166.067 211.163 166.162 211.307 166.385 211.338C167.086 211.402 167.866 211.434 168.726 211.434C169.236 211.434 169.65 211.243 169.968 210.861C170.318 210.224 170.541 206.816 170.637 200.638ZM185.016 197.724C185.207 196.991 185.621 196.434 186.258 196.052C186.704 195.733 187.197 195.574 187.739 195.574C187.898 195.574 188.073 195.59 188.264 195.622C188.965 195.749 189.522 196.115 189.936 196.721C190.191 197.135 190.318 197.564 190.318 198.01C190.318 198.233 190.287 198.456 190.223 198.679C188.694 204.157 186.752 208.791 184.395 212.58C184.268 212.803 184.22 213.026 184.252 213.249C185.048 216.402 185.892 217.979 186.783 217.979C187.357 217.979 187.739 216.402 187.93 213.249C187.962 212.771 188.201 212.437 188.646 212.246C189.124 212.055 189.554 212.119 189.936 212.437C191.21 213.393 191.847 214.491 191.847 215.733C191.847 215.893 191.831 216.068 191.799 216.259C191.385 218.934 190.748 220.781 189.889 221.8C189.061 222.851 187.803 223.377 186.115 223.377C183.917 223.377 182.07 221.673 180.573 218.265C180.478 218.042 180.35 218.026 180.191 218.217C178.885 219.714 177.436 221.084 175.844 222.326C175.303 222.74 174.713 222.947 174.076 222.947C173.949 222.947 173.822 222.947 173.694 222.947C172.93 222.851 172.245 222.517 171.64 221.943C171.194 221.529 170.971 221.004 170.971 220.367C170.971 219.635 171.258 219.045 171.831 218.6C174.315 216.816 176.497 214.666 178.376 212.15C178.535 211.959 178.583 211.752 178.519 211.529C177.436 206.307 176.704 199.348 176.322 190.654C176.322 190.431 176.194 190.319 175.939 190.319H167.15C166.895 190.319 166.768 190.431 166.768 190.654V195.24C166.768 195.463 166.895 195.574 167.15 195.574H172.643C173.439 195.574 174.092 195.861 174.602 196.434C175.143 196.975 175.414 197.612 175.414 198.345C175.414 202.803 175.287 206.641 175.032 209.857C174.873 212.087 174.57 213.504 174.124 214.109C173.424 215.064 172.516 215.638 171.401 215.829C171.051 215.893 170.589 215.956 170.016 216.02C169.952 216.02 169.889 216.02 169.825 216.02C169.124 216.02 168.503 215.765 167.962 215.256C167.357 214.746 166.943 214.077 166.72 213.249C166.561 212.676 166.369 212.182 166.146 211.768C166.115 211.705 166.067 211.689 166.003 211.721C165.971 211.721 165.939 211.736 165.908 211.768C165.589 213.711 165.127 215.542 164.522 217.262C163.917 218.982 163.153 220.542 162.229 221.943C161.815 222.549 161.242 222.867 160.51 222.899C160.446 222.899 160.398 222.899 160.366 222.899C159.666 222.899 159.045 222.66 158.503 222.182C157.962 221.705 157.627 221.1 157.5 220.367C157.5 220.208 157.5 220.049 157.5 219.889C157.5 219.348 157.643 218.822 157.93 218.313C158.885 216.784 159.618 215.096 160.127 213.249C160.159 213.186 160.143 213.138 160.08 213.106C160.016 213.042 159.952 213.01 159.889 213.01C158.646 213.52 156.895 214.252 154.634 215.208C152.373 216.131 150.892 216.736 150.191 217.023C149.873 217.15 149.538 217.214 149.188 217.214C148.838 217.214 148.487 217.135 148.137 216.975C147.436 216.657 146.975 216.131 146.752 215.399L146.608 214.969C146.513 214.682 146.465 214.396 146.465 214.109C146.465 213.663 146.576 213.233 146.799 212.819C147.15 212.15 147.691 211.689 148.424 211.434C148.774 211.338 149.459 211.115 150.478 210.765C150.701 210.701 150.812 210.542 150.812 210.287V195.622C150.812 195.367 150.701 195.24 150.478 195.24H149.236C148.503 195.24 147.866 194.985 147.325 194.475C146.815 193.934 146.561 193.297 146.561 192.564C146.561 191.8 146.815 191.163 147.325 190.654C147.866 190.112 148.503 189.842 149.236 189.842H150.478C150.701 189.842 150.812 189.73 150.812 189.507V181.577C150.812 180.845 151.067 180.224 151.576 179.714C152.118 179.173 152.755 178.902 153.487 178.902C154.252 178.902 154.889 179.173 155.398 179.714C155.939 180.224 156.21 180.845 156.21 181.577V189.507C156.21 189.73 156.322 189.842 156.545 189.842H157.309C158.073 189.842 158.71 190.112 159.22 190.654C159.761 191.163 160.032 191.8 160.032 192.564C160.032 193.297 159.761 193.934 159.22 194.475C158.71 194.985 158.073 195.24 157.309 195.24H156.545C156.322 195.24 156.21 195.367 156.21 195.622V208.377C156.21 208.472 156.242 208.552 156.306 208.615C156.369 208.647 156.449 208.647 156.545 208.615L157.309 208.329C157.596 208.233 157.866 208.186 158.121 208.186C158.535 208.186 158.933 208.297 159.315 208.52C159.952 208.902 160.35 209.459 160.51 210.192L160.605 210.622C160.605 210.686 160.621 210.717 160.653 210.717C160.685 210.717 160.717 210.686 160.748 210.622C161.194 208.201 161.417 205.08 161.417 201.259V187.835C161.417 187.071 161.688 186.418 162.229 185.877C162.803 185.303 163.471 185.017 164.236 185.017H175.796C176.051 185.017 176.178 184.905 176.178 184.682C176.115 182.485 176.083 181.227 176.083 180.908C176.083 180.176 176.338 179.539 176.847 178.998C177.389 178.488 178.041 178.233 178.806 178.233C179.57 178.233 180.207 178.504 180.717 179.045C181.258 179.555 181.529 180.192 181.529 180.956V181.625C181.529 182.644 181.529 183.663 181.529 184.682C181.529 184.905 181.656 185.017 181.911 185.017H185.016C185.08 185.017 185.127 184.985 185.159 184.921C185.191 184.857 185.191 184.794 185.159 184.73C184.586 183.87 183.917 182.994 183.153 182.103C182.866 181.721 182.723 181.307 182.723 180.861C182.723 180.733 182.723 180.622 182.723 180.526C182.818 179.953 183.121 179.507 183.631 179.189C184.108 178.902 184.602 178.759 185.111 178.759C185.239 178.759 185.366 178.775 185.494 178.807C186.194 178.87 186.768 179.157 187.213 179.666C187.946 180.463 188.599 181.227 189.172 181.959C189.427 182.31 189.554 182.676 189.554 183.058C189.554 183.217 189.538 183.377 189.506 183.536C189.379 184.109 189.045 184.555 188.503 184.873C188.503 184.873 188.503 184.905 188.503 184.969C188.535 185.001 188.551 185.017 188.551 185.017H188.599C189.268 185.017 189.825 185.256 190.271 185.733C190.748 186.179 190.987 186.736 190.987 187.405V187.644C190.987 188.377 190.732 189.014 190.223 189.555C189.713 190.064 189.092 190.319 188.36 190.319H182.006C181.752 190.319 181.64 190.431 181.672 190.654C181.927 196.068 182.277 200.542 182.723 204.077C182.723 204.141 182.739 204.173 182.771 204.173C182.834 204.173 182.882 204.157 182.914 204.125C183.71 202.214 184.411 200.08 185.016 197.724Z" fill="#FFB423"/>
<path d="M240 187.262C240 188.058 239.713 188.727 239.14 189.268C238.599 189.81 237.946 190.08 237.182 190.08H220.844C220.589 190.08 220.462 190.208 220.462 190.463V194.857C220.462 195.112 220.589 195.24 220.844 195.24H233.073C233.838 195.24 234.49 195.526 235.032 196.1C235.605 196.641 235.892 197.294 235.892 198.058V211.768C235.892 213.233 235.701 214.38 235.318 215.208C234.936 216.036 234.268 216.673 233.312 217.119C232.006 217.66 230.048 217.979 227.436 218.074C227.404 218.074 227.373 218.074 227.341 218.074C226.608 218.074 225.924 217.819 225.287 217.31C224.65 216.8 224.204 216.147 223.949 215.351C223.885 215.224 223.838 215.096 223.806 214.969C223.71 214.714 223.662 214.475 223.662 214.252C223.662 213.902 223.774 213.552 223.997 213.201C224.347 212.692 224.841 212.437 225.478 212.437C226.497 212.437 227.596 212.437 228.774 212.437C229.475 212.437 229.825 212.182 229.825 211.673V201.259C229.825 201.036 229.713 200.924 229.49 200.924H220.844C220.589 200.924 220.462 201.036 220.462 201.259V221.179C220.462 221.975 220.191 222.644 219.65 223.186C219.108 223.727 218.439 223.998 217.643 223.998H217.213C216.449 223.998 215.78 223.727 215.207 223.186C214.666 222.644 214.395 221.975 214.395 221.179V201.259C214.395 201.036 214.283 200.924 214.061 200.924H206.226C205.971 200.924 205.844 201.036 205.844 201.259V215.256C205.844 216.052 205.573 216.721 205.032 217.262C204.49 217.803 203.822 218.074 203.025 218.074H202.787C202.022 218.074 201.354 217.803 200.78 217.262C200.239 216.721 199.968 216.052 199.968 215.256V198.058C199.968 197.294 200.239 196.641 200.78 196.1C201.354 195.526 202.022 195.24 202.787 195.24H214.061C214.283 195.24 214.395 195.112 214.395 194.857V190.463C214.395 190.208 214.283 190.08 214.061 190.08H198.201C197.436 190.08 196.768 189.81 196.194 189.268C195.653 188.727 195.382 188.058 195.382 187.262C195.382 186.466 195.653 185.797 196.194 185.256C196.768 184.714 197.436 184.443 198.201 184.443H214.013C214.236 184.443 214.347 184.316 214.347 184.061V180.908C214.347 180.112 214.618 179.443 215.159 178.902C215.732 178.361 216.401 178.09 217.166 178.09H217.739C218.535 178.09 219.204 178.361 219.745 178.902C220.287 179.443 220.557 180.112 220.557 180.908V184.061C220.557 184.316 220.685 184.443 220.939 184.443H237.182C237.946 184.443 238.599 184.714 239.14 185.256C239.713 185.797 240 186.466 240 187.262Z" fill="#FFB423"/>
</svg>
